<MIDI midiNo="2023_05_14-11_38_35"><target_notes><notes name="Note List">[{"pitch": 39, "velocity": 100, "note_on_time": 0.007, "note_off_time": 0.728}, {"pitch": 42, "velocity": 100, "note_on_time": 0.728, "note_off_time": 1.443}, {"pitch": 42, "velocity": 100, "note_on_time": 1.444, "note_off_time": 2.162}, {"pitch": 39, "velocity": 100, "note_on_time": 2.162, "note_off_time": 2.88}, {"pitch": 42, "velocity": 100, "note_on_time": 2.88, "note_off_time": 3.598}, {"pitch": 67, "velocity": 100, "note_on_time": 3.598, "note_off_time": 4.315}, {"pitch": 42, "velocity": 100, "note_on_time": 3.598, "note_off_time": 4.316}, {"pitch": 72, "velocity": 100, "note_on_time": 4.315, "note_off_time": 5.033}, {"pitch": 39, "velocity": 100, "note_on_time": 4.316, "note_off_time": 5.033}, {"pitch": 72, "velocity": 100, "note_on_time": 5.033, "note_off_time": 5.751}, {"pitch": 42, "velocity": 100, "note_on_time": 5.033, "note_off_time": 5.752}, {"pitch": 74, "velocity": 100, "note_on_time": 5.751, "note_off_time": 6.465}, {"pitch": 42, "velocity": 100, "note_on_time": 5.752, "note_off_time": 6.465}, {"pitch": 39, "velocity": 100, "note_on_time": 6.465, "note_off_time": 7.181}, {"pitch": 76, "velocity": 100, "note_on_time": 6.465, "note_off_time": 7.894}, {"pitch": 42, "velocity": 100, "note_on_time": 7.182, "note_off_time": 7.895}, {"pitch": 67, "velocity": 100, "note_on_time": 7.894, "note_off_time": 8.609}, {"pitch": 42, "velocity": 100, "note_on_time": 7.895, "note_off_time": 8.61}, {"pitch": 39, "velocity": 100, "note_on_time": 8.61, "note_off_time": 9.326}, {"pitch": 72, "velocity": 100, "note_on_time": 8.609, "note_off_time": 10.042}, {"pitch": 42, "velocity": 100, "note_on_time": 9.326, "note_off_time": 10.042}, {"pitch": 76, "velocity": 100, "note_on_time": 10.042, "note_off_time": 10.758}, {"pitch": 42, "velocity": 100, "note_on_time": 10.042, "note_off_time": 10.758}, {"pitch": 39, "velocity": 100, "note_on_time": 10.758, "note_off_time": 11.472}, {"pitch": 74, "velocity": 100, "note_on_time": 10.758, "note_off_time": 12.184}, {"pitch": 42, "velocity": 100, "note_on_time": 11.472, "note_off_time": 12.185}, {"pitch": 67, "velocity": 100, "note_on_time": 12.184, "note_off_time": 12.902}, {"pitch": 42, "velocity": 100, "note_on_time": 12.185, "note_off_time": 12.903}, {"pitch": 39, "velocity": 100, "note_on_time": 12.903, "note_off_time": 13.617}, {"pitch": 74, "velocity": 100, "note_on_time": 12.902, "note_off_time": 14.329}, {"pitch": 42, "velocity": 100, "note_on_time": 13.617, "note_off_time": 14.329}, {"pitch": 76, "velocity": 100, "note_on_time": 14.329, "note_off_time": 15.044}, {"pitch": 42, "velocity": 100, "note_on_time": 14.33, "note_off_time": 15.044}, {"pitch": 77, "velocity": 100, "note_on_time": 15.044, "note_off_time": 15.756}, {"pitch": 39, "velocity": 100, "note_on_time": 15.044, "note_off_time": 15.756}, {"pitch": 74, "velocity": 100, "note_on_time": 15.756, "note_off_time": 16.471}, {"pitch": 42, "velocity": 100, "note_on_time": 15.757, "note_off_time": 16.471}, {"pitch": 71, "velocity": 100, "note_on_time": 16.471, "note_off_time": 17.184}, {"pitch": 42, "velocity": 100, "note_on_time": 16.471, "note_off_time": 17.184}, {"pitch": 67, "velocity": 100, "note_on_time": 17.184, "note_off_time": 17.899}, {"pitch": 39, "velocity": 100, "note_on_time": 17.184, "note_off_time": 17.899}, {"pitch": 69, "velocity": 100, "note_on_time": 17.899, "note_off_time": 18.617}, {"pitch": 42, "velocity": 100, "note_on_time": 17.899, "note_off_time": 18.617}, {"pitch": 71, "velocity": 100, "note_on_time": 18.617, "note_off_time": 19.335}, {"pitch": 42, "velocity": 100, "note_on_time": 18.617, "note_off_time": 19.336}, {"pitch": 39, "velocity": 100, "note_on_time": 19.336, "note_off_time": 20.051}, {"pitch": 72, "velocity": 100, "note_on_time": 19.335, "note_off_time": 20.765}, {"pitch": 42, "velocity": 100, "note_on_time": 20.051, "note_off_time": 20.765}, {"pitch": 67, "velocity": 100, "note_on_time": 20.765, "note_off_time": 21.479}, {"pitch": 42, "velocity": 100, "note_on_time": 20.766, "note_off_time": 21.479}, {"pitch": 39, "velocity": 100, "note_on_time": 21.48, "note_off_time": 22.196}, {"pitch": 72, "velocity": 100, "note_on_time": 21.479, "note_off_time": 22.911}, {"pitch": 42, "velocity": 100, "note_on_time": 22.196, "note_off_time": 22.912}, {"pitch": 74, "velocity": 100, "note_on_time": 22.911, "note_off_time": 23.625}, {"pitch": 42, "velocity": 100, "note_on_time": 22.912, "note_off_time": 23.626}, {"pitch": 76, "velocity": 100, "note_on_time": 23.625, "note_off_time": 24.338}, {"pitch": 39, "velocity": 100, "note_on_time": 23.626, "note_off_time": 24.338}, {"pitch": 76, "velocity": 100, "note_on_time": 24.338, "note_off_time": 25.051}, {"pitch": 42, "velocity": 100, "note_on_time": 24.338, "note_off_time": 25.051}, {"pitch": 67, "velocity": 100, "note_on_time": 25.051, "note_off_time": 25.766}, {"pitch": 42, "velocity": 100, "note_on_time": 25.051, "note_off_time": 25.767}, {"pitch": 39, "velocity": 100, "note_on_time": 25.767, "note_off_time": 26.479}, {"pitch": 72, "velocity": 100, "note_on_time": 25.766, "note_off_time": 27.195}, {"pitch": 42, "velocity": 100, "note_on_time": 26.48, "note_off_time": 27.195}, {"pitch": 76, "velocity": 100, "note_on_time": 27.195, "note_off_time": 27.906}, {"pitch": 42, "velocity": 100, "note_on_time": 27.196, "note_off_time": 27.907}, {"pitch": 39, "velocity": 100, "note_on_time": 27.907, "note_off_time": 28.625}, {"pitch": 42, "velocity": 100, "note_on_time": 28.625, "note_off_time": 29.34}, {"pitch": 74, "velocity": 100, "note_on_time": 27.906, "note_off_time": 30.057}, {"pitch": 42, "velocity": 100, "note_on_time": 29.341, "note_off_time": 30.057}, {"pitch": 39, "velocity": 100, "note_on_time": 30.058, "note_off_time": 30.774}, {"pitch": 74, "velocity": 100, "note_on_time": 30.057, "note_off_time": 31.49}, {"pitch": 42, "velocity": 100, "note_on_time": 30.774, "note_off_time": 31.49}, {"pitch": 76, "velocity": 100, "note_on_time": 31.49, "note_off_time": 32.208}, {"pitch": 42, "velocity": 100, "note_on_time": 31.49, "note_off_time": 32.208}, {"pitch": 77, "velocity": 100, "note_on_time": 32.208, "note_off_time": 32.924}, {"pitch": 39, "velocity": 100, "note_on_time": 32.208, "note_off_time": 32.924}, {"pitch": 74, "velocity": 100, "note_on_time": 32.924, "note_off_time": 33.641}, {"pitch": 42, "velocity": 100, "note_on_time": 32.925, "note_off_time": 33.642}, {"pitch": 71, "velocity": 100, "note_on_time": 33.641, "note_off_time": 34.356}, {"pitch": 42, "velocity": 100, "note_on_time": 33.642, "note_off_time": 34.356}, {"pitch": 67, "velocity": 100, "note_on_time": 34.356, "note_off_time": 35.069}, {"pitch": 39, "velocity": 100, "note_on_time": 34.356, "note_off_time": 35.069}, {"pitch": 69, "velocity": 100, "note_on_time": 35.069, "note_off_time": 35.782}, {"pitch": 42, "velocity": 100, "note_on_time": 35.07, "note_off_time": 35.783}, {"pitch": 71, "velocity": 100, "note_on_time": 35.782, "note_off_time": 36.496}, {"pitch": 42, "velocity": 100, "note_on_time": 35.783, "note_off_time": 36.496}, {"pitch": 39, "velocity": 100, "note_on_time": 36.497, "note_off_time": 37.213}, {"pitch": 72, "velocity": 100, "note_on_time": 36.496, "note_off_time": 37.927}, {"pitch": 42, "velocity": 100, "note_on_time": 37.213, "note_off_time": 37.927}, {"pitch": 42, "velocity": 100, "note_on_time": 37.927, "note_off_time": 38.639}]</notes><options name="Option List">((4, 4), [0.5, 0.25], 3, 7, &lt;NoteRangePerHand.TWO_NOTES: 3&gt;, &lt;NoteRangePerHand.ONE_NOTE: 2&gt;, False, True, True, None)</options></target_notes><trials><trial trial_no="1" timestamp="2023_05_14-11_38_35"><notes name="Played Notes">[{"pitch": 67, "velocity": 67, "note_on_time": 4.302, "note_off_time": 4.866}, {"pitch": 72, "velocity": 78, "note_on_time": 5.005, "note_off_time": 5.471}, {"pitch": 72, "velocity": 78, "note_on_time": 5.701, "note_off_time": 6.257}, {"pitch": 74, "velocity": 79, "note_on_time": 6.391, "note_off_time": 6.839}, {"pitch": 76, "velocity": 84, "note_on_time": 7.07, "note_off_time": 8.471}, {"pitch": 67, "velocity": 67, "note_on_time": 8.517, "note_off_time": 9.281}, {"pitch": 72, "velocity": 84, "note_on_time": 9.243, "note_off_time": 10.459}, {"pitch": 76, "velocity": 74, "note_on_time": 10.746, "note_off_time": 11.388}, {"pitch": 74, "velocity": 74, "note_on_time": 11.405, "note_off_time": 12.904}, {"pitch": 67, "velocity": 71, "note_on_time": 12.901, "note_off_time": 13.602}, {"pitch": 74, "velocity": 71, "note_on_time": 13.58, "note_off_time": 15.105}, {"pitch": 76, "velocity": 78, "note_on_time": 15.008, "note_off_time": 15.66}, {"pitch": 77, "velocity": 73, "note_on_time": 15.737, "note_off_time": 16.496}, {"pitch": 76, "velocity": 76, "note_on_time": 16.419, "note_off_time": 17.055}, {"pitch": 74, "velocity": 38, "note_on_time": 17.149, "note_off_time": 17.498}, {"pitch": 67, "velocity": 70, "note_on_time": 17.871, "note_off_time": 18.541}, {"pitch": 69, "velocity": 73, "note_on_time": 18.561, "note_off_time": 19.275}, {"pitch": 71, "velocity": 82, "note_on_time": 19.264, "note_off_time": 19.983}, {"pitch": 72, "velocity": 81, "note_on_time": 20.032, "note_off_time": 21.186}, {"pitch": 67, "velocity": 54, "note_on_time": 21.478, "note_off_time": 22.053}, {"pitch": 72, "velocity": 69, "note_on_time": 22.106, "note_off_time": 22.992}, {"pitch": 74, "velocity": 61, "note_on_time": 23.475, "note_off_time": 23.97}, {"pitch": 76, "velocity": 77, "note_on_time": 24.212, "note_off_time": 24.767}, {"pitch": 76, "velocity": 69, "note_on_time": 24.968, "note_off_time": 25.579}, {"pitch": 67, "velocity": 65, "note_on_time": 25.716, "note_off_time": 26.404}, {"pitch": 72, "velocity": 79, "note_on_time": 26.511, "note_off_time": 27.875}, {"pitch": 76, "velocity": 76, "note_on_time": 27.916, "note_off_time": 28.562}, {"pitch": 74, "velocity": 76, "note_on_time": 28.603, "note_off_time": 30.336}, {"pitch": 74, "velocity": 76, "note_on_time": 30.71, "note_off_time": 31.528}, {"pitch": 76, "velocity": 79, "note_on_time": 32.092, "note_off_time": 32.587}, {"pitch": 77, "velocity": 71, "note_on_time": 32.822, "note_off_time": 33.487}, {"pitch": 74, "velocity": 70, "note_on_time": 33.559, "note_off_time": 34.273}, {"pitch": 71, "velocity": 58, "note_on_time": 34.283, "note_off_time": 34.351}, {"pitch": 72, "velocity": 63, "note_on_time": 34.281, "note_off_time": 34.787}, {"pitch": 67, "velocity": 28, "note_on_time": 34.942, "note_off_time": 35.699}, {"pitch": 69, "velocity": 78, "note_on_time": 35.727, "note_off_time": 36.516}, {"pitch": 71, "velocity": 74, "note_on_time": 36.483, "note_off_time": 37.171}]</notes><guidance name="Guidance Mode">None</guidance><error name="Error value">0.3093975514461833</error></trial></trials></MIDI>