<MIDI midiNo="2023_05_14-10_42_48"><target_notes><notes name="Note List">[{"pitch": 39, "velocity": 100, "note_on_time": 0.007, "note_off_time": 0.728}, {"pitch": 42, "velocity": 100, "note_on_time": 0.728, "note_off_time": 1.442}, {"pitch": 42, "velocity": 100, "note_on_time": 1.442, "note_off_time": 2.156}, {"pitch": 39, "velocity": 100, "note_on_time": 2.156, "note_off_time": 2.871}, {"pitch": 42, "velocity": 100, "note_on_time": 2.871, "note_off_time": 3.585}, {"pitch": 62, "velocity": 100, "note_on_time": 3.585, "note_off_time": 4.299}, {"pitch": 42, "velocity": 100, "note_on_time": 3.585, "note_off_time": 4.299}, {"pitch": 67, "velocity": 100, "note_on_time": 4.299, "note_off_time": 5.017}, {"pitch": 39, "velocity": 100, "note_on_time": 4.299, "note_off_time": 5.017}, {"pitch": 67, "velocity": 100, "note_on_time": 5.017, "note_off_time": 5.731}, {"pitch": 42, "velocity": 100, "note_on_time": 5.017, "note_off_time": 5.731}, {"pitch": 67, "velocity": 100, "note_on_time": 5.731, "note_off_time": 6.446}, {"pitch": 42, "velocity": 100, "note_on_time": 5.731, "note_off_time": 6.447}, {"pitch": 69, "velocity": 100, "note_on_time": 6.446, "note_off_time": 7.161}, {"pitch": 39, "velocity": 100, "note_on_time": 6.447, "note_off_time": 7.161}, {"pitch": 62, "velocity": 100, "note_on_time": 7.161, "note_off_time": 7.876}, {"pitch": 42, "velocity": 100, "note_on_time": 7.161, "note_off_time": 7.876}, {"pitch": 62, "velocity": 100, "note_on_time": 7.876, "note_off_time": 8.589}, {"pitch": 42, "velocity": 100, "note_on_time": 7.877, "note_off_time": 8.589}, {"pitch": 69, "velocity": 100, "note_on_time": 8.589, "note_off_time": 9.306}, {"pitch": 39, "velocity": 100, "note_on_time": 8.589, "note_off_time": 9.306}, {"pitch": 69, "velocity": 100, "note_on_time": 9.306, "note_off_time": 10.022}, {"pitch": 42, "velocity": 100, "note_on_time": 9.306, "note_off_time": 10.023}, {"pitch": 69, "velocity": 100, "note_on_time": 10.022, "note_off_time": 10.739}, {"pitch": 42, "velocity": 100, "note_on_time": 10.023, "note_off_time": 10.739}, {"pitch": 71, "velocity": 100, "note_on_time": 10.739, "note_off_time": 11.453}, {"pitch": 39, "velocity": 100, "note_on_time": 10.739, "note_off_time": 11.453}, {"pitch": 67, "velocity": 100, "note_on_time": 11.453, "note_off_time": 12.169}, {"pitch": 42, "velocity": 100, "note_on_time": 11.453, "note_off_time": 12.169}, {"pitch": 74, "velocity": 100, "note_on_time": 12.169, "note_off_time": 12.885}, {"pitch": 42, "velocity": 100, "note_on_time": 12.169, "note_off_time": 12.886}, {"pitch": 74, "velocity": 100, "note_on_time": 12.885, "note_off_time": 13.6}, {"pitch": 39, "velocity": 100, "note_on_time": 12.886, "note_off_time": 13.6}, {"pitch": 71, "velocity": 100, "note_on_time": 13.6, "note_off_time": 13.958}, {"pitch": 74, "velocity": 100, "note_on_time": 13.958, "note_off_time": 14.316}, {"pitch": 42, "velocity": 100, "note_on_time": 13.601, "note_off_time": 14.316}, {"pitch": 71, "velocity": 100, "note_on_time": 14.316, "note_off_time": 14.671}, {"pitch": 74, "velocity": 100, "note_on_time": 14.671, "note_off_time": 15.027}, {"pitch": 42, "velocity": 100, "note_on_time": 14.316, "note_off_time": 15.028}, {"pitch": 72, "velocity": 100, "note_on_time": 15.027, "note_off_time": 15.741}, {"pitch": 39, "velocity": 100, "note_on_time": 15.028, "note_off_time": 15.741}, {"pitch": 69, "velocity": 100, "note_on_time": 15.741, "note_off_time": 16.453}, {"pitch": 42, "velocity": 100, "note_on_time": 15.742, "note_off_time": 16.453}, {"pitch": 72, "velocity": 100, "note_on_time": 16.453, "note_off_time": 17.167}, {"pitch": 42, "velocity": 100, "note_on_time": 16.453, "note_off_time": 17.167}, {"pitch": 72, "velocity": 100, "note_on_time": 17.167, "note_off_time": 17.882}, {"pitch": 39, "velocity": 100, "note_on_time": 17.168, "note_off_time": 17.882}, {"pitch": 69, "velocity": 100, "note_on_time": 17.882, "note_off_time": 18.24}, {"pitch": 72, "velocity": 100, "note_on_time": 18.24, "note_off_time": 18.597}, {"pitch": 42, "velocity": 100, "note_on_time": 17.882, "note_off_time": 18.597}, {"pitch": 69, "velocity": 100, "note_on_time": 18.597, "note_off_time": 18.956}, {"pitch": 72, "velocity": 100, "note_on_time": 18.956, "note_off_time": 19.313}, {"pitch": 42, "velocity": 100, "note_on_time": 18.597, "note_off_time": 19.314}, {"pitch": 39, "velocity": 100, "note_on_time": 19.314, "note_off_time": 20.03}, {"pitch": 71, "velocity": 100, "note_on_time": 19.313, "note_off_time": 20.744}, {"pitch": 42, "velocity": 100, "note_on_time": 20.03, "note_off_time": 20.744}, {"pitch": 74, "velocity": 100, "note_on_time": 20.744, "note_off_time": 21.46}, {"pitch": 42, "velocity": 100, "note_on_time": 20.744, "note_off_time": 21.46}, {"pitch": 79, "velocity": 100, "note_on_time": 21.46, "note_off_time": 21.818}, {"pitch": 78, "velocity": 100, "note_on_time": 21.818, "note_off_time": 22.174}, {"pitch": 39, "velocity": 100, "note_on_time": 21.46, "note_off_time": 22.174}, {"pitch": 76, "velocity": 100, "note_on_time": 22.174, "note_off_time": 22.533}, {"pitch": 74, "velocity": 100, "note_on_time": 22.533, "note_off_time": 22.891}, {"pitch": 42, "velocity": 100, "note_on_time": 22.175, "note_off_time": 22.891}, {"pitch": 72, "velocity": 100, "note_on_time": 22.891, "note_off_time": 23.248}, {"pitch": 71, "velocity": 100, "note_on_time": 23.248, "note_off_time": 23.605}, {"pitch": 42, "velocity": 100, "note_on_time": 22.891, "note_off_time": 23.606}, {"pitch": 74, "velocity": 100, "note_on_time": 23.605, "note_off_time": 24.319}, {"pitch": 39, "velocity": 100, "note_on_time": 23.606, "note_off_time": 24.32}, {"pitch": 72, "velocity": 100, "note_on_time": 24.319, "note_off_time": 25.03}, {"pitch": 42, "velocity": 100, "note_on_time": 24.32, "note_off_time": 25.031}, {"pitch": 69, "velocity": 100, "note_on_time": 25.03, "note_off_time": 25.744}, {"pitch": 42, "velocity": 100, "note_on_time": 25.031, "note_off_time": 25.745}, {"pitch": 62, "velocity": 100, "note_on_time": 25.744, "note_off_time": 26.103}, {"pitch": 64, "velocity": 100, "note_on_time": 26.103, "note_off_time": 26.463}, {"pitch": 39, "velocity": 100, "note_on_time": 25.745, "note_off_time": 26.463}, {"pitch": 66, "velocity": 100, "note_on_time": 26.463, "note_off_time": 26.819}, {"pitch": 67, "velocity": 100, "note_on_time": 26.819, "note_off_time": 27.177}, {"pitch": 42, "velocity": 100, "note_on_time": 26.464, "note_off_time": 27.178}, {"pitch": 69, "velocity": 100, "note_on_time": 27.177, "note_off_time": 27.538}, {"pitch": 66, "velocity": 100, "note_on_time": 27.538, "note_off_time": 27.895}, {"pitch": 42, "velocity": 100, "note_on_time": 27.178, "note_off_time": 27.895}, {"pitch": 39, "velocity": 100, "note_on_time": 27.896, "note_off_time": 28.608}, {"pitch": 67, "velocity": 100, "note_on_time": 27.895, "note_off_time": 29.323}, {"pitch": 42, "velocity": 100, "note_on_time": 28.608, "note_off_time": 29.324}, {"pitch": 42, "velocity": 100, "note_on_time": 29.324, "note_off_time": 30.04}]</notes><options name="Option List">((4, 4), [0.5, 0.25], 3, 7, &lt;NoteRangePerHand.TWO_NOTES: 3&gt;, &lt;NoteRangePerHand.ONE_NOTE: 2&gt;, False, True, True, None)</options></target_notes><trials><trial trial_no="1" timestamp="2023_05_14-10_42_48"><notes name="Played Notes">[{"pitch": 53, "velocity": 72, "note_on_time": 8.18, "note_off_time": 8.43}, {"pitch": 52, "velocity": 80, "note_on_time": 8.429, "note_off_time": 8.58}, {"pitch": 53, "velocity": 72, "note_on_time": 8.601, "note_off_time": 8.768}, {"pitch": 52, "velocity": 73, "note_on_time": 8.77, "note_off_time": 8.895}, {"pitch": 53, "velocity": 69, "note_on_time": 8.861, "note_off_time": 9.004}, {"pitch": 55, "velocity": 49, "note_on_time": 9.002, "note_off_time": 9.09}, {"pitch": 57, "velocity": 70, "note_on_time": 9.035, "note_off_time": 9.57}, {"pitch": 60, "velocity": 56, "note_on_time": 9.734, "note_off_time": 9.943}, {"pitch": 62, "velocity": 54, "note_on_time": 9.963, "note_off_time": 10.131}, {"pitch": 64, "velocity": 49, "note_on_time": 10.03, "note_off_time": 10.164}, {"pitch": 59, "velocity": 53, "note_on_time": 10.176, "note_off_time": 10.24}, {"pitch": 60, "velocity": 57, "note_on_time": 10.262, "note_off_time": 10.417}, {"pitch": 69, "velocity": 59, "note_on_time": 10.618, "note_off_time": 10.714}, {"pitch": 67, "velocity": 66, "note_on_time": 10.611, "note_off_time": 10.728}, {"pitch": 69, "velocity": 42, "note_on_time": 10.907, "note_off_time": 10.938}, {"pitch": 71, "velocity": 102, "note_on_time": 10.86, "note_off_time": 11.004}]</notes><guidance name="Guidance Mode">None</guidance><error name="Error value">1.5814475864898996</error></trial></trials></MIDI>