<MIDI midiNo="2023_05_14-12_42_42"><target_notes><notes name="Note List">[{"pitch": 39, "velocity": 100, "note_on_time": 0.007, "note_off_time": 0.715}, {"pitch": 42, "velocity": 100, "note_on_time": 0.715, "note_off_time": 1.435}, {"pitch": 42, "velocity": 100, "note_on_time": 1.436, "note_off_time": 2.148}, {"pitch": 39, "velocity": 100, "note_on_time": 2.148, "note_off_time": 2.864}, {"pitch": 42, "velocity": 100, "note_on_time": 2.864, "note_off_time": 3.581}, {"pitch": 67, "velocity": 100, "note_on_time": 3.581, "note_off_time": 4.301}, {"pitch": 42, "velocity": 100, "note_on_time": 3.582, "note_off_time": 4.301}, {"pitch": 72, "velocity": 100, "note_on_time": 4.301, "note_off_time": 5.016}, {"pitch": 39, "velocity": 100, "note_on_time": 4.302, "note_off_time": 5.016}, {"pitch": 72, "velocity": 100, "note_on_time": 5.016, "note_off_time": 5.73}, {"pitch": 42, "velocity": 100, "note_on_time": 5.016, "note_off_time": 5.731}, {"pitch": 74, "velocity": 100, "note_on_time": 5.73, "note_off_time": 6.445}, {"pitch": 42, "velocity": 100, "note_on_time": 5.731, "note_off_time": 6.445}, {"pitch": 39, "velocity": 100, "note_on_time": 6.445, "note_off_time": 7.16}, {"pitch": 76, "velocity": 100, "note_on_time": 6.445, "note_off_time": 7.875}, {"pitch": 42, "velocity": 100, "note_on_time": 7.16, "note_off_time": 7.875}, {"pitch": 67, "velocity": 100, "note_on_time": 7.875, "note_off_time": 8.592}, {"pitch": 42, "velocity": 100, "note_on_time": 7.875, "note_off_time": 8.592}, {"pitch": 39, "velocity": 100, "note_on_time": 8.593, "note_off_time": 9.308}, {"pitch": 72, "velocity": 100, "note_on_time": 8.592, "note_off_time": 10.024}, {"pitch": 42, "velocity": 100, "note_on_time": 9.309, "note_off_time": 10.024}, {"pitch": 76, "velocity": 100, "note_on_time": 10.024, "note_off_time": 10.739}, {"pitch": 42, "velocity": 100, "note_on_time": 10.025, "note_off_time": 10.739}, {"pitch": 39, "velocity": 100, "note_on_time": 10.74, "note_off_time": 11.458}, {"pitch": 74, "velocity": 100, "note_on_time": 10.739, "note_off_time": 12.172}, {"pitch": 42, "velocity": 100, "note_on_time": 11.458, "note_off_time": 12.173}, {"pitch": 67, "velocity": 100, "note_on_time": 12.172, "note_off_time": 12.889}, {"pitch": 42, "velocity": 100, "note_on_time": 12.173, "note_off_time": 12.889}, {"pitch": 39, "velocity": 100, "note_on_time": 12.889, "note_off_time": 13.608}, {"pitch": 74, "velocity": 100, "note_on_time": 12.889, "note_off_time": 14.324}, {"pitch": 42, "velocity": 100, "note_on_time": 13.608, "note_off_time": 14.324}, {"pitch": 76, "velocity": 100, "note_on_time": 14.324, "note_off_time": 15.039}, {"pitch": 42, "velocity": 100, "note_on_time": 14.325, "note_off_time": 15.04}, {"pitch": 77, "velocity": 100, "note_on_time": 15.039, "note_off_time": 15.753}, {"pitch": 39, "velocity": 100, "note_on_time": 15.04, "note_off_time": 15.754}, {"pitch": 74, "velocity": 100, "note_on_time": 15.753, "note_off_time": 16.467}, {"pitch": 42, "velocity": 100, "note_on_time": 15.754, "note_off_time": 16.467}, {"pitch": 71, "velocity": 100, "note_on_time": 16.467, "note_off_time": 17.184}, {"pitch": 42, "velocity": 100, "note_on_time": 16.467, "note_off_time": 17.184}, {"pitch": 67, "velocity": 100, "note_on_time": 17.184, "note_off_time": 17.9}, {"pitch": 39, "velocity": 100, "note_on_time": 17.185, "note_off_time": 17.9}, {"pitch": 69, "velocity": 100, "note_on_time": 17.9, "note_off_time": 18.614}, {"pitch": 42, "velocity": 100, "note_on_time": 17.9, "note_off_time": 18.614}, {"pitch": 71, "velocity": 100, "note_on_time": 18.614, "note_off_time": 19.33}, {"pitch": 42, "velocity": 100, "note_on_time": 18.615, "note_off_time": 19.33}, {"pitch": 39, "velocity": 100, "note_on_time": 19.33, "note_off_time": 20.046}, {"pitch": 72, "velocity": 100, "note_on_time": 19.33, "note_off_time": 20.757}, {"pitch": 42, "velocity": 100, "note_on_time": 20.046, "note_off_time": 20.757}, {"pitch": 67, "velocity": 100, "note_on_time": 20.757, "note_off_time": 21.476}, {"pitch": 42, "velocity": 100, "note_on_time": 20.757, "note_off_time": 21.476}, {"pitch": 39, "velocity": 100, "note_on_time": 21.476, "note_off_time": 22.188}, {"pitch": 72, "velocity": 100, "note_on_time": 21.476, "note_off_time": 22.906}, {"pitch": 42, "velocity": 100, "note_on_time": 22.188, "note_off_time": 22.906}, {"pitch": 74, "velocity": 100, "note_on_time": 22.906, "note_off_time": 23.62}, {"pitch": 42, "velocity": 100, "note_on_time": 22.906, "note_off_time": 23.62}, {"pitch": 76, "velocity": 100, "note_on_time": 23.62, "note_off_time": 24.331}, {"pitch": 39, "velocity": 100, "note_on_time": 23.62, "note_off_time": 24.331}, {"pitch": 76, "velocity": 100, "note_on_time": 24.331, "note_off_time": 25.045}, {"pitch": 42, "velocity": 100, "note_on_time": 24.332, "note_off_time": 25.045}, {"pitch": 67, "velocity": 100, "note_on_time": 25.045, "note_off_time": 25.761}, {"pitch": 42, "velocity": 100, "note_on_time": 25.045, "note_off_time": 25.762}, {"pitch": 39, "velocity": 100, "note_on_time": 25.762, "note_off_time": 26.479}, {"pitch": 72, "velocity": 100, "note_on_time": 25.761, "note_off_time": 27.194}, {"pitch": 42, "velocity": 100, "note_on_time": 26.479, "note_off_time": 27.194}, {"pitch": 76, "velocity": 100, "note_on_time": 27.194, "note_off_time": 27.912}, {"pitch": 42, "velocity": 100, "note_on_time": 27.194, "note_off_time": 27.913}, {"pitch": 39, "velocity": 100, "note_on_time": 27.913, "note_off_time": 28.629}, {"pitch": 42, "velocity": 100, "note_on_time": 28.629, "note_off_time": 29.346}, {"pitch": 74, "velocity": 100, "note_on_time": 27.912, "note_off_time": 30.062}, {"pitch": 42, "velocity": 100, "note_on_time": 29.346, "note_off_time": 30.062}, {"pitch": 39, "velocity": 100, "note_on_time": 30.063, "note_off_time": 30.776}, {"pitch": 74, "velocity": 100, "note_on_time": 30.062, "note_off_time": 31.491}, {"pitch": 42, "velocity": 100, "note_on_time": 30.776, "note_off_time": 31.492}, {"pitch": 76, "velocity": 100, "note_on_time": 31.491, "note_off_time": 32.209}, {"pitch": 42, "velocity": 100, "note_on_time": 31.492, "note_off_time": 32.21}, {"pitch": 77, "velocity": 100, "note_on_time": 32.209, "note_off_time": 32.927}, {"pitch": 39, "velocity": 100, "note_on_time": 32.21, "note_off_time": 32.927}, {"pitch": 74, "velocity": 100, "note_on_time": 32.927, "note_off_time": 33.641}, {"pitch": 42, "velocity": 100, "note_on_time": 32.927, "note_off_time": 33.642}, {"pitch": 71, "velocity": 100, "note_on_time": 33.641, "note_off_time": 34.357}, {"pitch": 42, "velocity": 100, "note_on_time": 33.642, "note_off_time": 34.357}, {"pitch": 67, "velocity": 100, "note_on_time": 34.357, "note_off_time": 35.072}, {"pitch": 39, "velocity": 100, "note_on_time": 34.357, "note_off_time": 35.073}, {"pitch": 69, "velocity": 100, "note_on_time": 35.072, "note_off_time": 35.789}, {"pitch": 42, "velocity": 100, "note_on_time": 35.073, "note_off_time": 35.789}, {"pitch": 71, "velocity": 100, "note_on_time": 35.789, "note_off_time": 36.505}, {"pitch": 42, "velocity": 100, "note_on_time": 35.79, "note_off_time": 36.505}, {"pitch": 39, "velocity": 100, "note_on_time": 36.505, "note_off_time": 37.226}, {"pitch": 72, "velocity": 100, "note_on_time": 36.505, "note_off_time": 37.942}, {"pitch": 42, "velocity": 100, "note_on_time": 37.226, "note_off_time": 37.942}, {"pitch": 42, "velocity": 100, "note_on_time": 37.942, "note_off_time": 38.66}]</notes><options name="Option List">((4, 4), [0.5, 0.25], 3, 7, &lt;NoteRangePerHand.TWO_NOTES: 3&gt;, &lt;NoteRangePerHand.ONE_NOTE: 2&gt;, False, True, True, None)</options></target_notes><trials><trial trial_no="1" timestamp="2023_05_14-12_42_42"><notes name="Played Notes">[{"pitch": 67, "velocity": 52, "note_on_time": 3.555, "note_off_time": 4.232}, {"pitch": 72, "velocity": 79, "note_on_time": 4.258, "note_off_time": 4.65}, {"pitch": 72, "velocity": 79, "note_on_time": 4.978, "note_off_time": 5.631}, {"pitch": 74, "velocity": 78, "note_on_time": 5.706, "note_off_time": 6.317}, {"pitch": 76, "velocity": 69, "note_on_time": 6.395, "note_off_time": 7.853}, {"pitch": 69, "velocity": 42, "note_on_time": 8.083, "note_off_time": 8.627}, {"pitch": 72, "velocity": 51, "note_on_time": 14.998, "note_off_time": 15.71}, {"pitch": 67, "velocity": 54, "note_on_time": 15.724, "note_off_time": 16.45}, {"pitch": 72, "velocity": 43, "note_on_time": 16.488, "note_off_time": 17.125}, {"pitch": 74, "velocity": 51, "note_on_time": 17.214, "note_off_time": 17.872}, {"pitch": 76, "velocity": 65, "note_on_time": 17.882, "note_off_time": 18.599}, {"pitch": 74, "velocity": 45, "note_on_time": 18.589, "note_off_time": 19.382}, {"pitch": 72, "velocity": 60, "note_on_time": 19.391, "note_off_time": 20.145}, {"pitch": 67, "velocity": 45, "note_on_time": 20.85, "note_off_time": 21.212}, {"pitch": 72, "velocity": 68, "note_on_time": 25.034, "note_off_time": 26.251}, {"pitch": 67, "velocity": 56, "note_on_time": 26.494, "note_off_time": 27.168}, {"pitch": 72, "velocity": 52, "note_on_time": 27.205, "note_off_time": 28.472}, {"pitch": 74, "velocity": 54, "note_on_time": 28.788, "note_off_time": 29.37}, {"pitch": 76, "velocity": 68, "note_on_time": 29.429, "note_off_time": 29.828}, {"pitch": 76, "velocity": 61, "note_on_time": 30.099, "note_off_time": 30.994}, {"pitch": 67, "velocity": 49, "note_on_time": 31.546, "note_off_time": 32.114}]</notes><guidance name="Guidance Mode">None</guidance><error name="Error value">1.4941505108717743</error></trial></trials></MIDI>