<MIDI midiNo="2023_05_14-11_37_35"><target_notes><notes name="Note List">[{"pitch": 39, "velocity": 100, "note_on_time": 0.008, "note_off_time": 0.725}, {"pitch": 42, "velocity": 100, "note_on_time": 0.725, "note_off_time": 1.444}, {"pitch": 42, "velocity": 100, "note_on_time": 1.444, "note_off_time": 2.162}, {"pitch": 39, "velocity": 100, "note_on_time": 2.162, "note_off_time": 2.879}, {"pitch": 42, "velocity": 100, "note_on_time": 2.879, "note_off_time": 3.594}, {"pitch": 62, "velocity": 100, "note_on_time": 3.594, "note_off_time": 4.311}, {"pitch": 42, "velocity": 100, "note_on_time": 3.595, "note_off_time": 4.311}, {"pitch": 62, "velocity": 100, "note_on_time": 4.311, "note_off_time": 5.023}, {"pitch": 39, "velocity": 100, "note_on_time": 4.311, "note_off_time": 5.024}, {"pitch": 62, "velocity": 100, "note_on_time": 5.023, "note_off_time": 5.739}, {"pitch": 42, "velocity": 100, "note_on_time": 5.024, "note_off_time": 5.739}, {"pitch": 62, "velocity": 100, "note_on_time": 5.739, "note_off_time": 6.455}, {"pitch": 42, "velocity": 100, "note_on_time": 5.74, "note_off_time": 6.455}, {"pitch": 39, "velocity": 100, "note_on_time": 6.455, "note_off_time": 7.17}, {"pitch": 62, "velocity": 100, "note_on_time": 6.455, "note_off_time": 7.884}, {"pitch": 42, "velocity": 100, "note_on_time": 7.17, "note_off_time": 7.884}, {"pitch": 62, "velocity": 100, "note_on_time": 7.884, "note_off_time": 8.599}, {"pitch": 42, "velocity": 100, "note_on_time": 7.884, "note_off_time": 8.6}, {"pitch": 39, "velocity": 100, "note_on_time": 8.6, "note_off_time": 9.312}, {"pitch": 62, "velocity": 100, "note_on_time": 8.599, "note_off_time": 10.024}, {"pitch": 42, "velocity": 100, "note_on_time": 9.312, "note_off_time": 10.025}, {"pitch": 62, "velocity": 100, "note_on_time": 10.024, "note_off_time": 10.739}, {"pitch": 42, "velocity": 100, "note_on_time": 10.025, "note_off_time": 10.74}, {"pitch": 39, "velocity": 100, "note_on_time": 10.74, "note_off_time": 11.45}, {"pitch": 62, "velocity": 100, "note_on_time": 10.739, "note_off_time": 12.166}, {"pitch": 42, "velocity": 100, "note_on_time": 11.451, "note_off_time": 12.167}, {"pitch": 62, "velocity": 100, "note_on_time": 12.166, "note_off_time": 12.882}, {"pitch": 42, "velocity": 100, "note_on_time": 12.167, "note_off_time": 12.882}, {"pitch": 39, "velocity": 100, "note_on_time": 12.883, "note_off_time": 13.6}, {"pitch": 62, "velocity": 100, "note_on_time": 12.882, "note_off_time": 14.319}, {"pitch": 42, "velocity": 100, "note_on_time": 13.6, "note_off_time": 14.319}, {"pitch": 62, "velocity": 100, "note_on_time": 14.319, "note_off_time": 15.034}, {"pitch": 42, "velocity": 100, "note_on_time": 14.319, "note_off_time": 15.034}, {"pitch": 62, "velocity": 100, "note_on_time": 15.034, "note_off_time": 15.754}, {"pitch": 39, "velocity": 100, "note_on_time": 15.034, "note_off_time": 15.754}, {"pitch": 62, "velocity": 100, "note_on_time": 15.754, "note_off_time": 16.467}, {"pitch": 42, "velocity": 100, "note_on_time": 15.754, "note_off_time": 16.468}, {"pitch": 62, "velocity": 100, "note_on_time": 16.467, "note_off_time": 17.183}, {"pitch": 42, "velocity": 100, "note_on_time": 16.468, "note_off_time": 17.183}, {"pitch": 62, "velocity": 100, "note_on_time": 17.183, "note_off_time": 17.898}, {"pitch": 39, "velocity": 100, "note_on_time": 17.183, "note_off_time": 17.898}, {"pitch": 62, "velocity": 100, "note_on_time": 17.898, "note_off_time": 18.616}, {"pitch": 42, "velocity": 100, "note_on_time": 17.898, "note_off_time": 18.616}, {"pitch": 62, "velocity": 100, "note_on_time": 18.616, "note_off_time": 19.331}, {"pitch": 42, "velocity": 100, "note_on_time": 18.617, "note_off_time": 19.331}, {"pitch": 39, "velocity": 100, "note_on_time": 19.332, "note_off_time": 20.048}, {"pitch": 62, "velocity": 100, "note_on_time": 19.331, "note_off_time": 20.757}, {"pitch": 42, "velocity": 100, "note_on_time": 20.048, "note_off_time": 20.757}, {"pitch": 62, "velocity": 100, "note_on_time": 20.757, "note_off_time": 21.474}, {"pitch": 42, "velocity": 100, "note_on_time": 20.758, "note_off_time": 21.474}, {"pitch": 39, "velocity": 100, "note_on_time": 21.474, "note_off_time": 22.186}, {"pitch": 62, "velocity": 100, "note_on_time": 21.474, "note_off_time": 22.903}, {"pitch": 42, "velocity": 100, "note_on_time": 22.186, "note_off_time": 22.903}, {"pitch": 62, "velocity": 100, "note_on_time": 22.903, "note_off_time": 23.62}, {"pitch": 42, "velocity": 100, "note_on_time": 22.904, "note_off_time": 23.62}, {"pitch": 62, "velocity": 100, "note_on_time": 23.62, "note_off_time": 24.334}, {"pitch": 39, "velocity": 100, "note_on_time": 23.62, "note_off_time": 24.334}, {"pitch": 62, "velocity": 100, "note_on_time": 24.334, "note_off_time": 25.049}, {"pitch": 42, "velocity": 100, "note_on_time": 24.335, "note_off_time": 25.05}, {"pitch": 62, "velocity": 100, "note_on_time": 25.049, "note_off_time": 25.764}, {"pitch": 42, "velocity": 100, "note_on_time": 25.05, "note_off_time": 25.764}, {"pitch": 39, "velocity": 100, "note_on_time": 25.764, "note_off_time": 26.481}, {"pitch": 62, "velocity": 100, "note_on_time": 25.764, "note_off_time": 27.194}, {"pitch": 42, "velocity": 100, "note_on_time": 26.482, "note_off_time": 27.194}, {"pitch": 62, "velocity": 100, "note_on_time": 27.194, "note_off_time": 27.911}, {"pitch": 42, "velocity": 100, "note_on_time": 27.194, "note_off_time": 27.911}, {"pitch": 39, "velocity": 100, "note_on_time": 27.912, "note_off_time": 28.624}, {"pitch": 42, "velocity": 100, "note_on_time": 28.625, "note_off_time": 29.34}, {"pitch": 62, "velocity": 100, "note_on_time": 27.911, "note_off_time": 30.059}, {"pitch": 42, "velocity": 100, "note_on_time": 29.34, "note_off_time": 30.059}, {"pitch": 39, "velocity": 100, "note_on_time": 30.059, "note_off_time": 30.772}, {"pitch": 62, "velocity": 100, "note_on_time": 30.059, "note_off_time": 31.488}, {"pitch": 42, "velocity": 100, "note_on_time": 30.772, "note_off_time": 31.488}, {"pitch": 62, "velocity": 100, "note_on_time": 31.488, "note_off_time": 32.199}, {"pitch": 42, "velocity": 100, "note_on_time": 31.489, "note_off_time": 32.2}, {"pitch": 62, "velocity": 100, "note_on_time": 32.199, "note_off_time": 32.914}, {"pitch": 39, "velocity": 100, "note_on_time": 32.2, "note_off_time": 32.914}, {"pitch": 62, "velocity": 100, "note_on_time": 32.914, "note_off_time": 33.63}, {"pitch": 42, "velocity": 100, "note_on_time": 32.914, "note_off_time": 33.631}, {"pitch": 62, "velocity": 100, "note_on_time": 33.63, "note_off_time": 34.344}, {"pitch": 42, "velocity": 100, "note_on_time": 33.631, "note_off_time": 34.344}, {"pitch": 62, "velocity": 100, "note_on_time": 34.344, "note_off_time": 35.058}, {"pitch": 39, "velocity": 100, "note_on_time": 34.344, "note_off_time": 35.059}, {"pitch": 62, "velocity": 100, "note_on_time": 35.058, "note_off_time": 35.773}, {"pitch": 42, "velocity": 100, "note_on_time": 35.059, "note_off_time": 35.773}, {"pitch": 62, "velocity": 100, "note_on_time": 35.773, "note_off_time": 36.484}, {"pitch": 42, "velocity": 100, "note_on_time": 35.773, "note_off_time": 36.484}, {"pitch": 39, "velocity": 100, "note_on_time": 36.484, "note_off_time": 37.203}, {"pitch": 62, "velocity": 100, "note_on_time": 36.484, "note_off_time": 37.919}, {"pitch": 42, "velocity": 100, "note_on_time": 37.204, "note_off_time": 37.919}, {"pitch": 42, "velocity": 100, "note_on_time": 37.919, "note_off_time": 38.633}]</notes><options name="Option List">((4, 4), [0.5, 0.25], 3, 7, &lt;NoteRangePerHand.TWO_NOTES: 3&gt;, &lt;NoteRangePerHand.ONE_NOTE: 2&gt;, False, True, True, None)</options></target_notes><trials><trial trial_no="1" timestamp="2023_05_14-11_37_35"><notes name="Played Notes">[{"pitch": 62, "velocity": 62, "note_on_time": 3.602, "note_off_time": 4.027}, {"pitch": 62, "velocity": 74, "note_on_time": 4.302, "note_off_time": 4.737}, {"pitch": 62, "velocity": 63, "note_on_time": 5.004, "note_off_time": 5.35}, {"pitch": 62, "velocity": 74, "note_on_time": 5.686, "note_off_time": 6.091}, {"pitch": 62, "velocity": 81, "note_on_time": 6.429, "note_off_time": 7.497}, {"pitch": 62, "velocity": 63, "note_on_time": 7.878, "note_off_time": 8.237}, {"pitch": 62, "velocity": 68, "note_on_time": 8.535, "note_off_time": 9.643}, {"pitch": 62, "velocity": 77, "note_on_time": 9.946, "note_off_time": 10.327}, {"pitch": 62, "velocity": 75, "note_on_time": 10.666, "note_off_time": 11.844}, {"pitch": 62, "velocity": 68, "note_on_time": 12.096, "note_off_time": 12.413}, {"pitch": 62, "velocity": 76, "note_on_time": 12.771, "note_off_time": 13.836}, {"pitch": 62, "velocity": 72, "note_on_time": 14.168, "note_off_time": 14.474}, {"pitch": 62, "velocity": 73, "note_on_time": 14.889, "note_off_time": 15.306}, {"pitch": 62, "velocity": 67, "note_on_time": 15.581, "note_off_time": 15.923}, {"pitch": 62, "velocity": 75, "note_on_time": 16.296, "note_off_time": 16.603}, {"pitch": 62, "velocity": 74, "note_on_time": 17.025, "note_off_time": 17.443}, {"pitch": 62, "velocity": 67, "note_on_time": 17.761, "note_off_time": 18.085}, {"pitch": 62, "velocity": 70, "note_on_time": 18.481, "note_off_time": 18.822}, {"pitch": 62, "velocity": 76, "note_on_time": 19.248, "note_off_time": 20.421}, {"pitch": 62, "velocity": 65, "note_on_time": 20.7, "note_off_time": 20.997}, {"pitch": 62, "velocity": 80, "note_on_time": 21.398, "note_off_time": 22.453}, {"pitch": 62, "velocity": 71, "note_on_time": 22.876, "note_off_time": 23.119}, {"pitch": 62, "velocity": 71, "note_on_time": 23.564, "note_off_time": 23.867}, {"pitch": 62, "velocity": 65, "note_on_time": 24.219, "note_off_time": 24.515}, {"pitch": 62, "velocity": 71, "note_on_time": 24.97, "note_off_time": 25.257}, {"pitch": 62, "velocity": 72, "note_on_time": 25.695, "note_off_time": 26.805}, {"pitch": 62, "velocity": 65, "note_on_time": 27.168, "note_off_time": 27.467}, {"pitch": 62, "velocity": 74, "note_on_time": 27.883, "note_off_time": 29.471}, {"pitch": 62, "velocity": 71, "note_on_time": 30.027, "note_off_time": 30.975}, {"pitch": 62, "velocity": 74, "note_on_time": 31.413, "note_off_time": 31.768}, {"pitch": 62, "velocity": 73, "note_on_time": 32.155, "note_off_time": 32.511}, {"pitch": 62, "velocity": 69, "note_on_time": 32.847, "note_off_time": 33.213}, {"pitch": 62, "velocity": 64, "note_on_time": 33.553, "note_off_time": 33.866}, {"pitch": 62, "velocity": 63, "note_on_time": 34.283, "note_off_time": 34.65}, {"pitch": 62, "velocity": 71, "note_on_time": 34.947, "note_off_time": 35.32}, {"pitch": 62, "velocity": 67, "note_on_time": 35.699, "note_off_time": 36.094}]</notes><guidance name="Guidance Mode">None</guidance><error name="Error value">0.31577714706812055</error></trial></trials></MIDI>