<MIDI midiNo="2023_05_14-13_06_36"><target_notes><notes name="Note List">[{"pitch": 39, "velocity": 100, "note_on_time": 0.007, "note_off_time": 0.727}, {"pitch": 42, "velocity": 100, "note_on_time": 0.727, "note_off_time": 1.445}, {"pitch": 42, "velocity": 100, "note_on_time": 1.445, "note_off_time": 2.16}, {"pitch": 39, "velocity": 100, "note_on_time": 2.16, "note_off_time": 2.876}, {"pitch": 42, "velocity": 100, "note_on_time": 2.876, "note_off_time": 3.592}, {"pitch": 67, "velocity": 100, "note_on_time": 3.592, "note_off_time": 4.308}, {"pitch": 42, "velocity": 100, "note_on_time": 3.592, "note_off_time": 4.308}, {"pitch": 72, "velocity": 100, "note_on_time": 4.308, "note_off_time": 5.025}, {"pitch": 39, "velocity": 100, "note_on_time": 4.308, "note_off_time": 5.026}, {"pitch": 72, "velocity": 100, "note_on_time": 5.025, "note_off_time": 5.739}, {"pitch": 42, "velocity": 100, "note_on_time": 5.026, "note_off_time": 5.74}, {"pitch": 74, "velocity": 100, "note_on_time": 5.739, "note_off_time": 6.457}, {"pitch": 42, "velocity": 100, "note_on_time": 5.74, "note_off_time": 6.458}, {"pitch": 39, "velocity": 100, "note_on_time": 6.458, "note_off_time": 7.178}, {"pitch": 76, "velocity": 100, "note_on_time": 6.457, "note_off_time": 7.892}, {"pitch": 42, "velocity": 100, "note_on_time": 7.178, "note_off_time": 7.893}, {"pitch": 67, "velocity": 100, "note_on_time": 7.892, "note_off_time": 8.608}, {"pitch": 42, "velocity": 100, "note_on_time": 7.893, "note_off_time": 8.608}, {"pitch": 39, "velocity": 100, "note_on_time": 8.608, "note_off_time": 9.316}, {"pitch": 72, "velocity": 100, "note_on_time": 8.608, "note_off_time": 10.03}, {"pitch": 42, "velocity": 100, "note_on_time": 9.316, "note_off_time": 10.03}, {"pitch": 76, "velocity": 100, "note_on_time": 10.03, "note_off_time": 10.743}, {"pitch": 42, "velocity": 100, "note_on_time": 10.03, "note_off_time": 10.743}, {"pitch": 39, "velocity": 100, "note_on_time": 10.743, "note_off_time": 11.463}, {"pitch": 74, "velocity": 100, "note_on_time": 10.743, "note_off_time": 12.175}, {"pitch": 42, "velocity": 100, "note_on_time": 11.463, "note_off_time": 12.175}, {"pitch": 67, "velocity": 100, "note_on_time": 12.175, "note_off_time": 12.891}, {"pitch": 42, "velocity": 100, "note_on_time": 12.175, "note_off_time": 12.891}, {"pitch": 39, "velocity": 100, "note_on_time": 12.891, "note_off_time": 13.604}, {"pitch": 74, "velocity": 100, "note_on_time": 12.891, "note_off_time": 14.313}, {"pitch": 42, "velocity": 100, "note_on_time": 13.604, "note_off_time": 14.313}, {"pitch": 76, "velocity": 100, "note_on_time": 14.313, "note_off_time": 15.023}, {"pitch": 42, "velocity": 100, "note_on_time": 14.313, "note_off_time": 15.023}, {"pitch": 77, "velocity": 100, "note_on_time": 15.023, "note_off_time": 15.73}, {"pitch": 39, "velocity": 100, "note_on_time": 15.023, "note_off_time": 15.73}, {"pitch": 74, "velocity": 100, "note_on_time": 15.73, "note_off_time": 16.445}, {"pitch": 42, "velocity": 100, "note_on_time": 15.73, "note_off_time": 16.445}, {"pitch": 71, "velocity": 100, "note_on_time": 16.445, "note_off_time": 17.161}, {"pitch": 42, "velocity": 100, "note_on_time": 16.445, "note_off_time": 17.161}, {"pitch": 67, "velocity": 100, "note_on_time": 17.161, "note_off_time": 17.876}, {"pitch": 39, "velocity": 100, "note_on_time": 17.161, "note_off_time": 17.876}, {"pitch": 69, "velocity": 100, "note_on_time": 17.876, "note_off_time": 18.593}, {"pitch": 42, "velocity": 100, "note_on_time": 17.876, "note_off_time": 18.593}, {"pitch": 71, "velocity": 100, "note_on_time": 18.593, "note_off_time": 19.312}, {"pitch": 42, "velocity": 100, "note_on_time": 18.593, "note_off_time": 19.312}, {"pitch": 39, "velocity": 100, "note_on_time": 19.313, "note_off_time": 20.026}, {"pitch": 72, "velocity": 100, "note_on_time": 19.312, "note_off_time": 20.738}, {"pitch": 42, "velocity": 100, "note_on_time": 20.026, "note_off_time": 20.738}, {"pitch": 67, "velocity": 100, "note_on_time": 20.738, "note_off_time": 21.453}, {"pitch": 42, "velocity": 100, "note_on_time": 20.738, "note_off_time": 21.453}, {"pitch": 39, "velocity": 100, "note_on_time": 21.453, "note_off_time": 22.168}, {"pitch": 72, "velocity": 100, "note_on_time": 21.453, "note_off_time": 22.883}, {"pitch": 42, "velocity": 100, "note_on_time": 22.168, "note_off_time": 22.884}, {"pitch": 74, "velocity": 100, "note_on_time": 22.883, "note_off_time": 23.597}, {"pitch": 42, "velocity": 100, "note_on_time": 22.884, "note_off_time": 23.598}, {"pitch": 76, "velocity": 100, "note_on_time": 23.597, "note_off_time": 24.311}, {"pitch": 39, "velocity": 100, "note_on_time": 23.598, "note_off_time": 24.312}, {"pitch": 76, "velocity": 100, "note_on_time": 24.311, "note_off_time": 25.022}, {"pitch": 42, "velocity": 100, "note_on_time": 24.312, "note_off_time": 25.022}, {"pitch": 67, "velocity": 100, "note_on_time": 25.022, "note_off_time": 25.741}, {"pitch": 42, "velocity": 100, "note_on_time": 25.023, "note_off_time": 25.741}, {"pitch": 39, "velocity": 100, "note_on_time": 25.741, "note_off_time": 26.456}, {"pitch": 72, "velocity": 100, "note_on_time": 25.741, "note_off_time": 27.17}, {"pitch": 42, "velocity": 100, "note_on_time": 26.456, "note_off_time": 27.171}, {"pitch": 76, "velocity": 100, "note_on_time": 27.17, "note_off_time": 27.883}, {"pitch": 42, "velocity": 100, "note_on_time": 27.171, "note_off_time": 27.883}, {"pitch": 39, "velocity": 100, "note_on_time": 27.883, "note_off_time": 28.597}, {"pitch": 42, "velocity": 100, "note_on_time": 28.598, "note_off_time": 29.316}, {"pitch": 74, "velocity": 100, "note_on_time": 27.883, "note_off_time": 30.03}, {"pitch": 42, "velocity": 100, "note_on_time": 29.317, "note_off_time": 30.03}, {"pitch": 39, "velocity": 100, "note_on_time": 30.031, "note_off_time": 30.745}, {"pitch": 74, "velocity": 100, "note_on_time": 30.03, "note_off_time": 31.461}, {"pitch": 42, "velocity": 100, "note_on_time": 30.745, "note_off_time": 31.461}, {"pitch": 76, "velocity": 100, "note_on_time": 31.461, "note_off_time": 32.176}, {"pitch": 42, "velocity": 100, "note_on_time": 31.462, "note_off_time": 32.176}, {"pitch": 77, "velocity": 100, "note_on_time": 32.176, "note_off_time": 32.891}, {"pitch": 39, "velocity": 100, "note_on_time": 32.177, "note_off_time": 32.892}, {"pitch": 74, "velocity": 100, "note_on_time": 32.891, "note_off_time": 33.608}, {"pitch": 42, "velocity": 100, "note_on_time": 32.892, "note_off_time": 33.608}, {"pitch": 71, "velocity": 100, "note_on_time": 33.608, "note_off_time": 34.324}, {"pitch": 42, "velocity": 100, "note_on_time": 33.609, "note_off_time": 34.325}, {"pitch": 67, "velocity": 100, "note_on_time": 34.324, "note_off_time": 35.04}, {"pitch": 39, "velocity": 100, "note_on_time": 34.325, "note_off_time": 35.04}, {"pitch": 69, "velocity": 100, "note_on_time": 35.04, "note_off_time": 35.759}, {"pitch": 42, "velocity": 100, "note_on_time": 35.04, "note_off_time": 35.759}, {"pitch": 71, "velocity": 100, "note_on_time": 35.759, "note_off_time": 36.474}, {"pitch": 42, "velocity": 100, "note_on_time": 35.76, "note_off_time": 36.474}, {"pitch": 39, "velocity": 100, "note_on_time": 36.474, "note_off_time": 37.192}, {"pitch": 72, "velocity": 100, "note_on_time": 36.474, "note_off_time": 37.908}, {"pitch": 42, "velocity": 100, "note_on_time": 37.192, "note_off_time": 37.908}, {"pitch": 42, "velocity": 100, "note_on_time": 37.908, "note_off_time": 38.627}]</notes><options name="Option List">((4, 4), [0.5, 0.25], 3, 7, &lt;NoteRangePerHand.TWO_NOTES: 3&gt;, &lt;NoteRangePerHand.ONE_NOTE: 2&gt;, False, True, True, None)</options></target_notes><trials><trial trial_no="1" timestamp="2023_05_14-13_06_36"><notes name="Played Notes">[{"pitch": 67, "velocity": 73, "note_on_time": 3.533, "note_off_time": 4.184}, {"pitch": 72, "velocity": 78, "note_on_time": 4.264, "note_off_time": 4.697}, {"pitch": 72, "velocity": 85, "note_on_time": 5.01, "note_off_time": 5.682}, {"pitch": 74, "velocity": 76, "note_on_time": 5.691, "note_off_time": 6.402}, {"pitch": 76, "velocity": 79, "note_on_time": 6.414, "note_off_time": 7.478}, {"pitch": 67, "velocity": 77, "note_on_time": 7.814, "note_off_time": 8.521}, {"pitch": 72, "velocity": 63, "note_on_time": 8.683, "note_off_time": 9.718}, {"pitch": 76, "velocity": 72, "note_on_time": 9.927, "note_off_time": 10.596}, {"pitch": 74, "velocity": 55, "note_on_time": 10.672, "note_off_time": 12.105}, {"pitch": 67, "velocity": 67, "note_on_time": 12.128, "note_off_time": 12.875}, {"pitch": 74, "velocity": 78, "note_on_time": 12.871, "note_off_time": 13.682}, {"pitch": 76, "velocity": 58, "note_on_time": 13.599, "note_off_time": 14.311}, {"pitch": 77, "velocity": 68, "note_on_time": 14.314, "note_off_time": 15.143}, {"pitch": 74, "velocity": 69, "note_on_time": 15.119, "note_off_time": 15.706}, {"pitch": 71, "velocity": 78, "note_on_time": 15.712, "note_off_time": 16.476}, {"pitch": 67, "velocity": 76, "note_on_time": 16.465, "note_off_time": 17.147}, {"pitch": 69, "velocity": 64, "note_on_time": 17.156, "note_off_time": 17.804}, {"pitch": 71, "velocity": 65, "note_on_time": 17.814, "note_off_time": 18.562}, {"pitch": 72, "velocity": 77, "note_on_time": 18.588, "note_off_time": 19.986}, {"pitch": 67, "velocity": 64, "note_on_time": 20.022, "note_off_time": 20.706}, {"pitch": 72, "velocity": 74, "note_on_time": 20.71, "note_off_time": 21.733}, {"pitch": 74, "velocity": 58, "note_on_time": 21.817, "note_off_time": 22.228}, {"pitch": 76, "velocity": 72, "note_on_time": 22.402, "note_off_time": 22.747}, {"pitch": 76, "velocity": 66, "note_on_time": 23.053, "note_off_time": 23.501}, {"pitch": 67, "velocity": 72, "note_on_time": 23.689, "note_off_time": 24.224}, {"pitch": 74, "velocity": 58, "note_on_time": 24.314, "note_off_time": 24.583}, {"pitch": 72, "velocity": 54, "note_on_time": 24.635, "note_off_time": 25.435}, {"pitch": 77, "velocity": 71, "note_on_time": 25.658, "note_off_time": 25.94}, {"pitch": 74, "velocity": 58, "note_on_time": 26.028, "note_off_time": 26.126}, {"pitch": 76, "velocity": 55, "note_on_time": 26.023, "note_off_time": 26.49}, {"pitch": 74, "velocity": 56, "note_on_time": 26.549, "note_off_time": 27.645}, {"pitch": 67, "velocity": 48, "note_on_time": 28.009, "note_off_time": 28.593}, {"pitch": 76, "velocity": 62, "note_on_time": 29.933, "note_off_time": 30.239}, {"pitch": 79, "velocity": 51, "note_on_time": 30.619, "note_off_time": 30.88}, {"pitch": 76, "velocity": 52, "note_on_time": 31.307, "note_off_time": 31.627}, {"pitch": 74, "velocity": 1, "note_on_time": 32.742, "note_off_time": 32.999}]</notes><guidance name="Guidance Mode">None</guidance><error name="Error value">0.7183401148253516</error></trial></trials></MIDI>