<MIDI midiNo="2023_05_14-13_12_07"><target_notes><notes name="Note List">[{"pitch": 39, "velocity": 100, "note_on_time": 0.005, "note_off_time": 0.727}, {"pitch": 42, "velocity": 100, "note_on_time": 0.727, "note_off_time": 1.442}, {"pitch": 42, "velocity": 100, "note_on_time": 1.442, "note_off_time": 2.153}, {"pitch": 42, "velocity": 100, "note_on_time": 2.153, "note_off_time": 2.871}, {"pitch": 39, "velocity": 100, "note_on_time": 2.871, "note_off_time": 3.589}, {"pitch": 60, "velocity": 100, "note_on_time": 2.871, "note_off_time": 4.303}, {"pitch": 42, "velocity": 100, "note_on_time": 3.59, "note_off_time": 4.303}, {"pitch": 42, "velocity": 100, "note_on_time": 4.304, "note_off_time": 5.017}, {"pitch": 67, "velocity": 100, "note_on_time": 4.303, "note_off_time": 5.733}, {"pitch": 42, "velocity": 100, "note_on_time": 5.017, "note_off_time": 5.733}, {"pitch": 64, "velocity": 100, "note_on_time": 5.733, "note_off_time": 6.451}, {"pitch": 39, "velocity": 100, "note_on_time": 5.734, "note_off_time": 6.451}, {"pitch": 42, "velocity": 100, "note_on_time": 6.451, "note_off_time": 7.165}, {"pitch": 67, "velocity": 100, "note_on_time": 6.451, "note_off_time": 7.878}, {"pitch": 42, "velocity": 100, "note_on_time": 7.165, "note_off_time": 7.879}, {"pitch": 60, "velocity": 100, "note_on_time": 7.878, "note_off_time": 8.594}, {"pitch": 42, "velocity": 100, "note_on_time": 7.879, "note_off_time": 8.595}, {"pitch": 39, "velocity": 100, "note_on_time": 8.595, "note_off_time": 9.311}, {"pitch": 67, "velocity": 100, "note_on_time": 8.594, "note_off_time": 10.031}, {"pitch": 42, "velocity": 100, "note_on_time": 9.311, "note_off_time": 10.031}, {"pitch": 42, "velocity": 100, "note_on_time": 10.031, "note_off_time": 10.743}, {"pitch": 60, "velocity": 100, "note_on_time": 10.031, "note_off_time": 11.459}, {"pitch": 42, "velocity": 100, "note_on_time": 10.744, "note_off_time": 11.459}, {"pitch": 39, "velocity": 100, "note_on_time": 11.46, "note_off_time": 12.177}, {"pitch": 42, "velocity": 100, "note_on_time": 12.177, "note_off_time": 12.896}, {"pitch": 42, "velocity": 100, "note_on_time": 12.896, "note_off_time": 13.612}, {"pitch": 64, "velocity": 100, "note_on_time": 11.459, "note_off_time": 14.33}, {"pitch": 42, "velocity": 100, "note_on_time": 13.612, "note_off_time": 14.331}, {"pitch": 67, "velocity": 100, "note_on_time": 14.33, "note_off_time": 15.045}, {"pitch": 39, "velocity": 100, "note_on_time": 14.331, "note_off_time": 15.045}, {"pitch": 64, "velocity": 100, "note_on_time": 15.045, "note_off_time": 15.761}, {"pitch": 42, "velocity": 100, "note_on_time": 15.046, "note_off_time": 15.761}, {"pitch": 67, "velocity": 100, "note_on_time": 15.761, "note_off_time": 16.479}, {"pitch": 42, "velocity": 100, "note_on_time": 15.762, "note_off_time": 16.479}, {"pitch": 60, "velocity": 100, "note_on_time": 16.479, "note_off_time": 17.197}, {"pitch": 42, "velocity": 100, "note_on_time": 16.479, "note_off_time": 17.197}, {"pitch": 39, "velocity": 100, "note_on_time": 17.197, "note_off_time": 17.912}, {"pitch": 64, "velocity": 100, "note_on_time": 17.197, "note_off_time": 18.625}, {"pitch": 42, "velocity": 100, "note_on_time": 17.912, "note_off_time": 18.625}, {"pitch": 67, "velocity": 100, "note_on_time": 18.625, "note_off_time": 19.337}, {"pitch": 42, "velocity": 100, "note_on_time": 18.625, "note_off_time": 19.338}, {"pitch": 60, "velocity": 100, "note_on_time": 19.337, "note_off_time": 20.052}, {"pitch": 42, "velocity": 100, "note_on_time": 19.338, "note_off_time": 20.053}, {"pitch": 64, "velocity": 100, "note_on_time": 20.052, "note_off_time": 20.768}, {"pitch": 39, "velocity": 100, "note_on_time": 20.053, "note_off_time": 20.768}, {"pitch": 42, "velocity": 100, "note_on_time": 20.768, "note_off_time": 21.482}, {"pitch": 67, "velocity": 100, "note_on_time": 20.768, "note_off_time": 22.196}, {"pitch": 42, "velocity": 100, "note_on_time": 21.482, "note_off_time": 22.197}, {"pitch": 64, "velocity": 100, "note_on_time": 22.196, "note_off_time": 22.914}, {"pitch": 42, "velocity": 100, "note_on_time": 22.197, "note_off_time": 22.915}, {"pitch": 39, "velocity": 100, "note_on_time": 22.915, "note_off_time": 23.632}, {"pitch": 42, "velocity": 100, "note_on_time": 23.632, "note_off_time": 24.35}, {"pitch": 42, "velocity": 100, "note_on_time": 24.35, "note_off_time": 25.067}, {"pitch": 60, "velocity": 100, "note_on_time": 22.914, "note_off_time": 25.783}, {"pitch": 42, "velocity": 100, "note_on_time": 25.067, "note_off_time": 25.784}]</notes><options name="Option List">((4, 4), [0.5, 0.25], 3, 7, &lt;NoteRangePerHand.TWO_NOTES: 3&gt;, &lt;NoteRangePerHand.ONE_NOTE: 2&gt;, False, True, True, None)</options></target_notes><trials><trial trial_no="1" timestamp="2023_05_14-13_12_07"><notes name="Played Notes">[{"pitch": 60, "velocity": 66, "note_on_time": 2.898, "note_off_time": 4.206}, {"pitch": 67, "velocity": 69, "note_on_time": 4.265, "note_off_time": 5.617}, {"pitch": 64, "velocity": 67, "note_on_time": 5.719, "note_off_time": 6.385}, {"pitch": 67, "velocity": 71, "note_on_time": 6.415, "note_off_time": 7.797}, {"pitch": 60, "velocity": 68, "note_on_time": 7.863, "note_off_time": 8.896}, {"pitch": 60, "velocity": 64, "note_on_time": 9.983, "note_off_time": 11.138}, {"pitch": 65, "velocity": 82, "note_on_time": 11.482, "note_off_time": 12.068}, {"pitch": 64, "velocity": 62, "note_on_time": 12.748, "note_off_time": 14.558}, {"pitch": 60, "velocity": 44, "note_on_time": 15.977, "note_off_time": 16.277}, {"pitch": 64, "velocity": 72, "note_on_time": 19.335, "note_off_time": 20.126}, {"pitch": 67, "velocity": 63, "note_on_time": 20.146, "note_off_time": 20.799}, {"pitch": 60, "velocity": 53, "note_on_time": 21.392, "note_off_time": 21.848}, {"pitch": 65, "velocity": 50, "note_on_time": 22.149, "note_off_time": 22.705}, {"pitch": 67, "velocity": 49, "note_on_time": 22.86, "note_off_time": 23.862}]</notes><guidance name="Guidance Mode">None</guidance><error name="Error value">1.3349157597744363</error></trial></trials></MIDI>