<MIDI midiNo="2023_05_14-12_56_15"><target_notes><notes name="Note List">[{"pitch": 39, "velocity": 100, "note_on_time": 0.01, "note_off_time": 0.718}, {"pitch": 42, "velocity": 100, "note_on_time": 0.718, "note_off_time": 1.435}, {"pitch": 42, "velocity": 100, "note_on_time": 1.435, "note_off_time": 2.153}, {"pitch": 39, "velocity": 100, "note_on_time": 2.154, "note_off_time": 2.87}, {"pitch": 42, "velocity": 100, "note_on_time": 2.87, "note_off_time": 3.585}, {"pitch": 67, "velocity": 100, "note_on_time": 3.585, "note_off_time": 4.301}, {"pitch": 42, "velocity": 100, "note_on_time": 3.585, "note_off_time": 4.301}, {"pitch": 72, "velocity": 100, "note_on_time": 4.301, "note_off_time": 5.019}, {"pitch": 39, "velocity": 100, "note_on_time": 4.301, "note_off_time": 5.019}, {"pitch": 72, "velocity": 100, "note_on_time": 5.019, "note_off_time": 5.736}, {"pitch": 42, "velocity": 100, "note_on_time": 5.02, "note_off_time": 5.736}, {"pitch": 74, "velocity": 100, "note_on_time": 5.736, "note_off_time": 6.453}, {"pitch": 42, "velocity": 100, "note_on_time": 5.736, "note_off_time": 6.453}, {"pitch": 39, "velocity": 100, "note_on_time": 6.453, "note_off_time": 7.17}, {"pitch": 76, "velocity": 100, "note_on_time": 6.453, "note_off_time": 7.885}, {"pitch": 42, "velocity": 100, "note_on_time": 7.171, "note_off_time": 7.885}, {"pitch": 67, "velocity": 100, "note_on_time": 7.885, "note_off_time": 8.601}, {"pitch": 42, "velocity": 100, "note_on_time": 7.885, "note_off_time": 8.602}, {"pitch": 39, "velocity": 100, "note_on_time": 8.602, "note_off_time": 9.319}, {"pitch": 72, "velocity": 100, "note_on_time": 8.601, "note_off_time": 10.034}, {"pitch": 42, "velocity": 100, "note_on_time": 9.319, "note_off_time": 10.034}, {"pitch": 76, "velocity": 100, "note_on_time": 10.034, "note_off_time": 10.749}, {"pitch": 42, "velocity": 100, "note_on_time": 10.034, "note_off_time": 10.75}, {"pitch": 39, "velocity": 100, "note_on_time": 10.75, "note_off_time": 11.465}, {"pitch": 74, "velocity": 100, "note_on_time": 10.749, "note_off_time": 12.18}, {"pitch": 42, "velocity": 100, "note_on_time": 11.465, "note_off_time": 12.18}, {"pitch": 67, "velocity": 100, "note_on_time": 12.18, "note_off_time": 12.9}, {"pitch": 42, "velocity": 100, "note_on_time": 12.181, "note_off_time": 12.9}, {"pitch": 39, "velocity": 100, "note_on_time": 12.9, "note_off_time": 13.612}, {"pitch": 74, "velocity": 100, "note_on_time": 12.9, "note_off_time": 14.327}, {"pitch": 42, "velocity": 100, "note_on_time": 13.612, "note_off_time": 14.328}, {"pitch": 76, "velocity": 100, "note_on_time": 14.327, "note_off_time": 15.037}, {"pitch": 42, "velocity": 100, "note_on_time": 14.328, "note_off_time": 15.037}, {"pitch": 77, "velocity": 100, "note_on_time": 15.037, "note_off_time": 15.752}, {"pitch": 39, "velocity": 100, "note_on_time": 15.038, "note_off_time": 15.753}, {"pitch": 74, "velocity": 100, "note_on_time": 15.752, "note_off_time": 16.467}, {"pitch": 42, "velocity": 100, "note_on_time": 15.753, "note_off_time": 16.468}, {"pitch": 71, "velocity": 100, "note_on_time": 16.467, "note_off_time": 17.186}, {"pitch": 42, "velocity": 100, "note_on_time": 16.468, "note_off_time": 17.186}, {"pitch": 67, "velocity": 100, "note_on_time": 17.186, "note_off_time": 17.902}, {"pitch": 39, "velocity": 100, "note_on_time": 17.187, "note_off_time": 17.902}, {"pitch": 69, "velocity": 100, "note_on_time": 17.902, "note_off_time": 18.617}, {"pitch": 42, "velocity": 100, "note_on_time": 17.902, "note_off_time": 18.617}, {"pitch": 71, "velocity": 100, "note_on_time": 18.617, "note_off_time": 19.332}, {"pitch": 42, "velocity": 100, "note_on_time": 18.617, "note_off_time": 19.332}, {"pitch": 39, "velocity": 100, "note_on_time": 19.332, "note_off_time": 20.05}, {"pitch": 72, "velocity": 100, "note_on_time": 19.332, "note_off_time": 20.764}, {"pitch": 42, "velocity": 100, "note_on_time": 20.05, "note_off_time": 20.764}, {"pitch": 67, "velocity": 100, "note_on_time": 20.764, "note_off_time": 21.479}, {"pitch": 42, "velocity": 100, "note_on_time": 20.764, "note_off_time": 21.48}, {"pitch": 39, "velocity": 100, "note_on_time": 21.48, "note_off_time": 22.196}, {"pitch": 72, "velocity": 100, "note_on_time": 21.479, "note_off_time": 22.91}, {"pitch": 42, "velocity": 100, "note_on_time": 22.196, "note_off_time": 22.91}, {"pitch": 74, "velocity": 100, "note_on_time": 22.91, "note_off_time": 23.625}, {"pitch": 42, "velocity": 100, "note_on_time": 22.911, "note_off_time": 23.626}, {"pitch": 76, "velocity": 100, "note_on_time": 23.625, "note_off_time": 24.345}, {"pitch": 39, "velocity": 100, "note_on_time": 23.626, "note_off_time": 24.346}, {"pitch": 76, "velocity": 100, "note_on_time": 24.345, "note_off_time": 25.06}, {"pitch": 42, "velocity": 100, "note_on_time": 24.346, "note_off_time": 25.06}, {"pitch": 67, "velocity": 100, "note_on_time": 25.06, "note_off_time": 25.776}, {"pitch": 42, "velocity": 100, "note_on_time": 25.06, "note_off_time": 25.776}, {"pitch": 39, "velocity": 100, "note_on_time": 25.776, "note_off_time": 26.493}, {"pitch": 72, "velocity": 100, "note_on_time": 25.776, "note_off_time": 27.206}, {"pitch": 42, "velocity": 100, "note_on_time": 26.494, "note_off_time": 27.206}, {"pitch": 76, "velocity": 100, "note_on_time": 27.206, "note_off_time": 27.924}, {"pitch": 42, "velocity": 100, "note_on_time": 27.206, "note_off_time": 27.924}, {"pitch": 39, "velocity": 100, "note_on_time": 27.924, "note_off_time": 28.639}, {"pitch": 42, "velocity": 100, "note_on_time": 28.639, "note_off_time": 29.357}, {"pitch": 74, "velocity": 100, "note_on_time": 27.924, "note_off_time": 30.073}, {"pitch": 42, "velocity": 100, "note_on_time": 29.357, "note_off_time": 30.073}, {"pitch": 39, "velocity": 100, "note_on_time": 30.073, "note_off_time": 30.788}, {"pitch": 74, "velocity": 100, "note_on_time": 30.073, "note_off_time": 31.505}, {"pitch": 42, "velocity": 100, "note_on_time": 30.788, "note_off_time": 31.505}, {"pitch": 76, "velocity": 100, "note_on_time": 31.505, "note_off_time": 32.223}, {"pitch": 42, "velocity": 100, "note_on_time": 31.506, "note_off_time": 32.223}, {"pitch": 77, "velocity": 100, "note_on_time": 32.223, "note_off_time": 32.936}, {"pitch": 39, "velocity": 100, "note_on_time": 32.223, "note_off_time": 32.936}, {"pitch": 74, "velocity": 100, "note_on_time": 32.936, "note_off_time": 33.65}, {"pitch": 42, "velocity": 100, "note_on_time": 32.936, "note_off_time": 33.65}, {"pitch": 71, "velocity": 100, "note_on_time": 33.65, "note_off_time": 34.365}, {"pitch": 42, "velocity": 100, "note_on_time": 33.65, "note_off_time": 34.365}, {"pitch": 67, "velocity": 100, "note_on_time": 34.365, "note_off_time": 35.072}, {"pitch": 39, "velocity": 100, "note_on_time": 34.366, "note_off_time": 35.073}, {"pitch": 69, "velocity": 100, "note_on_time": 35.072, "note_off_time": 35.789}, {"pitch": 42, "velocity": 100, "note_on_time": 35.073, "note_off_time": 35.789}, {"pitch": 71, "velocity": 100, "note_on_time": 35.789, "note_off_time": 36.505}, {"pitch": 42, "velocity": 100, "note_on_time": 35.79, "note_off_time": 36.505}, {"pitch": 39, "velocity": 100, "note_on_time": 36.505, "note_off_time": 37.22}, {"pitch": 72, "velocity": 100, "note_on_time": 36.505, "note_off_time": 37.939}, {"pitch": 42, "velocity": 100, "note_on_time": 37.221, "note_off_time": 37.94}, {"pitch": 42, "velocity": 100, "note_on_time": 37.94, "note_off_time": 38.652}]</notes><options name="Option List">((4, 4), [0.5, 0.25], 3, 7, &lt;NoteRangePerHand.TWO_NOTES: 3&gt;, &lt;NoteRangePerHand.ONE_NOTE: 2&gt;, False, True, True, None)</options></target_notes><trials><trial trial_no="1" timestamp="2023_05_14-12_56_15"><notes name="Played Notes">[{"pitch": 67, "velocity": 66, "note_on_time": 3.54, "note_off_time": 4.216}, {"pitch": 71, "velocity": 79, "note_on_time": 4.285, "note_off_time": 4.639}, {"pitch": 72, "velocity": 82, "note_on_time": 5.047, "note_off_time": 5.617}, {"pitch": 74, "velocity": 75, "note_on_time": 5.753, "note_off_time": 6.333}, {"pitch": 76, "velocity": 66, "note_on_time": 6.43, "note_off_time": 7.768}, {"pitch": 67, "velocity": 66, "note_on_time": 7.832, "note_off_time": 8.956}, {"pitch": 72, "velocity": 54, "note_on_time": 9.879, "note_off_time": 10.559}, {"pitch": 77, "velocity": 27, "note_on_time": 10.842, "note_off_time": 11.162}, {"pitch": 76, "velocity": 65, "note_on_time": 11.699, "note_off_time": 12.062}, {"pitch": 74, "velocity": 68, "note_on_time": 12.029, "note_off_time": 13.899}, {"pitch": 67, "velocity": 69, "note_on_time": 13.948, "note_off_time": 14.806}, {"pitch": 76, "velocity": 31, "note_on_time": 17.266, "note_off_time": 17.607}, {"pitch": 74, "velocity": 31, "note_on_time": 18.926, "note_off_time": 19.223}, {"pitch": 67, "velocity": 67, "note_on_time": 22.941, "note_off_time": 23.578}, {"pitch": 72, "velocity": 21, "note_on_time": 24.457, "note_off_time": 24.592}, {"pitch": 67, "velocity": 7, "note_on_time": 29.142, "note_off_time": 29.293}, {"pitch": 71, "velocity": 52, "note_on_time": 29.186, "note_off_time": 29.455}]</notes><guidance name="Guidance Mode">None</guidance><error name="Error value">1.5873421252335933</error></trial></trials></MIDI>