<MIDI midiNo="2023_05_14-12_00_08"><target_notes><notes name="Note List">[{"pitch": 39, "velocity": 100, "note_on_time": 0.008, "note_off_time": 0.724}, {"pitch": 42, "velocity": 100, "note_on_time": 0.724, "note_off_time": 1.438}, {"pitch": 42, "velocity": 100, "note_on_time": 1.438, "note_off_time": 2.153}, {"pitch": 42, "velocity": 100, "note_on_time": 2.154, "note_off_time": 2.868}, {"pitch": 39, "velocity": 100, "note_on_time": 2.868, "note_off_time": 3.586}, {"pitch": 42, "velocity": 100, "note_on_time": 3.587, "note_off_time": 4.303}, {"pitch": 42, "velocity": 100, "note_on_time": 4.303, "note_off_time": 5.018}, {"pitch": 60, "velocity": 100, "note_on_time": 5.017, "note_off_time": 5.731}, {"pitch": 42, "velocity": 100, "note_on_time": 5.018, "note_off_time": 5.731}, {"pitch": 39, "velocity": 100, "note_on_time": 5.731, "note_off_time": 6.447}, {"pitch": 69, "velocity": 100, "note_on_time": 5.731, "note_off_time": 7.164}, {"pitch": 42, "velocity": 100, "note_on_time": 6.448, "note_off_time": 7.164}, {"pitch": 65, "velocity": 100, "note_on_time": 7.164, "note_off_time": 7.879}, {"pitch": 42, "velocity": 100, "note_on_time": 7.165, "note_off_time": 7.879}, {"pitch": 65, "velocity": 100, "note_on_time": 7.879, "note_off_time": 8.591}, {"pitch": 42, "velocity": 100, "note_on_time": 7.879, "note_off_time": 8.591}, {"pitch": 39, "velocity": 100, "note_on_time": 8.591, "note_off_time": 9.308}, {"pitch": 67, "velocity": 100, "note_on_time": 8.591, "note_off_time": 10.023}, {"pitch": 42, "velocity": 100, "note_on_time": 9.308, "note_off_time": 10.023}, {"pitch": 60, "velocity": 100, "note_on_time": 10.023, "note_off_time": 10.736}, {"pitch": 42, "velocity": 100, "note_on_time": 10.023, "note_off_time": 10.736}, {"pitch": 60, "velocity": 100, "note_on_time": 10.736, "note_off_time": 11.448}, {"pitch": 42, "velocity": 100, "note_on_time": 10.736, "note_off_time": 11.449}, {"pitch": 65, "velocity": 100, "note_on_time": 11.448, "note_off_time": 12.165}, {"pitch": 39, "velocity": 100, "note_on_time": 11.449, "note_off_time": 12.165}, {"pitch": 64, "velocity": 100, "note_on_time": 12.165, "note_off_time": 12.886}, {"pitch": 42, "velocity": 100, "note_on_time": 12.165, "note_off_time": 12.886}, {"pitch": 65, "velocity": 100, "note_on_time": 12.886, "note_off_time": 13.602}, {"pitch": 42, "velocity": 100, "note_on_time": 12.886, "note_off_time": 13.602}, {"pitch": 69, "velocity": 100, "note_on_time": 13.602, "note_off_time": 14.318}, {"pitch": 42, "velocity": 100, "note_on_time": 13.603, "note_off_time": 14.318}, {"pitch": 39, "velocity": 100, "note_on_time": 14.318, "note_off_time": 15.031}, {"pitch": 42, "velocity": 100, "note_on_time": 15.031, "note_off_time": 15.745}, {"pitch": 67, "velocity": 100, "note_on_time": 14.318, "note_off_time": 16.463}, {"pitch": 42, "velocity": 100, "note_on_time": 15.746, "note_off_time": 16.463}, {"pitch": 69, "velocity": 100, "note_on_time": 16.463, "note_off_time": 17.178}, {"pitch": 42, "velocity": 100, "note_on_time": 16.463, "note_off_time": 17.178}, {"pitch": 70, "velocity": 100, "note_on_time": 17.178, "note_off_time": 17.896}, {"pitch": 39, "velocity": 100, "note_on_time": 17.178, "note_off_time": 17.897}, {"pitch": 70, "velocity": 100, "note_on_time": 17.896, "note_off_time": 18.613}, {"pitch": 42, "velocity": 100, "note_on_time": 17.897, "note_off_time": 18.613}, {"pitch": 69, "velocity": 100, "note_on_time": 18.613, "note_off_time": 19.327}, {"pitch": 42, "velocity": 100, "note_on_time": 18.614, "note_off_time": 19.327}, {"pitch": 70, "velocity": 100, "note_on_time": 19.327, "note_off_time": 20.045}, {"pitch": 42, "velocity": 100, "note_on_time": 19.327, "note_off_time": 20.045}, {"pitch": 39, "velocity": 100, "note_on_time": 20.046, "note_off_time": 20.759}, {"pitch": 72, "velocity": 100, "note_on_time": 20.045, "note_off_time": 21.477}, {"pitch": 42, "velocity": 100, "note_on_time": 20.759, "note_off_time": 21.478}, {"pitch": 69, "velocity": 100, "note_on_time": 21.477, "note_off_time": 22.196}, {"pitch": 42, "velocity": 100, "note_on_time": 21.478, "note_off_time": 22.196}, {"pitch": 65, "velocity": 100, "note_on_time": 22.196, "note_off_time": 22.916}, {"pitch": 42, "velocity": 100, "note_on_time": 22.196, "note_off_time": 22.916}, {"pitch": 69, "velocity": 100, "note_on_time": 22.916, "note_off_time": 23.632}, {"pitch": 39, "velocity": 100, "note_on_time": 22.916, "note_off_time": 23.632}, {"pitch": 69, "velocity": 100, "note_on_time": 23.632, "note_off_time": 24.349}, {"pitch": 42, "velocity": 100, "note_on_time": 23.632, "note_off_time": 24.349}, {"pitch": 67, "velocity": 100, "note_on_time": 24.349, "note_off_time": 25.066}, {"pitch": 42, "velocity": 100, "note_on_time": 24.35, "note_off_time": 25.066}, {"pitch": 69, "velocity": 100, "note_on_time": 25.066, "note_off_time": 25.784}, {"pitch": 42, "velocity": 100, "note_on_time": 25.066, "note_off_time": 25.784}, {"pitch": 39, "velocity": 100, "note_on_time": 25.785, "note_off_time": 26.503}, {"pitch": 70, "velocity": 100, "note_on_time": 25.784, "note_off_time": 27.219}, {"pitch": 42, "velocity": 100, "note_on_time": 26.503, "note_off_time": 27.22}, {"pitch": 67, "velocity": 100, "note_on_time": 27.219, "note_off_time": 27.938}, {"pitch": 42, "velocity": 100, "note_on_time": 27.22, "note_off_time": 27.938}, {"pitch": 74, "velocity": 100, "note_on_time": 27.938, "note_off_time": 28.652}, {"pitch": 42, "velocity": 100, "note_on_time": 27.938, "note_off_time": 28.652}, {"pitch": 39, "velocity": 100, "note_on_time": 28.652, "note_off_time": 29.367}, {"pitch": 72, "velocity": 100, "note_on_time": 28.652, "note_off_time": 30.083}, {"pitch": 42, "velocity": 100, "note_on_time": 29.367, "note_off_time": 30.083}, {"pitch": 69, "velocity": 100, "note_on_time": 30.083, "note_off_time": 30.801}, {"pitch": 42, "velocity": 100, "note_on_time": 30.083, "note_off_time": 30.802}, {"pitch": 72, "velocity": 100, "note_on_time": 30.801, "note_off_time": 31.515}, {"pitch": 42, "velocity": 100, "note_on_time": 30.802, "note_off_time": 31.515}, {"pitch": 39, "velocity": 100, "note_on_time": 31.515, "note_off_time": 32.226}, {"pitch": 70, "velocity": 100, "note_on_time": 31.515, "note_off_time": 32.939}, {"pitch": 42, "velocity": 100, "note_on_time": 32.226, "note_off_time": 32.94}, {"pitch": 67, "velocity": 100, "note_on_time": 32.939, "note_off_time": 33.653}, {"pitch": 42, "velocity": 100, "note_on_time": 32.94, "note_off_time": 33.653}, {"pitch": 74, "velocity": 100, "note_on_time": 33.653, "note_off_time": 34.368}, {"pitch": 42, "velocity": 100, "note_on_time": 33.653, "note_off_time": 34.368}, {"pitch": 72, "velocity": 100, "note_on_time": 34.368, "note_off_time": 35.083}, {"pitch": 39, "velocity": 100, "note_on_time": 34.369, "note_off_time": 35.083}, {"pitch": 69, "velocity": 100, "note_on_time": 35.083, "note_off_time": 35.798}, {"pitch": 42, "velocity": 100, "note_on_time": 35.083, "note_off_time": 35.798}, {"pitch": 70, "velocity": 100, "note_on_time": 35.798, "note_off_time": 36.511}, {"pitch": 42, "velocity": 100, "note_on_time": 35.798, "note_off_time": 36.511}, {"pitch": 67, "velocity": 100, "note_on_time": 36.511, "note_off_time": 37.225}, {"pitch": 42, "velocity": 100, "note_on_time": 36.512, "note_off_time": 37.225}, {"pitch": 39, "velocity": 100, "note_on_time": 37.225, "note_off_time": 37.942}, {"pitch": 42, "velocity": 100, "note_on_time": 37.942, "note_off_time": 38.656}, {"pitch": 65, "velocity": 100, "note_on_time": 37.225, "note_off_time": 39.37}, {"pitch": 42, "velocity": 100, "note_on_time": 38.657, "note_off_time": 39.37}, {"pitch": 42, "velocity": 100, "note_on_time": 39.371, "note_off_time": 40.085}]</notes><options name="Option List">((4, 4), [0.5, 0.25], 3, 7, &lt;NoteRangePerHand.TWO_NOTES: 3&gt;, &lt;NoteRangePerHand.ONE_NOTE: 2&gt;, False, True, True, None)</options></target_notes><trials><trial trial_no="1" timestamp="2023_05_14-12_00_08"><notes name="Played Notes">[{"pitch": 60, "velocity": 71, "note_on_time": 4.991, "note_off_time": 5.623}, {"pitch": 67, "velocity": 71, "note_on_time": 5.693, "note_off_time": 7.167}, {"pitch": 64, "velocity": 80, "note_on_time": 7.217, "note_off_time": 7.663}, {"pitch": 65, "velocity": 65, "note_on_time": 7.882, "note_off_time": 8.399}, {"pitch": 65, "velocity": 73, "note_on_time": 8.602, "note_off_time": 9.175}, {"pitch": 67, "velocity": 71, "note_on_time": 9.868, "note_off_time": 10.492}, {"pitch": 60, "velocity": 72, "note_on_time": 10.657, "note_off_time": 11.182}, {"pitch": 60, "velocity": 74, "note_on_time": 11.384, "note_off_time": 12.525}, {"pitch": 65, "velocity": 76, "note_on_time": 12.833, "note_off_time": 13.724}, {"pitch": 67, "velocity": 68, "note_on_time": 13.583, "note_off_time": 14.425}, {"pitch": 69, "velocity": 74, "note_on_time": 14.404, "note_off_time": 15.667}, {"pitch": 67, "velocity": 70, "note_on_time": 15.731, "note_off_time": 17.207}, {"pitch": 69, "velocity": 67, "note_on_time": 17.835, "note_off_time": 18.445}, {"pitch": 71, "velocity": 67, "note_on_time": 18.611, "note_off_time": 18.884}, {"pitch": 70, "velocity": 81, "note_on_time": 19.406, "note_off_time": 19.61}, {"pitch": 70, "velocity": 64, "note_on_time": 20.083, "note_off_time": 20.305}, {"pitch": 69, "velocity": 68, "note_on_time": 20.821, "note_off_time": 23.682}, {"pitch": 71, "velocity": 61, "note_on_time": 24.347, "note_off_time": 24.861}, {"pitch": 70, "velocity": 53, "note_on_time": 29.995, "note_off_time": 31.611}, {"pitch": 69, "velocity": 65, "note_on_time": 31.557, "note_off_time": 32.23}, {"pitch": 70, "velocity": 12, "note_on_time": 32.438, "note_off_time": 33.291}]</notes><guidance name="Guidance Mode">None</guidance><error name="Error value">1.552067460902256</error></trial></trials></MIDI>