<MIDI midiNo="2023_05_14-12_20_40"><target_notes><notes name="Note List">[{"pitch": 39, "velocity": 100, "note_on_time": 0.005, "note_off_time": 0.717}, {"pitch": 42, "velocity": 100, "note_on_time": 0.718, "note_off_time": 1.436}, {"pitch": 42, "velocity": 100, "note_on_time": 1.436, "note_off_time": 2.149}, {"pitch": 42, "velocity": 100, "note_on_time": 2.15, "note_off_time": 2.867}, {"pitch": 39, "velocity": 100, "note_on_time": 2.867, "note_off_time": 3.582}, {"pitch": 60, "velocity": 100, "note_on_time": 2.866, "note_off_time": 4.299}, {"pitch": 42, "velocity": 100, "note_on_time": 3.583, "note_off_time": 4.299}, {"pitch": 42, "velocity": 100, "note_on_time": 4.299, "note_off_time": 5.016}, {"pitch": 60, "velocity": 100, "note_on_time": 4.299, "note_off_time": 5.732}, {"pitch": 42, "velocity": 100, "note_on_time": 5.016, "note_off_time": 5.732}, {"pitch": 39, "velocity": 100, "note_on_time": 5.732, "note_off_time": 6.45}, {"pitch": 64, "velocity": 100, "note_on_time": 5.732, "note_off_time": 7.168}, {"pitch": 42, "velocity": 100, "note_on_time": 6.45, "note_off_time": 7.168}, {"pitch": 42, "velocity": 100, "note_on_time": 7.169, "note_off_time": 7.885}, {"pitch": 64, "velocity": 100, "note_on_time": 7.168, "note_off_time": 8.598}, {"pitch": 42, "velocity": 100, "note_on_time": 7.885, "note_off_time": 8.598}, {"pitch": 39, "velocity": 100, "note_on_time": 8.598, "note_off_time": 9.314}, {"pitch": 60, "velocity": 100, "note_on_time": 8.598, "note_off_time": 10.028}, {"pitch": 42, "velocity": 100, "note_on_time": 9.314, "note_off_time": 10.028}, {"pitch": 42, "velocity": 100, "note_on_time": 10.028, "note_off_time": 10.744}, {"pitch": 60, "velocity": 100, "note_on_time": 10.028, "note_off_time": 11.459}, {"pitch": 42, "velocity": 100, "note_on_time": 10.744, "note_off_time": 11.459}, {"pitch": 39, "velocity": 100, "note_on_time": 11.46, "note_off_time": 12.172}, {"pitch": 64, "velocity": 100, "note_on_time": 11.459, "note_off_time": 12.887}, {"pitch": 42, "velocity": 100, "note_on_time": 12.172, "note_off_time": 12.887}, {"pitch": 42, "velocity": 100, "note_on_time": 12.887, "note_off_time": 13.603}, {"pitch": 64, "velocity": 100, "note_on_time": 12.887, "note_off_time": 14.318}, {"pitch": 42, "velocity": 100, "note_on_time": 13.603, "note_off_time": 14.319}, {"pitch": 39, "velocity": 100, "note_on_time": 14.319, "note_off_time": 15.032}, {"pitch": 67, "velocity": 100, "note_on_time": 14.318, "note_off_time": 15.748}, {"pitch": 42, "velocity": 100, "note_on_time": 15.032, "note_off_time": 15.748}, {"pitch": 42, "velocity": 100, "note_on_time": 15.748, "note_off_time": 16.464}, {"pitch": 67, "velocity": 100, "note_on_time": 15.748, "note_off_time": 17.182}, {"pitch": 42, "velocity": 100, "note_on_time": 16.464, "note_off_time": 17.182}, {"pitch": 39, "velocity": 100, "note_on_time": 17.183, "note_off_time": 17.898}, {"pitch": 64, "velocity": 100, "note_on_time": 17.182, "note_off_time": 18.617}, {"pitch": 42, "velocity": 100, "note_on_time": 17.898, "note_off_time": 18.618}, {"pitch": 42, "velocity": 100, "note_on_time": 18.618, "note_off_time": 19.332}, {"pitch": 64, "velocity": 100, "note_on_time": 18.617, "note_off_time": 20.043}, {"pitch": 42, "velocity": 100, "note_on_time": 19.333, "note_off_time": 20.043}, {"pitch": 39, "velocity": 100, "note_on_time": 20.044, "note_off_time": 20.76}, {"pitch": 60, "velocity": 100, "note_on_time": 20.043, "note_off_time": 21.474}, {"pitch": 42, "velocity": 100, "note_on_time": 20.761, "note_off_time": 21.474}, {"pitch": 42, "velocity": 100, "note_on_time": 21.474, "note_off_time": 22.19}, {"pitch": 60, "velocity": 100, "note_on_time": 21.474, "note_off_time": 22.905}, {"pitch": 42, "velocity": 100, "note_on_time": 22.191, "note_off_time": 22.905}, {"pitch": 39, "velocity": 100, "note_on_time": 22.906, "note_off_time": 23.622}, {"pitch": 42, "velocity": 100, "note_on_time": 23.622, "note_off_time": 24.34}, {"pitch": 42, "velocity": 100, "note_on_time": 24.34, "note_off_time": 25.054}, {"pitch": 60, "velocity": 100, "note_on_time": 22.905, "note_off_time": 25.769}, {"pitch": 42, "velocity": 100, "note_on_time": 25.055, "note_off_time": 25.77}]</notes><options name="Option List">((4, 4), [0.5, 0.25], 3, 7, &lt;NoteRangePerHand.TWO_NOTES: 3&gt;, &lt;NoteRangePerHand.ONE_NOTE: 2&gt;, False, True, True, None)</options></target_notes><trials><trial trial_no="1" timestamp="2023_05_14-12_20_40"><notes name="Played Notes">[{"pitch": 60, "velocity": 83, "note_on_time": 2.922, "note_off_time": 3.969}, {"pitch": 60, "velocity": 86, "note_on_time": 4.306, "note_off_time": 5.694}, {"pitch": 64, "velocity": 88, "note_on_time": 5.702, "note_off_time": 6.827}, {"pitch": 64, "velocity": 82, "note_on_time": 7.181, "note_off_time": 8.571}, {"pitch": 60, "velocity": 91, "note_on_time": 8.552, "note_off_time": 9.793}, {"pitch": 60, "velocity": 94, "note_on_time": 10.035, "note_off_time": 11.409}, {"pitch": 64, "velocity": 91, "note_on_time": 11.411, "note_off_time": 12.531}, {"pitch": 64, "velocity": 79, "note_on_time": 12.887, "note_off_time": 14.291}, {"pitch": 67, "velocity": 77, "note_on_time": 14.296, "note_off_time": 15.44}, {"pitch": 67, "velocity": 85, "note_on_time": 15.766, "note_off_time": 17.145}, {"pitch": 64, "velocity": 82, "note_on_time": 17.13, "note_off_time": 18.338}, {"pitch": 64, "velocity": 84, "note_on_time": 18.6, "note_off_time": 19.667}, {"pitch": 60, "velocity": 86, "note_on_time": 20.035, "note_off_time": 21.11}, {"pitch": 60, "velocity": 85, "note_on_time": 21.453, "note_off_time": 22.547}, {"pitch": 60, "velocity": 99, "note_on_time": 22.887, "note_off_time": 25.555}]</notes><guidance name="Guidance Mode">None</guidance><error name="Error value">0.10770373333333369</error></trial></trials></MIDI>