<MIDI midiNo="2023_05_14-11_14_20"><target_notes><notes name="Note List">[{"pitch": 39, "velocity": 100, "note_on_time": 0.005, "note_off_time": 0.719}, {"pitch": 42, "velocity": 100, "note_on_time": 0.719, "note_off_time": 1.434}, {"pitch": 42, "velocity": 100, "note_on_time": 1.434, "note_off_time": 2.149}, {"pitch": 42, "velocity": 100, "note_on_time": 2.149, "note_off_time": 2.864}, {"pitch": 39, "velocity": 100, "note_on_time": 2.865, "note_off_time": 3.58}, {"pitch": 62, "velocity": 100, "note_on_time": 2.864, "note_off_time": 4.296}, {"pitch": 42, "velocity": 100, "note_on_time": 3.581, "note_off_time": 4.296}, {"pitch": 62, "velocity": 100, "note_on_time": 4.296, "note_off_time": 5.012}, {"pitch": 42, "velocity": 100, "note_on_time": 4.296, "note_off_time": 5.012}, {"pitch": 62, "velocity": 100, "note_on_time": 5.012, "note_off_time": 5.726}, {"pitch": 42, "velocity": 100, "note_on_time": 5.012, "note_off_time": 5.727}, {"pitch": 39, "velocity": 100, "note_on_time": 5.727, "note_off_time": 6.443}, {"pitch": 62, "velocity": 100, "note_on_time": 5.726, "note_off_time": 7.158}, {"pitch": 42, "velocity": 100, "note_on_time": 6.443, "note_off_time": 7.158}, {"pitch": 42, "velocity": 100, "note_on_time": 7.159, "note_off_time": 7.878}, {"pitch": 62, "velocity": 100, "note_on_time": 7.158, "note_off_time": 8.594}, {"pitch": 42, "velocity": 100, "note_on_time": 7.878, "note_off_time": 8.595}, {"pitch": 62, "velocity": 100, "note_on_time": 8.594, "note_off_time": 9.31}, {"pitch": 39, "velocity": 100, "note_on_time": 8.595, "note_off_time": 9.311}, {"pitch": 62, "velocity": 100, "note_on_time": 9.31, "note_off_time": 10.027}, {"pitch": 42, "velocity": 100, "note_on_time": 9.311, "note_off_time": 10.027}, {"pitch": 42, "velocity": 100, "note_on_time": 10.027, "note_off_time": 10.741}, {"pitch": 62, "velocity": 100, "note_on_time": 10.027, "note_off_time": 11.461}, {"pitch": 42, "velocity": 100, "note_on_time": 10.741, "note_off_time": 11.461}, {"pitch": 39, "velocity": 100, "note_on_time": 11.461, "note_off_time": 12.173}, {"pitch": 62, "velocity": 100, "note_on_time": 11.461, "note_off_time": 12.892}, {"pitch": 42, "velocity": 100, "note_on_time": 12.173, "note_off_time": 12.892}, {"pitch": 42, "velocity": 100, "note_on_time": 12.893, "note_off_time": 13.607}, {"pitch": 62, "velocity": 100, "note_on_time": 12.892, "note_off_time": 14.32}, {"pitch": 42, "velocity": 100, "note_on_time": 13.608, "note_off_time": 14.32}, {"pitch": 62, "velocity": 100, "note_on_time": 14.32, "note_off_time": 15.038}, {"pitch": 39, "velocity": 100, "note_on_time": 14.32, "note_off_time": 15.038}, {"pitch": 62, "velocity": 100, "note_on_time": 15.038, "note_off_time": 15.752}, {"pitch": 42, "velocity": 100, "note_on_time": 15.038, "note_off_time": 15.752}, {"pitch": 42, "velocity": 100, "note_on_time": 15.753, "note_off_time": 16.462}, {"pitch": 62, "velocity": 100, "note_on_time": 15.752, "note_off_time": 17.179}, {"pitch": 42, "velocity": 100, "note_on_time": 16.463, "note_off_time": 17.179}, {"pitch": 39, "velocity": 100, "note_on_time": 17.179, "note_off_time": 17.901}, {"pitch": 62, "velocity": 100, "note_on_time": 17.179, "note_off_time": 18.62}, {"pitch": 42, "velocity": 100, "note_on_time": 17.902, "note_off_time": 18.62}, {"pitch": 42, "velocity": 100, "note_on_time": 18.62, "note_off_time": 19.336}, {"pitch": 62, "velocity": 100, "note_on_time": 18.62, "note_off_time": 20.053}, {"pitch": 42, "velocity": 100, "note_on_time": 19.337, "note_off_time": 20.053}, {"pitch": 62, "velocity": 100, "note_on_time": 20.053, "note_off_time": 20.768}, {"pitch": 39, "velocity": 100, "note_on_time": 20.054, "note_off_time": 20.768}, {"pitch": 62, "velocity": 100, "note_on_time": 20.768, "note_off_time": 21.483}, {"pitch": 42, "velocity": 100, "note_on_time": 20.768, "note_off_time": 21.483}, {"pitch": 42, "velocity": 100, "note_on_time": 21.483, "note_off_time": 22.2}, {"pitch": 62, "velocity": 100, "note_on_time": 21.483, "note_off_time": 22.915}, {"pitch": 42, "velocity": 100, "note_on_time": 22.2, "note_off_time": 22.915}, {"pitch": 39, "velocity": 100, "note_on_time": 22.915, "note_off_time": 23.631}, {"pitch": 42, "velocity": 100, "note_on_time": 23.631, "note_off_time": 24.35}, {"pitch": 42, "velocity": 100, "note_on_time": 24.35, "note_off_time": 25.067}, {"pitch": 62, "velocity": 100, "note_on_time": 22.915, "note_off_time": 25.781}, {"pitch": 42, "velocity": 100, "note_on_time": 25.067, "note_off_time": 25.782}]</notes><options name="Option List">((4, 4), [0.5, 0.25], 3, 7, &lt;NoteRangePerHand.TWO_NOTES: 3&gt;, &lt;NoteRangePerHand.ONE_NOTE: 2&gt;, False, True, True, None)</options></target_notes><trials><trial trial_no="1" timestamp="2023_05_14-11_14_20"><notes name="Played Notes">[{"pitch": 62, "velocity": 60, "note_on_time": 2.928, "note_off_time": 3.951}, {"pitch": 62, "velocity": 73, "note_on_time": 4.219, "note_off_time": 4.74}, {"pitch": 62, "velocity": 53, "note_on_time": 4.946, "note_off_time": 5.506}, {"pitch": 62, "velocity": 79, "note_on_time": 5.758, "note_off_time": 6.972}, {"pitch": 62, "velocity": 73, "note_on_time": 7.174, "note_off_time": 8.356}, {"pitch": 62, "velocity": 73, "note_on_time": 8.571, "note_off_time": 9.315}, {"pitch": 62, "velocity": 57, "note_on_time": 10.0, "note_off_time": 10.371}, {"pitch": 62, "velocity": 66, "note_on_time": 10.67, "note_off_time": 11.179}, {"pitch": 62, "velocity": 72, "note_on_time": 11.489, "note_off_time": 12.741}, {"pitch": 62, "velocity": 75, "note_on_time": 12.943, "note_off_time": 14.045}, {"pitch": 62, "velocity": 72, "note_on_time": 14.403, "note_off_time": 14.759}, {"pitch": 62, "velocity": 73, "note_on_time": 15.086, "note_off_time": 15.366}, {"pitch": 62, "velocity": 65, "note_on_time": 15.731, "note_off_time": 16.704}, {"pitch": 62, "velocity": 67, "note_on_time": 17.067, "note_off_time": 18.343}, {"pitch": 62, "velocity": 75, "note_on_time": 18.605, "note_off_time": 19.693}, {"pitch": 62, "velocity": 73, "note_on_time": 20.028, "note_off_time": 20.412}, {"pitch": 62, "velocity": 72, "note_on_time": 20.713, "note_off_time": 21.119}, {"pitch": 62, "velocity": 67, "note_on_time": 21.451, "note_off_time": 22.567}, {"pitch": 62, "velocity": 67, "note_on_time": 22.804, "note_off_time": 25.478}]</notes><guidance name="Guidance Mode">None</guidance><error name="Error value">0.2523101842105264</error></trial></trials></MIDI>