<MIDI midiNo="2023_05_14-11_45_47"><target_notes><notes name="Note List">[{"pitch": 39, "velocity": 100, "note_on_time": 0.004, "note_off_time": 0.724}, {"pitch": 42, "velocity": 100, "note_on_time": 0.725, "note_off_time": 1.439}, {"pitch": 42, "velocity": 100, "note_on_time": 1.44, "note_off_time": 2.156}, {"pitch": 39, "velocity": 100, "note_on_time": 2.156, "note_off_time": 2.871}, {"pitch": 42, "velocity": 100, "note_on_time": 2.871, "note_off_time": 3.586}, {"pitch": 67, "velocity": 100, "note_on_time": 3.586, "note_off_time": 3.944}, {"pitch": 67, "velocity": 100, "note_on_time": 3.944, "note_off_time": 4.303}, {"pitch": 42, "velocity": 100, "note_on_time": 3.587, "note_off_time": 4.303}, {"pitch": 69, "velocity": 100, "note_on_time": 4.303, "note_off_time": 5.018}, {"pitch": 39, "velocity": 100, "note_on_time": 4.303, "note_off_time": 5.018}, {"pitch": 67, "velocity": 100, "note_on_time": 5.018, "note_off_time": 5.735}, {"pitch": 42, "velocity": 100, "note_on_time": 5.018, "note_off_time": 5.735}, {"pitch": 72, "velocity": 100, "note_on_time": 5.735, "note_off_time": 6.449}, {"pitch": 42, "velocity": 100, "note_on_time": 5.735, "note_off_time": 6.449}, {"pitch": 39, "velocity": 100, "note_on_time": 6.45, "note_off_time": 7.164}, {"pitch": 71, "velocity": 100, "note_on_time": 6.449, "note_off_time": 7.878}, {"pitch": 42, "velocity": 100, "note_on_time": 7.164, "note_off_time": 7.878}, {"pitch": 67, "velocity": 100, "note_on_time": 7.878, "note_off_time": 8.237}, {"pitch": 67, "velocity": 100, "note_on_time": 8.237, "note_off_time": 8.595}, {"pitch": 42, "velocity": 100, "note_on_time": 7.878, "note_off_time": 8.596}, {"pitch": 69, "velocity": 100, "note_on_time": 8.595, "note_off_time": 9.31}, {"pitch": 39, "velocity": 100, "note_on_time": 8.596, "note_off_time": 9.31}, {"pitch": 67, "velocity": 100, "note_on_time": 9.31, "note_off_time": 10.027}, {"pitch": 42, "velocity": 100, "note_on_time": 9.31, "note_off_time": 10.028}, {"pitch": 74, "velocity": 100, "note_on_time": 10.027, "note_off_time": 10.743}, {"pitch": 42, "velocity": 100, "note_on_time": 10.028, "note_off_time": 10.743}, {"pitch": 39, "velocity": 100, "note_on_time": 10.743, "note_off_time": 11.46}, {"pitch": 72, "velocity": 100, "note_on_time": 10.743, "note_off_time": 12.173}, {"pitch": 42, "velocity": 100, "note_on_time": 11.46, "note_off_time": 12.173}, {"pitch": 67, "velocity": 100, "note_on_time": 12.173, "note_off_time": 12.531}, {"pitch": 67, "velocity": 100, "note_on_time": 12.531, "note_off_time": 12.886}, {"pitch": 42, "velocity": 100, "note_on_time": 12.174, "note_off_time": 12.886}, {"pitch": 79, "velocity": 100, "note_on_time": 12.886, "note_off_time": 13.602}, {"pitch": 39, "velocity": 100, "note_on_time": 12.887, "note_off_time": 13.603}, {"pitch": 76, "velocity": 100, "note_on_time": 13.602, "note_off_time": 14.32}, {"pitch": 42, "velocity": 100, "note_on_time": 13.603, "note_off_time": 14.32}, {"pitch": 72, "velocity": 100, "note_on_time": 14.32, "note_off_time": 15.035}, {"pitch": 42, "velocity": 100, "note_on_time": 14.32, "note_off_time": 15.035}, {"pitch": 71, "velocity": 100, "note_on_time": 15.035, "note_off_time": 15.751}, {"pitch": 39, "velocity": 100, "note_on_time": 15.035, "note_off_time": 15.751}, {"pitch": 69, "velocity": 100, "note_on_time": 15.751, "note_off_time": 16.466}, {"pitch": 42, "velocity": 100, "note_on_time": 15.752, "note_off_time": 16.466}, {"pitch": 77, "velocity": 100, "note_on_time": 16.466, "note_off_time": 16.82}, {"pitch": 77, "velocity": 100, "note_on_time": 16.82, "note_off_time": 17.176}, {"pitch": 42, "velocity": 100, "note_on_time": 16.466, "note_off_time": 17.176}, {"pitch": 76, "velocity": 100, "note_on_time": 17.176, "note_off_time": 17.897}, {"pitch": 39, "velocity": 100, "note_on_time": 17.177, "note_off_time": 17.897}, {"pitch": 72, "velocity": 100, "note_on_time": 17.897, "note_off_time": 18.612}, {"pitch": 42, "velocity": 100, "note_on_time": 17.897, "note_off_time": 18.612}, {"pitch": 74, "velocity": 100, "note_on_time": 18.612, "note_off_time": 19.327}, {"pitch": 42, "velocity": 100, "note_on_time": 18.613, "note_off_time": 19.328}, {"pitch": 39, "velocity": 100, "note_on_time": 19.328, "note_off_time": 20.041}, {"pitch": 72, "velocity": 100, "note_on_time": 19.327, "note_off_time": 20.756}, {"pitch": 42, "velocity": 100, "note_on_time": 20.042, "note_off_time": 20.756}, {"pitch": 42, "velocity": 100, "note_on_time": 20.757, "note_off_time": 21.47}]</notes><options name="Option List">((4, 4), [0.5, 0.25], 3, 7, &lt;NoteRangePerHand.TWO_NOTES: 3&gt;, &lt;NoteRangePerHand.ONE_NOTE: 2&gt;, False, True, True, None)</options></target_notes><trials><trial trial_no="1" timestamp="2023_05_14-11_45_47"><notes name="Played Notes">[{"pitch": 67, "velocity": 71, "note_on_time": 3.56, "note_off_time": 3.773}, {"pitch": 67, "velocity": 77, "note_on_time": 3.923, "note_off_time": 4.229}, {"pitch": 69, "velocity": 74, "note_on_time": 4.295, "note_off_time": 5.068}, {"pitch": 67, "velocity": 74, "note_on_time": 4.998, "note_off_time": 5.765}, {"pitch": 72, "velocity": 49, "note_on_time": 5.74, "note_off_time": 6.448}, {"pitch": 71, "velocity": 78, "note_on_time": 6.416, "note_off_time": 7.621}, {"pitch": 67, "velocity": 71, "note_on_time": 7.82, "note_off_time": 8.054}, {"pitch": 67, "velocity": 68, "note_on_time": 8.166, "note_off_time": 8.534}, {"pitch": 69, "velocity": 78, "note_on_time": 8.539, "note_off_time": 9.383}, {"pitch": 67, "velocity": 70, "note_on_time": 9.271, "note_off_time": 10.015}, {"pitch": 74, "velocity": 70, "note_on_time": 10.01, "note_off_time": 10.762}, {"pitch": 72, "velocity": 79, "note_on_time": 10.74, "note_off_time": 12.005}, {"pitch": 67, "velocity": 65, "note_on_time": 12.137, "note_off_time": 12.377}, {"pitch": 67, "velocity": 81, "note_on_time": 12.535, "note_off_time": 12.935}, {"pitch": 79, "velocity": 79, "note_on_time": 12.931, "note_off_time": 13.672}, {"pitch": 76, "velocity": 81, "note_on_time": 13.628, "note_off_time": 14.364}, {"pitch": 72, "velocity": 79, "note_on_time": 14.389, "note_off_time": 15.299}, {"pitch": 71, "velocity": 71, "note_on_time": 15.077, "note_off_time": 15.851}, {"pitch": 69, "velocity": 63, "note_on_time": 15.755, "note_off_time": 16.151}, {"pitch": 72, "velocity": 78, "note_on_time": 16.561, "note_off_time": 16.686}]</notes><guidance name="Guidance Mode">None</guidance><error name="Error value">0.8415372448484847</error></trial></trials></MIDI>