<MIDI midiNo="2023_05_14-12_26_24"><target_notes><notes name="Note List">[{"pitch": 39, "velocity": 100, "note_on_time": 0.005, "note_off_time": 0.712}, {"pitch": 42, "velocity": 100, "note_on_time": 0.712, "note_off_time": 1.424}, {"pitch": 42, "velocity": 100, "note_on_time": 1.424, "note_off_time": 2.139}, {"pitch": 42, "velocity": 100, "note_on_time": 2.139, "note_off_time": 2.853}, {"pitch": 60, "velocity": 100, "note_on_time": 2.853, "note_off_time": 3.567}, {"pitch": 39, "velocity": 100, "note_on_time": 2.853, "note_off_time": 3.567}, {"pitch": 64, "velocity": 100, "note_on_time": 3.567, "note_off_time": 4.28}, {"pitch": 42, "velocity": 100, "note_on_time": 3.567, "note_off_time": 4.28}, {"pitch": 60, "velocity": 100, "note_on_time": 4.28, "note_off_time": 4.992}, {"pitch": 42, "velocity": 100, "note_on_time": 4.28, "note_off_time": 4.992}, {"pitch": 67, "velocity": 100, "note_on_time": 4.992, "note_off_time": 5.711}, {"pitch": 42, "velocity": 100, "note_on_time": 4.992, "note_off_time": 5.711}, {"pitch": 64, "velocity": 100, "note_on_time": 5.711, "note_off_time": 6.427}, {"pitch": 39, "velocity": 100, "note_on_time": 5.711, "note_off_time": 6.428}, {"pitch": 42, "velocity": 100, "note_on_time": 6.428, "note_off_time": 7.141}, {"pitch": 60, "velocity": 100, "note_on_time": 6.427, "note_off_time": 7.854}, {"pitch": 42, "velocity": 100, "note_on_time": 7.142, "note_off_time": 7.854}, {"pitch": 67, "velocity": 100, "note_on_time": 7.854, "note_off_time": 8.568}, {"pitch": 42, "velocity": 100, "note_on_time": 7.854, "note_off_time": 8.569}, {"pitch": 64, "velocity": 100, "note_on_time": 8.568, "note_off_time": 9.281}, {"pitch": 39, "velocity": 100, "note_on_time": 8.569, "note_off_time": 9.281}, {"pitch": 60, "velocity": 100, "note_on_time": 9.281, "note_off_time": 9.999}, {"pitch": 42, "velocity": 100, "note_on_time": 9.282, "note_off_time": 9.999}, {"pitch": 67, "velocity": 100, "note_on_time": 9.999, "note_off_time": 10.719}, {"pitch": 42, "velocity": 100, "note_on_time": 9.999, "note_off_time": 10.719}, {"pitch": 64, "velocity": 100, "note_on_time": 10.719, "note_off_time": 11.435}, {"pitch": 42, "velocity": 100, "note_on_time": 10.719, "note_off_time": 11.435}, {"pitch": 60, "velocity": 100, "note_on_time": 11.435, "note_off_time": 12.15}, {"pitch": 39, "velocity": 100, "note_on_time": 11.435, "note_off_time": 12.15}, {"pitch": 67, "velocity": 100, "note_on_time": 12.15, "note_off_time": 12.865}, {"pitch": 42, "velocity": 100, "note_on_time": 12.15, "note_off_time": 12.866}, {"pitch": 42, "velocity": 100, "note_on_time": 12.866, "note_off_time": 13.582}, {"pitch": 64, "velocity": 100, "note_on_time": 12.865, "note_off_time": 14.296}, {"pitch": 42, "velocity": 100, "note_on_time": 13.582, "note_off_time": 14.297}, {"pitch": 67, "velocity": 100, "note_on_time": 14.296, "note_off_time": 15.013}, {"pitch": 39, "velocity": 100, "note_on_time": 14.297, "note_off_time": 15.013}, {"pitch": 64, "velocity": 100, "note_on_time": 15.013, "note_off_time": 15.73}, {"pitch": 42, "velocity": 100, "note_on_time": 15.014, "note_off_time": 15.731}, {"pitch": 67, "velocity": 100, "note_on_time": 15.73, "note_off_time": 16.444}, {"pitch": 42, "velocity": 100, "note_on_time": 15.731, "note_off_time": 16.444}, {"pitch": 60, "velocity": 100, "note_on_time": 16.444, "note_off_time": 17.157}, {"pitch": 42, "velocity": 100, "note_on_time": 16.444, "note_off_time": 17.158}, {"pitch": 67, "velocity": 100, "note_on_time": 17.157, "note_off_time": 17.875}, {"pitch": 39, "velocity": 100, "note_on_time": 17.158, "note_off_time": 17.875}, {"pitch": 60, "velocity": 100, "note_on_time": 17.875, "note_off_time": 18.592}, {"pitch": 42, "velocity": 100, "note_on_time": 17.875, "note_off_time": 18.592}, {"pitch": 42, "velocity": 100, "note_on_time": 18.592, "note_off_time": 19.305}, {"pitch": 64, "velocity": 100, "note_on_time": 18.592, "note_off_time": 20.019}, {"pitch": 42, "velocity": 100, "note_on_time": 19.305, "note_off_time": 20.019}, {"pitch": 60, "velocity": 100, "note_on_time": 20.019, "note_off_time": 20.736}, {"pitch": 39, "velocity": 100, "note_on_time": 20.019, "note_off_time": 20.736}, {"pitch": 42, "velocity": 100, "note_on_time": 20.736, "note_off_time": 21.452}, {"pitch": 64, "velocity": 100, "note_on_time": 20.736, "note_off_time": 22.171}, {"pitch": 42, "velocity": 100, "note_on_time": 21.453, "note_off_time": 22.171}, {"pitch": 67, "velocity": 100, "note_on_time": 22.171, "note_off_time": 22.887}, {"pitch": 42, "velocity": 100, "note_on_time": 22.171, "note_off_time": 22.887}, {"pitch": 39, "velocity": 100, "note_on_time": 22.887, "note_off_time": 23.606}, {"pitch": 42, "velocity": 100, "note_on_time": 23.606, "note_off_time": 24.325}, {"pitch": 42, "velocity": 100, "note_on_time": 24.325, "note_off_time": 25.044}, {"pitch": 60, "velocity": 100, "note_on_time": 22.887, "note_off_time": 25.759}, {"pitch": 42, "velocity": 100, "note_on_time": 25.044, "note_off_time": 25.759}]</notes><options name="Option List">((4, 4), [0.5, 0.25], 3, 7, &lt;NoteRangePerHand.TWO_NOTES: 3&gt;, &lt;NoteRangePerHand.ONE_NOTE: 2&gt;, False, True, True, None)</options></target_notes><trials><trial trial_no="1" timestamp="2023_05_14-12_26_24"><notes name="Played Notes">[{"pitch": 60, "velocity": 71, "note_on_time": 2.822, "note_off_time": 3.514}, {"pitch": 64, "velocity": 74, "note_on_time": 3.54, "note_off_time": 4.263}, {"pitch": 60, "velocity": 73, "note_on_time": 4.267, "note_off_time": 4.961}, {"pitch": 67, "velocity": 82, "note_on_time": 4.97, "note_off_time": 5.733}, {"pitch": 64, "velocity": 78, "note_on_time": 5.71, "note_off_time": 6.445}, {"pitch": 60, "velocity": 68, "note_on_time": 6.445, "note_off_time": 7.774}, {"pitch": 67, "velocity": 51, "note_on_time": 7.842, "note_off_time": 7.914}, {"pitch": 64, "velocity": 53, "note_on_time": 7.928, "note_off_time": 8.603}, {"pitch": 67, "velocity": 68, "note_on_time": 8.612, "note_off_time": 9.233}, {"pitch": 64, "velocity": 59, "note_on_time": 23.465, "note_off_time": 23.677}]</notes><guidance name="Guidance Mode">None</guidance><error name="Error value">1.38982613</error></trial></trials></MIDI>