<MIDI midiNo="2023_05_14-11_13_29"><target_notes><notes name="Note List">[{"pitch": 39, "velocity": 100, "note_on_time": 0.005, "note_off_time": 0.719}, {"pitch": 42, "velocity": 100, "note_on_time": 0.719, "note_off_time": 1.434}, {"pitch": 42, "velocity": 100, "note_on_time": 1.434, "note_off_time": 2.151}, {"pitch": 42, "velocity": 100, "note_on_time": 2.151, "note_off_time": 2.865}, {"pitch": 39, "velocity": 100, "note_on_time": 2.865, "note_off_time": 3.581}, {"pitch": 60, "velocity": 100, "note_on_time": 2.865, "note_off_time": 4.299}, {"pitch": 42, "velocity": 100, "note_on_time": 3.582, "note_off_time": 4.3}, {"pitch": 67, "velocity": 100, "note_on_time": 4.299, "note_off_time": 5.016}, {"pitch": 42, "velocity": 100, "note_on_time": 4.3, "note_off_time": 5.017}, {"pitch": 60, "velocity": 100, "note_on_time": 5.016, "note_off_time": 5.729}, {"pitch": 42, "velocity": 100, "note_on_time": 5.017, "note_off_time": 5.729}, {"pitch": 39, "velocity": 100, "note_on_time": 5.73, "note_off_time": 6.443}, {"pitch": 64, "velocity": 100, "note_on_time": 5.729, "note_off_time": 7.157}, {"pitch": 42, "velocity": 100, "note_on_time": 6.443, "note_off_time": 7.157}, {"pitch": 42, "velocity": 100, "note_on_time": 7.157, "note_off_time": 7.873}, {"pitch": 67, "velocity": 100, "note_on_time": 7.157, "note_off_time": 8.59}, {"pitch": 42, "velocity": 100, "note_on_time": 7.873, "note_off_time": 8.59}, {"pitch": 64, "velocity": 100, "note_on_time": 8.59, "note_off_time": 9.309}, {"pitch": 39, "velocity": 100, "note_on_time": 8.591, "note_off_time": 9.31}, {"pitch": 67, "velocity": 100, "note_on_time": 9.309, "note_off_time": 10.022}, {"pitch": 42, "velocity": 100, "note_on_time": 9.31, "note_off_time": 10.023}, {"pitch": 42, "velocity": 100, "note_on_time": 10.023, "note_off_time": 10.735}, {"pitch": 60, "velocity": 100, "note_on_time": 10.022, "note_off_time": 11.45}, {"pitch": 42, "velocity": 100, "note_on_time": 10.735, "note_off_time": 11.45}, {"pitch": 39, "velocity": 100, "note_on_time": 11.45, "note_off_time": 12.167}, {"pitch": 64, "velocity": 100, "note_on_time": 11.45, "note_off_time": 12.882}, {"pitch": 42, "velocity": 100, "note_on_time": 12.168, "note_off_time": 12.882}, {"pitch": 42, "velocity": 100, "note_on_time": 12.883, "note_off_time": 13.601}, {"pitch": 64, "velocity": 100, "note_on_time": 12.882, "note_off_time": 14.314}, {"pitch": 42, "velocity": 100, "note_on_time": 13.601, "note_off_time": 14.314}, {"pitch": 67, "velocity": 100, "note_on_time": 14.314, "note_off_time": 15.027}, {"pitch": 39, "velocity": 100, "note_on_time": 14.314, "note_off_time": 15.027}, {"pitch": 64, "velocity": 100, "note_on_time": 15.027, "note_off_time": 15.742}, {"pitch": 42, "velocity": 100, "note_on_time": 15.028, "note_off_time": 15.742}, {"pitch": 42, "velocity": 100, "note_on_time": 15.743, "note_off_time": 16.457}, {"pitch": 67, "velocity": 100, "note_on_time": 15.742, "note_off_time": 17.17}, {"pitch": 42, "velocity": 100, "note_on_time": 16.458, "note_off_time": 17.17}, {"pitch": 39, "velocity": 100, "note_on_time": 17.171, "note_off_time": 17.886}, {"pitch": 64, "velocity": 100, "note_on_time": 17.17, "note_off_time": 18.6}, {"pitch": 42, "velocity": 100, "note_on_time": 17.887, "note_off_time": 18.601}, {"pitch": 42, "velocity": 100, "note_on_time": 18.601, "note_off_time": 19.319}, {"pitch": 60, "velocity": 100, "note_on_time": 18.6, "note_off_time": 20.035}, {"pitch": 42, "velocity": 100, "note_on_time": 19.319, "note_off_time": 20.035}, {"pitch": 67, "velocity": 100, "note_on_time": 20.035, "note_off_time": 20.75}, {"pitch": 39, "velocity": 100, "note_on_time": 20.036, "note_off_time": 20.751}, {"pitch": 60, "velocity": 100, "note_on_time": 20.75, "note_off_time": 21.465}, {"pitch": 42, "velocity": 100, "note_on_time": 20.751, "note_off_time": 21.466}, {"pitch": 42, "velocity": 100, "note_on_time": 21.466, "note_off_time": 22.184}, {"pitch": 67, "velocity": 100, "note_on_time": 21.465, "note_off_time": 22.902}, {"pitch": 42, "velocity": 100, "note_on_time": 22.184, "note_off_time": 22.902}, {"pitch": 39, "velocity": 100, "note_on_time": 22.902, "note_off_time": 23.619}, {"pitch": 42, "velocity": 100, "note_on_time": 23.619, "note_off_time": 24.336}, {"pitch": 42, "velocity": 100, "note_on_time": 24.336, "note_off_time": 25.048}, {"pitch": 60, "velocity": 100, "note_on_time": 22.902, "note_off_time": 25.763}, {"pitch": 42, "velocity": 100, "note_on_time": 25.048, "note_off_time": 25.764}]</notes><options name="Option List">((4, 4), [0.5, 0.25], 3, 7, &lt;NoteRangePerHand.TWO_NOTES: 3&gt;, &lt;NoteRangePerHand.ONE_NOTE: 2&gt;, False, True, True, None)</options></target_notes><trials><trial trial_no="1" timestamp="2023_05_14-11_13_29"><notes name="Played Notes">[{"pitch": 60, "velocity": 73, "note_on_time": 3.605, "note_off_time": 4.767}, {"pitch": 67, "velocity": 73, "note_on_time": 5.031, "note_off_time": 5.87}, {"pitch": 60, "velocity": 74, "note_on_time": 6.421, "note_off_time": 7.421}, {"pitch": 64, "velocity": 78, "note_on_time": 7.786, "note_off_time": 9.151}, {"pitch": 60, "velocity": 63, "note_on_time": 9.291, "note_off_time": 10.227}, {"pitch": 64, "velocity": 79, "note_on_time": 15.07, "note_off_time": 16.198}, {"pitch": 64, "velocity": 75, "note_on_time": 16.456, "note_off_time": 17.354}, {"pitch": 67, "velocity": 72, "note_on_time": 17.89, "note_off_time": 18.726}, {"pitch": 64, "velocity": 64, "note_on_time": 19.27, "note_off_time": 20.162}, {"pitch": 67, "velocity": 67, "note_on_time": 20.662, "note_off_time": 21.58}, {"pitch": 64, "velocity": 81, "note_on_time": 22.037, "note_off_time": 23.102}, {"pitch": 60, "velocity": 63, "note_on_time": 23.531, "note_off_time": 24.453}]</notes><guidance name="Guidance Mode">None</guidance><error name="Error value">1.2484349964912282</error></trial></trials></MIDI>