<MIDI midiNo="2023_05_14-11_27_53"><target_notes><notes name="Note List">[{"pitch": 39, "velocity": 100, "note_on_time": 0.008, "note_off_time": 0.722}, {"pitch": 42, "velocity": 100, "note_on_time": 0.722, "note_off_time": 1.44}, {"pitch": 42, "velocity": 100, "note_on_time": 1.44, "note_off_time": 2.154}, {"pitch": 39, "velocity": 100, "note_on_time": 2.155, "note_off_time": 2.869}, {"pitch": 42, "velocity": 100, "note_on_time": 2.87, "note_off_time": 3.59}, {"pitch": 67, "velocity": 100, "note_on_time": 3.589, "note_off_time": 4.304}, {"pitch": 42, "velocity": 100, "note_on_time": 3.59, "note_off_time": 4.304}, {"pitch": 72, "velocity": 100, "note_on_time": 4.304, "note_off_time": 5.022}, {"pitch": 39, "velocity": 100, "note_on_time": 4.304, "note_off_time": 5.023}, {"pitch": 72, "velocity": 100, "note_on_time": 5.022, "note_off_time": 5.74}, {"pitch": 42, "velocity": 100, "note_on_time": 5.023, "note_off_time": 5.74}, {"pitch": 74, "velocity": 100, "note_on_time": 5.74, "note_off_time": 6.457}, {"pitch": 42, "velocity": 100, "note_on_time": 5.74, "note_off_time": 6.457}, {"pitch": 39, "velocity": 100, "note_on_time": 6.457, "note_off_time": 7.173}, {"pitch": 76, "velocity": 100, "note_on_time": 6.457, "note_off_time": 7.888}, {"pitch": 42, "velocity": 100, "note_on_time": 7.174, "note_off_time": 7.888}, {"pitch": 67, "velocity": 100, "note_on_time": 7.888, "note_off_time": 8.602}, {"pitch": 42, "velocity": 100, "note_on_time": 7.888, "note_off_time": 8.602}, {"pitch": 39, "velocity": 100, "note_on_time": 8.602, "note_off_time": 9.316}, {"pitch": 72, "velocity": 100, "note_on_time": 8.602, "note_off_time": 10.033}, {"pitch": 42, "velocity": 100, "note_on_time": 9.317, "note_off_time": 10.033}, {"pitch": 76, "velocity": 100, "note_on_time": 10.033, "note_off_time": 10.744}, {"pitch": 42, "velocity": 100, "note_on_time": 10.034, "note_off_time": 10.745}, {"pitch": 39, "velocity": 100, "note_on_time": 10.745, "note_off_time": 11.461}, {"pitch": 74, "velocity": 100, "note_on_time": 10.744, "note_off_time": 12.178}, {"pitch": 42, "velocity": 100, "note_on_time": 11.462, "note_off_time": 12.178}, {"pitch": 67, "velocity": 100, "note_on_time": 12.178, "note_off_time": 12.894}, {"pitch": 42, "velocity": 100, "note_on_time": 12.178, "note_off_time": 12.894}, {"pitch": 39, "velocity": 100, "note_on_time": 12.894, "note_off_time": 13.606}, {"pitch": 74, "velocity": 100, "note_on_time": 12.894, "note_off_time": 14.324}, {"pitch": 42, "velocity": 100, "note_on_time": 13.607, "note_off_time": 14.324}, {"pitch": 76, "velocity": 100, "note_on_time": 14.324, "note_off_time": 15.044}, {"pitch": 42, "velocity": 100, "note_on_time": 14.324, "note_off_time": 15.045}, {"pitch": 77, "velocity": 100, "note_on_time": 15.044, "note_off_time": 15.759}, {"pitch": 39, "velocity": 100, "note_on_time": 15.045, "note_off_time": 15.759}, {"pitch": 74, "velocity": 100, "note_on_time": 15.759, "note_off_time": 16.473}, {"pitch": 42, "velocity": 100, "note_on_time": 15.759, "note_off_time": 16.474}, {"pitch": 71, "velocity": 100, "note_on_time": 16.473, "note_off_time": 17.193}, {"pitch": 42, "velocity": 100, "note_on_time": 16.474, "note_off_time": 17.194}, {"pitch": 67, "velocity": 100, "note_on_time": 17.193, "note_off_time": 17.91}, {"pitch": 39, "velocity": 100, "note_on_time": 17.194, "note_off_time": 17.911}, {"pitch": 69, "velocity": 100, "note_on_time": 17.91, "note_off_time": 18.628}, {"pitch": 42, "velocity": 100, "note_on_time": 17.911, "note_off_time": 18.629}, {"pitch": 71, "velocity": 100, "note_on_time": 18.628, "note_off_time": 19.344}, {"pitch": 42, "velocity": 100, "note_on_time": 18.629, "note_off_time": 19.344}, {"pitch": 39, "velocity": 100, "note_on_time": 19.344, "note_off_time": 20.057}, {"pitch": 72, "velocity": 100, "note_on_time": 19.344, "note_off_time": 20.769}, {"pitch": 42, "velocity": 100, "note_on_time": 20.057, "note_off_time": 20.769}, {"pitch": 67, "velocity": 100, "note_on_time": 20.769, "note_off_time": 21.483}, {"pitch": 42, "velocity": 100, "note_on_time": 20.769, "note_off_time": 21.483}, {"pitch": 39, "velocity": 100, "note_on_time": 21.483, "note_off_time": 22.199}, {"pitch": 72, "velocity": 100, "note_on_time": 21.483, "note_off_time": 22.915}, {"pitch": 42, "velocity": 100, "note_on_time": 22.2, "note_off_time": 22.915}, {"pitch": 74, "velocity": 100, "note_on_time": 22.915, "note_off_time": 23.631}, {"pitch": 42, "velocity": 100, "note_on_time": 22.916, "note_off_time": 23.631}, {"pitch": 76, "velocity": 100, "note_on_time": 23.631, "note_off_time": 24.349}, {"pitch": 39, "velocity": 100, "note_on_time": 23.632, "note_off_time": 24.349}, {"pitch": 76, "velocity": 100, "note_on_time": 24.349, "note_off_time": 25.065}, {"pitch": 42, "velocity": 100, "note_on_time": 24.349, "note_off_time": 25.065}, {"pitch": 67, "velocity": 100, "note_on_time": 25.065, "note_off_time": 25.782}, {"pitch": 42, "velocity": 100, "note_on_time": 25.065, "note_off_time": 25.782}, {"pitch": 39, "velocity": 100, "note_on_time": 25.783, "note_off_time": 26.5}, {"pitch": 72, "velocity": 100, "note_on_time": 25.782, "note_off_time": 27.216}, {"pitch": 42, "velocity": 100, "note_on_time": 26.5, "note_off_time": 27.217}, {"pitch": 76, "velocity": 100, "note_on_time": 27.216, "note_off_time": 27.932}, {"pitch": 42, "velocity": 100, "note_on_time": 27.217, "note_off_time": 27.933}, {"pitch": 39, "velocity": 100, "note_on_time": 27.933, "note_off_time": 28.646}, {"pitch": 42, "velocity": 100, "note_on_time": 28.647, "note_off_time": 29.362}, {"pitch": 74, "velocity": 100, "note_on_time": 27.932, "note_off_time": 30.076}, {"pitch": 42, "velocity": 100, "note_on_time": 29.362, "note_off_time": 30.077}, {"pitch": 39, "velocity": 100, "note_on_time": 30.077, "note_off_time": 30.789}, {"pitch": 74, "velocity": 100, "note_on_time": 30.076, "note_off_time": 31.502}, {"pitch": 42, "velocity": 100, "note_on_time": 30.789, "note_off_time": 31.503}, {"pitch": 76, "velocity": 100, "note_on_time": 31.503, "note_off_time": 32.217}, {"pitch": 42, "velocity": 100, "note_on_time": 31.503, "note_off_time": 32.217}, {"pitch": 77, "velocity": 100, "note_on_time": 32.217, "note_off_time": 32.929}, {"pitch": 39, "velocity": 100, "note_on_time": 32.217, "note_off_time": 32.93}, {"pitch": 74, "velocity": 100, "note_on_time": 32.929, "note_off_time": 33.648}, {"pitch": 42, "velocity": 100, "note_on_time": 32.93, "note_off_time": 33.648}, {"pitch": 71, "velocity": 100, "note_on_time": 33.648, "note_off_time": 34.363}, {"pitch": 42, "velocity": 100, "note_on_time": 33.649, "note_off_time": 34.364}, {"pitch": 67, "velocity": 100, "note_on_time": 34.364, "note_off_time": 35.081}, {"pitch": 39, "velocity": 100, "note_on_time": 34.364, "note_off_time": 35.081}, {"pitch": 69, "velocity": 100, "note_on_time": 35.081, "note_off_time": 35.797}, {"pitch": 42, "velocity": 100, "note_on_time": 35.082, "note_off_time": 35.797}, {"pitch": 71, "velocity": 100, "note_on_time": 35.797, "note_off_time": 36.512}, {"pitch": 42, "velocity": 100, "note_on_time": 35.797, "note_off_time": 36.512}, {"pitch": 39, "velocity": 100, "note_on_time": 36.512, "note_off_time": 37.229}, {"pitch": 72, "velocity": 100, "note_on_time": 36.512, "note_off_time": 37.945}, {"pitch": 42, "velocity": 100, "note_on_time": 37.229, "note_off_time": 37.946}, {"pitch": 42, "velocity": 100, "note_on_time": 37.946, "note_off_time": 38.656}]</notes><options name="Option List">((4, 4), [0.5, 0.25], 3, 7, &lt;NoteRangePerHand.TWO_NOTES: 3&gt;, &lt;NoteRangePerHand.ONE_NOTE: 2&gt;, False, True, True, None)</options></target_notes><trials><trial trial_no="1" timestamp="2023_05_14-11_27_53"><notes name="Played Notes">[{"pitch": 62, "velocity": 68, "note_on_time": 4.283, "note_off_time": 4.744}, {"pitch": 67, "velocity": 73, "note_on_time": 8.7, "note_off_time": 9.34}, {"pitch": 72, "velocity": 79, "note_on_time": 9.344, "note_off_time": 10.081}, {"pitch": 72, "velocity": 68, "note_on_time": 10.141, "note_off_time": 10.753}, {"pitch": 74, "velocity": 71, "note_on_time": 10.694, "note_off_time": 11.433}, {"pitch": 76, "velocity": 81, "note_on_time": 11.366, "note_off_time": 12.461}, {"pitch": 67, "velocity": 70, "note_on_time": 12.695, "note_off_time": 13.343}, {"pitch": 72, "velocity": 71, "note_on_time": 13.387, "note_off_time": 14.448}, {"pitch": 76, "velocity": 65, "note_on_time": 14.813, "note_off_time": 15.538}, {"pitch": 74, "velocity": 76, "note_on_time": 15.542, "note_off_time": 16.52}, {"pitch": 67, "velocity": 75, "note_on_time": 16.942, "note_off_time": 17.791}, {"pitch": 72, "velocity": 82, "note_on_time": 17.831, "note_off_time": 18.163}, {"pitch": 74, "velocity": 79, "note_on_time": 18.796, "note_off_time": 18.984}, {"pitch": 76, "velocity": 74, "note_on_time": 19.315, "note_off_time": 19.654}, {"pitch": 77, "velocity": 68, "note_on_time": 19.755, "note_off_time": 20.076}, {"pitch": 76, "velocity": 77, "note_on_time": 20.248, "note_off_time": 20.547}, {"pitch": 74, "velocity": 47, "note_on_time": 20.863, "note_off_time": 21.157}, {"pitch": 67, "velocity": 67, "note_on_time": 21.796, "note_off_time": 21.896}, {"pitch": 69, "velocity": 78, "note_on_time": 22.32, "note_off_time": 22.867}, {"pitch": 71, "velocity": 80, "note_on_time": 22.83, "note_off_time": 23.174}, {"pitch": 72, "velocity": 84, "note_on_time": 23.51, "note_off_time": 24.649}, {"pitch": 67, "velocity": 57, "note_on_time": 24.928, "note_off_time": 25.684}, {"pitch": 71, "velocity": 13, "note_on_time": 25.801, "note_off_time": 26.146}, {"pitch": 72, "velocity": 94, "note_on_time": 26.315, "note_off_time": 26.756}, {"pitch": 72, "velocity": 25, "note_on_time": 26.938, "note_off_time": 27.182}, {"pitch": 76, "velocity": 48, "note_on_time": 27.528, "note_off_time": 28.691}, {"pitch": 67, "velocity": 74, "note_on_time": 29.424, "note_off_time": 30.489}, {"pitch": 72, "velocity": 64, "note_on_time": 29.971, "note_off_time": 31.015}, {"pitch": 76, "velocity": 83, "note_on_time": 31.358, "note_off_time": 32.049}, {"pitch": 74, "velocity": 80, "note_on_time": 32.075, "note_off_time": 33.954}, {"pitch": 74, "velocity": 78, "note_on_time": 34.33, "note_off_time": 35.588}, {"pitch": 76, "velocity": 56, "note_on_time": 36.165, "note_off_time": 36.948}, {"pitch": 74, "velocity": 73, "note_on_time": 36.814, "note_off_time": 37.084}, {"pitch": 76, "velocity": 41, "note_on_time": 37.255, "note_off_time": 37.302}, {"pitch": 77, "velocity": 87, "note_on_time": 37.304, "note_off_time": 37.776}, {"pitch": 76, "velocity": 64, "note_on_time": 37.959, "note_off_time": 38.182}]</notes><guidance name="Guidance Mode">None</guidance><error name="Error value">1.7712970946013675</error></trial></trials></MIDI>