<MIDI midiNo="2023_05_14-13_07_55"><target_notes><notes name="Note List">[{"pitch": 39, "velocity": 100, "note_on_time": 0.005, "note_off_time": 0.712}, {"pitch": 42, "velocity": 100, "note_on_time": 0.713, "note_off_time": 1.428}, {"pitch": 42, "velocity": 100, "note_on_time": 1.428, "note_off_time": 2.143}, {"pitch": 42, "velocity": 100, "note_on_time": 2.143, "note_off_time": 2.856}, {"pitch": 39, "velocity": 100, "note_on_time": 2.856, "note_off_time": 3.577}, {"pitch": 60, "velocity": 100, "note_on_time": 2.856, "note_off_time": 4.293}, {"pitch": 42, "velocity": 100, "note_on_time": 3.577, "note_off_time": 4.293}, {"pitch": 42, "velocity": 100, "note_on_time": 4.293, "note_off_time": 5.008}, {"pitch": 67, "velocity": 100, "note_on_time": 4.293, "note_off_time": 5.723}, {"pitch": 42, "velocity": 100, "note_on_time": 5.008, "note_off_time": 5.723}, {"pitch": 64, "velocity": 100, "note_on_time": 5.723, "note_off_time": 6.44}, {"pitch": 39, "velocity": 100, "note_on_time": 5.724, "note_off_time": 6.44}, {"pitch": 42, "velocity": 100, "note_on_time": 6.44, "note_off_time": 7.156}, {"pitch": 67, "velocity": 100, "note_on_time": 6.44, "note_off_time": 7.87}, {"pitch": 42, "velocity": 100, "note_on_time": 7.156, "note_off_time": 7.87}, {"pitch": 60, "velocity": 100, "note_on_time": 7.87, "note_off_time": 8.585}, {"pitch": 42, "velocity": 100, "note_on_time": 7.87, "note_off_time": 8.585}, {"pitch": 39, "velocity": 100, "note_on_time": 8.586, "note_off_time": 9.299}, {"pitch": 67, "velocity": 100, "note_on_time": 8.585, "note_off_time": 10.014}, {"pitch": 42, "velocity": 100, "note_on_time": 9.3, "note_off_time": 10.015}, {"pitch": 42, "velocity": 100, "note_on_time": 10.015, "note_off_time": 10.728}, {"pitch": 60, "velocity": 100, "note_on_time": 10.014, "note_off_time": 11.444}, {"pitch": 42, "velocity": 100, "note_on_time": 10.729, "note_off_time": 11.444}, {"pitch": 39, "velocity": 100, "note_on_time": 11.445, "note_off_time": 12.16}, {"pitch": 42, "velocity": 100, "note_on_time": 12.16, "note_off_time": 12.876}, {"pitch": 42, "velocity": 100, "note_on_time": 12.876, "note_off_time": 13.592}, {"pitch": 64, "velocity": 100, "note_on_time": 11.444, "note_off_time": 14.306}, {"pitch": 42, "velocity": 100, "note_on_time": 13.592, "note_off_time": 14.306}, {"pitch": 67, "velocity": 100, "note_on_time": 14.306, "note_off_time": 15.02}, {"pitch": 39, "velocity": 100, "note_on_time": 14.307, "note_off_time": 15.021}, {"pitch": 64, "velocity": 100, "note_on_time": 15.02, "note_off_time": 15.736}, {"pitch": 42, "velocity": 100, "note_on_time": 15.021, "note_off_time": 15.736}, {"pitch": 67, "velocity": 100, "note_on_time": 15.736, "note_off_time": 16.451}, {"pitch": 42, "velocity": 100, "note_on_time": 15.736, "note_off_time": 16.451}, {"pitch": 60, "velocity": 100, "note_on_time": 16.451, "note_off_time": 17.17}, {"pitch": 42, "velocity": 100, "note_on_time": 16.452, "note_off_time": 17.17}, {"pitch": 39, "velocity": 100, "note_on_time": 17.17, "note_off_time": 17.885}, {"pitch": 64, "velocity": 100, "note_on_time": 17.17, "note_off_time": 18.601}, {"pitch": 42, "velocity": 100, "note_on_time": 17.885, "note_off_time": 18.601}, {"pitch": 67, "velocity": 100, "note_on_time": 18.601, "note_off_time": 19.318}, {"pitch": 42, "velocity": 100, "note_on_time": 18.601, "note_off_time": 19.319}, {"pitch": 60, "velocity": 100, "note_on_time": 19.318, "note_off_time": 20.032}, {"pitch": 42, "velocity": 100, "note_on_time": 19.319, "note_off_time": 20.032}, {"pitch": 64, "velocity": 100, "note_on_time": 20.032, "note_off_time": 20.751}, {"pitch": 39, "velocity": 100, "note_on_time": 20.032, "note_off_time": 20.751}, {"pitch": 42, "velocity": 100, "note_on_time": 20.751, "note_off_time": 21.465}, {"pitch": 67, "velocity": 100, "note_on_time": 20.751, "note_off_time": 22.182}, {"pitch": 42, "velocity": 100, "note_on_time": 21.466, "note_off_time": 22.182}, {"pitch": 64, "velocity": 100, "note_on_time": 22.182, "note_off_time": 22.896}, {"pitch": 42, "velocity": 100, "note_on_time": 22.182, "note_off_time": 22.896}, {"pitch": 39, "velocity": 100, "note_on_time": 22.896, "note_off_time": 23.614}, {"pitch": 42, "velocity": 100, "note_on_time": 23.614, "note_off_time": 24.327}, {"pitch": 42, "velocity": 100, "note_on_time": 24.327, "note_off_time": 25.045}, {"pitch": 60, "velocity": 100, "note_on_time": 22.896, "note_off_time": 25.767}, {"pitch": 42, "velocity": 100, "note_on_time": 25.045, "note_off_time": 25.767}]</notes><options name="Option List">((4, 4), [0.5, 0.25], 3, 7, &lt;NoteRangePerHand.TWO_NOTES: 3&gt;, &lt;NoteRangePerHand.ONE_NOTE: 2&gt;, False, True, True, None)</options></target_notes><trials><trial trial_no="1" timestamp="2023_05_14-13_07_55"><notes name="Played Notes">[{"pitch": 60, "velocity": 79, "note_on_time": 2.864, "note_off_time": 3.56}, {"pitch": 65, "velocity": 60, "note_on_time": 4.295, "note_off_time": 4.869}, {"pitch": 64, "velocity": 65, "note_on_time": 4.986, "note_off_time": 5.519}, {"pitch": 60, "velocity": 69, "note_on_time": 10.038, "note_off_time": 10.753}, {"pitch": 65, "velocity": 73, "note_on_time": 11.407, "note_off_time": 13.657}, {"pitch": 67, "velocity": 57, "note_on_time": 14.266, "note_off_time": 14.92}, {"pitch": 65, "velocity": 66, "note_on_time": 15.012, "note_off_time": 15.632}, {"pitch": 60, "velocity": 18, "note_on_time": 18.771, "note_off_time": 18.877}, {"pitch": 65, "velocity": 57, "note_on_time": 19.888, "note_off_time": 20.676}, {"pitch": 67, "velocity": 44, "note_on_time": 20.759, "note_off_time": 21.301}, {"pitch": 65, "velocity": 61, "note_on_time": 21.508, "note_off_time": 21.79}]</notes><guidance name="Guidance Mode">None</guidance><error name="Error value">1.5451108287081343</error></trial></trials></MIDI>