<MIDI midiNo="2023_05_14-11_44_30"><target_notes><notes name="Note List">[{"pitch": 39, "velocity": 100, "note_on_time": 0.006, "note_off_time": 0.72}, {"pitch": 42, "velocity": 100, "note_on_time": 0.721, "note_off_time": 1.44}, {"pitch": 42, "velocity": 100, "note_on_time": 1.44, "note_off_time": 2.154}, {"pitch": 39, "velocity": 100, "note_on_time": 2.154, "note_off_time": 2.869}, {"pitch": 42, "velocity": 100, "note_on_time": 2.869, "note_off_time": 3.586}, {"pitch": 67, "velocity": 100, "note_on_time": 3.586, "note_off_time": 3.942}, {"pitch": 67, "velocity": 100, "note_on_time": 3.942, "note_off_time": 4.299}, {"pitch": 42, "velocity": 100, "note_on_time": 3.587, "note_off_time": 4.299}, {"pitch": 69, "velocity": 100, "note_on_time": 4.299, "note_off_time": 5.015}, {"pitch": 39, "velocity": 100, "note_on_time": 4.3, "note_off_time": 5.016}, {"pitch": 67, "velocity": 100, "note_on_time": 5.015, "note_off_time": 5.731}, {"pitch": 42, "velocity": 100, "note_on_time": 5.016, "note_off_time": 5.732}, {"pitch": 72, "velocity": 100, "note_on_time": 5.731, "note_off_time": 6.445}, {"pitch": 42, "velocity": 100, "note_on_time": 5.732, "note_off_time": 6.445}, {"pitch": 39, "velocity": 100, "note_on_time": 6.445, "note_off_time": 7.165}, {"pitch": 71, "velocity": 100, "note_on_time": 6.445, "note_off_time": 7.881}, {"pitch": 42, "velocity": 100, "note_on_time": 7.165, "note_off_time": 7.881}, {"pitch": 67, "velocity": 100, "note_on_time": 7.881, "note_off_time": 8.239}, {"pitch": 67, "velocity": 100, "note_on_time": 8.239, "note_off_time": 8.598}, {"pitch": 42, "velocity": 100, "note_on_time": 7.881, "note_off_time": 8.598}, {"pitch": 69, "velocity": 100, "note_on_time": 8.598, "note_off_time": 9.312}, {"pitch": 39, "velocity": 100, "note_on_time": 8.599, "note_off_time": 9.313}, {"pitch": 67, "velocity": 100, "note_on_time": 9.312, "note_off_time": 10.03}, {"pitch": 42, "velocity": 100, "note_on_time": 9.313, "note_off_time": 10.031}, {"pitch": 74, "velocity": 100, "note_on_time": 10.03, "note_off_time": 10.744}, {"pitch": 42, "velocity": 100, "note_on_time": 10.031, "note_off_time": 10.744}, {"pitch": 39, "velocity": 100, "note_on_time": 10.744, "note_off_time": 11.46}, {"pitch": 72, "velocity": 100, "note_on_time": 10.744, "note_off_time": 12.176}, {"pitch": 42, "velocity": 100, "note_on_time": 11.46, "note_off_time": 12.176}, {"pitch": 67, "velocity": 100, "note_on_time": 12.176, "note_off_time": 12.536}, {"pitch": 67, "velocity": 100, "note_on_time": 12.536, "note_off_time": 12.895}, {"pitch": 42, "velocity": 100, "note_on_time": 12.176, "note_off_time": 12.895}, {"pitch": 79, "velocity": 100, "note_on_time": 12.895, "note_off_time": 13.616}, {"pitch": 39, "velocity": 100, "note_on_time": 12.895, "note_off_time": 13.616}, {"pitch": 76, "velocity": 100, "note_on_time": 13.616, "note_off_time": 14.327}, {"pitch": 42, "velocity": 100, "note_on_time": 13.617, "note_off_time": 14.327}, {"pitch": 72, "velocity": 100, "note_on_time": 14.327, "note_off_time": 15.038}, {"pitch": 42, "velocity": 100, "note_on_time": 14.328, "note_off_time": 15.038}, {"pitch": 71, "velocity": 100, "note_on_time": 15.038, "note_off_time": 15.751}, {"pitch": 39, "velocity": 100, "note_on_time": 15.039, "note_off_time": 15.751}, {"pitch": 69, "velocity": 100, "note_on_time": 15.751, "note_off_time": 16.467}, {"pitch": 42, "velocity": 100, "note_on_time": 15.752, "note_off_time": 16.467}, {"pitch": 77, "velocity": 100, "note_on_time": 16.467, "note_off_time": 16.826}, {"pitch": 77, "velocity": 100, "note_on_time": 16.826, "note_off_time": 17.183}, {"pitch": 42, "velocity": 100, "note_on_time": 16.467, "note_off_time": 17.184}, {"pitch": 76, "velocity": 100, "note_on_time": 17.183, "note_off_time": 17.899}, {"pitch": 39, "velocity": 100, "note_on_time": 17.184, "note_off_time": 17.9}, {"pitch": 72, "velocity": 100, "note_on_time": 17.899, "note_off_time": 18.611}, {"pitch": 42, "velocity": 100, "note_on_time": 17.9, "note_off_time": 18.611}, {"pitch": 74, "velocity": 100, "note_on_time": 18.611, "note_off_time": 19.328}, {"pitch": 42, "velocity": 100, "note_on_time": 18.612, "note_off_time": 19.329}, {"pitch": 39, "velocity": 100, "note_on_time": 19.329, "note_off_time": 20.044}, {"pitch": 72, "velocity": 100, "note_on_time": 19.328, "note_off_time": 20.761}, {"pitch": 42, "velocity": 100, "note_on_time": 20.044, "note_off_time": 20.761}, {"pitch": 42, "velocity": 100, "note_on_time": 20.761, "note_off_time": 21.476}]</notes><options name="Option List">((4, 4), [0.5, 0.25], 3, 7, &lt;NoteRangePerHand.TWO_NOTES: 3&gt;, &lt;NoteRangePerHand.ONE_NOTE: 2&gt;, False, True, True, None)</options></target_notes><trials><trial trial_no="1" timestamp="2023_05_14-11_44_30"><notes name="Played Notes">[{"pitch": 67, "velocity": 69, "note_on_time": 4.319, "note_off_time": 4.507}, {"pitch": 67, "velocity": 71, "note_on_time": 4.646, "note_off_time": 4.955}, {"pitch": 69, "velocity": 74, "note_on_time": 5.044, "note_off_time": 5.741}, {"pitch": 67, "velocity": 76, "note_on_time": 5.734, "note_off_time": 6.461}, {"pitch": 72, "velocity": 49, "note_on_time": 6.513, "note_off_time": 7.109}, {"pitch": 71, "velocity": 77, "note_on_time": 7.133, "note_off_time": 8.162}, {"pitch": 67, "velocity": 46, "note_on_time": 8.493, "note_off_time": 8.673}, {"pitch": 67, "velocity": 67, "note_on_time": 8.866, "note_off_time": 9.255}, {"pitch": 71, "velocity": 52, "note_on_time": 9.289, "note_off_time": 9.416}, {"pitch": 69, "velocity": 52, "note_on_time": 9.29, "note_off_time": 10.254}, {"pitch": 67, "velocity": 73, "note_on_time": 10.01, "note_off_time": 10.689}, {"pitch": 74, "velocity": 77, "note_on_time": 10.701, "note_off_time": 11.388}, {"pitch": 72, "velocity": 75, "note_on_time": 11.431, "note_off_time": 12.615}, {"pitch": 67, "velocity": 64, "note_on_time": 12.887, "note_off_time": 13.058}, {"pitch": 67, "velocity": 54, "note_on_time": 13.203, "note_off_time": 13.802}, {"pitch": 79, "velocity": 75, "note_on_time": 14.016, "note_off_time": 14.59}, {"pitch": 76, "velocity": 68, "note_on_time": 14.73, "note_off_time": 15.513}, {"pitch": 72, "velocity": 71, "note_on_time": 15.408, "note_off_time": 16.183}, {"pitch": 71, "velocity": 63, "note_on_time": 16.131, "note_off_time": 17.169}, {"pitch": 72, "velocity": 57, "note_on_time": 16.967, "note_off_time": 17.312}, {"pitch": 76, "velocity": 43, "note_on_time": 17.841, "note_off_time": 17.954}, {"pitch": 77, "velocity": 33, "note_on_time": 17.834, "note_off_time": 18.047}, {"pitch": 77, "velocity": 70, "note_on_time": 18.242, "note_off_time": 18.628}, {"pitch": 76, "velocity": 59, "note_on_time": 19.342, "note_off_time": 20.148}, {"pitch": 72, "velocity": 74, "note_on_time": 20.038, "note_off_time": 20.845}]</notes><guidance name="Guidance Mode">None</guidance><error name="Error value">1.7738571235836638</error></trial></trials></MIDI>