<MIDI midiNo="2023_05_14-11_18_23"><target_notes><notes name="Note List">[{"pitch": 39, "velocity": 100, "note_on_time": 0.005, "note_off_time": 0.724}, {"pitch": 42, "velocity": 100, "note_on_time": 0.724, "note_off_time": 1.441}, {"pitch": 42, "velocity": 100, "note_on_time": 1.441, "note_off_time": 2.155}, {"pitch": 42, "velocity": 100, "note_on_time": 2.155, "note_off_time": 2.872}, {"pitch": 60, "velocity": 100, "note_on_time": 2.872, "note_off_time": 3.59}, {"pitch": 39, "velocity": 100, "note_on_time": 2.872, "note_off_time": 3.59}, {"pitch": 42, "velocity": 100, "note_on_time": 3.591, "note_off_time": 4.307}, {"pitch": 67, "velocity": 100, "note_on_time": 3.59, "note_off_time": 5.024}, {"pitch": 42, "velocity": 100, "note_on_time": 4.307, "note_off_time": 5.024}, {"pitch": 64, "velocity": 100, "note_on_time": 5.024, "note_off_time": 5.74}, {"pitch": 42, "velocity": 100, "note_on_time": 5.024, "note_off_time": 5.74}, {"pitch": 67, "velocity": 100, "note_on_time": 5.74, "note_off_time": 6.459}, {"pitch": 39, "velocity": 100, "note_on_time": 5.741, "note_off_time": 6.459}, {"pitch": 60, "velocity": 100, "note_on_time": 6.459, "note_off_time": 7.174}, {"pitch": 42, "velocity": 100, "note_on_time": 6.459, "note_off_time": 7.174}, {"pitch": 42, "velocity": 100, "note_on_time": 7.174, "note_off_time": 7.891}, {"pitch": 64, "velocity": 100, "note_on_time": 7.174, "note_off_time": 8.607}, {"pitch": 42, "velocity": 100, "note_on_time": 7.891, "note_off_time": 8.607}, {"pitch": 67, "velocity": 100, "note_on_time": 8.607, "note_off_time": 9.328}, {"pitch": 39, "velocity": 100, "note_on_time": 8.608, "note_off_time": 9.329}, {"pitch": 60, "velocity": 100, "note_on_time": 9.328, "note_off_time": 10.046}, {"pitch": 42, "velocity": 100, "note_on_time": 9.329, "note_off_time": 10.046}, {"pitch": 64, "velocity": 100, "note_on_time": 10.046, "note_off_time": 10.762}, {"pitch": 42, "velocity": 100, "note_on_time": 10.047, "note_off_time": 10.762}, {"pitch": 60, "velocity": 100, "note_on_time": 10.762, "note_off_time": 11.48}, {"pitch": 42, "velocity": 100, "note_on_time": 10.763, "note_off_time": 11.48}, {"pitch": 67, "velocity": 100, "note_on_time": 11.48, "note_off_time": 12.193}, {"pitch": 39, "velocity": 100, "note_on_time": 11.481, "note_off_time": 12.193}, {"pitch": 42, "velocity": 100, "note_on_time": 12.193, "note_off_time": 12.907}, {"pitch": 64, "velocity": 100, "note_on_time": 12.193, "note_off_time": 13.624}, {"pitch": 42, "velocity": 100, "note_on_time": 12.908, "note_off_time": 13.624}, {"pitch": 67, "velocity": 100, "note_on_time": 13.624, "note_off_time": 14.343}, {"pitch": 42, "velocity": 100, "note_on_time": 13.624, "note_off_time": 14.343}, {"pitch": 64, "velocity": 100, "note_on_time": 14.343, "note_off_time": 15.059}, {"pitch": 39, "velocity": 100, "note_on_time": 14.344, "note_off_time": 15.059}, {"pitch": 60, "velocity": 100, "note_on_time": 15.059, "note_off_time": 15.776}, {"pitch": 42, "velocity": 100, "note_on_time": 15.059, "note_off_time": 15.776}, {"pitch": 67, "velocity": 100, "note_on_time": 15.776, "note_off_time": 16.492}, {"pitch": 42, "velocity": 100, "note_on_time": 15.777, "note_off_time": 16.492}, {"pitch": 64, "velocity": 100, "note_on_time": 16.492, "note_off_time": 17.21}, {"pitch": 42, "velocity": 100, "note_on_time": 16.493, "note_off_time": 17.21}, {"pitch": 60, "velocity": 100, "note_on_time": 17.21, "note_off_time": 17.925}, {"pitch": 39, "velocity": 100, "note_on_time": 17.21, "note_off_time": 17.925}, {"pitch": 67, "velocity": 100, "note_on_time": 17.925, "note_off_time": 18.644}, {"pitch": 42, "velocity": 100, "note_on_time": 17.925, "note_off_time": 18.644}, {"pitch": 42, "velocity": 100, "note_on_time": 18.645, "note_off_time": 19.361}, {"pitch": 64, "velocity": 100, "note_on_time": 18.644, "note_off_time": 20.077}, {"pitch": 42, "velocity": 100, "note_on_time": 19.361, "note_off_time": 20.077}, {"pitch": 60, "velocity": 100, "note_on_time": 20.077, "note_off_time": 20.794}, {"pitch": 39, "velocity": 100, "note_on_time": 20.078, "note_off_time": 20.794}, {"pitch": 42, "velocity": 100, "note_on_time": 20.794, "note_off_time": 21.51}, {"pitch": 67, "velocity": 100, "note_on_time": 20.794, "note_off_time": 22.229}, {"pitch": 42, "velocity": 100, "note_on_time": 21.51, "note_off_time": 22.229}, {"pitch": 64, "velocity": 100, "note_on_time": 22.229, "note_off_time": 22.942}, {"pitch": 42, "velocity": 100, "note_on_time": 22.23, "note_off_time": 22.942}, {"pitch": 39, "velocity": 100, "note_on_time": 22.943, "note_off_time": 23.658}, {"pitch": 42, "velocity": 100, "note_on_time": 23.658, "note_off_time": 24.377}, {"pitch": 42, "velocity": 100, "note_on_time": 24.377, "note_off_time": 25.092}, {"pitch": 60, "velocity": 100, "note_on_time": 22.942, "note_off_time": 25.808}, {"pitch": 42, "velocity": 100, "note_on_time": 25.092, "note_off_time": 25.809}]</notes><options name="Option List">((4, 4), [0.5, 0.25], 3, 7, &lt;NoteRangePerHand.TWO_NOTES: 3&gt;, &lt;NoteRangePerHand.ONE_NOTE: 2&gt;, False, True, True, None)</options></target_notes><trials><trial trial_no="1" timestamp="2023_05_14-11_18_23"><notes name="Played Notes">[{"pitch": 60, "velocity": 78, "note_on_time": 2.788, "note_off_time": 3.278}, {"pitch": 67, "velocity": 67, "note_on_time": 3.607, "note_off_time": 4.138}, {"pitch": 64, "velocity": 66, "note_on_time": 5.011, "note_off_time": 5.492}, {"pitch": 67, "velocity": 36, "note_on_time": 5.727, "note_off_time": 6.255}, {"pitch": 60, "velocity": 59, "note_on_time": 6.459, "note_off_time": 6.932}, {"pitch": 62, "velocity": 67, "note_on_time": 7.265, "note_off_time": 7.305}, {"pitch": 64, "velocity": 76, "note_on_time": 7.258, "note_off_time": 8.372}, {"pitch": 67, "velocity": 61, "note_on_time": 8.586, "note_off_time": 9.298}, {"pitch": 60, "velocity": 76, "note_on_time": 9.421, "note_off_time": 9.877}, {"pitch": 64, "velocity": 77, "note_on_time": 10.037, "note_off_time": 10.648}, {"pitch": 60, "velocity": 74, "note_on_time": 10.746, "note_off_time": 11.28}, {"pitch": 67, "velocity": 67, "note_on_time": 11.441, "note_off_time": 11.952}, {"pitch": 64, "velocity": 67, "note_on_time": 12.179, "note_off_time": 13.404}, {"pitch": 67, "velocity": 68, "note_on_time": 13.574, "note_off_time": 14.076}, {"pitch": 64, "velocity": 74, "note_on_time": 14.305, "note_off_time": 14.712}, {"pitch": 60, "velocity": 62, "note_on_time": 15.019, "note_off_time": 15.657}, {"pitch": 67, "velocity": 69, "note_on_time": 15.774, "note_off_time": 16.551}, {"pitch": 64, "velocity": 82, "note_on_time": 16.506, "note_off_time": 17.073}, {"pitch": 60, "velocity": 74, "note_on_time": 17.223, "note_off_time": 17.774}, {"pitch": 67, "velocity": 54, "note_on_time": 17.88, "note_off_time": 18.606}, {"pitch": 64, "velocity": 52, "note_on_time": 18.633, "note_off_time": 20.06}, {"pitch": 60, "velocity": 79, "note_on_time": 20.077, "note_off_time": 20.623}, {"pitch": 67, "velocity": 30, "note_on_time": 20.727, "note_off_time": 22.255}, {"pitch": 64, "velocity": 74, "note_on_time": 22.221, "note_off_time": 22.855}, {"pitch": 60, "velocity": 68, "note_on_time": 22.897, "note_off_time": 25.109}]</notes><guidance name="Guidance Mode">None</guidance><error name="Error value">0.24627639999999976</error></trial></trials></MIDI>