<MIDI midiNo="2023_05_14-11_45_13"><target_notes><notes name="Note List">[{"pitch": 39, "velocity": 100, "note_on_time": 0.005, "note_off_time": 0.722}, {"pitch": 42, "velocity": 100, "note_on_time": 0.722, "note_off_time": 1.439}, {"pitch": 42, "velocity": 100, "note_on_time": 1.44, "note_off_time": 2.156}, {"pitch": 39, "velocity": 100, "note_on_time": 2.156, "note_off_time": 2.87}, {"pitch": 42, "velocity": 100, "note_on_time": 2.87, "note_off_time": 3.586}, {"pitch": 62, "velocity": 100, "note_on_time": 3.586, "note_off_time": 3.943}, {"pitch": 62, "velocity": 100, "note_on_time": 3.943, "note_off_time": 4.303}, {"pitch": 42, "velocity": 100, "note_on_time": 3.586, "note_off_time": 4.304}, {"pitch": 62, "velocity": 100, "note_on_time": 4.303, "note_off_time": 5.019}, {"pitch": 39, "velocity": 100, "note_on_time": 4.304, "note_off_time": 5.019}, {"pitch": 62, "velocity": 100, "note_on_time": 5.019, "note_off_time": 5.731}, {"pitch": 42, "velocity": 100, "note_on_time": 5.02, "note_off_time": 5.731}, {"pitch": 62, "velocity": 100, "note_on_time": 5.731, "note_off_time": 6.445}, {"pitch": 42, "velocity": 100, "note_on_time": 5.732, "note_off_time": 6.445}, {"pitch": 39, "velocity": 100, "note_on_time": 6.446, "note_off_time": 7.163}, {"pitch": 62, "velocity": 100, "note_on_time": 6.445, "note_off_time": 7.876}, {"pitch": 42, "velocity": 100, "note_on_time": 7.164, "note_off_time": 7.876}, {"pitch": 62, "velocity": 100, "note_on_time": 7.876, "note_off_time": 8.234}, {"pitch": 62, "velocity": 100, "note_on_time": 8.234, "note_off_time": 8.592}, {"pitch": 42, "velocity": 100, "note_on_time": 7.877, "note_off_time": 8.592}, {"pitch": 62, "velocity": 100, "note_on_time": 8.592, "note_off_time": 9.308}, {"pitch": 39, "velocity": 100, "note_on_time": 8.592, "note_off_time": 9.308}, {"pitch": 62, "velocity": 100, "note_on_time": 9.308, "note_off_time": 10.023}, {"pitch": 42, "velocity": 100, "note_on_time": 9.308, "note_off_time": 10.023}, {"pitch": 62, "velocity": 100, "note_on_time": 10.023, "note_off_time": 10.739}, {"pitch": 42, "velocity": 100, "note_on_time": 10.023, "note_off_time": 10.74}, {"pitch": 39, "velocity": 100, "note_on_time": 10.74, "note_off_time": 11.453}, {"pitch": 62, "velocity": 100, "note_on_time": 10.739, "note_off_time": 12.172}, {"pitch": 42, "velocity": 100, "note_on_time": 11.454, "note_off_time": 12.172}, {"pitch": 62, "velocity": 100, "note_on_time": 12.172, "note_off_time": 12.528}, {"pitch": 62, "velocity": 100, "note_on_time": 12.528, "note_off_time": 12.885}, {"pitch": 42, "velocity": 100, "note_on_time": 12.172, "note_off_time": 12.885}, {"pitch": 62, "velocity": 100, "note_on_time": 12.885, "note_off_time": 13.6}, {"pitch": 39, "velocity": 100, "note_on_time": 12.885, "note_off_time": 13.6}, {"pitch": 62, "velocity": 100, "note_on_time": 13.6, "note_off_time": 14.31}, {"pitch": 42, "velocity": 100, "note_on_time": 13.6, "note_off_time": 14.31}, {"pitch": 62, "velocity": 100, "note_on_time": 14.31, "note_off_time": 15.03}, {"pitch": 42, "velocity": 100, "note_on_time": 14.311, "note_off_time": 15.031}, {"pitch": 62, "velocity": 100, "note_on_time": 15.03, "note_off_time": 15.744}, {"pitch": 39, "velocity": 100, "note_on_time": 15.031, "note_off_time": 15.744}, {"pitch": 62, "velocity": 100, "note_on_time": 15.744, "note_off_time": 16.46}, {"pitch": 42, "velocity": 100, "note_on_time": 15.744, "note_off_time": 16.46}, {"pitch": 62, "velocity": 100, "note_on_time": 16.46, "note_off_time": 16.818}, {"pitch": 62, "velocity": 100, "note_on_time": 16.818, "note_off_time": 17.176}, {"pitch": 42, "velocity": 100, "note_on_time": 16.46, "note_off_time": 17.176}, {"pitch": 62, "velocity": 100, "note_on_time": 17.176, "note_off_time": 17.894}, {"pitch": 39, "velocity": 100, "note_on_time": 17.177, "note_off_time": 17.894}, {"pitch": 62, "velocity": 100, "note_on_time": 17.894, "note_off_time": 18.607}, {"pitch": 42, "velocity": 100, "note_on_time": 17.894, "note_off_time": 18.607}, {"pitch": 62, "velocity": 100, "note_on_time": 18.607, "note_off_time": 19.322}, {"pitch": 42, "velocity": 100, "note_on_time": 18.607, "note_off_time": 19.322}, {"pitch": 39, "velocity": 100, "note_on_time": 19.322, "note_off_time": 20.04}, {"pitch": 62, "velocity": 100, "note_on_time": 19.322, "note_off_time": 20.756}, {"pitch": 42, "velocity": 100, "note_on_time": 20.041, "note_off_time": 20.757}, {"pitch": 42, "velocity": 100, "note_on_time": 20.757, "note_off_time": 21.472}]</notes><options name="Option List">((4, 4), [0.5, 0.25], 3, 7, &lt;NoteRangePerHand.TWO_NOTES: 3&gt;, &lt;NoteRangePerHand.ONE_NOTE: 2&gt;, False, True, True, None)</options></target_notes><trials><trial trial_no="1" timestamp="2023_05_14-11_45_13"><notes name="Played Notes">[{"pitch": 62, "velocity": 48, "note_on_time": 1.926, "note_off_time": 1.967}, {"pitch": 62, "velocity": 62, "note_on_time": 3.658, "note_off_time": 3.864}, {"pitch": 62, "velocity": 73, "note_on_time": 4.028, "note_off_time": 4.223}, {"pitch": 62, "velocity": 80, "note_on_time": 4.42, "note_off_time": 4.949}, {"pitch": 62, "velocity": 81, "note_on_time": 5.043, "note_off_time": 5.547}, {"pitch": 62, "velocity": 68, "note_on_time": 5.752, "note_off_time": 6.153}, {"pitch": 62, "velocity": 78, "note_on_time": 6.455, "note_off_time": 7.436}, {"pitch": 62, "velocity": 71, "note_on_time": 7.778, "note_off_time": 7.94}, {"pitch": 62, "velocity": 68, "note_on_time": 8.143, "note_off_time": 8.324}, {"pitch": 62, "velocity": 73, "note_on_time": 8.514, "note_off_time": 9.016}, {"pitch": 62, "velocity": 68, "note_on_time": 9.285, "note_off_time": 9.738}, {"pitch": 62, "velocity": 72, "note_on_time": 10.063, "note_off_time": 10.454}, {"pitch": 62, "velocity": 73, "note_on_time": 10.8, "note_off_time": 11.761}, {"pitch": 62, "velocity": 70, "note_on_time": 12.151, "note_off_time": 12.314}, {"pitch": 62, "velocity": 58, "note_on_time": 12.504, "note_off_time": 12.64}, {"pitch": 62, "velocity": 70, "note_on_time": 12.879, "note_off_time": 13.357}, {"pitch": 62, "velocity": 71, "note_on_time": 13.605, "note_off_time": 13.96}, {"pitch": 62, "velocity": 72, "note_on_time": 14.336, "note_off_time": 14.569}, {"pitch": 62, "velocity": 72, "note_on_time": 15.017, "note_off_time": 15.462}, {"pitch": 62, "velocity": 67, "note_on_time": 15.738, "note_off_time": 16.07}, {"pitch": 62, "velocity": 75, "note_on_time": 16.469, "note_off_time": 16.609}, {"pitch": 62, "velocity": 67, "note_on_time": 16.785, "note_off_time": 16.909}, {"pitch": 62, "velocity": 75, "note_on_time": 17.194, "note_off_time": 17.574}, {"pitch": 62, "velocity": 76, "note_on_time": 17.923, "note_off_time": 18.208}, {"pitch": 62, "velocity": 68, "note_on_time": 18.62, "note_off_time": 19.058}]</notes><guidance name="Guidance Mode">None</guidance><error name="Error value">0.40735852969696984</error></trial></trials></MIDI>