<MIDI midiNo="2023_05_14-11_14_51"><target_notes><notes name="Note List">[{"pitch": 39, "velocity": 100, "note_on_time": 0.004, "note_off_time": 0.716}, {"pitch": 42, "velocity": 100, "note_on_time": 0.716, "note_off_time": 1.433}, {"pitch": 42, "velocity": 100, "note_on_time": 1.433, "note_off_time": 2.149}, {"pitch": 42, "velocity": 100, "note_on_time": 2.149, "note_off_time": 2.865}, {"pitch": 39, "velocity": 100, "note_on_time": 2.865, "note_off_time": 3.581}, {"pitch": 62, "velocity": 100, "note_on_time": 2.865, "note_off_time": 4.298}, {"pitch": 42, "velocity": 100, "note_on_time": 3.582, "note_off_time": 4.299}, {"pitch": 62, "velocity": 100, "note_on_time": 4.298, "note_off_time": 5.014}, {"pitch": 42, "velocity": 100, "note_on_time": 4.299, "note_off_time": 5.014}, {"pitch": 62, "velocity": 100, "note_on_time": 5.014, "note_off_time": 5.732}, {"pitch": 42, "velocity": 100, "note_on_time": 5.014, "note_off_time": 5.732}, {"pitch": 39, "velocity": 100, "note_on_time": 5.732, "note_off_time": 6.449}, {"pitch": 62, "velocity": 100, "note_on_time": 5.732, "note_off_time": 7.163}, {"pitch": 42, "velocity": 100, "note_on_time": 6.449, "note_off_time": 7.163}, {"pitch": 42, "velocity": 100, "note_on_time": 7.164, "note_off_time": 7.878}, {"pitch": 62, "velocity": 100, "note_on_time": 7.163, "note_off_time": 8.596}, {"pitch": 42, "velocity": 100, "note_on_time": 7.878, "note_off_time": 8.596}, {"pitch": 62, "velocity": 100, "note_on_time": 8.596, "note_off_time": 9.313}, {"pitch": 39, "velocity": 100, "note_on_time": 8.597, "note_off_time": 9.313}, {"pitch": 62, "velocity": 100, "note_on_time": 9.313, "note_off_time": 10.031}, {"pitch": 42, "velocity": 100, "note_on_time": 9.313, "note_off_time": 10.031}, {"pitch": 42, "velocity": 100, "note_on_time": 10.031, "note_off_time": 10.748}, {"pitch": 62, "velocity": 100, "note_on_time": 10.031, "note_off_time": 11.462}, {"pitch": 42, "velocity": 100, "note_on_time": 10.749, "note_off_time": 11.462}, {"pitch": 39, "velocity": 100, "note_on_time": 11.462, "note_off_time": 12.178}, {"pitch": 62, "velocity": 100, "note_on_time": 11.462, "note_off_time": 12.89}, {"pitch": 42, "velocity": 100, "note_on_time": 12.178, "note_off_time": 12.89}, {"pitch": 42, "velocity": 100, "note_on_time": 12.89, "note_off_time": 13.604}, {"pitch": 62, "velocity": 100, "note_on_time": 12.89, "note_off_time": 14.32}, {"pitch": 42, "velocity": 100, "note_on_time": 13.604, "note_off_time": 14.32}, {"pitch": 62, "velocity": 100, "note_on_time": 14.32, "note_off_time": 15.035}, {"pitch": 39, "velocity": 100, "note_on_time": 14.321, "note_off_time": 15.036}, {"pitch": 62, "velocity": 100, "note_on_time": 15.035, "note_off_time": 15.752}, {"pitch": 42, "velocity": 100, "note_on_time": 15.036, "note_off_time": 15.752}, {"pitch": 42, "velocity": 100, "note_on_time": 15.753, "note_off_time": 16.468}, {"pitch": 62, "velocity": 100, "note_on_time": 15.752, "note_off_time": 17.185}, {"pitch": 42, "velocity": 100, "note_on_time": 16.468, "note_off_time": 17.185}, {"pitch": 39, "velocity": 100, "note_on_time": 17.185, "note_off_time": 17.904}, {"pitch": 62, "velocity": 100, "note_on_time": 17.185, "note_off_time": 18.618}, {"pitch": 42, "velocity": 100, "note_on_time": 17.904, "note_off_time": 18.618}, {"pitch": 42, "velocity": 100, "note_on_time": 18.619, "note_off_time": 19.335}, {"pitch": 62, "velocity": 100, "note_on_time": 18.618, "note_off_time": 20.049}, {"pitch": 42, "velocity": 100, "note_on_time": 19.335, "note_off_time": 20.049}, {"pitch": 62, "velocity": 100, "note_on_time": 20.049, "note_off_time": 20.762}, {"pitch": 39, "velocity": 100, "note_on_time": 20.05, "note_off_time": 20.762}, {"pitch": 62, "velocity": 100, "note_on_time": 20.762, "note_off_time": 21.479}, {"pitch": 42, "velocity": 100, "note_on_time": 20.762, "note_off_time": 21.479}, {"pitch": 42, "velocity": 100, "note_on_time": 21.479, "note_off_time": 22.199}, {"pitch": 62, "velocity": 100, "note_on_time": 21.479, "note_off_time": 22.912}, {"pitch": 42, "velocity": 100, "note_on_time": 22.199, "note_off_time": 22.912}, {"pitch": 39, "velocity": 100, "note_on_time": 22.912, "note_off_time": 23.628}, {"pitch": 42, "velocity": 100, "note_on_time": 23.629, "note_off_time": 24.345}, {"pitch": 42, "velocity": 100, "note_on_time": 24.345, "note_off_time": 25.062}, {"pitch": 62, "velocity": 100, "note_on_time": 22.912, "note_off_time": 25.781}, {"pitch": 42, "velocity": 100, "note_on_time": 25.063, "note_off_time": 25.781}]</notes><options name="Option List">((4, 4), [0.5, 0.25], 3, 7, &lt;NoteRangePerHand.TWO_NOTES: 3&gt;, &lt;NoteRangePerHand.ONE_NOTE: 2&gt;, False, True, True, None)</options></target_notes><trials><trial trial_no="1" timestamp="2023_05_14-11_14_51"><notes name="Played Notes">[{"pitch": 62, "velocity": 78, "note_on_time": 2.918, "note_off_time": 4.02}, {"pitch": 62, "velocity": 69, "note_on_time": 4.321, "note_off_time": 4.771}, {"pitch": 62, "velocity": 71, "note_on_time": 5.001, "note_off_time": 5.375}, {"pitch": 62, "velocity": 81, "note_on_time": 5.739, "note_off_time": 6.942}, {"pitch": 62, "velocity": 72, "note_on_time": 7.179, "note_off_time": 8.247}, {"pitch": 62, "velocity": 65, "note_on_time": 8.624, "note_off_time": 9.102}, {"pitch": 62, "velocity": 81, "note_on_time": 9.305, "note_off_time": 9.638}, {"pitch": 62, "velocity": 68, "note_on_time": 10.023, "note_off_time": 10.832}, {"pitch": 62, "velocity": 70, "note_on_time": 11.343, "note_off_time": 12.22}, {"pitch": 62, "velocity": 61, "note_on_time": 12.833, "note_off_time": 13.9}, {"pitch": 62, "velocity": 79, "note_on_time": 14.244, "note_off_time": 14.638}, {"pitch": 62, "velocity": 70, "note_on_time": 14.969, "note_off_time": 15.363}, {"pitch": 62, "velocity": 77, "note_on_time": 15.739, "note_off_time": 16.719}, {"pitch": 62, "velocity": 73, "note_on_time": 17.143, "note_off_time": 18.326}, {"pitch": 62, "velocity": 69, "note_on_time": 18.569, "note_off_time": 19.684}, {"pitch": 62, "velocity": 67, "note_on_time": 20.048, "note_off_time": 20.478}, {"pitch": 62, "velocity": 70, "note_on_time": 20.73, "note_off_time": 21.123}, {"pitch": 62, "velocity": 70, "note_on_time": 21.473, "note_off_time": 22.406}, {"pitch": 62, "velocity": 81, "note_on_time": 22.834, "note_off_time": 25.772}]</notes><guidance name="Guidance Mode">None</guidance><error name="Error value">0.19004819999999967</error></trial></trials></MIDI>