<MIDI midiNo="2023_05_14-12_30_56"><target_notes><notes name="Note List">[{"pitch": 39, "velocity": 100, "note_on_time": 0.005, "note_off_time": 0.718}, {"pitch": 42, "velocity": 100, "note_on_time": 0.719, "note_off_time": 1.43}, {"pitch": 42, "velocity": 100, "note_on_time": 1.43, "note_off_time": 2.146}, {"pitch": 42, "velocity": 100, "note_on_time": 2.147, "note_off_time": 2.862}, {"pitch": 64, "velocity": 100, "note_on_time": 2.862, "note_off_time": 3.576}, {"pitch": 39, "velocity": 100, "note_on_time": 2.862, "note_off_time": 3.577}, {"pitch": 64, "velocity": 100, "note_on_time": 3.576, "note_off_time": 4.292}, {"pitch": 42, "velocity": 100, "note_on_time": 3.577, "note_off_time": 4.293}, {"pitch": 65, "velocity": 100, "note_on_time": 4.292, "note_off_time": 5.007}, {"pitch": 42, "velocity": 100, "note_on_time": 4.293, "note_off_time": 5.007}, {"pitch": 67, "velocity": 100, "note_on_time": 5.007, "note_off_time": 5.72}, {"pitch": 42, "velocity": 100, "note_on_time": 5.007, "note_off_time": 5.72}, {"pitch": 67, "velocity": 100, "note_on_time": 5.72, "note_off_time": 6.434}, {"pitch": 39, "velocity": 100, "note_on_time": 5.72, "note_off_time": 6.434}, {"pitch": 65, "velocity": 100, "note_on_time": 6.434, "note_off_time": 7.148}, {"pitch": 42, "velocity": 100, "note_on_time": 6.434, "note_off_time": 7.148}, {"pitch": 64, "velocity": 100, "note_on_time": 7.148, "note_off_time": 7.861}, {"pitch": 42, "velocity": 100, "note_on_time": 7.148, "note_off_time": 7.861}, {"pitch": 62, "velocity": 100, "note_on_time": 7.861, "note_off_time": 8.576}, {"pitch": 42, "velocity": 100, "note_on_time": 7.862, "note_off_time": 8.576}, {"pitch": 60, "velocity": 100, "note_on_time": 8.576, "note_off_time": 9.292}, {"pitch": 39, "velocity": 100, "note_on_time": 8.576, "note_off_time": 9.292}, {"pitch": 60, "velocity": 100, "note_on_time": 9.292, "note_off_time": 10.006}, {"pitch": 42, "velocity": 100, "note_on_time": 9.292, "note_off_time": 10.006}, {"pitch": 62, "velocity": 100, "note_on_time": 10.006, "note_off_time": 10.723}, {"pitch": 42, "velocity": 100, "note_on_time": 10.006, "note_off_time": 10.724}, {"pitch": 64, "velocity": 100, "note_on_time": 10.723, "note_off_time": 11.44}, {"pitch": 42, "velocity": 100, "note_on_time": 10.724, "note_off_time": 11.44}, {"pitch": 64, "velocity": 100, "note_on_time": 11.44, "note_off_time": 12.158}, {"pitch": 39, "velocity": 100, "note_on_time": 11.44, "note_off_time": 12.158}, {"pitch": 62, "velocity": 100, "note_on_time": 12.158, "note_off_time": 12.874}, {"pitch": 42, "velocity": 100, "note_on_time": 12.159, "note_off_time": 12.874}, {"pitch": 42, "velocity": 100, "note_on_time": 12.874, "note_off_time": 13.591}, {"pitch": 62, "velocity": 100, "note_on_time": 12.874, "note_off_time": 14.307}, {"pitch": 42, "velocity": 100, "note_on_time": 13.592, "note_off_time": 14.308}, {"pitch": 64, "velocity": 100, "note_on_time": 14.307, "note_off_time": 15.023}, {"pitch": 39, "velocity": 100, "note_on_time": 14.308, "note_off_time": 15.024}, {"pitch": 64, "velocity": 100, "note_on_time": 15.023, "note_off_time": 15.74}, {"pitch": 42, "velocity": 100, "note_on_time": 15.024, "note_off_time": 15.74}, {"pitch": 65, "velocity": 100, "note_on_time": 15.74, "note_off_time": 16.457}, {"pitch": 42, "velocity": 100, "note_on_time": 15.74, "note_off_time": 16.457}, {"pitch": 67, "velocity": 100, "note_on_time": 16.457, "note_off_time": 17.17}, {"pitch": 42, "velocity": 100, "note_on_time": 16.457, "note_off_time": 17.17}, {"pitch": 67, "velocity": 100, "note_on_time": 17.17, "note_off_time": 17.887}, {"pitch": 39, "velocity": 100, "note_on_time": 17.17, "note_off_time": 17.887}, {"pitch": 65, "velocity": 100, "note_on_time": 17.887, "note_off_time": 18.6}, {"pitch": 42, "velocity": 100, "note_on_time": 17.887, "note_off_time": 18.6}, {"pitch": 64, "velocity": 100, "note_on_time": 18.6, "note_off_time": 19.316}, {"pitch": 42, "velocity": 100, "note_on_time": 18.6, "note_off_time": 19.316}, {"pitch": 62, "velocity": 100, "note_on_time": 19.316, "note_off_time": 20.032}, {"pitch": 42, "velocity": 100, "note_on_time": 19.317, "note_off_time": 20.032}, {"pitch": 60, "velocity": 100, "note_on_time": 20.032, "note_off_time": 20.748}, {"pitch": 39, "velocity": 100, "note_on_time": 20.032, "note_off_time": 20.749}, {"pitch": 60, "velocity": 100, "note_on_time": 20.748, "note_off_time": 21.463}, {"pitch": 42, "velocity": 100, "note_on_time": 20.749, "note_off_time": 21.464}, {"pitch": 62, "velocity": 100, "note_on_time": 21.463, "note_off_time": 22.176}, {"pitch": 42, "velocity": 100, "note_on_time": 21.464, "note_off_time": 22.176}, {"pitch": 64, "velocity": 100, "note_on_time": 22.176, "note_off_time": 22.895}, {"pitch": 42, "velocity": 100, "note_on_time": 22.177, "note_off_time": 22.895}, {"pitch": 62, "velocity": 100, "note_on_time": 22.895, "note_off_time": 23.613}, {"pitch": 39, "velocity": 100, "note_on_time": 22.895, "note_off_time": 23.613}, {"pitch": 60, "velocity": 100, "note_on_time": 23.613, "note_off_time": 24.331}, {"pitch": 42, "velocity": 100, "note_on_time": 23.613, "note_off_time": 24.331}, {"pitch": 42, "velocity": 100, "note_on_time": 24.331, "note_off_time": 25.044}, {"pitch": 60, "velocity": 100, "note_on_time": 24.331, "note_off_time": 25.757}, {"pitch": 42, "velocity": 100, "note_on_time": 25.044, "note_off_time": 25.757}]</notes><options name="Option List">((4, 4), [0.5, 0.25], 3, 7, &lt;NoteRangePerHand.TWO_NOTES: 3&gt;, &lt;NoteRangePerHand.ONE_NOTE: 2&gt;, False, True, True, None)</options></target_notes><trials><trial trial_no="1" timestamp="2023_05_14-12_30_56"><notes name="Played Notes">[{"pitch": 64, "velocity": 74, "note_on_time": 2.849, "note_off_time": 3.244}, {"pitch": 64, "velocity": 80, "note_on_time": 3.572, "note_off_time": 4.267}, {"pitch": 65, "velocity": 78, "note_on_time": 4.266, "note_off_time": 4.958}, {"pitch": 67, "velocity": 70, "note_on_time": 4.953, "note_off_time": 5.409}, {"pitch": 67, "velocity": 77, "note_on_time": 5.655, "note_off_time": 6.35}, {"pitch": 65, "velocity": 79, "note_on_time": 6.356, "note_off_time": 7.134}, {"pitch": 64, "velocity": 78, "note_on_time": 7.113, "note_off_time": 7.854}, {"pitch": 60, "velocity": 15, "note_on_time": 7.899, "note_off_time": 8.016}, {"pitch": 62, "velocity": 68, "note_on_time": 8.142, "note_off_time": 8.456}, {"pitch": 60, "velocity": 91, "note_on_time": 8.643, "note_off_time": 8.982}, {"pitch": 64, "velocity": 61, "note_on_time": 9.919, "note_off_time": 10.107}, {"pitch": 60, "velocity": 79, "note_on_time": 9.232, "note_off_time": 10.307}, {"pitch": 64, "velocity": 73, "note_on_time": 10.608, "note_off_time": 11.171}, {"pitch": 65, "velocity": 85, "note_on_time": 11.356, "note_off_time": 12.039}, {"pitch": 64, "velocity": 44, "note_on_time": 13.531, "note_off_time": 13.602}, {"pitch": 62, "velocity": 58, "note_on_time": 13.692, "note_off_time": 13.867}, {"pitch": 62, "velocity": 50, "note_on_time": 15.143, "note_off_time": 15.588}, {"pitch": 62, "velocity": 70, "note_on_time": 17.819, "note_off_time": 18.064}, {"pitch": 60, "velocity": 67, "note_on_time": 20.777, "note_off_time": 21.051}, {"pitch": 59, "velocity": 63, "note_on_time": 20.767, "note_off_time": 21.06}, {"pitch": 60, "velocity": 77, "note_on_time": 21.479, "note_off_time": 22.232}, {"pitch": 62, "velocity": 54, "note_on_time": 22.295, "note_off_time": 22.936}, {"pitch": 64, "velocity": 63, "note_on_time": 22.929, "note_off_time": 23.529}, {"pitch": 62, "velocity": 67, "note_on_time": 23.583, "note_off_time": 24.641}, {"pitch": 60, "velocity": 70, "note_on_time": 24.65, "note_off_time": 24.817}]</notes><guidance name="Guidance Mode">None</guidance><error name="Error value">0.991183796666667</error></trial></trials></MIDI>