<MIDI midiNo="2023_05_14-12_27_52"><target_notes><notes name="Note List">[{"pitch": 39, "velocity": 100, "note_on_time": 0.005, "note_off_time": 0.712}, {"pitch": 42, "velocity": 100, "note_on_time": 0.712, "note_off_time": 1.428}, {"pitch": 42, "velocity": 100, "note_on_time": 1.429, "note_off_time": 2.143}, {"pitch": 42, "velocity": 100, "note_on_time": 2.143, "note_off_time": 2.86}, {"pitch": 60, "velocity": 100, "note_on_time": 2.86, "note_off_time": 3.577}, {"pitch": 39, "velocity": 100, "note_on_time": 2.861, "note_off_time": 3.577}, {"pitch": 64, "velocity": 100, "note_on_time": 3.577, "note_off_time": 4.291}, {"pitch": 42, "velocity": 100, "note_on_time": 3.577, "note_off_time": 4.291}, {"pitch": 60, "velocity": 100, "note_on_time": 4.291, "note_off_time": 5.006}, {"pitch": 42, "velocity": 100, "note_on_time": 4.292, "note_off_time": 5.006}, {"pitch": 67, "velocity": 100, "note_on_time": 5.006, "note_off_time": 5.721}, {"pitch": 42, "velocity": 100, "note_on_time": 5.007, "note_off_time": 5.722}, {"pitch": 64, "velocity": 100, "note_on_time": 5.721, "note_off_time": 6.44}, {"pitch": 39, "velocity": 100, "note_on_time": 5.722, "note_off_time": 6.44}, {"pitch": 42, "velocity": 100, "note_on_time": 6.44, "note_off_time": 7.158}, {"pitch": 60, "velocity": 100, "note_on_time": 6.44, "note_off_time": 7.874}, {"pitch": 42, "velocity": 100, "note_on_time": 7.158, "note_off_time": 7.874}, {"pitch": 67, "velocity": 100, "note_on_time": 7.874, "note_off_time": 8.589}, {"pitch": 42, "velocity": 100, "note_on_time": 7.874, "note_off_time": 8.589}, {"pitch": 64, "velocity": 100, "note_on_time": 8.589, "note_off_time": 9.304}, {"pitch": 39, "velocity": 100, "note_on_time": 8.589, "note_off_time": 9.304}, {"pitch": 60, "velocity": 100, "note_on_time": 9.304, "note_off_time": 10.021}, {"pitch": 42, "velocity": 100, "note_on_time": 9.305, "note_off_time": 10.021}, {"pitch": 67, "velocity": 100, "note_on_time": 10.021, "note_off_time": 10.735}, {"pitch": 42, "velocity": 100, "note_on_time": 10.021, "note_off_time": 10.736}, {"pitch": 64, "velocity": 100, "note_on_time": 10.735, "note_off_time": 11.449}, {"pitch": 42, "velocity": 100, "note_on_time": 10.736, "note_off_time": 11.449}, {"pitch": 60, "velocity": 100, "note_on_time": 11.449, "note_off_time": 12.162}, {"pitch": 39, "velocity": 100, "note_on_time": 11.449, "note_off_time": 12.162}, {"pitch": 67, "velocity": 100, "note_on_time": 12.162, "note_off_time": 12.877}, {"pitch": 42, "velocity": 100, "note_on_time": 12.163, "note_off_time": 12.878}, {"pitch": 42, "velocity": 100, "note_on_time": 12.878, "note_off_time": 13.592}, {"pitch": 64, "velocity": 100, "note_on_time": 12.877, "note_off_time": 14.306}, {"pitch": 42, "velocity": 100, "note_on_time": 13.592, "note_off_time": 14.306}, {"pitch": 67, "velocity": 100, "note_on_time": 14.306, "note_off_time": 15.019}, {"pitch": 39, "velocity": 100, "note_on_time": 14.306, "note_off_time": 15.019}, {"pitch": 64, "velocity": 100, "note_on_time": 15.019, "note_off_time": 15.733}, {"pitch": 42, "velocity": 100, "note_on_time": 15.019, "note_off_time": 15.733}, {"pitch": 67, "velocity": 100, "note_on_time": 15.733, "note_off_time": 16.448}, {"pitch": 42, "velocity": 100, "note_on_time": 15.734, "note_off_time": 16.448}, {"pitch": 60, "velocity": 100, "note_on_time": 16.448, "note_off_time": 17.164}, {"pitch": 42, "velocity": 100, "note_on_time": 16.449, "note_off_time": 17.165}, {"pitch": 67, "velocity": 100, "note_on_time": 17.165, "note_off_time": 17.879}, {"pitch": 39, "velocity": 100, "note_on_time": 17.165, "note_off_time": 17.879}, {"pitch": 60, "velocity": 100, "note_on_time": 17.879, "note_off_time": 18.596}, {"pitch": 42, "velocity": 100, "note_on_time": 17.879, "note_off_time": 18.596}, {"pitch": 42, "velocity": 100, "note_on_time": 18.596, "note_off_time": 19.31}, {"pitch": 64, "velocity": 100, "note_on_time": 18.596, "note_off_time": 20.025}, {"pitch": 42, "velocity": 100, "note_on_time": 19.311, "note_off_time": 20.025}, {"pitch": 60, "velocity": 100, "note_on_time": 20.025, "note_off_time": 20.735}, {"pitch": 39, "velocity": 100, "note_on_time": 20.025, "note_off_time": 20.735}, {"pitch": 42, "velocity": 100, "note_on_time": 20.736, "note_off_time": 21.447}, {"pitch": 64, "velocity": 100, "note_on_time": 20.735, "note_off_time": 22.157}, {"pitch": 42, "velocity": 100, "note_on_time": 21.447, "note_off_time": 22.157}, {"pitch": 67, "velocity": 100, "note_on_time": 22.157, "note_off_time": 22.87}, {"pitch": 42, "velocity": 100, "note_on_time": 22.157, "note_off_time": 22.871}, {"pitch": 39, "velocity": 100, "note_on_time": 22.871, "note_off_time": 23.583}, {"pitch": 42, "velocity": 100, "note_on_time": 23.584, "note_off_time": 24.297}, {"pitch": 42, "velocity": 100, "note_on_time": 24.297, "note_off_time": 25.008}, {"pitch": 60, "velocity": 100, "note_on_time": 22.87, "note_off_time": 25.723}, {"pitch": 42, "velocity": 100, "note_on_time": 25.009, "note_off_time": 25.723}]</notes><options name="Option List">((4, 4), [0.5, 0.25], 3, 7, &lt;NoteRangePerHand.TWO_NOTES: 3&gt;, &lt;NoteRangePerHand.ONE_NOTE: 2&gt;, False, True, True, None)</options></target_notes><trials><trial trial_no="1" timestamp="2023_05_14-12_27_52"><notes name="Played Notes">[{"pitch": 60, "velocity": 71, "note_on_time": 2.83, "note_off_time": 3.552}, {"pitch": 64, "velocity": 74, "note_on_time": 3.579, "note_off_time": 4.255}, {"pitch": 60, "velocity": 73, "note_on_time": 4.268, "note_off_time": 4.977}, {"pitch": 67, "velocity": 76, "note_on_time": 4.979, "note_off_time": 5.706}, {"pitch": 64, "velocity": 75, "note_on_time": 5.689, "note_off_time": 6.384}, {"pitch": 60, "velocity": 74, "note_on_time": 6.389, "note_off_time": 7.694}, {"pitch": 64, "velocity": 65, "note_on_time": 7.814, "note_off_time": 8.765}, {"pitch": 67, "velocity": 33, "note_on_time": 8.78, "note_off_time": 8.836}, {"pitch": 60, "velocity": 58, "note_on_time": 10.313, "note_off_time": 10.581}, {"pitch": 64, "velocity": 22, "note_on_time": 10.396, "note_off_time": 10.585}, {"pitch": 60, "velocity": 75, "note_on_time": 12.149, "note_off_time": 12.826}, {"pitch": 67, "velocity": 73, "note_on_time": 12.846, "note_off_time": 13.551}, {"pitch": 64, "velocity": 75, "note_on_time": 13.562, "note_off_time": 14.29}, {"pitch": 67, "velocity": 75, "note_on_time": 14.284, "note_off_time": 14.982}, {"pitch": 64, "velocity": 52, "note_on_time": 15.041, "note_off_time": 15.79}, {"pitch": 67, "velocity": 51, "note_on_time": 15.818, "note_off_time": 16.456}, {"pitch": 60, "velocity": 47, "note_on_time": 16.505, "note_off_time": 17.277}, {"pitch": 67, "velocity": 61, "note_on_time": 17.29, "note_off_time": 17.925}, {"pitch": 60, "velocity": 71, "note_on_time": 17.945, "note_off_time": 18.645}, {"pitch": 64, "velocity": 71, "note_on_time": 18.674, "note_off_time": 19.823}, {"pitch": 60, "velocity": 64, "note_on_time": 19.919, "note_off_time": 20.621}, {"pitch": 64, "velocity": 60, "note_on_time": 20.695, "note_off_time": 21.985}, {"pitch": 67, "velocity": 57, "note_on_time": 22.025, "note_off_time": 22.751}, {"pitch": 60, "velocity": 69, "note_on_time": 22.768, "note_off_time": 25.413}]</notes><guidance name="Guidance Mode">None</guidance><error name="Error value">0.38353663000000043</error></trial></trials></MIDI>