<MIDI midiNo="2023_05_14-12_22_20"><target_notes><notes name="Note List">[{"pitch": 39, "velocity": 100, "note_on_time": 0.005, "note_off_time": 0.715}, {"pitch": 42, "velocity": 100, "note_on_time": 0.715, "note_off_time": 1.43}, {"pitch": 42, "velocity": 100, "note_on_time": 1.43, "note_off_time": 2.144}, {"pitch": 42, "velocity": 100, "note_on_time": 2.144, "note_off_time": 2.862}, {"pitch": 39, "velocity": 100, "note_on_time": 2.862, "note_off_time": 3.578}, {"pitch": 60, "velocity": 100, "note_on_time": 2.862, "note_off_time": 4.296}, {"pitch": 42, "velocity": 100, "note_on_time": 3.578, "note_off_time": 4.296}, {"pitch": 60, "velocity": 100, "note_on_time": 4.296, "note_off_time": 5.01}, {"pitch": 42, "velocity": 100, "note_on_time": 4.297, "note_off_time": 5.01}, {"pitch": 64, "velocity": 100, "note_on_time": 5.01, "note_off_time": 5.73}, {"pitch": 42, "velocity": 100, "note_on_time": 5.01, "note_off_time": 5.73}, {"pitch": 39, "velocity": 100, "note_on_time": 5.73, "note_off_time": 6.445}, {"pitch": 60, "velocity": 100, "note_on_time": 5.73, "note_off_time": 7.16}, {"pitch": 42, "velocity": 100, "note_on_time": 6.446, "note_off_time": 7.16}, {"pitch": 42, "velocity": 100, "note_on_time": 7.16, "note_off_time": 7.874}, {"pitch": 64, "velocity": 100, "note_on_time": 7.16, "note_off_time": 8.586}, {"pitch": 42, "velocity": 100, "note_on_time": 7.874, "note_off_time": 8.586}, {"pitch": 39, "velocity": 100, "note_on_time": 8.586, "note_off_time": 9.299}, {"pitch": 67, "velocity": 100, "note_on_time": 8.586, "note_off_time": 10.012}, {"pitch": 42, "velocity": 100, "note_on_time": 9.3, "note_off_time": 10.012}, {"pitch": 67, "velocity": 100, "note_on_time": 10.012, "note_off_time": 10.731}, {"pitch": 42, "velocity": 100, "note_on_time": 10.013, "note_off_time": 10.731}, {"pitch": 64, "velocity": 100, "note_on_time": 10.731, "note_off_time": 11.446}, {"pitch": 42, "velocity": 100, "note_on_time": 10.731, "note_off_time": 11.446}, {"pitch": 39, "velocity": 100, "note_on_time": 11.446, "note_off_time": 12.161}, {"pitch": 60, "velocity": 100, "note_on_time": 11.446, "note_off_time": 12.871}, {"pitch": 42, "velocity": 100, "note_on_time": 12.162, "note_off_time": 12.872}, {"pitch": 42, "velocity": 100, "note_on_time": 12.872, "note_off_time": 13.587}, {"pitch": 64, "velocity": 100, "note_on_time": 12.871, "note_off_time": 14.308}, {"pitch": 42, "velocity": 100, "note_on_time": 13.587, "note_off_time": 14.309}, {"pitch": 39, "velocity": 100, "note_on_time": 14.309, "note_off_time": 15.025}, {"pitch": 67, "velocity": 100, "note_on_time": 14.308, "note_off_time": 15.74}, {"pitch": 42, "velocity": 100, "note_on_time": 15.025, "note_off_time": 15.74}, {"pitch": 64, "velocity": 100, "note_on_time": 15.74, "note_off_time": 16.456}, {"pitch": 42, "velocity": 100, "note_on_time": 15.741, "note_off_time": 16.456}, {"pitch": 60, "velocity": 100, "note_on_time": 16.456, "note_off_time": 17.173}, {"pitch": 42, "velocity": 100, "note_on_time": 16.456, "note_off_time": 17.174}, {"pitch": 39, "velocity": 100, "note_on_time": 17.174, "note_off_time": 17.886}, {"pitch": 64, "velocity": 100, "note_on_time": 17.173, "note_off_time": 18.598}, {"pitch": 42, "velocity": 100, "note_on_time": 17.887, "note_off_time": 18.598}, {"pitch": 67, "velocity": 100, "note_on_time": 18.598, "note_off_time": 19.31}, {"pitch": 42, "velocity": 100, "note_on_time": 18.598, "note_off_time": 19.311}, {"pitch": 64, "velocity": 100, "note_on_time": 19.31, "note_off_time": 20.024}, {"pitch": 42, "velocity": 100, "note_on_time": 19.311, "note_off_time": 20.024}, {"pitch": 39, "velocity": 100, "note_on_time": 20.025, "note_off_time": 20.741}, {"pitch": 64, "velocity": 100, "note_on_time": 20.024, "note_off_time": 21.456}, {"pitch": 42, "velocity": 100, "note_on_time": 20.741, "note_off_time": 21.456}, {"pitch": 67, "velocity": 100, "note_on_time": 21.456, "note_off_time": 22.171}, {"pitch": 42, "velocity": 100, "note_on_time": 21.456, "note_off_time": 22.172}, {"pitch": 64, "velocity": 100, "note_on_time": 22.171, "note_off_time": 22.889}, {"pitch": 42, "velocity": 100, "note_on_time": 22.172, "note_off_time": 22.889}, {"pitch": 39, "velocity": 100, "note_on_time": 22.89, "note_off_time": 23.604}, {"pitch": 42, "velocity": 100, "note_on_time": 23.605, "note_off_time": 24.321}, {"pitch": 42, "velocity": 100, "note_on_time": 24.321, "note_off_time": 25.037}, {"pitch": 60, "velocity": 100, "note_on_time": 22.889, "note_off_time": 25.755}, {"pitch": 42, "velocity": 100, "note_on_time": 25.037, "note_off_time": 25.755}]</notes><options name="Option List">((4, 4), [0.5, 0.25], 3, 7, &lt;NoteRangePerHand.TWO_NOTES: 3&gt;, &lt;NoteRangePerHand.ONE_NOTE: 2&gt;, False, True, True, None)</options></target_notes><trials><trial trial_no="1" timestamp="2023_05_14-12_22_20"><notes name="Played Notes">[{"pitch": 60, "velocity": 86, "note_on_time": 2.861, "note_off_time": 3.798}, {"pitch": 60, "velocity": 84, "note_on_time": 4.278, "note_off_time": 5.024}, {"pitch": 64, "velocity": 74, "note_on_time": 5.019, "note_off_time": 5.715}, {"pitch": 60, "velocity": 85, "note_on_time": 5.724, "note_off_time": 7.1}, {"pitch": 64, "velocity": 77, "note_on_time": 7.114, "note_off_time": 8.619}, {"pitch": 67, "velocity": 60, "note_on_time": 8.617, "note_off_time": 9.864}, {"pitch": 67, "velocity": 78, "note_on_time": 10.067, "note_off_time": 10.792}, {"pitch": 64, "velocity": 76, "note_on_time": 10.773, "note_off_time": 11.467}, {"pitch": 60, "velocity": 77, "note_on_time": 11.476, "note_off_time": 12.888}, {"pitch": 64, "velocity": 76, "note_on_time": 12.899, "note_off_time": 14.226}, {"pitch": 65, "velocity": 63, "note_on_time": 14.363, "note_off_time": 14.629}, {"pitch": 67, "velocity": 66, "note_on_time": 14.75, "note_off_time": 15.749}]</notes><guidance name="Guidance Mode">None</guidance><error name="Error value">1.3379673499999998</error></trial></trials></MIDI>