<MIDI midiNo="2023_05_14-11_32_28"><target_notes><notes name="Note List">[{"pitch": 39, "velocity": 100, "note_on_time": 0.007, "note_off_time": 0.715}, {"pitch": 42, "velocity": 100, "note_on_time": 0.715, "note_off_time": 1.429}, {"pitch": 42, "velocity": 100, "note_on_time": 1.429, "note_off_time": 2.141}, {"pitch": 39, "velocity": 100, "note_on_time": 2.141, "note_off_time": 2.855}, {"pitch": 42, "velocity": 100, "note_on_time": 2.856, "note_off_time": 3.567}, {"pitch": 67, "velocity": 100, "note_on_time": 3.567, "note_off_time": 4.283}, {"pitch": 42, "velocity": 100, "note_on_time": 3.567, "note_off_time": 4.283}, {"pitch": 72, "velocity": 100, "note_on_time": 4.283, "note_off_time": 4.998}, {"pitch": 39, "velocity": 100, "note_on_time": 4.284, "note_off_time": 4.998}, {"pitch": 72, "velocity": 100, "note_on_time": 4.998, "note_off_time": 5.715}, {"pitch": 42, "velocity": 100, "note_on_time": 4.998, "note_off_time": 5.715}, {"pitch": 74, "velocity": 100, "note_on_time": 5.715, "note_off_time": 6.43}, {"pitch": 42, "velocity": 100, "note_on_time": 5.716, "note_off_time": 6.431}, {"pitch": 39, "velocity": 100, "note_on_time": 6.431, "note_off_time": 7.149}, {"pitch": 76, "velocity": 100, "note_on_time": 6.43, "note_off_time": 7.868}, {"pitch": 42, "velocity": 100, "note_on_time": 7.149, "note_off_time": 7.868}, {"pitch": 67, "velocity": 100, "note_on_time": 7.868, "note_off_time": 8.585}, {"pitch": 42, "velocity": 100, "note_on_time": 7.868, "note_off_time": 8.585}, {"pitch": 39, "velocity": 100, "note_on_time": 8.586, "note_off_time": 9.303}, {"pitch": 72, "velocity": 100, "note_on_time": 8.585, "note_off_time": 10.017}, {"pitch": 42, "velocity": 100, "note_on_time": 9.303, "note_off_time": 10.017}, {"pitch": 76, "velocity": 100, "note_on_time": 10.017, "note_off_time": 10.729}, {"pitch": 42, "velocity": 100, "note_on_time": 10.017, "note_off_time": 10.729}, {"pitch": 39, "velocity": 100, "note_on_time": 10.73, "note_off_time": 11.443}, {"pitch": 74, "velocity": 100, "note_on_time": 10.729, "note_off_time": 12.159}, {"pitch": 42, "velocity": 100, "note_on_time": 11.444, "note_off_time": 12.159}, {"pitch": 67, "velocity": 100, "note_on_time": 12.159, "note_off_time": 12.875}, {"pitch": 42, "velocity": 100, "note_on_time": 12.159, "note_off_time": 12.875}, {"pitch": 39, "velocity": 100, "note_on_time": 12.875, "note_off_time": 13.589}, {"pitch": 74, "velocity": 100, "note_on_time": 12.875, "note_off_time": 14.305}, {"pitch": 42, "velocity": 100, "note_on_time": 13.589, "note_off_time": 14.305}, {"pitch": 76, "velocity": 100, "note_on_time": 14.305, "note_off_time": 15.018}, {"pitch": 42, "velocity": 100, "note_on_time": 14.305, "note_off_time": 15.018}, {"pitch": 77, "velocity": 100, "note_on_time": 15.018, "note_off_time": 15.731}, {"pitch": 39, "velocity": 100, "note_on_time": 15.018, "note_off_time": 15.731}, {"pitch": 74, "velocity": 100, "note_on_time": 15.731, "note_off_time": 16.446}, {"pitch": 42, "velocity": 100, "note_on_time": 15.732, "note_off_time": 16.447}, {"pitch": 71, "velocity": 100, "note_on_time": 16.446, "note_off_time": 17.163}, {"pitch": 42, "velocity": 100, "note_on_time": 16.447, "note_off_time": 17.164}, {"pitch": 67, "velocity": 100, "note_on_time": 17.163, "note_off_time": 17.879}, {"pitch": 39, "velocity": 100, "note_on_time": 17.164, "note_off_time": 17.879}, {"pitch": 69, "velocity": 100, "note_on_time": 17.879, "note_off_time": 18.593}, {"pitch": 42, "velocity": 100, "note_on_time": 17.879, "note_off_time": 18.593}, {"pitch": 71, "velocity": 100, "note_on_time": 18.593, "note_off_time": 19.311}, {"pitch": 42, "velocity": 100, "note_on_time": 18.593, "note_off_time": 19.312}, {"pitch": 39, "velocity": 100, "note_on_time": 19.312, "note_off_time": 20.024}, {"pitch": 72, "velocity": 100, "note_on_time": 19.311, "note_off_time": 20.734}, {"pitch": 42, "velocity": 100, "note_on_time": 20.024, "note_off_time": 20.735}, {"pitch": 67, "velocity": 100, "note_on_time": 20.734, "note_off_time": 21.45}, {"pitch": 42, "velocity": 100, "note_on_time": 20.735, "note_off_time": 21.45}, {"pitch": 39, "velocity": 100, "note_on_time": 21.451, "note_off_time": 22.167}, {"pitch": 72, "velocity": 100, "note_on_time": 21.45, "note_off_time": 22.883}, {"pitch": 42, "velocity": 100, "note_on_time": 22.167, "note_off_time": 22.883}, {"pitch": 74, "velocity": 100, "note_on_time": 22.883, "note_off_time": 23.602}, {"pitch": 42, "velocity": 100, "note_on_time": 22.884, "note_off_time": 23.602}, {"pitch": 76, "velocity": 100, "note_on_time": 23.602, "note_off_time": 24.318}, {"pitch": 39, "velocity": 100, "note_on_time": 23.602, "note_off_time": 24.318}, {"pitch": 76, "velocity": 100, "note_on_time": 24.318, "note_off_time": 25.033}, {"pitch": 42, "velocity": 100, "note_on_time": 24.318, "note_off_time": 25.033}, {"pitch": 67, "velocity": 100, "note_on_time": 25.033, "note_off_time": 25.745}, {"pitch": 42, "velocity": 100, "note_on_time": 25.034, "note_off_time": 25.745}, {"pitch": 39, "velocity": 100, "note_on_time": 25.745, "note_off_time": 26.463}, {"pitch": 72, "velocity": 100, "note_on_time": 25.745, "note_off_time": 27.177}, {"pitch": 42, "velocity": 100, "note_on_time": 26.464, "note_off_time": 27.177}, {"pitch": 76, "velocity": 100, "note_on_time": 27.177, "note_off_time": 27.892}, {"pitch": 42, "velocity": 100, "note_on_time": 27.177, "note_off_time": 27.892}, {"pitch": 39, "velocity": 100, "note_on_time": 27.893, "note_off_time": 28.61}, {"pitch": 42, "velocity": 100, "note_on_time": 28.61, "note_off_time": 29.324}, {"pitch": 74, "velocity": 100, "note_on_time": 27.892, "note_off_time": 30.037}, {"pitch": 42, "velocity": 100, "note_on_time": 29.325, "note_off_time": 30.037}, {"pitch": 39, "velocity": 100, "note_on_time": 30.038, "note_off_time": 30.75}, {"pitch": 74, "velocity": 100, "note_on_time": 30.037, "note_off_time": 31.466}, {"pitch": 42, "velocity": 100, "note_on_time": 30.75, "note_off_time": 31.467}, {"pitch": 76, "velocity": 100, "note_on_time": 31.466, "note_off_time": 32.181}, {"pitch": 42, "velocity": 100, "note_on_time": 31.467, "note_off_time": 32.182}, {"pitch": 77, "velocity": 100, "note_on_time": 32.181, "note_off_time": 32.893}, {"pitch": 39, "velocity": 100, "note_on_time": 32.182, "note_off_time": 32.893}, {"pitch": 74, "velocity": 100, "note_on_time": 32.893, "note_off_time": 33.612}, {"pitch": 42, "velocity": 100, "note_on_time": 32.893, "note_off_time": 33.612}, {"pitch": 71, "velocity": 100, "note_on_time": 33.612, "note_off_time": 34.326}, {"pitch": 42, "velocity": 100, "note_on_time": 33.613, "note_off_time": 34.326}, {"pitch": 67, "velocity": 100, "note_on_time": 34.326, "note_off_time": 35.041}, {"pitch": 39, "velocity": 100, "note_on_time": 34.326, "note_off_time": 35.042}, {"pitch": 69, "velocity": 100, "note_on_time": 35.041, "note_off_time": 35.754}, {"pitch": 42, "velocity": 100, "note_on_time": 35.042, "note_off_time": 35.755}, {"pitch": 71, "velocity": 100, "note_on_time": 35.754, "note_off_time": 36.47}, {"pitch": 42, "velocity": 100, "note_on_time": 35.755, "note_off_time": 36.471}, {"pitch": 39, "velocity": 100, "note_on_time": 36.471, "note_off_time": 37.188}, {"pitch": 72, "velocity": 100, "note_on_time": 36.47, "note_off_time": 37.906}, {"pitch": 42, "velocity": 100, "note_on_time": 37.189, "note_off_time": 37.906}, {"pitch": 42, "velocity": 100, "note_on_time": 37.906, "note_off_time": 38.619}]</notes><options name="Option List">((4, 4), [0.5, 0.25], 3, 7, &lt;NoteRangePerHand.TWO_NOTES: 3&gt;, &lt;NoteRangePerHand.ONE_NOTE: 2&gt;, False, True, True, None)</options></target_notes><trials><trial trial_no="1" timestamp="2023_05_14-11_32_28"><notes name="Played Notes">[{"pitch": 67, "velocity": 69, "note_on_time": 3.498, "note_off_time": 4.108}, {"pitch": 71, "velocity": 60, "note_on_time": 4.177, "note_off_time": 4.314}, {"pitch": 72, "velocity": 59, "note_on_time": 4.176, "note_off_time": 4.584}, {"pitch": 72, "velocity": 74, "note_on_time": 4.861, "note_off_time": 5.448}, {"pitch": 74, "velocity": 66, "note_on_time": 5.576, "note_off_time": 6.247}, {"pitch": 76, "velocity": 78, "note_on_time": 6.322, "note_off_time": 7.686}, {"pitch": 67, "velocity": 55, "note_on_time": 7.794, "note_off_time": 8.627}, {"pitch": 72, "velocity": 73, "note_on_time": 8.519, "note_off_time": 9.705}, {"pitch": 76, "velocity": 82, "note_on_time": 9.989, "note_off_time": 10.665}, {"pitch": 74, "velocity": 81, "note_on_time": 10.665, "note_off_time": 12.017}, {"pitch": 67, "velocity": 69, "note_on_time": 12.11, "note_off_time": 12.766}, {"pitch": 74, "velocity": 79, "note_on_time": 12.803, "note_off_time": 13.993}, {"pitch": 76, "velocity": 84, "note_on_time": 14.223, "note_off_time": 14.769}, {"pitch": 77, "velocity": 68, "note_on_time": 14.903, "note_off_time": 15.606}, {"pitch": 74, "velocity": 72, "note_on_time": 15.644, "note_off_time": 16.352}, {"pitch": 71, "velocity": 72, "note_on_time": 16.363, "note_off_time": 17.062}, {"pitch": 67, "velocity": 67, "note_on_time": 17.094, "note_off_time": 17.8}, {"pitch": 69, "velocity": 74, "note_on_time": 17.82, "note_off_time": 18.518}, {"pitch": 71, "velocity": 82, "note_on_time": 18.527, "note_off_time": 19.245}, {"pitch": 72, "velocity": 73, "note_on_time": 19.292, "note_off_time": 20.452}, {"pitch": 67, "velocity": 49, "note_on_time": 20.76, "note_off_time": 21.432}, {"pitch": 72, "velocity": 68, "note_on_time": 21.379, "note_off_time": 22.45}, {"pitch": 76, "velocity": 76, "note_on_time": 22.905, "note_off_time": 23.336}, {"pitch": 76, "velocity": 56, "note_on_time": 23.749, "note_off_time": 24.074}, {"pitch": 76, "velocity": 60, "note_on_time": 24.326, "note_off_time": 24.666}, {"pitch": 65, "velocity": 38, "note_on_time": 25.303, "note_off_time": 25.691}, {"pitch": 71, "velocity": 72, "note_on_time": 26.522, "note_off_time": 26.752}, {"pitch": 72, "velocity": 35, "note_on_time": 26.968, "note_off_time": 27.928}, {"pitch": 76, "velocity": 69, "note_on_time": 29.086, "note_off_time": 30.433}, {"pitch": 74, "velocity": 66, "note_on_time": 31.47, "note_off_time": 32.474}, {"pitch": 76, "velocity": 77, "note_on_time": 32.838, "note_off_time": 33.414}, {"pitch": 77, "velocity": 74, "note_on_time": 33.503, "note_off_time": 34.183}, {"pitch": 76, "velocity": 70, "note_on_time": 34.206, "note_off_time": 34.608}, {"pitch": 74, "velocity": 57, "note_on_time": 34.788, "note_off_time": 35.222}, {"pitch": 69, "velocity": 47, "note_on_time": 35.634, "note_off_time": 35.856}, {"pitch": 67, "velocity": 73, "note_on_time": 36.026, "note_off_time": 36.229}, {"pitch": 71, "velocity": 81, "note_on_time": 36.154, "note_off_time": 36.809}]</notes><guidance name="Guidance Mode">None</guidance><error name="Error value">5.804375104966812</error></trial></trials></MIDI>