<MIDI midiNo="2023_05_14-11_30_43"><target_notes><notes name="Note List">[{"pitch": 39, "velocity": 100, "note_on_time": 0.006, "note_off_time": 0.723}, {"pitch": 42, "velocity": 100, "note_on_time": 0.723, "note_off_time": 1.44}, {"pitch": 42, "velocity": 100, "note_on_time": 1.441, "note_off_time": 2.153}, {"pitch": 39, "velocity": 100, "note_on_time": 2.154, "note_off_time": 2.871}, {"pitch": 42, "velocity": 100, "note_on_time": 2.871, "note_off_time": 3.585}, {"pitch": 67, "velocity": 100, "note_on_time": 3.585, "note_off_time": 4.3}, {"pitch": 42, "velocity": 100, "note_on_time": 3.585, "note_off_time": 4.3}, {"pitch": 72, "velocity": 100, "note_on_time": 4.3, "note_off_time": 5.018}, {"pitch": 39, "velocity": 100, "note_on_time": 4.301, "note_off_time": 5.018}, {"pitch": 72, "velocity": 100, "note_on_time": 5.018, "note_off_time": 5.732}, {"pitch": 42, "velocity": 100, "note_on_time": 5.018, "note_off_time": 5.732}, {"pitch": 74, "velocity": 100, "note_on_time": 5.732, "note_off_time": 6.448}, {"pitch": 42, "velocity": 100, "note_on_time": 5.733, "note_off_time": 6.448}, {"pitch": 39, "velocity": 100, "note_on_time": 6.448, "note_off_time": 7.163}, {"pitch": 76, "velocity": 100, "note_on_time": 6.448, "note_off_time": 7.881}, {"pitch": 42, "velocity": 100, "note_on_time": 7.163, "note_off_time": 7.881}, {"pitch": 67, "velocity": 100, "note_on_time": 7.881, "note_off_time": 8.595}, {"pitch": 42, "velocity": 100, "note_on_time": 7.881, "note_off_time": 8.596}, {"pitch": 39, "velocity": 100, "note_on_time": 8.596, "note_off_time": 9.31}, {"pitch": 72, "velocity": 100, "note_on_time": 8.595, "note_off_time": 10.023}, {"pitch": 42, "velocity": 100, "note_on_time": 9.31, "note_off_time": 10.024}, {"pitch": 76, "velocity": 100, "note_on_time": 10.023, "note_off_time": 10.737}, {"pitch": 42, "velocity": 100, "note_on_time": 10.024, "note_off_time": 10.738}, {"pitch": 39, "velocity": 100, "note_on_time": 10.738, "note_off_time": 11.45}, {"pitch": 74, "velocity": 100, "note_on_time": 10.737, "note_off_time": 12.168}, {"pitch": 42, "velocity": 100, "note_on_time": 11.451, "note_off_time": 12.168}, {"pitch": 67, "velocity": 100, "note_on_time": 12.168, "note_off_time": 12.885}, {"pitch": 42, "velocity": 100, "note_on_time": 12.168, "note_off_time": 12.885}, {"pitch": 39, "velocity": 100, "note_on_time": 12.885, "note_off_time": 13.603}, {"pitch": 74, "velocity": 100, "note_on_time": 12.885, "note_off_time": 14.32}, {"pitch": 42, "velocity": 100, "note_on_time": 13.603, "note_off_time": 14.321}, {"pitch": 76, "velocity": 100, "note_on_time": 14.32, "note_off_time": 15.034}, {"pitch": 42, "velocity": 100, "note_on_time": 14.321, "note_off_time": 15.034}, {"pitch": 77, "velocity": 100, "note_on_time": 15.034, "note_off_time": 15.751}, {"pitch": 39, "velocity": 100, "note_on_time": 15.035, "note_off_time": 15.751}, {"pitch": 74, "velocity": 100, "note_on_time": 15.751, "note_off_time": 16.465}, {"pitch": 42, "velocity": 100, "note_on_time": 15.751, "note_off_time": 16.465}, {"pitch": 71, "velocity": 100, "note_on_time": 16.465, "note_off_time": 17.182}, {"pitch": 42, "velocity": 100, "note_on_time": 16.465, "note_off_time": 17.183}, {"pitch": 67, "velocity": 100, "note_on_time": 17.182, "note_off_time": 17.897}, {"pitch": 39, "velocity": 100, "note_on_time": 17.183, "note_off_time": 17.897}, {"pitch": 69, "velocity": 100, "note_on_time": 17.897, "note_off_time": 18.613}, {"pitch": 42, "velocity": 100, "note_on_time": 17.897, "note_off_time": 18.614}, {"pitch": 71, "velocity": 100, "note_on_time": 18.613, "note_off_time": 19.326}, {"pitch": 42, "velocity": 100, "note_on_time": 18.614, "note_off_time": 19.326}, {"pitch": 39, "velocity": 100, "note_on_time": 19.326, "note_off_time": 20.042}, {"pitch": 72, "velocity": 100, "note_on_time": 19.326, "note_off_time": 20.753}, {"pitch": 42, "velocity": 100, "note_on_time": 20.042, "note_off_time": 20.753}, {"pitch": 67, "velocity": 100, "note_on_time": 20.753, "note_off_time": 21.468}, {"pitch": 42, "velocity": 100, "note_on_time": 20.754, "note_off_time": 21.468}, {"pitch": 39, "velocity": 100, "note_on_time": 21.468, "note_off_time": 22.187}, {"pitch": 72, "velocity": 100, "note_on_time": 21.468, "note_off_time": 22.902}, {"pitch": 42, "velocity": 100, "note_on_time": 22.187, "note_off_time": 22.902}, {"pitch": 74, "velocity": 100, "note_on_time": 22.902, "note_off_time": 23.614}, {"pitch": 42, "velocity": 100, "note_on_time": 22.902, "note_off_time": 23.615}, {"pitch": 76, "velocity": 100, "note_on_time": 23.614, "note_off_time": 24.328}, {"pitch": 39, "velocity": 100, "note_on_time": 23.615, "note_off_time": 24.328}, {"pitch": 76, "velocity": 100, "note_on_time": 24.328, "note_off_time": 25.042}, {"pitch": 42, "velocity": 100, "note_on_time": 24.328, "note_off_time": 25.042}, {"pitch": 67, "velocity": 100, "note_on_time": 25.042, "note_off_time": 25.759}, {"pitch": 42, "velocity": 100, "note_on_time": 25.042, "note_off_time": 25.76}, {"pitch": 39, "velocity": 100, "note_on_time": 25.76, "note_off_time": 26.475}, {"pitch": 72, "velocity": 100, "note_on_time": 25.759, "note_off_time": 27.193}, {"pitch": 42, "velocity": 100, "note_on_time": 26.476, "note_off_time": 27.194}, {"pitch": 76, "velocity": 100, "note_on_time": 27.193, "note_off_time": 27.911}, {"pitch": 42, "velocity": 100, "note_on_time": 27.194, "note_off_time": 27.911}, {"pitch": 39, "velocity": 100, "note_on_time": 27.912, "note_off_time": 28.625}, {"pitch": 42, "velocity": 100, "note_on_time": 28.625, "note_off_time": 29.341}, {"pitch": 74, "velocity": 100, "note_on_time": 27.911, "note_off_time": 30.053}, {"pitch": 42, "velocity": 100, "note_on_time": 29.341, "note_off_time": 30.053}, {"pitch": 39, "velocity": 100, "note_on_time": 30.053, "note_off_time": 30.767}, {"pitch": 74, "velocity": 100, "note_on_time": 30.053, "note_off_time": 31.481}, {"pitch": 42, "velocity": 100, "note_on_time": 30.767, "note_off_time": 31.482}, {"pitch": 76, "velocity": 100, "note_on_time": 31.481, "note_off_time": 32.195}, {"pitch": 42, "velocity": 100, "note_on_time": 31.482, "note_off_time": 32.195}, {"pitch": 77, "velocity": 100, "note_on_time": 32.195, "note_off_time": 32.914}, {"pitch": 39, "velocity": 100, "note_on_time": 32.195, "note_off_time": 32.914}, {"pitch": 74, "velocity": 100, "note_on_time": 32.914, "note_off_time": 33.629}, {"pitch": 42, "velocity": 100, "note_on_time": 32.915, "note_off_time": 33.629}, {"pitch": 71, "velocity": 100, "note_on_time": 33.629, "note_off_time": 34.346}, {"pitch": 42, "velocity": 100, "note_on_time": 33.629, "note_off_time": 34.346}, {"pitch": 67, "velocity": 100, "note_on_time": 34.346, "note_off_time": 35.061}, {"pitch": 39, "velocity": 100, "note_on_time": 34.346, "note_off_time": 35.062}, {"pitch": 69, "velocity": 100, "note_on_time": 35.061, "note_off_time": 35.779}, {"pitch": 42, "velocity": 100, "note_on_time": 35.062, "note_off_time": 35.78}, {"pitch": 71, "velocity": 100, "note_on_time": 35.779, "note_off_time": 36.495}, {"pitch": 42, "velocity": 100, "note_on_time": 35.78, "note_off_time": 36.495}, {"pitch": 39, "velocity": 100, "note_on_time": 36.495, "note_off_time": 37.213}, {"pitch": 72, "velocity": 100, "note_on_time": 36.495, "note_off_time": 37.931}, {"pitch": 42, "velocity": 100, "note_on_time": 37.213, "note_off_time": 37.931}, {"pitch": 42, "velocity": 100, "note_on_time": 37.931, "note_off_time": 38.648}]</notes><options name="Option List">((4, 4), [0.5, 0.25], 3, 7, &lt;NoteRangePerHand.TWO_NOTES: 3&gt;, &lt;NoteRangePerHand.ONE_NOTE: 2&gt;, False, True, True, None)</options></target_notes><trials><trial trial_no="1" timestamp="2023_05_14-11_30_43"><notes name="Played Notes">[{"pitch": 67, "velocity": 67, "note_on_time": 3.424, "note_off_time": 4.14}, {"pitch": 71, "velocity": 78, "note_on_time": 4.152, "note_off_time": 4.489}, {"pitch": 72, "velocity": 72, "note_on_time": 4.803, "note_off_time": 5.258}, {"pitch": 76, "velocity": 52, "note_on_time": 5.608, "note_off_time": 5.671}, {"pitch": 74, "velocity": 57, "note_on_time": 5.61, "note_off_time": 6.207}, {"pitch": 72, "velocity": 61, "note_on_time": 6.267, "note_off_time": 6.472}, {"pitch": 76, "velocity": 72, "note_on_time": 6.626, "note_off_time": 7.998}, {"pitch": 69, "velocity": 80, "note_on_time": 8.015, "note_off_time": 8.319}, {"pitch": 67, "velocity": 60, "note_on_time": 8.501, "note_off_time": 9.114}, {"pitch": 72, "velocity": 83, "note_on_time": 9.079, "note_off_time": 10.648}, {"pitch": 76, "velocity": 74, "note_on_time": 10.676, "note_off_time": 11.416}, {"pitch": 74, "velocity": 78, "note_on_time": 11.401, "note_off_time": 12.6}, {"pitch": 74, "velocity": 65, "note_on_time": 12.82, "note_off_time": 13.166}, {"pitch": 74, "velocity": 79, "note_on_time": 13.612, "note_off_time": 14.018}, {"pitch": 76, "velocity": 78, "note_on_time": 14.285, "note_off_time": 14.834}, {"pitch": 77, "velocity": 65, "note_on_time": 14.995, "note_off_time": 15.696}, {"pitch": 74, "velocity": 78, "note_on_time": 15.674, "note_off_time": 16.366}, {"pitch": 71, "velocity": 68, "note_on_time": 16.333, "note_off_time": 16.874}, {"pitch": 67, "velocity": 61, "note_on_time": 17.14, "note_off_time": 17.822}, {"pitch": 69, "velocity": 74, "note_on_time": 17.815, "note_off_time": 18.775}, {"pitch": 71, "velocity": 58, "note_on_time": 18.641, "note_off_time": 19.289}, {"pitch": 69, "velocity": 1, "note_on_time": 18.97, "note_off_time": 19.299}, {"pitch": 72, "velocity": 64, "note_on_time": 19.33, "note_off_time": 20.554}, {"pitch": 67, "velocity": 69, "note_on_time": 20.668, "note_off_time": 21.4}, {"pitch": 72, "velocity": 66, "note_on_time": 21.383, "note_off_time": 22.675}, {"pitch": 76, "velocity": 65, "note_on_time": 22.847, "note_off_time": 23.297}, {"pitch": 76, "velocity": 81, "note_on_time": 23.58, "note_off_time": 24.294}, {"pitch": 67, "velocity": 55, "note_on_time": 24.986, "note_off_time": 25.649}, {"pitch": 71, "velocity": 61, "note_on_time": 25.684, "note_off_time": 26.121}, {"pitch": 72, "velocity": 89, "note_on_time": 26.359, "note_off_time": 27.404}, {"pitch": 76, "velocity": 68, "note_on_time": 27.769, "note_off_time": 28.395}, {"pitch": 74, "velocity": 42, "note_on_time": 28.497, "note_off_time": 30.139}, {"pitch": 74, "velocity": 85, "note_on_time": 30.701, "note_off_time": 32.014}, {"pitch": 76, "velocity": 73, "note_on_time": 32.125, "note_off_time": 32.755}, {"pitch": 77, "velocity": 72, "note_on_time": 32.836, "note_off_time": 33.525}, {"pitch": 74, "velocity": 74, "note_on_time": 33.552, "note_off_time": 34.261}, {"pitch": 71, "velocity": 71, "note_on_time": 34.255, "note_off_time": 34.675}, {"pitch": 67, "velocity": 1, "note_on_time": 34.957, "note_off_time": 35.238}, {"pitch": 67, "velocity": 71, "note_on_time": 35.342, "note_off_time": 35.957}, {"pitch": 69, "velocity": 80, "note_on_time": 35.944, "note_off_time": 36.913}, {"pitch": 71, "velocity": 62, "note_on_time": 36.537, "note_off_time": 37.049}]</notes><guidance name="Guidance Mode">None</guidance><error name="Error value">4.124355306780465</error></trial></trials></MIDI>