<MIDI midiNo="2023_05_14-11_22_00"><target_notes><notes name="Note List">[{"pitch": 39, "velocity": 100, "note_on_time": 0.006, "note_off_time": 0.725}, {"pitch": 42, "velocity": 100, "note_on_time": 0.725, "note_off_time": 1.443}, {"pitch": 42, "velocity": 100, "note_on_time": 1.443, "note_off_time": 2.157}, {"pitch": 39, "velocity": 100, "note_on_time": 2.157, "note_off_time": 2.873}, {"pitch": 42, "velocity": 100, "note_on_time": 2.873, "note_off_time": 3.589}, {"pitch": 67, "velocity": 100, "note_on_time": 3.589, "note_off_time": 4.306}, {"pitch": 42, "velocity": 100, "note_on_time": 3.589, "note_off_time": 4.306}, {"pitch": 72, "velocity": 100, "note_on_time": 4.306, "note_off_time": 5.023}, {"pitch": 39, "velocity": 100, "note_on_time": 4.306, "note_off_time": 5.024}, {"pitch": 72, "velocity": 100, "note_on_time": 5.023, "note_off_time": 5.739}, {"pitch": 42, "velocity": 100, "note_on_time": 5.024, "note_off_time": 5.739}, {"pitch": 74, "velocity": 100, "note_on_time": 5.739, "note_off_time": 6.454}, {"pitch": 42, "velocity": 100, "note_on_time": 5.739, "note_off_time": 6.455}, {"pitch": 39, "velocity": 100, "note_on_time": 6.455, "note_off_time": 7.172}, {"pitch": 76, "velocity": 100, "note_on_time": 6.454, "note_off_time": 7.886}, {"pitch": 42, "velocity": 100, "note_on_time": 7.172, "note_off_time": 7.887}, {"pitch": 67, "velocity": 100, "note_on_time": 7.886, "note_off_time": 8.601}, {"pitch": 42, "velocity": 100, "note_on_time": 7.887, "note_off_time": 8.601}, {"pitch": 39, "velocity": 100, "note_on_time": 8.602, "note_off_time": 9.322}, {"pitch": 72, "velocity": 100, "note_on_time": 8.601, "note_off_time": 10.038}, {"pitch": 42, "velocity": 100, "note_on_time": 9.322, "note_off_time": 10.039}, {"pitch": 76, "velocity": 100, "note_on_time": 10.038, "note_off_time": 10.755}, {"pitch": 42, "velocity": 100, "note_on_time": 10.039, "note_off_time": 10.755}, {"pitch": 39, "velocity": 100, "note_on_time": 10.756, "note_off_time": 11.47}, {"pitch": 74, "velocity": 100, "note_on_time": 10.755, "note_off_time": 12.184}, {"pitch": 42, "velocity": 100, "note_on_time": 11.47, "note_off_time": 12.184}, {"pitch": 67, "velocity": 100, "note_on_time": 12.184, "note_off_time": 12.901}, {"pitch": 42, "velocity": 100, "note_on_time": 12.184, "note_off_time": 12.901}, {"pitch": 39, "velocity": 100, "note_on_time": 12.901, "note_off_time": 13.618}, {"pitch": 74, "velocity": 100, "note_on_time": 12.901, "note_off_time": 14.335}, {"pitch": 42, "velocity": 100, "note_on_time": 13.618, "note_off_time": 14.335}, {"pitch": 76, "velocity": 100, "note_on_time": 14.335, "note_off_time": 15.052}, {"pitch": 42, "velocity": 100, "note_on_time": 14.335, "note_off_time": 15.052}, {"pitch": 77, "velocity": 100, "note_on_time": 15.052, "note_off_time": 15.767}, {"pitch": 39, "velocity": 100, "note_on_time": 15.052, "note_off_time": 15.767}, {"pitch": 74, "velocity": 100, "note_on_time": 15.767, "note_off_time": 16.481}, {"pitch": 42, "velocity": 100, "note_on_time": 15.767, "note_off_time": 16.481}, {"pitch": 71, "velocity": 100, "note_on_time": 16.481, "note_off_time": 17.196}, {"pitch": 42, "velocity": 100, "note_on_time": 16.481, "note_off_time": 17.197}, {"pitch": 67, "velocity": 100, "note_on_time": 17.196, "note_off_time": 17.911}, {"pitch": 39, "velocity": 100, "note_on_time": 17.197, "note_off_time": 17.911}, {"pitch": 69, "velocity": 100, "note_on_time": 17.911, "note_off_time": 18.627}, {"pitch": 42, "velocity": 100, "note_on_time": 17.912, "note_off_time": 18.627}, {"pitch": 71, "velocity": 100, "note_on_time": 18.627, "note_off_time": 19.344}, {"pitch": 42, "velocity": 100, "note_on_time": 18.628, "note_off_time": 19.344}, {"pitch": 39, "velocity": 100, "note_on_time": 19.344, "note_off_time": 20.064}, {"pitch": 72, "velocity": 100, "note_on_time": 19.344, "note_off_time": 20.78}, {"pitch": 42, "velocity": 100, "note_on_time": 20.065, "note_off_time": 20.781}, {"pitch": 67, "velocity": 100, "note_on_time": 20.78, "note_off_time": 21.499}, {"pitch": 42, "velocity": 100, "note_on_time": 20.781, "note_off_time": 21.499}, {"pitch": 39, "velocity": 100, "note_on_time": 21.5, "note_off_time": 22.218}, {"pitch": 72, "velocity": 100, "note_on_time": 21.499, "note_off_time": 22.93}, {"pitch": 42, "velocity": 100, "note_on_time": 22.218, "note_off_time": 22.93}, {"pitch": 74, "velocity": 100, "note_on_time": 22.93, "note_off_time": 23.648}, {"pitch": 42, "velocity": 100, "note_on_time": 22.93, "note_off_time": 23.648}, {"pitch": 76, "velocity": 100, "note_on_time": 23.648, "note_off_time": 24.362}, {"pitch": 39, "velocity": 100, "note_on_time": 23.648, "note_off_time": 24.362}, {"pitch": 76, "velocity": 100, "note_on_time": 24.362, "note_off_time": 25.079}, {"pitch": 42, "velocity": 100, "note_on_time": 24.362, "note_off_time": 25.079}, {"pitch": 67, "velocity": 100, "note_on_time": 25.079, "note_off_time": 25.795}, {"pitch": 42, "velocity": 100, "note_on_time": 25.079, "note_off_time": 25.796}, {"pitch": 39, "velocity": 100, "note_on_time": 25.796, "note_off_time": 26.51}, {"pitch": 72, "velocity": 100, "note_on_time": 25.795, "note_off_time": 27.222}, {"pitch": 42, "velocity": 100, "note_on_time": 26.511, "note_off_time": 27.222}, {"pitch": 76, "velocity": 100, "note_on_time": 27.222, "note_off_time": 27.937}, {"pitch": 42, "velocity": 100, "note_on_time": 27.222, "note_off_time": 27.938}, {"pitch": 39, "velocity": 100, "note_on_time": 27.938, "note_off_time": 28.654}, {"pitch": 42, "velocity": 100, "note_on_time": 28.654, "note_off_time": 29.369}, {"pitch": 74, "velocity": 100, "note_on_time": 27.937, "note_off_time": 30.084}, {"pitch": 42, "velocity": 100, "note_on_time": 29.369, "note_off_time": 30.084}, {"pitch": 39, "velocity": 100, "note_on_time": 30.084, "note_off_time": 30.8}, {"pitch": 74, "velocity": 100, "note_on_time": 30.084, "note_off_time": 31.516}, {"pitch": 42, "velocity": 100, "note_on_time": 30.8, "note_off_time": 31.516}, {"pitch": 76, "velocity": 100, "note_on_time": 31.516, "note_off_time": 32.227}, {"pitch": 42, "velocity": 100, "note_on_time": 31.516, "note_off_time": 32.227}, {"pitch": 77, "velocity": 100, "note_on_time": 32.227, "note_off_time": 32.947}, {"pitch": 39, "velocity": 100, "note_on_time": 32.227, "note_off_time": 32.948}, {"pitch": 74, "velocity": 100, "note_on_time": 32.947, "note_off_time": 33.663}, {"pitch": 42, "velocity": 100, "note_on_time": 32.948, "note_off_time": 33.663}, {"pitch": 71, "velocity": 100, "note_on_time": 33.663, "note_off_time": 34.379}, {"pitch": 42, "velocity": 100, "note_on_time": 33.664, "note_off_time": 34.379}, {"pitch": 67, "velocity": 100, "note_on_time": 34.379, "note_off_time": 35.096}, {"pitch": 39, "velocity": 100, "note_on_time": 34.379, "note_off_time": 35.096}, {"pitch": 69, "velocity": 100, "note_on_time": 35.096, "note_off_time": 35.812}, {"pitch": 42, "velocity": 100, "note_on_time": 35.096, "note_off_time": 35.813}, {"pitch": 71, "velocity": 100, "note_on_time": 35.812, "note_off_time": 36.529}, {"pitch": 42, "velocity": 100, "note_on_time": 35.813, "note_off_time": 36.529}, {"pitch": 39, "velocity": 100, "note_on_time": 36.529, "note_off_time": 37.249}, {"pitch": 72, "velocity": 100, "note_on_time": 36.529, "note_off_time": 37.964}, {"pitch": 42, "velocity": 100, "note_on_time": 37.249, "note_off_time": 37.964}, {"pitch": 42, "velocity": 100, "note_on_time": 37.964, "note_off_time": 38.679}]</notes><options name="Option List">((4, 4), [0.5, 0.25], 3, 7, &lt;NoteRangePerHand.TWO_NOTES: 3&gt;, &lt;NoteRangePerHand.ONE_NOTE: 2&gt;, False, True, True, None)</options></target_notes><trials><trial trial_no="1" timestamp="2023_05_14-11_22_00"><notes name="Played Notes">[{"pitch": 67, "velocity": 65, "note_on_time": 3.53, "note_off_time": 4.211}, {"pitch": 72, "velocity": 67, "note_on_time": 4.182, "note_off_time": 5.167}, {"pitch": 74, "velocity": 70, "note_on_time": 5.065, "note_off_time": 5.629}, {"pitch": 76, "velocity": 88, "note_on_time": 5.64, "note_off_time": 6.189}, {"pitch": 77, "velocity": 59, "note_on_time": 6.207, "note_off_time": 6.399}, {"pitch": 74, "velocity": 70, "note_on_time": 10.767, "note_off_time": 12.168}, {"pitch": 76, "velocity": 80, "note_on_time": 12.132, "note_off_time": 12.938}, {"pitch": 77, "velocity": 69, "note_on_time": 12.823, "note_off_time": 13.761}, {"pitch": 76, "velocity": 77, "note_on_time": 13.509, "note_off_time": 13.855}, {"pitch": 67, "velocity": 71, "note_on_time": 18.473, "note_off_time": 19.266}, {"pitch": 72, "velocity": 72, "note_on_time": 19.238, "note_off_time": 20.754}, {"pitch": 74, "velocity": 33, "note_on_time": 19.96, "note_off_time": 21.112}, {"pitch": 76, "velocity": 68, "note_on_time": 20.672, "note_off_time": 22.437}, {"pitch": 74, "velocity": 30, "note_on_time": 27.006, "note_off_time": 27.07}, {"pitch": 72, "velocity": 82, "note_on_time": 25.586, "note_off_time": 27.176}, {"pitch": 74, "velocity": 48, "note_on_time": 27.999, "note_off_time": 29.341}, {"pitch": 74, "velocity": 78, "note_on_time": 29.942, "note_off_time": 31.404}, {"pitch": 76, "velocity": 65, "note_on_time": 31.444, "note_off_time": 32.113}, {"pitch": 76, "velocity": 63, "note_on_time": 32.942, "note_off_time": 33.394}, {"pitch": 77, "velocity": 78, "note_on_time": 32.131, "note_off_time": 33.561}, {"pitch": 72, "velocity": 78, "note_on_time": 33.637, "note_off_time": 35.607}]</notes><guidance name="Guidance Mode">None</guidance><error name="Error value">3.729451662399241</error></trial></trials></MIDI>