<MIDI midiNo="2023_05_14-11_55_23"><target_notes><notes name="Note List">[{"pitch": 39, "velocity": 100, "note_on_time": 42.557, "note_off_time": 43.265}, {"pitch": 42, "velocity": 100, "note_on_time": 43.265, "note_off_time": 43.979}, {"pitch": 42, "velocity": 100, "note_on_time": 43.979, "note_off_time": 44.695}, {"pitch": 42, "velocity": 100, "note_on_time": 44.695, "note_off_time": 45.41}, {"pitch": 39, "velocity": 100, "note_on_time": 45.411, "note_off_time": 46.127}, {"pitch": 42, "velocity": 100, "note_on_time": 46.127, "note_off_time": 46.845}, {"pitch": 42, "velocity": 100, "note_on_time": 46.845, "note_off_time": 47.567}, {"pitch": 60, "velocity": 100, "note_on_time": 47.566, "note_off_time": 48.276}, {"pitch": 42, "velocity": 100, "note_on_time": 47.567, "note_off_time": 48.276}, {"pitch": 39, "velocity": 100, "note_on_time": 48.276, "note_off_time": 48.99}, {"pitch": 69, "velocity": 100, "note_on_time": 48.276, "note_off_time": 49.706}, {"pitch": 42, "velocity": 100, "note_on_time": 48.99, "note_off_time": 49.706}, {"pitch": 65, "velocity": 100, "note_on_time": 49.706, "note_off_time": 50.423}, {"pitch": 42, "velocity": 100, "note_on_time": 49.706, "note_off_time": 50.423}, {"pitch": 65, "velocity": 100, "note_on_time": 50.423, "note_off_time": 51.138}, {"pitch": 42, "velocity": 100, "note_on_time": 50.423, "note_off_time": 51.138}, {"pitch": 39, "velocity": 100, "note_on_time": 51.139, "note_off_time": 51.853}, {"pitch": 67, "velocity": 100, "note_on_time": 51.138, "note_off_time": 52.567}, {"pitch": 42, "velocity": 100, "note_on_time": 51.854, "note_off_time": 52.568}, {"pitch": 60, "velocity": 100, "note_on_time": 52.567, "note_off_time": 53.285}, {"pitch": 42, "velocity": 100, "note_on_time": 52.568, "note_off_time": 53.285}, {"pitch": 60, "velocity": 100, "note_on_time": 53.285, "note_off_time": 54.001}, {"pitch": 42, "velocity": 100, "note_on_time": 53.285, "note_off_time": 54.001}, {"pitch": 65, "velocity": 100, "note_on_time": 54.001, "note_off_time": 54.718}, {"pitch": 39, "velocity": 100, "note_on_time": 54.002, "note_off_time": 54.719}, {"pitch": 64, "velocity": 100, "note_on_time": 54.718, "note_off_time": 55.436}, {"pitch": 42, "velocity": 100, "note_on_time": 54.719, "note_off_time": 55.436}, {"pitch": 65, "velocity": 100, "note_on_time": 55.436, "note_off_time": 56.152}, {"pitch": 42, "velocity": 100, "note_on_time": 55.436, "note_off_time": 56.152}, {"pitch": 69, "velocity": 100, "note_on_time": 56.152, "note_off_time": 56.868}, {"pitch": 42, "velocity": 100, "note_on_time": 56.152, "note_off_time": 56.868}, {"pitch": 39, "velocity": 100, "note_on_time": 56.868, "note_off_time": 57.584}, {"pitch": 42, "velocity": 100, "note_on_time": 57.584, "note_off_time": 58.301}, {"pitch": 67, "velocity": 100, "note_on_time": 56.868, "note_off_time": 59.017}, {"pitch": 42, "velocity": 100, "note_on_time": 58.302, "note_off_time": 59.017}, {"pitch": 69, "velocity": 100, "note_on_time": 59.017, "note_off_time": 59.733}, {"pitch": 42, "velocity": 100, "note_on_time": 59.017, "note_off_time": 59.733}, {"pitch": 70, "velocity": 100, "note_on_time": 59.733, "note_off_time": 60.447}, {"pitch": 39, "velocity": 100, "note_on_time": 59.733, "note_off_time": 60.448}, {"pitch": 70, "velocity": 100, "note_on_time": 60.447, "note_off_time": 61.162}, {"pitch": 42, "velocity": 100, "note_on_time": 60.448, "note_off_time": 61.163}, {"pitch": 69, "velocity": 100, "note_on_time": 61.162, "note_off_time": 61.882}, {"pitch": 42, "velocity": 100, "note_on_time": 61.163, "note_off_time": 61.882}, {"pitch": 70, "velocity": 100, "note_on_time": 61.882, "note_off_time": 62.596}, {"pitch": 42, "velocity": 100, "note_on_time": 61.882, "note_off_time": 62.596}, {"pitch": 39, "velocity": 100, "note_on_time": 62.596, "note_off_time": 63.312}, {"pitch": 72, "velocity": 100, "note_on_time": 62.596, "note_off_time": 64.026}, {"pitch": 42, "velocity": 100, "note_on_time": 63.313, "note_off_time": 64.026}, {"pitch": 69, "velocity": 100, "note_on_time": 64.026, "note_off_time": 64.737}, {"pitch": 42, "velocity": 100, "note_on_time": 64.026, "note_off_time": 64.738}, {"pitch": 65, "velocity": 100, "note_on_time": 64.737, "note_off_time": 65.45}, {"pitch": 42, "velocity": 100, "note_on_time": 64.738, "note_off_time": 65.45}, {"pitch": 69, "velocity": 100, "note_on_time": 65.45, "note_off_time": 66.169}, {"pitch": 39, "velocity": 100, "note_on_time": 65.45, "note_off_time": 66.169}, {"pitch": 69, "velocity": 100, "note_on_time": 66.169, "note_off_time": 66.882}, {"pitch": 42, "velocity": 100, "note_on_time": 66.17, "note_off_time": 66.882}, {"pitch": 67, "velocity": 100, "note_on_time": 66.882, "note_off_time": 67.6}, {"pitch": 42, "velocity": 100, "note_on_time": 66.883, "note_off_time": 67.6}, {"pitch": 69, "velocity": 100, "note_on_time": 67.6, "note_off_time": 68.316}, {"pitch": 42, "velocity": 100, "note_on_time": 67.601, "note_off_time": 68.316}, {"pitch": 39, "velocity": 100, "note_on_time": 68.317, "note_off_time": 69.033}, {"pitch": 70, "velocity": 100, "note_on_time": 68.316, "note_off_time": 69.745}, {"pitch": 42, "velocity": 100, "note_on_time": 69.033, "note_off_time": 69.746}, {"pitch": 67, "velocity": 100, "note_on_time": 69.745, "note_off_time": 70.463}, {"pitch": 42, "velocity": 100, "note_on_time": 69.746, "note_off_time": 70.463}, {"pitch": 74, "velocity": 100, "note_on_time": 70.463, "note_off_time": 71.175}, {"pitch": 42, "velocity": 100, "note_on_time": 70.463, "note_off_time": 71.176}, {"pitch": 39, "velocity": 100, "note_on_time": 71.176, "note_off_time": 71.892}, {"pitch": 72, "velocity": 100, "note_on_time": 71.175, "note_off_time": 72.608}, {"pitch": 42, "velocity": 100, "note_on_time": 71.892, "note_off_time": 72.608}, {"pitch": 69, "velocity": 100, "note_on_time": 72.608, "note_off_time": 73.325}, {"pitch": 42, "velocity": 100, "note_on_time": 72.608, "note_off_time": 73.326}, {"pitch": 72, "velocity": 100, "note_on_time": 73.326, "note_off_time": 74.044}, {"pitch": 42, "velocity": 100, "note_on_time": 73.326, "note_off_time": 74.044}, {"pitch": 39, "velocity": 100, "note_on_time": 74.044, "note_off_time": 74.759}, {"pitch": 70, "velocity": 100, "note_on_time": 74.044, "note_off_time": 75.473}, {"pitch": 42, "velocity": 100, "note_on_time": 74.759, "note_off_time": 75.473}, {"pitch": 67, "velocity": 100, "note_on_time": 75.473, "note_off_time": 76.19}, {"pitch": 42, "velocity": 100, "note_on_time": 75.473, "note_off_time": 76.19}, {"pitch": 74, "velocity": 100, "note_on_time": 76.19, "note_off_time": 76.904}, {"pitch": 42, "velocity": 100, "note_on_time": 76.19, "note_off_time": 76.904}, {"pitch": 72, "velocity": 100, "note_on_time": 76.904, "note_off_time": 77.619}, {"pitch": 39, "velocity": 100, "note_on_time": 76.905, "note_off_time": 77.619}, {"pitch": 69, "velocity": 100, "note_on_time": 77.619, "note_off_time": 78.333}, {"pitch": 42, "velocity": 100, "note_on_time": 77.619, "note_off_time": 78.333}, {"pitch": 70, "velocity": 100, "note_on_time": 78.333, "note_off_time": 79.045}, {"pitch": 42, "velocity": 100, "note_on_time": 78.333, "note_off_time": 79.046}, {"pitch": 67, "velocity": 100, "note_on_time": 79.045, "note_off_time": 79.758}, {"pitch": 42, "velocity": 100, "note_on_time": 79.046, "note_off_time": 79.759}, {"pitch": 39, "velocity": 100, "note_on_time": 79.759, "note_off_time": 80.474}, {"pitch": 42, "velocity": 100, "note_on_time": 80.474, "note_off_time": 81.191}, {"pitch": 65, "velocity": 100, "note_on_time": 79.758, "note_off_time": 81.907}, {"pitch": 42, "velocity": 100, "note_on_time": 81.191, "note_off_time": 81.907}, {"pitch": 42, "velocity": 100, "note_on_time": 81.908, "note_off_time": 82.621}]</notes><options name="Option List">((4, 4), [0.5, 0.25], 3, 7, &lt;NoteRangePerHand.TWO_NOTES: 3&gt;, &lt;NoteRangePerHand.ONE_NOTE: 2&gt;, False, True, True, None)</options></target_notes><trials><trial trial_no="1" timestamp="2023_05_14-11_55_23"><notes name="Played Notes">[{"pitch": 60, "velocity": 66, "note_on_time": 47.526, "note_off_time": 48.087}, {"pitch": 67, "velocity": 66, "note_on_time": 48.222, "note_off_time": 49.597}, {"pitch": 65, "velocity": 82, "note_on_time": 49.752, "note_off_time": 50.138}, {"pitch": 65, "velocity": 84, "note_on_time": 50.436, "note_off_time": 51.131}, {"pitch": 69, "velocity": 74, "note_on_time": 51.155, "note_off_time": 52.526}, {"pitch": 60, "velocity": 76, "note_on_time": 53.297, "note_off_time": 53.716}, {"pitch": 60, "velocity": 62, "note_on_time": 53.982, "note_off_time": 54.761}, {"pitch": 65, "velocity": 76, "note_on_time": 54.775, "note_off_time": 56.192}, {"pitch": 64, "velocity": 68, "note_on_time": 56.19, "note_off_time": 56.9}, {"pitch": 65, "velocity": 70, "note_on_time": 56.889, "note_off_time": 57.694}, {"pitch": 69, "velocity": 64, "note_on_time": 57.552, "note_off_time": 58.201}, {"pitch": 67, "velocity": 69, "note_on_time": 58.214, "note_off_time": 60.228}, {"pitch": 69, "velocity": 77, "note_on_time": 60.4, "note_off_time": 61.665}, {"pitch": 70, "velocity": 66, "note_on_time": 61.903, "note_off_time": 62.32}, {"pitch": 70, "velocity": 55, "note_on_time": 62.654, "note_off_time": 63.515}, {"pitch": 69, "velocity": 69, "note_on_time": 63.339, "note_off_time": 63.978}, {"pitch": 70, "velocity": 53, "note_on_time": 64.07, "note_off_time": 65.664}, {"pitch": 71, "velocity": 52, "note_on_time": 66.264, "note_off_time": 66.773}, {"pitch": 72, "velocity": 88, "note_on_time": 67.317, "note_off_time": 69.311}, {"pitch": 72, "velocity": 50, "note_on_time": 69.868, "note_off_time": 70.657}, {"pitch": 71, "velocity": 65, "note_on_time": 70.549, "note_off_time": 70.89}, {"pitch": 69, "velocity": 68, "note_on_time": 73.344, "note_off_time": 75.116}, {"pitch": 70, "velocity": 58, "note_on_time": 75.527, "note_off_time": 76.097}, {"pitch": 67, "velocity": 41, "note_on_time": 76.971, "note_off_time": 78.821}, {"pitch": 74, "velocity": 62, "note_on_time": 78.174, "note_off_time": 79.616}, {"pitch": 72, "velocity": 39, "note_on_time": 79.486, "note_off_time": 81.404}]</notes><guidance name="Guidance Mode">None</guidance><error name="Error value">1.2947093979757087</error></trial></trials></MIDI>