<MIDI midiNo="2023_05_14-12_01_30"><target_notes><notes name="Note List">[{"pitch": 39, "velocity": 100, "note_on_time": 0.007, "note_off_time": 0.716}, {"pitch": 42, "velocity": 100, "note_on_time": 0.717, "note_off_time": 1.43}, {"pitch": 42, "velocity": 100, "note_on_time": 1.43, "note_off_time": 2.149}, {"pitch": 42, "velocity": 100, "note_on_time": 2.149, "note_off_time": 2.859}, {"pitch": 39, "velocity": 100, "note_on_time": 2.86, "note_off_time": 3.571}, {"pitch": 42, "velocity": 100, "note_on_time": 3.572, "note_off_time": 4.284}, {"pitch": 42, "velocity": 100, "note_on_time": 4.284, "note_off_time": 5.001}, {"pitch": 62, "velocity": 100, "note_on_time": 5.001, "note_off_time": 5.714}, {"pitch": 42, "velocity": 100, "note_on_time": 5.002, "note_off_time": 5.714}, {"pitch": 39, "velocity": 100, "note_on_time": 5.714, "note_off_time": 6.428}, {"pitch": 62, "velocity": 100, "note_on_time": 5.714, "note_off_time": 7.147}, {"pitch": 42, "velocity": 100, "note_on_time": 6.428, "note_off_time": 7.148}, {"pitch": 62, "velocity": 100, "note_on_time": 7.147, "note_off_time": 7.862}, {"pitch": 42, "velocity": 100, "note_on_time": 7.148, "note_off_time": 7.862}, {"pitch": 62, "velocity": 100, "note_on_time": 7.862, "note_off_time": 8.579}, {"pitch": 42, "velocity": 100, "note_on_time": 7.862, "note_off_time": 8.579}, {"pitch": 39, "velocity": 100, "note_on_time": 8.579, "note_off_time": 9.295}, {"pitch": 62, "velocity": 100, "note_on_time": 8.579, "note_off_time": 10.011}, {"pitch": 42, "velocity": 100, "note_on_time": 9.295, "note_off_time": 10.011}, {"pitch": 62, "velocity": 100, "note_on_time": 10.011, "note_off_time": 10.729}, {"pitch": 42, "velocity": 100, "note_on_time": 10.012, "note_off_time": 10.73}, {"pitch": 62, "velocity": 100, "note_on_time": 10.729, "note_off_time": 11.443}, {"pitch": 42, "velocity": 100, "note_on_time": 10.73, "note_off_time": 11.443}, {"pitch": 62, "velocity": 100, "note_on_time": 11.443, "note_off_time": 12.163}, {"pitch": 39, "velocity": 100, "note_on_time": 11.444, "note_off_time": 12.163}, {"pitch": 62, "velocity": 100, "note_on_time": 12.163, "note_off_time": 12.878}, {"pitch": 42, "velocity": 100, "note_on_time": 12.163, "note_off_time": 12.878}, {"pitch": 62, "velocity": 100, "note_on_time": 12.878, "note_off_time": 13.594}, {"pitch": 42, "velocity": 100, "note_on_time": 12.878, "note_off_time": 13.595}, {"pitch": 62, "velocity": 100, "note_on_time": 13.594, "note_off_time": 14.312}, {"pitch": 42, "velocity": 100, "note_on_time": 13.595, "note_off_time": 14.312}, {"pitch": 39, "velocity": 100, "note_on_time": 14.312, "note_off_time": 15.029}, {"pitch": 42, "velocity": 100, "note_on_time": 15.029, "note_off_time": 15.745}, {"pitch": 62, "velocity": 100, "note_on_time": 14.312, "note_off_time": 16.463}, {"pitch": 42, "velocity": 100, "note_on_time": 15.745, "note_off_time": 16.464}, {"pitch": 62, "velocity": 100, "note_on_time": 16.463, "note_off_time": 17.181}, {"pitch": 42, "velocity": 100, "note_on_time": 16.464, "note_off_time": 17.181}, {"pitch": 62, "velocity": 100, "note_on_time": 17.181, "note_off_time": 17.895}, {"pitch": 39, "velocity": 100, "note_on_time": 17.181, "note_off_time": 17.895}, {"pitch": 62, "velocity": 100, "note_on_time": 17.895, "note_off_time": 18.608}, {"pitch": 42, "velocity": 100, "note_on_time": 17.896, "note_off_time": 18.608}, {"pitch": 62, "velocity": 100, "note_on_time": 18.608, "note_off_time": 19.321}, {"pitch": 42, "velocity": 100, "note_on_time": 18.608, "note_off_time": 19.322}, {"pitch": 62, "velocity": 100, "note_on_time": 19.321, "note_off_time": 20.037}, {"pitch": 42, "velocity": 100, "note_on_time": 19.322, "note_off_time": 20.037}, {"pitch": 39, "velocity": 100, "note_on_time": 20.037, "note_off_time": 20.752}, {"pitch": 62, "velocity": 100, "note_on_time": 20.037, "note_off_time": 21.463}, {"pitch": 42, "velocity": 100, "note_on_time": 20.753, "note_off_time": 21.463}, {"pitch": 62, "velocity": 100, "note_on_time": 21.463, "note_off_time": 22.176}, {"pitch": 42, "velocity": 100, "note_on_time": 21.464, "note_off_time": 22.176}, {"pitch": 62, "velocity": 100, "note_on_time": 22.176, "note_off_time": 22.888}, {"pitch": 42, "velocity": 100, "note_on_time": 22.176, "note_off_time": 22.889}, {"pitch": 62, "velocity": 100, "note_on_time": 22.888, "note_off_time": 23.604}, {"pitch": 39, "velocity": 100, "note_on_time": 22.889, "note_off_time": 23.604}, {"pitch": 62, "velocity": 100, "note_on_time": 23.604, "note_off_time": 24.319}, {"pitch": 42, "velocity": 100, "note_on_time": 23.604, "note_off_time": 24.319}, {"pitch": 62, "velocity": 100, "note_on_time": 24.319, "note_off_time": 25.028}, {"pitch": 42, "velocity": 100, "note_on_time": 24.319, "note_off_time": 25.028}, {"pitch": 62, "velocity": 100, "note_on_time": 25.028, "note_off_time": 25.739}, {"pitch": 42, "velocity": 100, "note_on_time": 25.028, "note_off_time": 25.739}, {"pitch": 39, "velocity": 100, "note_on_time": 25.74, "note_off_time": 26.451}, {"pitch": 62, "velocity": 100, "note_on_time": 25.739, "note_off_time": 27.167}, {"pitch": 42, "velocity": 100, "note_on_time": 26.451, "note_off_time": 27.167}, {"pitch": 62, "velocity": 100, "note_on_time": 27.167, "note_off_time": 27.884}, {"pitch": 42, "velocity": 100, "note_on_time": 27.167, "note_off_time": 27.884}, {"pitch": 62, "velocity": 100, "note_on_time": 27.884, "note_off_time": 28.597}, {"pitch": 42, "velocity": 100, "note_on_time": 27.884, "note_off_time": 28.598}, {"pitch": 39, "velocity": 100, "note_on_time": 28.598, "note_off_time": 29.314}, {"pitch": 62, "velocity": 100, "note_on_time": 28.597, "note_off_time": 30.031}, {"pitch": 42, "velocity": 100, "note_on_time": 29.314, "note_off_time": 30.031}, {"pitch": 62, "velocity": 100, "note_on_time": 30.031, "note_off_time": 30.746}, {"pitch": 42, "velocity": 100, "note_on_time": 30.032, "note_off_time": 30.746}, {"pitch": 62, "velocity": 100, "note_on_time": 30.746, "note_off_time": 31.463}, {"pitch": 42, "velocity": 100, "note_on_time": 30.746, "note_off_time": 31.464}, {"pitch": 39, "velocity": 100, "note_on_time": 31.464, "note_off_time": 32.182}, {"pitch": 62, "velocity": 100, "note_on_time": 31.463, "note_off_time": 32.896}, {"pitch": 42, "velocity": 100, "note_on_time": 32.182, "note_off_time": 32.896}, {"pitch": 62, "velocity": 100, "note_on_time": 32.896, "note_off_time": 33.613}, {"pitch": 42, "velocity": 100, "note_on_time": 32.896, "note_off_time": 33.613}, {"pitch": 62, "velocity": 100, "note_on_time": 33.613, "note_off_time": 34.327}, {"pitch": 42, "velocity": 100, "note_on_time": 33.613, "note_off_time": 34.327}, {"pitch": 62, "velocity": 100, "note_on_time": 34.327, "note_off_time": 35.042}, {"pitch": 39, "velocity": 100, "note_on_time": 34.328, "note_off_time": 35.043}, {"pitch": 62, "velocity": 100, "note_on_time": 35.042, "note_off_time": 35.759}, {"pitch": 42, "velocity": 100, "note_on_time": 35.043, "note_off_time": 35.759}, {"pitch": 62, "velocity": 100, "note_on_time": 35.759, "note_off_time": 36.474}, {"pitch": 42, "velocity": 100, "note_on_time": 35.759, "note_off_time": 36.474}, {"pitch": 62, "velocity": 100, "note_on_time": 36.474, "note_off_time": 37.188}, {"pitch": 42, "velocity": 100, "note_on_time": 36.474, "note_off_time": 37.188}, {"pitch": 39, "velocity": 100, "note_on_time": 37.188, "note_off_time": 37.901}, {"pitch": 42, "velocity": 100, "note_on_time": 37.901, "note_off_time": 38.616}, {"pitch": 62, "velocity": 100, "note_on_time": 37.188, "note_off_time": 39.333}, {"pitch": 42, "velocity": 100, "note_on_time": 38.616, "note_off_time": 39.333}, {"pitch": 42, "velocity": 100, "note_on_time": 39.334, "note_off_time": 40.049}]</notes><options name="Option List">((4, 4), [0.5, 0.25], 3, 7, &lt;NoteRangePerHand.TWO_NOTES: 3&gt;, &lt;NoteRangePerHand.ONE_NOTE: 2&gt;, False, True, True, None)</options></target_notes><trials><trial trial_no="1" timestamp="2023_05_14-12_01_30"><notes name="Played Notes">[{"pitch": 62, "velocity": 79, "note_on_time": 4.979, "note_off_time": 5.424}, {"pitch": 62, "velocity": 84, "note_on_time": 5.67, "note_off_time": 6.926}, {"pitch": 62, "velocity": 74, "note_on_time": 7.134, "note_off_time": 7.564}, {"pitch": 62, "velocity": 75, "note_on_time": 7.842, "note_off_time": 8.252}, {"pitch": 62, "velocity": 76, "note_on_time": 8.567, "note_off_time": 9.858}, {"pitch": 62, "velocity": 66, "note_on_time": 10.575, "note_off_time": 11.009}, {"pitch": 62, "velocity": 69, "note_on_time": 11.319, "note_off_time": 11.584}, {"pitch": 62, "velocity": 72, "note_on_time": 12.084, "note_off_time": 12.508}, {"pitch": 62, "velocity": 75, "note_on_time": 12.794, "note_off_time": 13.249}, {"pitch": 62, "velocity": 72, "note_on_time": 13.556, "note_off_time": 13.851}, {"pitch": 62, "velocity": 74, "note_on_time": 14.307, "note_off_time": 14.558}, {"pitch": 62, "velocity": 79, "note_on_time": 15.033, "note_off_time": 16.538}, {"pitch": 62, "velocity": 69, "note_on_time": 17.086, "note_off_time": 17.399}, {"pitch": 62, "velocity": 73, "note_on_time": 17.794, "note_off_time": 18.206}, {"pitch": 62, "velocity": 76, "note_on_time": 18.508, "note_off_time": 18.877}, {"pitch": 62, "velocity": 74, "note_on_time": 19.28, "note_off_time": 19.497}, {"pitch": 62, "velocity": 75, "note_on_time": 19.995, "note_off_time": 20.26}, {"pitch": 62, "velocity": 73, "note_on_time": 20.727, "note_off_time": 21.761}, {"pitch": 62, "velocity": 74, "note_on_time": 22.161, "note_off_time": 22.51}, {"pitch": 62, "velocity": 75, "note_on_time": 22.871, "note_off_time": 23.243}, {"pitch": 62, "velocity": 73, "note_on_time": 23.58, "note_off_time": 23.915}, {"pitch": 62, "velocity": 70, "note_on_time": 24.294, "note_off_time": 24.535}, {"pitch": 62, "velocity": 72, "note_on_time": 24.987, "note_off_time": 25.266}, {"pitch": 62, "velocity": 68, "note_on_time": 25.667, "note_off_time": 25.882}, {"pitch": 62, "velocity": 67, "note_on_time": 26.354, "note_off_time": 27.48}, {"pitch": 62, "velocity": 75, "note_on_time": 27.861, "note_off_time": 28.149}, {"pitch": 62, "velocity": 77, "note_on_time": 28.597, "note_off_time": 28.817}, {"pitch": 62, "velocity": 78, "note_on_time": 29.282, "note_off_time": 30.241}, {"pitch": 62, "velocity": 78, "note_on_time": 30.694, "note_off_time": 31.044}, {"pitch": 62, "velocity": 76, "note_on_time": 31.436, "note_off_time": 31.726}, {"pitch": 62, "velocity": 70, "note_on_time": 32.154, "note_off_time": 33.143}, {"pitch": 62, "velocity": 71, "note_on_time": 33.605, "note_off_time": 33.847}, {"pitch": 62, "velocity": 70, "note_on_time": 34.325, "note_off_time": 34.6}, {"pitch": 62, "velocity": 69, "note_on_time": 35.008, "note_off_time": 35.308}, {"pitch": 62, "velocity": 70, "note_on_time": 35.717, "note_off_time": 35.934}, {"pitch": 62, "velocity": 69, "note_on_time": 36.398, "note_off_time": 36.624}, {"pitch": 62, "velocity": 71, "note_on_time": 37.133, "note_off_time": 37.338}, {"pitch": 62, "velocity": 73, "note_on_time": 37.803, "note_off_time": 39.517}]</notes><guidance name="Guidance Mode">None</guidance><error name="Error value">0.2842533368421055</error></trial></trials></MIDI>