<MIDI midiNo="2023_05_14-13_14_53"><target_notes><notes name="Note List">[{"pitch": 39, "velocity": 100, "note_on_time": 0.006, "note_off_time": 0.723}, {"pitch": 42, "velocity": 100, "note_on_time": 0.724, "note_off_time": 1.435}, {"pitch": 42, "velocity": 100, "note_on_time": 1.435, "note_off_time": 2.148}, {"pitch": 42, "velocity": 100, "note_on_time": 2.149, "note_off_time": 2.866}, {"pitch": 39, "velocity": 100, "note_on_time": 2.866, "note_off_time": 3.581}, {"pitch": 60, "velocity": 100, "note_on_time": 2.866, "note_off_time": 4.297}, {"pitch": 42, "velocity": 100, "note_on_time": 3.581, "note_off_time": 4.298}, {"pitch": 42, "velocity": 100, "note_on_time": 4.298, "note_off_time": 5.014}, {"pitch": 67, "velocity": 100, "note_on_time": 4.297, "note_off_time": 5.733}, {"pitch": 42, "velocity": 100, "note_on_time": 5.014, "note_off_time": 5.733}, {"pitch": 64, "velocity": 100, "note_on_time": 5.733, "note_off_time": 6.45}, {"pitch": 39, "velocity": 100, "note_on_time": 5.734, "note_off_time": 6.45}, {"pitch": 42, "velocity": 100, "note_on_time": 6.45, "note_off_time": 7.164}, {"pitch": 67, "velocity": 100, "note_on_time": 6.45, "note_off_time": 7.877}, {"pitch": 42, "velocity": 100, "note_on_time": 7.165, "note_off_time": 7.877}, {"pitch": 60, "velocity": 100, "note_on_time": 7.877, "note_off_time": 8.591}, {"pitch": 42, "velocity": 100, "note_on_time": 7.878, "note_off_time": 8.591}, {"pitch": 39, "velocity": 100, "note_on_time": 8.592, "note_off_time": 9.308}, {"pitch": 67, "velocity": 100, "note_on_time": 8.591, "note_off_time": 10.025}, {"pitch": 42, "velocity": 100, "note_on_time": 9.308, "note_off_time": 10.026}, {"pitch": 42, "velocity": 100, "note_on_time": 10.026, "note_off_time": 10.742}, {"pitch": 60, "velocity": 100, "note_on_time": 10.025, "note_off_time": 11.455}, {"pitch": 42, "velocity": 100, "note_on_time": 10.742, "note_off_time": 11.455}, {"pitch": 39, "velocity": 100, "note_on_time": 11.456, "note_off_time": 12.167}, {"pitch": 42, "velocity": 100, "note_on_time": 12.167, "note_off_time": 12.88}, {"pitch": 42, "velocity": 100, "note_on_time": 12.881, "note_off_time": 13.596}, {"pitch": 64, "velocity": 100, "note_on_time": 11.455, "note_off_time": 14.313}, {"pitch": 42, "velocity": 100, "note_on_time": 13.597, "note_off_time": 14.313}, {"pitch": 67, "velocity": 100, "note_on_time": 14.313, "note_off_time": 15.029}, {"pitch": 39, "velocity": 100, "note_on_time": 14.313, "note_off_time": 15.03}, {"pitch": 64, "velocity": 100, "note_on_time": 15.029, "note_off_time": 15.75}, {"pitch": 42, "velocity": 100, "note_on_time": 15.03, "note_off_time": 15.75}, {"pitch": 67, "velocity": 100, "note_on_time": 15.75, "note_off_time": 16.465}, {"pitch": 42, "velocity": 100, "note_on_time": 15.75, "note_off_time": 16.465}, {"pitch": 60, "velocity": 100, "note_on_time": 16.465, "note_off_time": 17.18}, {"pitch": 42, "velocity": 100, "note_on_time": 16.465, "note_off_time": 17.18}, {"pitch": 39, "velocity": 100, "note_on_time": 17.18, "note_off_time": 17.9}, {"pitch": 64, "velocity": 100, "note_on_time": 17.18, "note_off_time": 18.621}, {"pitch": 42, "velocity": 100, "note_on_time": 17.9, "note_off_time": 18.621}, {"pitch": 67, "velocity": 100, "note_on_time": 18.621, "note_off_time": 19.334}, {"pitch": 42, "velocity": 100, "note_on_time": 18.621, "note_off_time": 19.334}, {"pitch": 60, "velocity": 100, "note_on_time": 19.334, "note_off_time": 20.051}, {"pitch": 42, "velocity": 100, "note_on_time": 19.334, "note_off_time": 20.051}, {"pitch": 64, "velocity": 100, "note_on_time": 20.051, "note_off_time": 20.767}, {"pitch": 39, "velocity": 100, "note_on_time": 20.051, "note_off_time": 20.767}, {"pitch": 42, "velocity": 100, "note_on_time": 20.767, "note_off_time": 21.483}, {"pitch": 67, "velocity": 100, "note_on_time": 20.767, "note_off_time": 22.196}, {"pitch": 42, "velocity": 100, "note_on_time": 21.483, "note_off_time": 22.196}, {"pitch": 64, "velocity": 100, "note_on_time": 22.196, "note_off_time": 22.911}, {"pitch": 42, "velocity": 100, "note_on_time": 22.197, "note_off_time": 22.912}, {"pitch": 39, "velocity": 100, "note_on_time": 22.912, "note_off_time": 23.627}, {"pitch": 42, "velocity": 100, "note_on_time": 23.627, "note_off_time": 24.344}, {"pitch": 42, "velocity": 100, "note_on_time": 24.344, "note_off_time": 25.061}, {"pitch": 60, "velocity": 100, "note_on_time": 22.911, "note_off_time": 25.78}, {"pitch": 42, "velocity": 100, "note_on_time": 25.062, "note_off_time": 25.78}]</notes><options name="Option List">((4, 4), [0.5, 0.25], 3, 7, &lt;NoteRangePerHand.TWO_NOTES: 3&gt;, &lt;NoteRangePerHand.ONE_NOTE: 2&gt;, False, True, True, None)</options></target_notes><trials><trial trial_no="1" timestamp="2023_05_14-13_14_53"><notes name="Played Notes">[{"pitch": 60, "velocity": 75, "note_on_time": 2.857, "note_off_time": 4.241}, {"pitch": 67, "velocity": 67, "note_on_time": 4.261, "note_off_time": 5.582}, {"pitch": 64, "velocity": 72, "note_on_time": 5.715, "note_off_time": 6.409}, {"pitch": 67, "velocity": 68, "note_on_time": 6.437, "note_off_time": 7.664}, {"pitch": 60, "velocity": 75, "note_on_time": 7.809, "note_off_time": 8.544}, {"pitch": 67, "velocity": 68, "note_on_time": 8.555, "note_off_time": 9.919}, {"pitch": 60, "velocity": 67, "note_on_time": 9.977, "note_off_time": 10.624}, {"pitch": 65, "velocity": 49, "note_on_time": 10.699, "note_off_time": 11.185}, {"pitch": 64, "velocity": 74, "note_on_time": 11.278, "note_off_time": 14.248}, {"pitch": 67, "velocity": 69, "note_on_time": 14.307, "note_off_time": 14.952}, {"pitch": 64, "velocity": 61, "note_on_time": 15.009, "note_off_time": 15.691}, {"pitch": 67, "velocity": 71, "note_on_time": 15.7, "note_off_time": 16.449}, {"pitch": 60, "velocity": 68, "note_on_time": 16.471, "note_off_time": 17.16}, {"pitch": 64, "velocity": 74, "note_on_time": 17.21, "note_off_time": 18.582}, {"pitch": 67, "velocity": 73, "note_on_time": 18.569, "note_off_time": 19.298}, {"pitch": 60, "velocity": 72, "note_on_time": 19.3, "note_off_time": 20.013}, {"pitch": 64, "velocity": 67, "note_on_time": 20.022, "note_off_time": 20.794}, {"pitch": 67, "velocity": 56, "note_on_time": 21.468, "note_off_time": 22.114}, {"pitch": 60, "velocity": 46, "note_on_time": 22.189, "note_off_time": 22.27}, {"pitch": 64, "velocity": 52, "note_on_time": 22.367, "note_off_time": 22.697}, {"pitch": 60, "velocity": 50, "note_on_time": 22.801, "note_off_time": 25.685}]</notes><guidance name="Guidance Mode">None</guidance><error name="Error value">3.58286717368421</error></trial></trials></MIDI>