<MIDI midiNo="2023_05_14-11_41_23"><target_notes><notes name="Note List">[{"pitch": 39, "velocity": 100, "note_on_time": 0.004, "note_off_time": 0.712}, {"pitch": 42, "velocity": 100, "note_on_time": 0.712, "note_off_time": 1.423}, {"pitch": 42, "velocity": 100, "note_on_time": 1.423, "note_off_time": 2.143}, {"pitch": 39, "velocity": 100, "note_on_time": 2.143, "note_off_time": 2.858}, {"pitch": 42, "velocity": 100, "note_on_time": 2.858, "note_off_time": 3.575}, {"pitch": 67, "velocity": 100, "note_on_time": 3.575, "note_off_time": 3.937}, {"pitch": 67, "velocity": 100, "note_on_time": 3.937, "note_off_time": 4.297}, {"pitch": 42, "velocity": 100, "note_on_time": 3.575, "note_off_time": 4.298}, {"pitch": 69, "velocity": 100, "note_on_time": 4.297, "note_off_time": 5.011}, {"pitch": 39, "velocity": 100, "note_on_time": 4.298, "note_off_time": 5.012}, {"pitch": 67, "velocity": 100, "note_on_time": 5.011, "note_off_time": 5.73}, {"pitch": 42, "velocity": 100, "note_on_time": 5.012, "note_off_time": 5.73}, {"pitch": 72, "velocity": 100, "note_on_time": 5.73, "note_off_time": 6.445}, {"pitch": 42, "velocity": 100, "note_on_time": 5.73, "note_off_time": 6.446}, {"pitch": 39, "velocity": 100, "note_on_time": 6.446, "note_off_time": 7.163}, {"pitch": 71, "velocity": 100, "note_on_time": 6.445, "note_off_time": 7.876}, {"pitch": 42, "velocity": 100, "note_on_time": 7.163, "note_off_time": 7.876}, {"pitch": 67, "velocity": 100, "note_on_time": 7.876, "note_off_time": 8.235}, {"pitch": 67, "velocity": 100, "note_on_time": 8.235, "note_off_time": 8.594}, {"pitch": 42, "velocity": 100, "note_on_time": 7.876, "note_off_time": 8.594}, {"pitch": 69, "velocity": 100, "note_on_time": 8.594, "note_off_time": 9.311}, {"pitch": 39, "velocity": 100, "note_on_time": 8.594, "note_off_time": 9.311}, {"pitch": 67, "velocity": 100, "note_on_time": 9.311, "note_off_time": 10.025}, {"pitch": 42, "velocity": 100, "note_on_time": 9.312, "note_off_time": 10.025}, {"pitch": 74, "velocity": 100, "note_on_time": 10.025, "note_off_time": 10.736}, {"pitch": 42, "velocity": 100, "note_on_time": 10.025, "note_off_time": 10.736}, {"pitch": 39, "velocity": 100, "note_on_time": 10.737, "note_off_time": 11.454}, {"pitch": 72, "velocity": 100, "note_on_time": 10.736, "note_off_time": 12.168}, {"pitch": 42, "velocity": 100, "note_on_time": 11.454, "note_off_time": 12.168}, {"pitch": 67, "velocity": 100, "note_on_time": 12.168, "note_off_time": 12.525}, {"pitch": 67, "velocity": 100, "note_on_time": 12.525, "note_off_time": 12.89}, {"pitch": 42, "velocity": 100, "note_on_time": 12.168, "note_off_time": 12.89}, {"pitch": 79, "velocity": 100, "note_on_time": 12.89, "note_off_time": 13.599}, {"pitch": 39, "velocity": 100, "note_on_time": 12.89, "note_off_time": 13.599}, {"pitch": 76, "velocity": 100, "note_on_time": 13.599, "note_off_time": 14.32}, {"pitch": 42, "velocity": 100, "note_on_time": 13.6, "note_off_time": 14.32}, {"pitch": 72, "velocity": 100, "note_on_time": 14.32, "note_off_time": 15.039}, {"pitch": 42, "velocity": 100, "note_on_time": 14.32, "note_off_time": 15.039}, {"pitch": 71, "velocity": 100, "note_on_time": 15.039, "note_off_time": 15.753}, {"pitch": 39, "velocity": 100, "note_on_time": 15.039, "note_off_time": 15.753}, {"pitch": 69, "velocity": 100, "note_on_time": 15.753, "note_off_time": 16.467}, {"pitch": 42, "velocity": 100, "note_on_time": 15.753, "note_off_time": 16.467}, {"pitch": 77, "velocity": 100, "note_on_time": 16.467, "note_off_time": 16.833}, {"pitch": 77, "velocity": 100, "note_on_time": 16.833, "note_off_time": 17.196}, {"pitch": 42, "velocity": 100, "note_on_time": 16.467, "note_off_time": 17.196}, {"pitch": 76, "velocity": 100, "note_on_time": 17.196, "note_off_time": 17.914}, {"pitch": 39, "velocity": 100, "note_on_time": 17.196, "note_off_time": 17.914}, {"pitch": 72, "velocity": 100, "note_on_time": 17.914, "note_off_time": 18.635}, {"pitch": 42, "velocity": 100, "note_on_time": 17.914, "note_off_time": 18.635}, {"pitch": 74, "velocity": 100, "note_on_time": 18.635, "note_off_time": 19.346}, {"pitch": 42, "velocity": 100, "note_on_time": 18.635, "note_off_time": 19.346}, {"pitch": 39, "velocity": 100, "note_on_time": 19.346, "note_off_time": 20.059}, {"pitch": 72, "velocity": 100, "note_on_time": 19.346, "note_off_time": 20.777}, {"pitch": 42, "velocity": 100, "note_on_time": 20.059, "note_off_time": 20.777}, {"pitch": 42, "velocity": 100, "note_on_time": 20.777, "note_off_time": 21.498}]</notes><options name="Option List">((4, 4), [0.5, 0.25], 3, 7, &lt;NoteRangePerHand.TWO_NOTES: 3&gt;, &lt;NoteRangePerHand.ONE_NOTE: 2&gt;, False, True, True, None)</options></target_notes><trials><trial trial_no="1" timestamp="2023_05_14-11_41_23"><notes name="Played Notes">[{"pitch": 67, "velocity": 59, "note_on_time": 3.612, "note_off_time": 4.059}, {"pitch": 67, "velocity": 75, "note_on_time": 4.275, "note_off_time": 4.677}, {"pitch": 69, "velocity": 77, "note_on_time": 4.997, "note_off_time": 5.463}, {"pitch": 67, "velocity": 71, "note_on_time": 5.715, "note_off_time": 6.292}, {"pitch": 71, "velocity": 79, "note_on_time": 6.413, "note_off_time": 6.748}, {"pitch": 69, "velocity": 50, "note_on_time": 7.161, "note_off_time": 8.07}, {"pitch": 67, "velocity": 68, "note_on_time": 8.479, "note_off_time": 8.934}, {"pitch": 67, "velocity": 71, "note_on_time": 9.154, "note_off_time": 9.656}, {"pitch": 69, "velocity": 78, "note_on_time": 9.927, "note_off_time": 10.387}, {"pitch": 67, "velocity": 70, "note_on_time": 10.731, "note_off_time": 11.256}, {"pitch": 74, "velocity": 68, "note_on_time": 11.543, "note_off_time": 11.986}, {"pitch": 72, "velocity": 75, "note_on_time": 12.235, "note_off_time": 14.46}, {"pitch": 67, "velocity": 69, "note_on_time": 15.91, "note_off_time": 17.634}, {"pitch": 74, "velocity": 56, "note_on_time": 17.93, "note_off_time": 19.06}, {"pitch": 72, "velocity": 43, "note_on_time": 18.887, "note_off_time": 19.556}]</notes><guidance name="Guidance Mode">None</guidance><error name="Error value">1.299776681212121</error></trial></trials></MIDI>