<MIDI midiNo="2023_05_14-12_34_06"><target_notes><notes name="Note List">[{"pitch": 39, "velocity": 100, "note_on_time": 0.005, "note_off_time": 0.72}, {"pitch": 42, "velocity": 100, "note_on_time": 0.72, "note_off_time": 1.433}, {"pitch": 42, "velocity": 100, "note_on_time": 1.433, "note_off_time": 2.15}, {"pitch": 42, "velocity": 100, "note_on_time": 2.15, "note_off_time": 2.865}, {"pitch": 64, "velocity": 100, "note_on_time": 2.865, "note_off_time": 3.578}, {"pitch": 39, "velocity": 100, "note_on_time": 2.866, "note_off_time": 3.578}, {"pitch": 64, "velocity": 100, "note_on_time": 3.578, "note_off_time": 4.295}, {"pitch": 42, "velocity": 100, "note_on_time": 3.578, "note_off_time": 4.295}, {"pitch": 65, "velocity": 100, "note_on_time": 4.295, "note_off_time": 5.009}, {"pitch": 42, "velocity": 100, "note_on_time": 4.295, "note_off_time": 5.009}, {"pitch": 67, "velocity": 100, "note_on_time": 5.009, "note_off_time": 5.722}, {"pitch": 42, "velocity": 100, "note_on_time": 5.009, "note_off_time": 5.722}, {"pitch": 67, "velocity": 100, "note_on_time": 5.722, "note_off_time": 6.434}, {"pitch": 39, "velocity": 100, "note_on_time": 5.722, "note_off_time": 6.434}, {"pitch": 65, "velocity": 100, "note_on_time": 6.434, "note_off_time": 7.148}, {"pitch": 42, "velocity": 100, "note_on_time": 6.434, "note_off_time": 7.148}, {"pitch": 64, "velocity": 100, "note_on_time": 7.148, "note_off_time": 7.865}, {"pitch": 42, "velocity": 100, "note_on_time": 7.148, "note_off_time": 7.865}, {"pitch": 62, "velocity": 100, "note_on_time": 7.865, "note_off_time": 8.579}, {"pitch": 42, "velocity": 100, "note_on_time": 7.866, "note_off_time": 8.58}, {"pitch": 60, "velocity": 100, "note_on_time": 8.579, "note_off_time": 9.294}, {"pitch": 39, "velocity": 100, "note_on_time": 8.58, "note_off_time": 9.295}, {"pitch": 60, "velocity": 100, "note_on_time": 9.294, "note_off_time": 10.006}, {"pitch": 42, "velocity": 100, "note_on_time": 9.295, "note_off_time": 10.006}, {"pitch": 62, "velocity": 100, "note_on_time": 10.006, "note_off_time": 10.722}, {"pitch": 42, "velocity": 100, "note_on_time": 10.007, "note_off_time": 10.722}, {"pitch": 64, "velocity": 100, "note_on_time": 10.722, "note_off_time": 11.438}, {"pitch": 42, "velocity": 100, "note_on_time": 10.722, "note_off_time": 11.438}, {"pitch": 64, "velocity": 100, "note_on_time": 11.438, "note_off_time": 12.151}, {"pitch": 39, "velocity": 100, "note_on_time": 11.438, "note_off_time": 12.151}, {"pitch": 62, "velocity": 100, "note_on_time": 12.151, "note_off_time": 12.867}, {"pitch": 42, "velocity": 100, "note_on_time": 12.152, "note_off_time": 12.867}, {"pitch": 42, "velocity": 100, "note_on_time": 12.867, "note_off_time": 13.583}, {"pitch": 62, "velocity": 100, "note_on_time": 12.867, "note_off_time": 14.301}, {"pitch": 42, "velocity": 100, "note_on_time": 13.583, "note_off_time": 14.301}, {"pitch": 64, "velocity": 100, "note_on_time": 14.301, "note_off_time": 15.021}, {"pitch": 39, "velocity": 100, "note_on_time": 14.301, "note_off_time": 15.021}, {"pitch": 64, "velocity": 100, "note_on_time": 15.021, "note_off_time": 15.736}, {"pitch": 42, "velocity": 100, "note_on_time": 15.022, "note_off_time": 15.736}, {"pitch": 65, "velocity": 100, "note_on_time": 15.736, "note_off_time": 16.451}, {"pitch": 42, "velocity": 100, "note_on_time": 15.736, "note_off_time": 16.451}, {"pitch": 67, "velocity": 100, "note_on_time": 16.451, "note_off_time": 17.167}, {"pitch": 42, "velocity": 100, "note_on_time": 16.451, "note_off_time": 17.167}, {"pitch": 67, "velocity": 100, "note_on_time": 17.167, "note_off_time": 17.883}, {"pitch": 39, "velocity": 100, "note_on_time": 17.167, "note_off_time": 17.883}, {"pitch": 65, "velocity": 100, "note_on_time": 17.883, "note_off_time": 18.597}, {"pitch": 42, "velocity": 100, "note_on_time": 17.883, "note_off_time": 18.598}, {"pitch": 64, "velocity": 100, "note_on_time": 18.597, "note_off_time": 19.314}, {"pitch": 42, "velocity": 100, "note_on_time": 18.598, "note_off_time": 19.314}, {"pitch": 62, "velocity": 100, "note_on_time": 19.314, "note_off_time": 20.032}, {"pitch": 42, "velocity": 100, "note_on_time": 19.314, "note_off_time": 20.032}, {"pitch": 60, "velocity": 100, "note_on_time": 20.032, "note_off_time": 20.749}, {"pitch": 39, "velocity": 100, "note_on_time": 20.032, "note_off_time": 20.749}, {"pitch": 60, "velocity": 100, "note_on_time": 20.749, "note_off_time": 21.464}, {"pitch": 42, "velocity": 100, "note_on_time": 20.749, "note_off_time": 21.464}, {"pitch": 62, "velocity": 100, "note_on_time": 21.464, "note_off_time": 22.181}, {"pitch": 42, "velocity": 100, "note_on_time": 21.464, "note_off_time": 22.181}, {"pitch": 64, "velocity": 100, "note_on_time": 22.181, "note_off_time": 22.896}, {"pitch": 42, "velocity": 100, "note_on_time": 22.181, "note_off_time": 22.897}, {"pitch": 62, "velocity": 100, "note_on_time": 22.896, "note_off_time": 23.61}, {"pitch": 39, "velocity": 100, "note_on_time": 22.897, "note_off_time": 23.61}, {"pitch": 60, "velocity": 100, "note_on_time": 23.61, "note_off_time": 24.327}, {"pitch": 42, "velocity": 100, "note_on_time": 23.611, "note_off_time": 24.327}, {"pitch": 42, "velocity": 100, "note_on_time": 24.327, "note_off_time": 25.046}, {"pitch": 60, "velocity": 100, "note_on_time": 24.327, "note_off_time": 25.762}, {"pitch": 42, "velocity": 100, "note_on_time": 25.046, "note_off_time": 25.762}]</notes><options name="Option List">((4, 4), [0.5, 0.25], 3, 7, &lt;NoteRangePerHand.TWO_NOTES: 3&gt;, &lt;NoteRangePerHand.ONE_NOTE: 2&gt;, False, True, True, None)</options></target_notes><trials><trial trial_no="1" timestamp="2023_05_14-12_34_06"><notes name="Played Notes">[{"pitch": 64, "velocity": 64, "note_on_time": 2.918, "note_off_time": 3.298}, {"pitch": 64, "velocity": 77, "note_on_time": 3.549, "note_off_time": 4.197}, {"pitch": 65, "velocity": 70, "note_on_time": 4.203, "note_off_time": 4.841}, {"pitch": 67, "velocity": 52, "note_on_time": 4.918, "note_off_time": 5.323}, {"pitch": 67, "velocity": 70, "note_on_time": 5.668, "note_off_time": 6.341}, {"pitch": 65, "velocity": 65, "note_on_time": 6.345, "note_off_time": 7.081}, {"pitch": 64, "velocity": 64, "note_on_time": 7.089, "note_off_time": 7.819}, {"pitch": 62, "velocity": 62, "note_on_time": 7.833, "note_off_time": 8.536}, {"pitch": 60, "velocity": 69, "note_on_time": 8.534, "note_off_time": 9.027}, {"pitch": 60, "velocity": 65, "note_on_time": 9.266, "note_off_time": 10.071}, {"pitch": 62, "velocity": 61, "note_on_time": 9.984, "note_off_time": 10.628}, {"pitch": 64, "velocity": 66, "note_on_time": 10.655, "note_off_time": 11.057}, {"pitch": 64, "velocity": 48, "note_on_time": 11.516, "note_off_time": 12.068}, {"pitch": 62, "velocity": 53, "note_on_time": 12.187, "note_off_time": 12.826}, {"pitch": 60, "velocity": 70, "note_on_time": 12.839, "note_off_time": 13.41}, {"pitch": 64, "velocity": 79, "note_on_time": 14.342, "note_off_time": 14.585}, {"pitch": 64, "velocity": 73, "note_on_time": 15.076, "note_off_time": 15.653}, {"pitch": 65, "velocity": 46, "note_on_time": 15.712, "note_off_time": 16.316}, {"pitch": 67, "velocity": 66, "note_on_time": 16.385, "note_off_time": 16.854}, {"pitch": 67, "velocity": 72, "note_on_time": 17.133, "note_off_time": 17.707}, {"pitch": 65, "velocity": 68, "note_on_time": 17.8, "note_off_time": 18.536}, {"pitch": 64, "velocity": 67, "note_on_time": 18.535, "note_off_time": 19.265}, {"pitch": 62, "velocity": 62, "note_on_time": 19.286, "note_off_time": 19.977}, {"pitch": 60, "velocity": 70, "note_on_time": 20.008, "note_off_time": 20.447}, {"pitch": 60, "velocity": 64, "note_on_time": 20.719, "note_off_time": 21.609}, {"pitch": 62, "velocity": 60, "note_on_time": 21.608, "note_off_time": 22.134}, {"pitch": 64, "velocity": 70, "note_on_time": 22.136, "note_off_time": 22.86}, {"pitch": 62, "velocity": 70, "note_on_time": 22.881, "note_off_time": 23.594}, {"pitch": 60, "velocity": 73, "note_on_time": 23.614, "note_off_time": 24.017}, {"pitch": 60, "velocity": 67, "note_on_time": 24.367, "note_off_time": 25.616}]</notes><guidance name="Guidance Mode">None</guidance><error name="Error value">0.23270926666666716</error></trial></trials></MIDI>