<MIDI midiNo="2023_05_14-11_16_55"><target_notes><notes name="Note List">[{"pitch": 39, "velocity": 100, "note_on_time": 0.005, "note_off_time": 0.726}, {"pitch": 42, "velocity": 100, "note_on_time": 0.727, "note_off_time": 1.438}, {"pitch": 42, "velocity": 100, "note_on_time": 1.439, "note_off_time": 2.155}, {"pitch": 42, "velocity": 100, "note_on_time": 2.156, "note_off_time": 2.872}, {"pitch": 60, "velocity": 100, "note_on_time": 2.872, "note_off_time": 3.589}, {"pitch": 39, "velocity": 100, "note_on_time": 2.872, "note_off_time": 3.589}, {"pitch": 42, "velocity": 100, "note_on_time": 3.589, "note_off_time": 4.302}, {"pitch": 67, "velocity": 100, "note_on_time": 3.589, "note_off_time": 5.018}, {"pitch": 42, "velocity": 100, "note_on_time": 4.302, "note_off_time": 5.019}, {"pitch": 64, "velocity": 100, "note_on_time": 5.018, "note_off_time": 5.736}, {"pitch": 42, "velocity": 100, "note_on_time": 5.019, "note_off_time": 5.736}, {"pitch": 67, "velocity": 100, "note_on_time": 5.736, "note_off_time": 6.45}, {"pitch": 39, "velocity": 100, "note_on_time": 5.736, "note_off_time": 6.45}, {"pitch": 60, "velocity": 100, "note_on_time": 6.45, "note_off_time": 7.168}, {"pitch": 42, "velocity": 100, "note_on_time": 6.45, "note_off_time": 7.169}, {"pitch": 42, "velocity": 100, "note_on_time": 7.169, "note_off_time": 7.885}, {"pitch": 64, "velocity": 100, "note_on_time": 7.168, "note_off_time": 8.599}, {"pitch": 42, "velocity": 100, "note_on_time": 7.885, "note_off_time": 8.599}, {"pitch": 67, "velocity": 100, "note_on_time": 8.599, "note_off_time": 9.315}, {"pitch": 39, "velocity": 100, "note_on_time": 8.599, "note_off_time": 9.315}, {"pitch": 60, "velocity": 100, "note_on_time": 9.315, "note_off_time": 10.03}, {"pitch": 42, "velocity": 100, "note_on_time": 9.315, "note_off_time": 10.03}, {"pitch": 64, "velocity": 100, "note_on_time": 10.03, "note_off_time": 10.746}, {"pitch": 42, "velocity": 100, "note_on_time": 10.03, "note_off_time": 10.747}, {"pitch": 60, "velocity": 100, "note_on_time": 10.746, "note_off_time": 11.459}, {"pitch": 42, "velocity": 100, "note_on_time": 10.747, "note_off_time": 11.459}, {"pitch": 67, "velocity": 100, "note_on_time": 11.459, "note_off_time": 12.177}, {"pitch": 39, "velocity": 100, "note_on_time": 11.46, "note_off_time": 12.177}, {"pitch": 42, "velocity": 100, "note_on_time": 12.177, "note_off_time": 12.895}, {"pitch": 64, "velocity": 100, "note_on_time": 12.177, "note_off_time": 13.616}, {"pitch": 42, "velocity": 100, "note_on_time": 12.895, "note_off_time": 13.616}, {"pitch": 67, "velocity": 100, "note_on_time": 13.616, "note_off_time": 14.331}, {"pitch": 42, "velocity": 100, "note_on_time": 13.616, "note_off_time": 14.331}, {"pitch": 64, "velocity": 100, "note_on_time": 14.331, "note_off_time": 15.048}, {"pitch": 39, "velocity": 100, "note_on_time": 14.331, "note_off_time": 15.048}, {"pitch": 60, "velocity": 100, "note_on_time": 15.048, "note_off_time": 15.764}, {"pitch": 42, "velocity": 100, "note_on_time": 15.048, "note_off_time": 15.765}, {"pitch": 67, "velocity": 100, "note_on_time": 15.764, "note_off_time": 16.478}, {"pitch": 42, "velocity": 100, "note_on_time": 15.765, "note_off_time": 16.479}, {"pitch": 64, "velocity": 100, "note_on_time": 16.478, "note_off_time": 17.195}, {"pitch": 42, "velocity": 100, "note_on_time": 16.479, "note_off_time": 17.196}, {"pitch": 60, "velocity": 100, "note_on_time": 17.195, "note_off_time": 17.908}, {"pitch": 39, "velocity": 100, "note_on_time": 17.196, "note_off_time": 17.909}, {"pitch": 67, "velocity": 100, "note_on_time": 17.908, "note_off_time": 18.625}, {"pitch": 42, "velocity": 100, "note_on_time": 17.909, "note_off_time": 18.625}, {"pitch": 42, "velocity": 100, "note_on_time": 18.626, "note_off_time": 19.34}, {"pitch": 64, "velocity": 100, "note_on_time": 18.625, "note_off_time": 20.057}, {"pitch": 42, "velocity": 100, "note_on_time": 19.34, "note_off_time": 20.057}, {"pitch": 60, "velocity": 100, "note_on_time": 20.057, "note_off_time": 20.769}, {"pitch": 39, "velocity": 100, "note_on_time": 20.057, "note_off_time": 20.769}, {"pitch": 42, "velocity": 100, "note_on_time": 20.769, "note_off_time": 21.487}, {"pitch": 67, "velocity": 100, "note_on_time": 20.769, "note_off_time": 22.203}, {"pitch": 42, "velocity": 100, "note_on_time": 21.487, "note_off_time": 22.204}, {"pitch": 64, "velocity": 100, "note_on_time": 22.203, "note_off_time": 22.917}, {"pitch": 42, "velocity": 100, "note_on_time": 22.204, "note_off_time": 22.917}, {"pitch": 39, "velocity": 100, "note_on_time": 22.917, "note_off_time": 23.633}, {"pitch": 42, "velocity": 100, "note_on_time": 23.633, "note_off_time": 24.348}, {"pitch": 42, "velocity": 100, "note_on_time": 24.348, "note_off_time": 25.062}, {"pitch": 60, "velocity": 100, "note_on_time": 22.917, "note_off_time": 25.775}, {"pitch": 42, "velocity": 100, "note_on_time": 25.063, "note_off_time": 25.776}]</notes><options name="Option List">((4, 4), [0.5, 0.25], 3, 7, &lt;NoteRangePerHand.TWO_NOTES: 3&gt;, &lt;NoteRangePerHand.ONE_NOTE: 2&gt;, False, True, True, None)</options></target_notes><trials><trial trial_no="1" timestamp="2023_05_14-11_16_55"><notes name="Played Notes">[{"pitch": 60, "velocity": 70, "note_on_time": 2.871, "note_off_time": 3.433}, {"pitch": 67, "velocity": 66, "note_on_time": 3.561, "note_off_time": 4.148}, {"pitch": 64, "velocity": 80, "note_on_time": 4.317, "note_off_time": 5.389}, {"pitch": 67, "velocity": 61, "note_on_time": 5.639, "note_off_time": 6.427}, {"pitch": 60, "velocity": 81, "note_on_time": 6.419, "note_off_time": 7.093}, {"pitch": 64, "velocity": 78, "note_on_time": 7.198, "note_off_time": 8.284}, {"pitch": 67, "velocity": 46, "note_on_time": 8.579, "note_off_time": 9.645}, {"pitch": 59, "velocity": 51, "note_on_time": 9.349, "note_off_time": 9.819}, {"pitch": 64, "velocity": 74, "note_on_time": 10.605, "note_off_time": 11.447}, {"pitch": 64, "velocity": 71, "note_on_time": 12.291, "note_off_time": 12.62}, {"pitch": 64, "velocity": 69, "note_on_time": 15.089, "note_off_time": 15.779}, {"pitch": 60, "velocity": 67, "note_on_time": 15.807, "note_off_time": 16.62}, {"pitch": 67, "velocity": 42, "note_on_time": 16.556, "note_off_time": 17.243}, {"pitch": 64, "velocity": 79, "note_on_time": 17.234, "note_off_time": 17.879}, {"pitch": 60, "velocity": 55, "note_on_time": 17.944, "note_off_time": 18.751}, {"pitch": 67, "velocity": 36, "note_on_time": 18.823, "note_off_time": 19.127}, {"pitch": 69, "velocity": 36, "note_on_time": 18.811, "note_off_time": 19.15}, {"pitch": 64, "velocity": 57, "note_on_time": 19.358, "note_off_time": 20.33}, {"pitch": 60, "velocity": 26, "note_on_time": 20.607, "note_off_time": 21.428}, {"pitch": 64, "velocity": 74, "note_on_time": 21.413, "note_off_time": 22.662}, {"pitch": 64, "velocity": 63, "note_on_time": 23.357, "note_off_time": 24.1}]</notes><guidance name="Guidance Mode">None</guidance><error name="Error value">1.0301368428571431</error></trial></trials></MIDI>