<MIDI midiNo="2023_05_14-12_39_52"><target_notes><notes name="Note List">[{"pitch": 39, "velocity": 100, "note_on_time": 0.007, "note_off_time": 0.714}, {"pitch": 42, "velocity": 100, "note_on_time": 0.714, "note_off_time": 1.432}, {"pitch": 42, "velocity": 100, "note_on_time": 1.432, "note_off_time": 2.153}, {"pitch": 39, "velocity": 100, "note_on_time": 2.154, "note_off_time": 2.867}, {"pitch": 42, "velocity": 100, "note_on_time": 2.867, "note_off_time": 3.585}, {"pitch": 67, "velocity": 100, "note_on_time": 3.585, "note_off_time": 4.3}, {"pitch": 42, "velocity": 100, "note_on_time": 3.585, "note_off_time": 4.3}, {"pitch": 72, "velocity": 100, "note_on_time": 4.3, "note_off_time": 5.013}, {"pitch": 39, "velocity": 100, "note_on_time": 4.3, "note_off_time": 5.013}, {"pitch": 72, "velocity": 100, "note_on_time": 5.013, "note_off_time": 5.731}, {"pitch": 42, "velocity": 100, "note_on_time": 5.013, "note_off_time": 5.731}, {"pitch": 74, "velocity": 100, "note_on_time": 5.731, "note_off_time": 6.444}, {"pitch": 42, "velocity": 100, "note_on_time": 5.731, "note_off_time": 6.444}, {"pitch": 39, "velocity": 100, "note_on_time": 6.445, "note_off_time": 7.159}, {"pitch": 76, "velocity": 100, "note_on_time": 6.444, "note_off_time": 7.869}, {"pitch": 42, "velocity": 100, "note_on_time": 7.16, "note_off_time": 7.87}, {"pitch": 67, "velocity": 100, "note_on_time": 7.869, "note_off_time": 8.585}, {"pitch": 42, "velocity": 100, "note_on_time": 7.87, "note_off_time": 8.585}, {"pitch": 39, "velocity": 100, "note_on_time": 8.585, "note_off_time": 9.297}, {"pitch": 72, "velocity": 100, "note_on_time": 8.585, "note_off_time": 10.011}, {"pitch": 42, "velocity": 100, "note_on_time": 9.297, "note_off_time": 10.011}, {"pitch": 76, "velocity": 100, "note_on_time": 10.011, "note_off_time": 10.724}, {"pitch": 42, "velocity": 100, "note_on_time": 10.012, "note_off_time": 10.724}, {"pitch": 39, "velocity": 100, "note_on_time": 10.724, "note_off_time": 11.438}, {"pitch": 74, "velocity": 100, "note_on_time": 10.724, "note_off_time": 12.154}, {"pitch": 42, "velocity": 100, "note_on_time": 11.439, "note_off_time": 12.154}, {"pitch": 67, "velocity": 100, "note_on_time": 12.154, "note_off_time": 12.87}, {"pitch": 42, "velocity": 100, "note_on_time": 12.155, "note_off_time": 12.87}, {"pitch": 39, "velocity": 100, "note_on_time": 12.87, "note_off_time": 13.59}, {"pitch": 74, "velocity": 100, "note_on_time": 12.87, "note_off_time": 14.306}, {"pitch": 42, "velocity": 100, "note_on_time": 13.59, "note_off_time": 14.306}, {"pitch": 76, "velocity": 100, "note_on_time": 14.306, "note_off_time": 15.022}, {"pitch": 42, "velocity": 100, "note_on_time": 14.307, "note_off_time": 15.022}, {"pitch": 77, "velocity": 100, "note_on_time": 15.022, "note_off_time": 15.737}, {"pitch": 39, "velocity": 100, "note_on_time": 15.022, "note_off_time": 15.738}, {"pitch": 74, "velocity": 100, "note_on_time": 15.737, "note_off_time": 16.453}, {"pitch": 42, "velocity": 100, "note_on_time": 15.738, "note_off_time": 16.453}, {"pitch": 71, "velocity": 100, "note_on_time": 16.453, "note_off_time": 17.17}, {"pitch": 42, "velocity": 100, "note_on_time": 16.453, "note_off_time": 17.17}, {"pitch": 67, "velocity": 100, "note_on_time": 17.17, "note_off_time": 17.886}, {"pitch": 39, "velocity": 100, "note_on_time": 17.17, "note_off_time": 17.886}, {"pitch": 69, "velocity": 100, "note_on_time": 17.886, "note_off_time": 18.601}, {"pitch": 42, "velocity": 100, "note_on_time": 17.886, "note_off_time": 18.601}, {"pitch": 71, "velocity": 100, "note_on_time": 18.601, "note_off_time": 19.317}, {"pitch": 42, "velocity": 100, "note_on_time": 18.602, "note_off_time": 19.318}, {"pitch": 39, "velocity": 100, "note_on_time": 19.318, "note_off_time": 20.034}, {"pitch": 72, "velocity": 100, "note_on_time": 19.317, "note_off_time": 20.745}, {"pitch": 42, "velocity": 100, "note_on_time": 20.035, "note_off_time": 20.745}, {"pitch": 67, "velocity": 100, "note_on_time": 20.745, "note_off_time": 21.461}, {"pitch": 42, "velocity": 100, "note_on_time": 20.746, "note_off_time": 21.461}, {"pitch": 39, "velocity": 100, "note_on_time": 21.461, "note_off_time": 22.177}, {"pitch": 72, "velocity": 100, "note_on_time": 21.461, "note_off_time": 22.891}, {"pitch": 42, "velocity": 100, "note_on_time": 22.177, "note_off_time": 22.891}, {"pitch": 74, "velocity": 100, "note_on_time": 22.891, "note_off_time": 23.606}, {"pitch": 42, "velocity": 100, "note_on_time": 22.891, "note_off_time": 23.607}, {"pitch": 76, "velocity": 100, "note_on_time": 23.606, "note_off_time": 24.321}, {"pitch": 39, "velocity": 100, "note_on_time": 23.607, "note_off_time": 24.321}, {"pitch": 76, "velocity": 100, "note_on_time": 24.321, "note_off_time": 25.036}, {"pitch": 42, "velocity": 100, "note_on_time": 24.322, "note_off_time": 25.036}, {"pitch": 67, "velocity": 100, "note_on_time": 25.036, "note_off_time": 25.754}, {"pitch": 42, "velocity": 100, "note_on_time": 25.036, "note_off_time": 25.754}, {"pitch": 39, "velocity": 100, "note_on_time": 25.755, "note_off_time": 26.47}, {"pitch": 72, "velocity": 100, "note_on_time": 25.754, "note_off_time": 27.185}, {"pitch": 42, "velocity": 100, "note_on_time": 26.471, "note_off_time": 27.185}, {"pitch": 76, "velocity": 100, "note_on_time": 27.185, "note_off_time": 27.902}, {"pitch": 42, "velocity": 100, "note_on_time": 27.186, "note_off_time": 27.902}, {"pitch": 39, "velocity": 100, "note_on_time": 27.902, "note_off_time": 28.618}, {"pitch": 42, "velocity": 100, "note_on_time": 28.618, "note_off_time": 29.333}, {"pitch": 74, "velocity": 100, "note_on_time": 27.902, "note_off_time": 30.044}, {"pitch": 42, "velocity": 100, "note_on_time": 29.333, "note_off_time": 30.045}, {"pitch": 39, "velocity": 100, "note_on_time": 30.045, "note_off_time": 30.76}, {"pitch": 74, "velocity": 100, "note_on_time": 30.044, "note_off_time": 31.475}, {"pitch": 42, "velocity": 100, "note_on_time": 30.76, "note_off_time": 31.476}, {"pitch": 76, "velocity": 100, "note_on_time": 31.475, "note_off_time": 32.185}, {"pitch": 42, "velocity": 100, "note_on_time": 31.476, "note_off_time": 32.186}, {"pitch": 77, "velocity": 100, "note_on_time": 32.185, "note_off_time": 32.901}, {"pitch": 39, "velocity": 100, "note_on_time": 32.186, "note_off_time": 32.901}, {"pitch": 74, "velocity": 100, "note_on_time": 32.901, "note_off_time": 33.616}, {"pitch": 42, "velocity": 100, "note_on_time": 32.902, "note_off_time": 33.616}, {"pitch": 71, "velocity": 100, "note_on_time": 33.616, "note_off_time": 34.333}, {"pitch": 42, "velocity": 100, "note_on_time": 33.617, "note_off_time": 34.333}, {"pitch": 67, "velocity": 100, "note_on_time": 34.333, "note_off_time": 35.046}, {"pitch": 39, "velocity": 100, "note_on_time": 34.333, "note_off_time": 35.046}, {"pitch": 69, "velocity": 100, "note_on_time": 35.046, "note_off_time": 35.757}, {"pitch": 42, "velocity": 100, "note_on_time": 35.047, "note_off_time": 35.758}, {"pitch": 71, "velocity": 100, "note_on_time": 35.757, "note_off_time": 36.473}, {"pitch": 42, "velocity": 100, "note_on_time": 35.758, "note_off_time": 36.474}, {"pitch": 39, "velocity": 100, "note_on_time": 36.474, "note_off_time": 37.189}, {"pitch": 72, "velocity": 100, "note_on_time": 36.473, "note_off_time": 37.904}, {"pitch": 42, "velocity": 100, "note_on_time": 37.189, "note_off_time": 37.904}, {"pitch": 42, "velocity": 100, "note_on_time": 37.904, "note_off_time": 38.62}]</notes><options name="Option List">((4, 4), [0.5, 0.25], 3, 7, &lt;NoteRangePerHand.TWO_NOTES: 3&gt;, &lt;NoteRangePerHand.ONE_NOTE: 2&gt;, False, True, True, None)</options></target_notes><trials><trial trial_no="1" timestamp="2023_05_14-12_39_52"><notes name="Played Notes">[{"pitch": 67, "velocity": 82, "note_on_time": 3.631, "note_off_time": 4.302}, {"pitch": 71, "velocity": 38, "note_on_time": 4.381, "note_off_time": 4.696}, {"pitch": 67, "velocity": 49, "note_on_time": 8.465, "note_off_time": 9.15}, {"pitch": 72, "velocity": 35, "note_on_time": 9.307, "note_off_time": 9.398}, {"pitch": 72, "velocity": 38, "note_on_time": 10.359, "note_off_time": 10.562}, {"pitch": 72, "velocity": 66, "note_on_time": 26.57, "note_off_time": 27.646}, {"pitch": 69, "velocity": 59, "note_on_time": 27.916, "note_off_time": 28.629}]</notes><guidance name="Guidance Mode">None</guidance><error name="Error value">1.765957925082978</error></trial></trials></MIDI>