<MIDI midiNo="2023_05_14-11_11_39"><target_notes><notes name="Note List">[{"pitch": 39, "velocity": 100, "note_on_time": 0.005, "note_off_time": 0.719}, {"pitch": 42, "velocity": 100, "note_on_time": 0.719, "note_off_time": 1.437}, {"pitch": 42, "velocity": 100, "note_on_time": 1.437, "note_off_time": 2.156}, {"pitch": 42, "velocity": 100, "note_on_time": 2.156, "note_off_time": 2.866}, {"pitch": 39, "velocity": 100, "note_on_time": 2.867, "note_off_time": 3.584}, {"pitch": 60, "velocity": 100, "note_on_time": 2.866, "note_off_time": 4.293}, {"pitch": 42, "velocity": 100, "note_on_time": 3.585, "note_off_time": 4.293}, {"pitch": 67, "velocity": 100, "note_on_time": 4.293, "note_off_time": 5.01}, {"pitch": 42, "velocity": 100, "note_on_time": 4.293, "note_off_time": 5.01}, {"pitch": 60, "velocity": 100, "note_on_time": 5.01, "note_off_time": 5.726}, {"pitch": 42, "velocity": 100, "note_on_time": 5.01, "note_off_time": 5.726}, {"pitch": 39, "velocity": 100, "note_on_time": 5.726, "note_off_time": 6.439}, {"pitch": 64, "velocity": 100, "note_on_time": 5.726, "note_off_time": 7.156}, {"pitch": 42, "velocity": 100, "note_on_time": 6.44, "note_off_time": 7.156}, {"pitch": 42, "velocity": 100, "note_on_time": 7.156, "note_off_time": 7.87}, {"pitch": 67, "velocity": 100, "note_on_time": 7.156, "note_off_time": 8.589}, {"pitch": 42, "velocity": 100, "note_on_time": 7.87, "note_off_time": 8.589}, {"pitch": 64, "velocity": 100, "note_on_time": 8.589, "note_off_time": 9.303}, {"pitch": 39, "velocity": 100, "note_on_time": 8.589, "note_off_time": 9.304}, {"pitch": 67, "velocity": 100, "note_on_time": 9.303, "note_off_time": 10.017}, {"pitch": 42, "velocity": 100, "note_on_time": 9.304, "note_off_time": 10.017}, {"pitch": 42, "velocity": 100, "note_on_time": 10.018, "note_off_time": 10.733}, {"pitch": 60, "velocity": 100, "note_on_time": 10.017, "note_off_time": 11.447}, {"pitch": 42, "velocity": 100, "note_on_time": 10.734, "note_off_time": 11.447}, {"pitch": 39, "velocity": 100, "note_on_time": 11.447, "note_off_time": 12.161}, {"pitch": 64, "velocity": 100, "note_on_time": 11.447, "note_off_time": 12.871}, {"pitch": 42, "velocity": 100, "note_on_time": 12.161, "note_off_time": 12.871}, {"pitch": 42, "velocity": 100, "note_on_time": 12.871, "note_off_time": 13.587}, {"pitch": 64, "velocity": 100, "note_on_time": 12.871, "note_off_time": 14.304}, {"pitch": 42, "velocity": 100, "note_on_time": 13.587, "note_off_time": 14.304}, {"pitch": 67, "velocity": 100, "note_on_time": 14.304, "note_off_time": 15.018}, {"pitch": 39, "velocity": 100, "note_on_time": 14.304, "note_off_time": 15.018}, {"pitch": 64, "velocity": 100, "note_on_time": 15.018, "note_off_time": 15.733}, {"pitch": 42, "velocity": 100, "note_on_time": 15.019, "note_off_time": 15.733}, {"pitch": 42, "velocity": 100, "note_on_time": 15.733, "note_off_time": 16.449}, {"pitch": 67, "velocity": 100, "note_on_time": 15.733, "note_off_time": 17.161}, {"pitch": 42, "velocity": 100, "note_on_time": 16.449, "note_off_time": 17.161}, {"pitch": 39, "velocity": 100, "note_on_time": 17.161, "note_off_time": 17.879}, {"pitch": 64, "velocity": 100, "note_on_time": 17.161, "note_off_time": 18.595}, {"pitch": 42, "velocity": 100, "note_on_time": 17.88, "note_off_time": 18.595}, {"pitch": 42, "velocity": 100, "note_on_time": 18.595, "note_off_time": 19.311}, {"pitch": 60, "velocity": 100, "note_on_time": 18.595, "note_off_time": 20.025}, {"pitch": 42, "velocity": 100, "note_on_time": 19.312, "note_off_time": 20.025}, {"pitch": 67, "velocity": 100, "note_on_time": 20.025, "note_off_time": 20.744}, {"pitch": 39, "velocity": 100, "note_on_time": 20.025, "note_off_time": 20.744}, {"pitch": 60, "velocity": 100, "note_on_time": 20.744, "note_off_time": 21.461}, {"pitch": 42, "velocity": 100, "note_on_time": 20.744, "note_off_time": 21.461}, {"pitch": 42, "velocity": 100, "note_on_time": 21.462, "note_off_time": 22.176}, {"pitch": 67, "velocity": 100, "note_on_time": 21.461, "note_off_time": 22.894}, {"pitch": 42, "velocity": 100, "note_on_time": 22.177, "note_off_time": 22.894}, {"pitch": 39, "velocity": 100, "note_on_time": 22.895, "note_off_time": 23.611}, {"pitch": 42, "velocity": 100, "note_on_time": 23.611, "note_off_time": 24.325}, {"pitch": 42, "velocity": 100, "note_on_time": 24.326, "note_off_time": 25.038}, {"pitch": 60, "velocity": 100, "note_on_time": 22.894, "note_off_time": 25.75}, {"pitch": 42, "velocity": 100, "note_on_time": 25.038, "note_off_time": 25.751}]</notes><options name="Option List">((4, 4), [0.5, 0.25], 3, 7, &lt;NoteRangePerHand.TWO_NOTES: 3&gt;, &lt;NoteRangePerHand.ONE_NOTE: 2&gt;, False, True, True, None)</options></target_notes><trials><trial trial_no="1" timestamp="2023_05_14-11_11_39"><notes name="Played Notes">[{"pitch": 60, "velocity": 73, "note_on_time": 2.96, "note_off_time": 4.145}, {"pitch": 69, "velocity": 66, "note_on_time": 4.376, "note_off_time": 4.889}, {"pitch": 60, "velocity": 82, "note_on_time": 5.638, "note_off_time": 7.002}, {"pitch": 67, "velocity": 65, "note_on_time": 7.07, "note_off_time": 8.247}, {"pitch": 64, "velocity": 79, "note_on_time": 8.586, "note_off_time": 9.933}, {"pitch": 69, "velocity": 74, "note_on_time": 10.115, "note_off_time": 11.522}, {"pitch": 65, "velocity": 64, "note_on_time": 11.513, "note_off_time": 12.049}, {"pitch": 69, "velocity": 68, "note_on_time": 12.881, "note_off_time": 13.789}, {"pitch": 60, "velocity": 86, "note_on_time": 14.289, "note_off_time": 15.58}, {"pitch": 64, "velocity": 68, "note_on_time": 15.751, "note_off_time": 16.947}, {"pitch": 64, "velocity": 74, "note_on_time": 17.174, "note_off_time": 18.416}, {"pitch": 65, "velocity": 75, "note_on_time": 18.98, "note_off_time": 19.252}, {"pitch": 64, "velocity": 64, "note_on_time": 19.881, "note_off_time": 21.143}, {"pitch": 65, "velocity": 67, "note_on_time": 21.387, "note_off_time": 22.717}, {"pitch": 64, "velocity": 66, "note_on_time": 22.898, "note_off_time": 24.13}, {"pitch": 60, "velocity": 72, "note_on_time": 24.284, "note_off_time": 25.616}]</notes><guidance name="Guidance Mode">None</guidance><error name="Error value">1.305098032894737</error></trial></trials></MIDI>