<MIDI midiNo="2023_05_14-11_48_44"><target_notes><notes name="Note List">[{"pitch": 39, "velocity": 100, "note_on_time": 0.004, "note_off_time": 0.715}, {"pitch": 42, "velocity": 100, "note_on_time": 0.715, "note_off_time": 1.429}, {"pitch": 42, "velocity": 100, "note_on_time": 1.429, "note_off_time": 2.141}, {"pitch": 39, "velocity": 100, "note_on_time": 2.141, "note_off_time": 2.853}, {"pitch": 42, "velocity": 100, "note_on_time": 2.853, "note_off_time": 3.567}, {"pitch": 67, "velocity": 100, "note_on_time": 3.567, "note_off_time": 3.925}, {"pitch": 67, "velocity": 100, "note_on_time": 3.925, "note_off_time": 4.281}, {"pitch": 42, "velocity": 100, "note_on_time": 3.568, "note_off_time": 4.282}, {"pitch": 69, "velocity": 100, "note_on_time": 4.281, "note_off_time": 4.995}, {"pitch": 39, "velocity": 100, "note_on_time": 4.282, "note_off_time": 4.996}, {"pitch": 67, "velocity": 100, "note_on_time": 4.995, "note_off_time": 5.71}, {"pitch": 42, "velocity": 100, "note_on_time": 4.996, "note_off_time": 5.71}, {"pitch": 72, "velocity": 100, "note_on_time": 5.71, "note_off_time": 6.423}, {"pitch": 42, "velocity": 100, "note_on_time": 5.711, "note_off_time": 6.424}, {"pitch": 39, "velocity": 100, "note_on_time": 6.424, "note_off_time": 7.137}, {"pitch": 71, "velocity": 100, "note_on_time": 6.423, "note_off_time": 7.851}, {"pitch": 42, "velocity": 100, "note_on_time": 7.138, "note_off_time": 7.852}, {"pitch": 67, "velocity": 100, "note_on_time": 7.851, "note_off_time": 8.208}, {"pitch": 67, "velocity": 100, "note_on_time": 8.208, "note_off_time": 8.565}, {"pitch": 42, "velocity": 100, "note_on_time": 7.852, "note_off_time": 8.565}, {"pitch": 69, "velocity": 100, "note_on_time": 8.565, "note_off_time": 9.28}, {"pitch": 39, "velocity": 100, "note_on_time": 8.565, "note_off_time": 9.28}, {"pitch": 67, "velocity": 100, "note_on_time": 9.28, "note_off_time": 9.996}, {"pitch": 42, "velocity": 100, "note_on_time": 9.281, "note_off_time": 9.996}, {"pitch": 74, "velocity": 100, "note_on_time": 9.996, "note_off_time": 10.714}, {"pitch": 42, "velocity": 100, "note_on_time": 9.996, "note_off_time": 10.715}, {"pitch": 39, "velocity": 100, "note_on_time": 10.715, "note_off_time": 11.432}, {"pitch": 72, "velocity": 100, "note_on_time": 10.714, "note_off_time": 12.147}, {"pitch": 42, "velocity": 100, "note_on_time": 11.432, "note_off_time": 12.147}, {"pitch": 67, "velocity": 100, "note_on_time": 12.147, "note_off_time": 12.506}, {"pitch": 67, "velocity": 100, "note_on_time": 12.506, "note_off_time": 12.866}, {"pitch": 42, "velocity": 100, "note_on_time": 12.147, "note_off_time": 12.866}, {"pitch": 79, "velocity": 100, "note_on_time": 12.866, "note_off_time": 13.583}, {"pitch": 39, "velocity": 100, "note_on_time": 12.866, "note_off_time": 13.583}, {"pitch": 76, "velocity": 100, "note_on_time": 13.583, "note_off_time": 14.3}, {"pitch": 42, "velocity": 100, "note_on_time": 13.583, "note_off_time": 14.3}, {"pitch": 72, "velocity": 100, "note_on_time": 14.3, "note_off_time": 15.012}, {"pitch": 42, "velocity": 100, "note_on_time": 14.3, "note_off_time": 15.012}, {"pitch": 71, "velocity": 100, "note_on_time": 15.012, "note_off_time": 15.729}, {"pitch": 39, "velocity": 100, "note_on_time": 15.013, "note_off_time": 15.729}, {"pitch": 69, "velocity": 100, "note_on_time": 15.729, "note_off_time": 16.447}, {"pitch": 42, "velocity": 100, "note_on_time": 15.729, "note_off_time": 16.448}, {"pitch": 77, "velocity": 100, "note_on_time": 16.447, "note_off_time": 16.804}, {"pitch": 77, "velocity": 100, "note_on_time": 16.804, "note_off_time": 17.163}, {"pitch": 42, "velocity": 100, "note_on_time": 16.448, "note_off_time": 17.163}, {"pitch": 76, "velocity": 100, "note_on_time": 17.163, "note_off_time": 17.878}, {"pitch": 39, "velocity": 100, "note_on_time": 17.163, "note_off_time": 17.878}, {"pitch": 72, "velocity": 100, "note_on_time": 17.878, "note_off_time": 18.592}, {"pitch": 42, "velocity": 100, "note_on_time": 17.878, "note_off_time": 18.592}, {"pitch": 74, "velocity": 100, "note_on_time": 18.592, "note_off_time": 19.306}, {"pitch": 42, "velocity": 100, "note_on_time": 18.592, "note_off_time": 19.306}, {"pitch": 39, "velocity": 100, "note_on_time": 19.306, "note_off_time": 20.02}, {"pitch": 72, "velocity": 100, "note_on_time": 19.306, "note_off_time": 20.737}, {"pitch": 42, "velocity": 100, "note_on_time": 20.02, "note_off_time": 20.737}, {"pitch": 42, "velocity": 100, "note_on_time": 20.738, "note_off_time": 21.449}]</notes><options name="Option List">((4, 4), [0.5, 0.25], 3, 7, &lt;NoteRangePerHand.TWO_NOTES: 3&gt;, &lt;NoteRangePerHand.ONE_NOTE: 2&gt;, False, True, True, None)</options></target_notes><trials><trial trial_no="1" timestamp="2023_05_14-11_48_44"><notes name="Played Notes">[{"pitch": 67, "velocity": 67, "note_on_time": 3.529, "note_off_time": 3.753}, {"pitch": 67, "velocity": 74, "note_on_time": 3.882, "note_off_time": 4.227}, {"pitch": 69, "velocity": 75, "note_on_time": 4.288, "note_off_time": 5.048}, {"pitch": 67, "velocity": 65, "note_on_time": 4.938, "note_off_time": 5.679}, {"pitch": 72, "velocity": 73, "note_on_time": 5.658, "note_off_time": 6.387}, {"pitch": 71, "velocity": 78, "note_on_time": 6.357, "note_off_time": 7.425}, {"pitch": 67, "velocity": 70, "note_on_time": 7.749, "note_off_time": 7.95}, {"pitch": 67, "velocity": 73, "note_on_time": 8.099, "note_off_time": 8.502}, {"pitch": 69, "velocity": 73, "note_on_time": 8.513, "note_off_time": 9.346}, {"pitch": 67, "velocity": 67, "note_on_time": 9.254, "note_off_time": 10.003}, {"pitch": 74, "velocity": 61, "note_on_time": 9.983, "note_off_time": 10.727}, {"pitch": 72, "velocity": 67, "note_on_time": 10.694, "note_off_time": 12.091}, {"pitch": 67, "velocity": 67, "note_on_time": 12.108, "note_off_time": 12.298}, {"pitch": 67, "velocity": 65, "note_on_time": 12.426, "note_off_time": 12.812}, {"pitch": 79, "velocity": 79, "note_on_time": 12.839, "note_off_time": 13.628}, {"pitch": 76, "velocity": 73, "note_on_time": 13.583, "note_off_time": 14.357}, {"pitch": 72, "velocity": 72, "note_on_time": 14.298, "note_off_time": 15.03}, {"pitch": 71, "velocity": 73, "note_on_time": 15.023, "note_off_time": 15.828}, {"pitch": 69, "velocity": 73, "note_on_time": 15.741, "note_off_time": 16.355}, {"pitch": 77, "velocity": 77, "note_on_time": 16.486, "note_off_time": 16.664}, {"pitch": 77, "velocity": 62, "note_on_time": 16.792, "note_off_time": 17.169}, {"pitch": 76, "velocity": 73, "note_on_time": 17.184, "note_off_time": 17.867}, {"pitch": 72, "velocity": 70, "note_on_time": 17.849, "note_off_time": 18.602}, {"pitch": 74, "velocity": 62, "note_on_time": 18.577, "note_off_time": 19.282}]</notes><guidance name="Guidance Mode">None</guidance><error name="Error value">0.17930849939393914</error></trial></trials></MIDI>