<MIDI midiNo="2023_05_14-13_14_15"><target_notes><notes name="Note List">[{"pitch": 39, "velocity": 100, "note_on_time": 0.004, "note_off_time": 0.712}, {"pitch": 42, "velocity": 100, "note_on_time": 0.712, "note_off_time": 1.428}, {"pitch": 42, "velocity": 100, "note_on_time": 1.428, "note_off_time": 2.145}, {"pitch": 42, "velocity": 100, "note_on_time": 2.145, "note_off_time": 2.859}, {"pitch": 39, "velocity": 100, "note_on_time": 2.859, "note_off_time": 3.577}, {"pitch": 62, "velocity": 100, "note_on_time": 2.858, "note_off_time": 4.29}, {"pitch": 42, "velocity": 100, "note_on_time": 3.577, "note_off_time": 4.29}, {"pitch": 42, "velocity": 100, "note_on_time": 4.29, "note_off_time": 5.007}, {"pitch": 62, "velocity": 100, "note_on_time": 4.29, "note_off_time": 5.723}, {"pitch": 42, "velocity": 100, "note_on_time": 5.007, "note_off_time": 5.724}, {"pitch": 62, "velocity": 100, "note_on_time": 5.723, "note_off_time": 6.438}, {"pitch": 39, "velocity": 100, "note_on_time": 5.724, "note_off_time": 6.438}, {"pitch": 42, "velocity": 100, "note_on_time": 6.438, "note_off_time": 7.155}, {"pitch": 62, "velocity": 100, "note_on_time": 6.438, "note_off_time": 7.872}, {"pitch": 42, "velocity": 100, "note_on_time": 7.156, "note_off_time": 7.872}, {"pitch": 62, "velocity": 100, "note_on_time": 7.872, "note_off_time": 8.587}, {"pitch": 42, "velocity": 100, "note_on_time": 7.873, "note_off_time": 8.587}, {"pitch": 39, "velocity": 100, "note_on_time": 8.587, "note_off_time": 9.301}, {"pitch": 62, "velocity": 100, "note_on_time": 8.587, "note_off_time": 10.013}, {"pitch": 42, "velocity": 100, "note_on_time": 9.301, "note_off_time": 10.014}, {"pitch": 42, "velocity": 100, "note_on_time": 10.014, "note_off_time": 10.729}, {"pitch": 62, "velocity": 100, "note_on_time": 10.013, "note_off_time": 11.444}, {"pitch": 42, "velocity": 100, "note_on_time": 10.73, "note_off_time": 11.444}, {"pitch": 39, "velocity": 100, "note_on_time": 11.444, "note_off_time": 12.16}, {"pitch": 42, "velocity": 100, "note_on_time": 12.161, "note_off_time": 12.873}, {"pitch": 42, "velocity": 100, "note_on_time": 12.874, "note_off_time": 13.589}, {"pitch": 62, "velocity": 100, "note_on_time": 11.444, "note_off_time": 14.301}, {"pitch": 42, "velocity": 100, "note_on_time": 13.589, "note_off_time": 14.301}, {"pitch": 62, "velocity": 100, "note_on_time": 14.301, "note_off_time": 15.019}, {"pitch": 39, "velocity": 100, "note_on_time": 14.301, "note_off_time": 15.019}, {"pitch": 62, "velocity": 100, "note_on_time": 15.019, "note_off_time": 15.736}, {"pitch": 42, "velocity": 100, "note_on_time": 15.02, "note_off_time": 15.736}, {"pitch": 62, "velocity": 100, "note_on_time": 15.736, "note_off_time": 16.454}, {"pitch": 42, "velocity": 100, "note_on_time": 15.737, "note_off_time": 16.454}, {"pitch": 62, "velocity": 100, "note_on_time": 16.454, "note_off_time": 17.166}, {"pitch": 42, "velocity": 100, "note_on_time": 16.454, "note_off_time": 17.166}, {"pitch": 39, "velocity": 100, "note_on_time": 17.167, "note_off_time": 17.882}, {"pitch": 62, "velocity": 100, "note_on_time": 17.166, "note_off_time": 18.6}, {"pitch": 42, "velocity": 100, "note_on_time": 17.883, "note_off_time": 18.6}, {"pitch": 62, "velocity": 100, "note_on_time": 18.6, "note_off_time": 19.316}, {"pitch": 42, "velocity": 100, "note_on_time": 18.601, "note_off_time": 19.316}, {"pitch": 62, "velocity": 100, "note_on_time": 19.316, "note_off_time": 20.035}, {"pitch": 42, "velocity": 100, "note_on_time": 19.316, "note_off_time": 20.036}, {"pitch": 62, "velocity": 100, "note_on_time": 20.035, "note_off_time": 20.75}, {"pitch": 39, "velocity": 100, "note_on_time": 20.036, "note_off_time": 20.751}, {"pitch": 42, "velocity": 100, "note_on_time": 20.751, "note_off_time": 21.465}, {"pitch": 62, "velocity": 100, "note_on_time": 20.75, "note_off_time": 22.182}, {"pitch": 42, "velocity": 100, "note_on_time": 21.465, "note_off_time": 22.182}, {"pitch": 62, "velocity": 100, "note_on_time": 22.182, "note_off_time": 22.898}, {"pitch": 42, "velocity": 100, "note_on_time": 22.182, "note_off_time": 22.898}, {"pitch": 39, "velocity": 100, "note_on_time": 22.898, "note_off_time": 23.616}, {"pitch": 42, "velocity": 100, "note_on_time": 23.617, "note_off_time": 24.336}, {"pitch": 42, "velocity": 100, "note_on_time": 24.336, "note_off_time": 25.055}, {"pitch": 62, "velocity": 100, "note_on_time": 22.898, "note_off_time": 25.771}, {"pitch": 42, "velocity": 100, "note_on_time": 25.055, "note_off_time": 25.771}]</notes><options name="Option List">((4, 4), [0.5, 0.25], 3, 7, &lt;NoteRangePerHand.TWO_NOTES: 3&gt;, &lt;NoteRangePerHand.ONE_NOTE: 2&gt;, False, True, True, None)</options></target_notes><trials><trial trial_no="1" timestamp="2023_05_14-13_14_15"><notes name="Played Notes">[{"pitch": 62, "velocity": 64, "note_on_time": 2.867, "note_off_time": 3.866}, {"pitch": 62, "velocity": 66, "note_on_time": 4.217, "note_off_time": 5.179}, {"pitch": 62, "velocity": 60, "note_on_time": 5.646, "note_off_time": 5.995}, {"pitch": 62, "velocity": 66, "note_on_time": 6.397, "note_off_time": 7.173}, {"pitch": 62, "velocity": 60, "note_on_time": 7.793, "note_off_time": 8.119}, {"pitch": 62, "velocity": 65, "note_on_time": 8.553, "note_off_time": 9.4}, {"pitch": 62, "velocity": 69, "note_on_time": 9.969, "note_off_time": 10.977}, {"pitch": 62, "velocity": 73, "note_on_time": 11.364, "note_off_time": 13.928}, {"pitch": 62, "velocity": 68, "note_on_time": 14.308, "note_off_time": 14.755}, {"pitch": 62, "velocity": 64, "note_on_time": 15.032, "note_off_time": 15.375}, {"pitch": 62, "velocity": 62, "note_on_time": 15.719, "note_off_time": 16.09}, {"pitch": 62, "velocity": 62, "note_on_time": 16.442, "note_off_time": 16.772}, {"pitch": 62, "velocity": 66, "note_on_time": 17.147, "note_off_time": 17.98}, {"pitch": 62, "velocity": 62, "note_on_time": 18.541, "note_off_time": 18.879}, {"pitch": 62, "velocity": 64, "note_on_time": 19.293, "note_off_time": 19.631}, {"pitch": 62, "velocity": 62, "note_on_time": 20.02, "note_off_time": 20.294}, {"pitch": 62, "velocity": 65, "note_on_time": 20.726, "note_off_time": 21.65}, {"pitch": 62, "velocity": 63, "note_on_time": 22.161, "note_off_time": 22.453}, {"pitch": 62, "velocity": 63, "note_on_time": 22.898, "note_off_time": 25.252}]</notes><guidance name="Guidance Mode">None</guidance><error name="Error value">0.2257223894736842</error></trial></trials></MIDI>