<MIDI midiNo="2023_05_14-11_05_16"><target_notes><notes name="Note List">[{"pitch": 39, "velocity": 100, "note_on_time": 0.005, "note_off_time": 0.716}, {"pitch": 42, "velocity": 100, "note_on_time": 0.716, "note_off_time": 1.432}, {"pitch": 42, "velocity": 100, "note_on_time": 1.433, "note_off_time": 2.148}, {"pitch": 42, "velocity": 100, "note_on_time": 2.148, "note_off_time": 2.863}, {"pitch": 39, "velocity": 100, "note_on_time": 2.864, "note_off_time": 3.584}, {"pitch": 60, "velocity": 100, "note_on_time": 2.863, "note_off_time": 4.298}, {"pitch": 42, "velocity": 100, "note_on_time": 3.585, "note_off_time": 4.298}, {"pitch": 42, "velocity": 100, "note_on_time": 4.298, "note_off_time": 5.009}, {"pitch": 60, "velocity": 100, "note_on_time": 4.298, "note_off_time": 5.725}, {"pitch": 42, "velocity": 100, "note_on_time": 5.009, "note_off_time": 5.725}, {"pitch": 39, "velocity": 100, "note_on_time": 5.725, "note_off_time": 6.443}, {"pitch": 64, "velocity": 100, "note_on_time": 5.725, "note_off_time": 7.157}, {"pitch": 42, "velocity": 100, "note_on_time": 6.444, "note_off_time": 7.157}, {"pitch": 42, "velocity": 100, "note_on_time": 7.158, "note_off_time": 7.873}, {"pitch": 64, "velocity": 100, "note_on_time": 7.157, "note_off_time": 8.587}, {"pitch": 42, "velocity": 100, "note_on_time": 7.873, "note_off_time": 8.588}, {"pitch": 39, "velocity": 100, "note_on_time": 8.588, "note_off_time": 9.304}, {"pitch": 60, "velocity": 100, "note_on_time": 8.587, "note_off_time": 10.02}, {"pitch": 42, "velocity": 100, "note_on_time": 9.305, "note_off_time": 10.021}, {"pitch": 42, "velocity": 100, "note_on_time": 10.021, "note_off_time": 10.736}, {"pitch": 60, "velocity": 100, "note_on_time": 10.02, "note_off_time": 11.449}, {"pitch": 42, "velocity": 100, "note_on_time": 10.736, "note_off_time": 11.449}, {"pitch": 39, "velocity": 100, "note_on_time": 11.449, "note_off_time": 12.167}, {"pitch": 64, "velocity": 100, "note_on_time": 11.449, "note_off_time": 12.883}, {"pitch": 42, "velocity": 100, "note_on_time": 12.167, "note_off_time": 12.884}, {"pitch": 42, "velocity": 100, "note_on_time": 12.884, "note_off_time": 13.597}, {"pitch": 64, "velocity": 100, "note_on_time": 12.883, "note_off_time": 14.31}, {"pitch": 42, "velocity": 100, "note_on_time": 13.597, "note_off_time": 14.311}, {"pitch": 39, "velocity": 100, "note_on_time": 14.311, "note_off_time": 15.027}, {"pitch": 67, "velocity": 100, "note_on_time": 14.31, "note_off_time": 15.743}, {"pitch": 42, "velocity": 100, "note_on_time": 15.027, "note_off_time": 15.743}, {"pitch": 42, "velocity": 100, "note_on_time": 15.743, "note_off_time": 16.458}, {"pitch": 67, "velocity": 100, "note_on_time": 15.743, "note_off_time": 17.171}, {"pitch": 42, "velocity": 100, "note_on_time": 16.458, "note_off_time": 17.172}, {"pitch": 39, "velocity": 100, "note_on_time": 17.172, "note_off_time": 17.885}, {"pitch": 64, "velocity": 100, "note_on_time": 17.171, "note_off_time": 18.602}, {"pitch": 42, "velocity": 100, "note_on_time": 17.885, "note_off_time": 18.602}, {"pitch": 42, "velocity": 100, "note_on_time": 18.603, "note_off_time": 19.318}, {"pitch": 64, "velocity": 100, "note_on_time": 18.602, "note_off_time": 20.035}, {"pitch": 42, "velocity": 100, "note_on_time": 19.318, "note_off_time": 20.035}, {"pitch": 39, "velocity": 100, "note_on_time": 20.035, "note_off_time": 20.75}, {"pitch": 60, "velocity": 100, "note_on_time": 20.035, "note_off_time": 21.466}, {"pitch": 42, "velocity": 100, "note_on_time": 20.75, "note_off_time": 21.466}, {"pitch": 42, "velocity": 100, "note_on_time": 21.466, "note_off_time": 22.18}, {"pitch": 60, "velocity": 100, "note_on_time": 21.466, "note_off_time": 22.895}, {"pitch": 42, "velocity": 100, "note_on_time": 22.18, "note_off_time": 22.895}, {"pitch": 39, "velocity": 100, "note_on_time": 22.896, "note_off_time": 23.611}, {"pitch": 42, "velocity": 100, "note_on_time": 23.611, "note_off_time": 24.326}, {"pitch": 42, "velocity": 100, "note_on_time": 24.327, "note_off_time": 25.043}, {"pitch": 60, "velocity": 100, "note_on_time": 22.895, "note_off_time": 25.755}, {"pitch": 42, "velocity": 100, "note_on_time": 25.043, "note_off_time": 25.756}]</notes><options name="Option List">((4, 4), [0.5, 0.25], 3, 7, &lt;NoteRangePerHand.TWO_NOTES: 3&gt;, &lt;NoteRangePerHand.ONE_NOTE: 2&gt;, False, True, True, None)</options></target_notes><trials><trial trial_no="1" timestamp="2023_05_14-11_05_16"><notes name="Played Notes">[{"pitch": 60, "velocity": 71, "note_on_time": 2.865, "note_off_time": 3.651}, {"pitch": 60, "velocity": 78, "note_on_time": 4.256, "note_off_time": 5.346}, {"pitch": 65, "velocity": 73, "note_on_time": 5.702, "note_off_time": 6.124}, {"pitch": 64, "velocity": 67, "note_on_time": 7.231, "note_off_time": 8.208}, {"pitch": 60, "velocity": 69, "note_on_time": 8.634, "note_off_time": 9.722}, {"pitch": 60, "velocity": 77, "note_on_time": 10.024, "note_off_time": 11.076}, {"pitch": 64, "velocity": 74, "note_on_time": 11.439, "note_off_time": 12.539}, {"pitch": 64, "velocity": 70, "note_on_time": 12.869, "note_off_time": 13.826}, {"pitch": 67, "velocity": 49, "note_on_time": 14.278, "note_off_time": 15.498}, {"pitch": 67, "velocity": 77, "note_on_time": 15.781, "note_off_time": 16.965}, {"pitch": 69, "velocity": 70, "note_on_time": 17.263, "note_off_time": 18.517}, {"pitch": 69, "velocity": 78, "note_on_time": 18.687, "note_off_time": 19.762}, {"pitch": 65, "velocity": 79, "note_on_time": 20.079, "note_off_time": 21.08}, {"pitch": 65, "velocity": 77, "note_on_time": 21.529, "note_off_time": 22.455}, {"pitch": 62, "velocity": 48, "note_on_time": 22.953, "note_off_time": 23.058}, {"pitch": 60, "velocity": 79, "note_on_time": 23.272, "note_off_time": 24.024}, {"pitch": 60, "velocity": 78, "note_on_time": 24.41, "note_off_time": 25.253}]</notes><guidance name="Guidance Mode">None</guidance><error name="Error value">1.8196027999999982</error></trial></trials></MIDI>