<MIDI midiNo="2023_05_14-12_18_57"><target_notes><notes name="Note List">[{"pitch": 39, "velocity": 100, "note_on_time": 0.005, "note_off_time": 0.723}, {"pitch": 42, "velocity": 100, "note_on_time": 0.724, "note_off_time": 1.438}, {"pitch": 42, "velocity": 100, "note_on_time": 1.439, "note_off_time": 2.157}, {"pitch": 42, "velocity": 100, "note_on_time": 2.158, "note_off_time": 2.875}, {"pitch": 39, "velocity": 100, "note_on_time": 2.875, "note_off_time": 3.59}, {"pitch": 60, "velocity": 100, "note_on_time": 2.874, "note_off_time": 4.303}, {"pitch": 42, "velocity": 100, "note_on_time": 3.59, "note_off_time": 4.303}, {"pitch": 42, "velocity": 100, "note_on_time": 4.304, "note_off_time": 5.018}, {"pitch": 60, "velocity": 100, "note_on_time": 4.303, "note_off_time": 5.737}, {"pitch": 42, "velocity": 100, "note_on_time": 5.018, "note_off_time": 5.737}, {"pitch": 39, "velocity": 100, "note_on_time": 5.738, "note_off_time": 6.456}, {"pitch": 64, "velocity": 100, "note_on_time": 5.737, "note_off_time": 7.172}, {"pitch": 42, "velocity": 100, "note_on_time": 6.456, "note_off_time": 7.172}, {"pitch": 42, "velocity": 100, "note_on_time": 7.172, "note_off_time": 7.886}, {"pitch": 64, "velocity": 100, "note_on_time": 7.172, "note_off_time": 8.603}, {"pitch": 42, "velocity": 100, "note_on_time": 7.886, "note_off_time": 8.603}, {"pitch": 39, "velocity": 100, "note_on_time": 8.603, "note_off_time": 9.316}, {"pitch": 60, "velocity": 100, "note_on_time": 8.603, "note_off_time": 10.032}, {"pitch": 42, "velocity": 100, "note_on_time": 9.316, "note_off_time": 10.032}, {"pitch": 42, "velocity": 100, "note_on_time": 10.032, "note_off_time": 10.746}, {"pitch": 60, "velocity": 100, "note_on_time": 10.032, "note_off_time": 11.464}, {"pitch": 42, "velocity": 100, "note_on_time": 10.747, "note_off_time": 11.464}, {"pitch": 39, "velocity": 100, "note_on_time": 11.465, "note_off_time": 12.181}, {"pitch": 64, "velocity": 100, "note_on_time": 11.464, "note_off_time": 12.898}, {"pitch": 42, "velocity": 100, "note_on_time": 12.181, "note_off_time": 12.898}, {"pitch": 42, "velocity": 100, "note_on_time": 12.898, "note_off_time": 13.612}, {"pitch": 64, "velocity": 100, "note_on_time": 12.898, "note_off_time": 14.325}, {"pitch": 42, "velocity": 100, "note_on_time": 13.613, "note_off_time": 14.325}, {"pitch": 39, "velocity": 100, "note_on_time": 14.325, "note_off_time": 15.043}, {"pitch": 67, "velocity": 100, "note_on_time": 14.325, "note_off_time": 15.759}, {"pitch": 42, "velocity": 100, "note_on_time": 15.043, "note_off_time": 15.759}, {"pitch": 42, "velocity": 100, "note_on_time": 15.76, "note_off_time": 16.474}, {"pitch": 67, "velocity": 100, "note_on_time": 15.759, "note_off_time": 17.189}, {"pitch": 42, "velocity": 100, "note_on_time": 16.475, "note_off_time": 17.189}, {"pitch": 39, "velocity": 100, "note_on_time": 17.189, "note_off_time": 17.909}, {"pitch": 64, "velocity": 100, "note_on_time": 17.189, "note_off_time": 18.625}, {"pitch": 42, "velocity": 100, "note_on_time": 17.909, "note_off_time": 18.625}, {"pitch": 42, "velocity": 100, "note_on_time": 18.625, "note_off_time": 19.346}, {"pitch": 64, "velocity": 100, "note_on_time": 18.625, "note_off_time": 20.063}, {"pitch": 42, "velocity": 100, "note_on_time": 19.346, "note_off_time": 20.064}, {"pitch": 39, "velocity": 100, "note_on_time": 20.064, "note_off_time": 20.782}, {"pitch": 60, "velocity": 100, "note_on_time": 20.063, "note_off_time": 21.501}, {"pitch": 42, "velocity": 100, "note_on_time": 20.782, "note_off_time": 21.501}, {"pitch": 42, "velocity": 100, "note_on_time": 21.501, "note_off_time": 22.216}, {"pitch": 60, "velocity": 100, "note_on_time": 21.501, "note_off_time": 22.933}, {"pitch": 42, "velocity": 100, "note_on_time": 22.216, "note_off_time": 22.933}, {"pitch": 39, "velocity": 100, "note_on_time": 22.933, "note_off_time": 23.649}, {"pitch": 42, "velocity": 100, "note_on_time": 23.65, "note_off_time": 24.367}, {"pitch": 42, "velocity": 100, "note_on_time": 24.367, "note_off_time": 25.074}, {"pitch": 60, "velocity": 100, "note_on_time": 22.933, "note_off_time": 25.787}, {"pitch": 42, "velocity": 100, "note_on_time": 25.074, "note_off_time": 25.787}]</notes><options name="Option List">((4, 4), [0.5, 0.25], 3, 7, &lt;NoteRangePerHand.TWO_NOTES: 3&gt;, &lt;NoteRangePerHand.ONE_NOTE: 2&gt;, False, True, True, None)</options></target_notes><trials><trial trial_no="1" timestamp="2023_05_14-12_18_57"><notes name="Played Notes">[{"pitch": 48, "velocity": 76, "note_on_time": 2.928, "note_off_time": 3.106}, {"pitch": 48, "velocity": 73, "note_on_time": 3.596, "note_off_time": 4.274}, {"pitch": 52, "velocity": 77, "note_on_time": 4.303, "note_off_time": 4.649}, {"pitch": 52, "velocity": 63, "note_on_time": 5.024, "note_off_time": 5.708}, {"pitch": 48, "velocity": 74, "note_on_time": 5.718, "note_off_time": 6.232}, {"pitch": 48, "velocity": 81, "note_on_time": 6.446, "note_off_time": 7.175}, {"pitch": 52, "velocity": 70, "note_on_time": 7.172, "note_off_time": 7.581}, {"pitch": 52, "velocity": 68, "note_on_time": 7.865, "note_off_time": 8.594}, {"pitch": 55, "velocity": 59, "note_on_time": 8.633, "note_off_time": 9.124}, {"pitch": 55, "velocity": 71, "note_on_time": 9.333, "note_off_time": 10.073}, {"pitch": 59, "velocity": 67, "note_on_time": 10.073, "note_off_time": 10.591}, {"pitch": 59, "velocity": 66, "note_on_time": 10.771, "note_off_time": 11.502}, {"pitch": 55, "velocity": 58, "note_on_time": 11.511, "note_off_time": 11.994}, {"pitch": 55, "velocity": 59, "note_on_time": 12.148, "note_off_time": 12.969}, {"pitch": 52, "velocity": 77, "note_on_time": 13.113, "note_off_time": 13.231}, {"pitch": 48, "velocity": 52, "note_on_time": 14.635, "note_off_time": 14.921}]</notes><guidance name="Guidance Mode">None</guidance><error name="Error value">3.4939187428571437</error></trial></trials></MIDI>