<MIDI midiNo="2023_05_14-11_34_28"><target_notes><notes name="Note List">[{"pitch": 39, "velocity": 100, "note_on_time": 0.007, "note_off_time": 0.714}, {"pitch": 42, "velocity": 100, "note_on_time": 0.714, "note_off_time": 1.433}, {"pitch": 42, "velocity": 100, "note_on_time": 1.433, "note_off_time": 2.151}, {"pitch": 39, "velocity": 100, "note_on_time": 2.151, "note_off_time": 2.868}, {"pitch": 42, "velocity": 100, "note_on_time": 2.868, "note_off_time": 3.586}, {"pitch": 67, "velocity": 100, "note_on_time": 3.585, "note_off_time": 4.304}, {"pitch": 42, "velocity": 100, "note_on_time": 3.586, "note_off_time": 4.304}, {"pitch": 72, "velocity": 100, "note_on_time": 4.304, "note_off_time": 5.019}, {"pitch": 39, "velocity": 100, "note_on_time": 4.305, "note_off_time": 5.019}, {"pitch": 72, "velocity": 100, "note_on_time": 5.019, "note_off_time": 5.737}, {"pitch": 42, "velocity": 100, "note_on_time": 5.019, "note_off_time": 5.737}, {"pitch": 74, "velocity": 100, "note_on_time": 5.737, "note_off_time": 6.452}, {"pitch": 42, "velocity": 100, "note_on_time": 5.737, "note_off_time": 6.452}, {"pitch": 39, "velocity": 100, "note_on_time": 6.452, "note_off_time": 7.166}, {"pitch": 76, "velocity": 100, "note_on_time": 6.452, "note_off_time": 7.88}, {"pitch": 42, "velocity": 100, "note_on_time": 7.166, "note_off_time": 7.88}, {"pitch": 67, "velocity": 100, "note_on_time": 7.88, "note_off_time": 8.592}, {"pitch": 42, "velocity": 100, "note_on_time": 7.88, "note_off_time": 8.593}, {"pitch": 39, "velocity": 100, "note_on_time": 8.593, "note_off_time": 9.31}, {"pitch": 72, "velocity": 100, "note_on_time": 8.592, "note_off_time": 10.025}, {"pitch": 42, "velocity": 100, "note_on_time": 9.31, "note_off_time": 10.025}, {"pitch": 76, "velocity": 100, "note_on_time": 10.025, "note_off_time": 10.744}, {"pitch": 42, "velocity": 100, "note_on_time": 10.026, "note_off_time": 10.744}, {"pitch": 39, "velocity": 100, "note_on_time": 10.744, "note_off_time": 11.458}, {"pitch": 74, "velocity": 100, "note_on_time": 10.744, "note_off_time": 12.171}, {"pitch": 42, "velocity": 100, "note_on_time": 11.458, "note_off_time": 12.171}, {"pitch": 67, "velocity": 100, "note_on_time": 12.171, "note_off_time": 12.888}, {"pitch": 42, "velocity": 100, "note_on_time": 12.171, "note_off_time": 12.888}, {"pitch": 39, "velocity": 100, "note_on_time": 12.888, "note_off_time": 13.602}, {"pitch": 74, "velocity": 100, "note_on_time": 12.888, "note_off_time": 14.321}, {"pitch": 42, "velocity": 100, "note_on_time": 13.602, "note_off_time": 14.322}, {"pitch": 76, "velocity": 100, "note_on_time": 14.322, "note_off_time": 15.039}, {"pitch": 42, "velocity": 100, "note_on_time": 14.322, "note_off_time": 15.039}, {"pitch": 77, "velocity": 100, "note_on_time": 15.039, "note_off_time": 15.754}, {"pitch": 39, "velocity": 100, "note_on_time": 15.039, "note_off_time": 15.755}, {"pitch": 74, "velocity": 100, "note_on_time": 15.754, "note_off_time": 16.468}, {"pitch": 42, "velocity": 100, "note_on_time": 15.755, "note_off_time": 16.468}, {"pitch": 71, "velocity": 100, "note_on_time": 16.468, "note_off_time": 17.187}, {"pitch": 42, "velocity": 100, "note_on_time": 16.468, "note_off_time": 17.187}, {"pitch": 67, "velocity": 100, "note_on_time": 17.187, "note_off_time": 17.903}, {"pitch": 39, "velocity": 100, "note_on_time": 17.188, "note_off_time": 17.904}, {"pitch": 69, "velocity": 100, "note_on_time": 17.903, "note_off_time": 18.62}, {"pitch": 42, "velocity": 100, "note_on_time": 17.904, "note_off_time": 18.621}, {"pitch": 71, "velocity": 100, "note_on_time": 18.62, "note_off_time": 19.337}, {"pitch": 42, "velocity": 100, "note_on_time": 18.621, "note_off_time": 19.337}, {"pitch": 39, "velocity": 100, "note_on_time": 19.338, "note_off_time": 20.055}, {"pitch": 72, "velocity": 100, "note_on_time": 19.337, "note_off_time": 20.771}, {"pitch": 42, "velocity": 100, "note_on_time": 20.055, "note_off_time": 20.771}, {"pitch": 67, "velocity": 100, "note_on_time": 20.771, "note_off_time": 21.484}, {"pitch": 42, "velocity": 100, "note_on_time": 20.771, "note_off_time": 21.484}, {"pitch": 39, "velocity": 100, "note_on_time": 21.485, "note_off_time": 22.202}, {"pitch": 72, "velocity": 100, "note_on_time": 21.484, "note_off_time": 22.916}, {"pitch": 42, "velocity": 100, "note_on_time": 22.202, "note_off_time": 22.916}, {"pitch": 74, "velocity": 100, "note_on_time": 22.916, "note_off_time": 23.631}, {"pitch": 42, "velocity": 100, "note_on_time": 22.916, "note_off_time": 23.631}, {"pitch": 76, "velocity": 100, "note_on_time": 23.631, "note_off_time": 24.346}, {"pitch": 39, "velocity": 100, "note_on_time": 23.631, "note_off_time": 24.346}, {"pitch": 76, "velocity": 100, "note_on_time": 24.346, "note_off_time": 25.062}, {"pitch": 42, "velocity": 100, "note_on_time": 24.346, "note_off_time": 25.062}, {"pitch": 67, "velocity": 100, "note_on_time": 25.062, "note_off_time": 25.779}, {"pitch": 42, "velocity": 100, "note_on_time": 25.063, "note_off_time": 25.78}, {"pitch": 39, "velocity": 100, "note_on_time": 25.78, "note_off_time": 26.494}, {"pitch": 72, "velocity": 100, "note_on_time": 25.779, "note_off_time": 27.207}, {"pitch": 42, "velocity": 100, "note_on_time": 26.494, "note_off_time": 27.207}, {"pitch": 76, "velocity": 100, "note_on_time": 27.207, "note_off_time": 27.921}, {"pitch": 42, "velocity": 100, "note_on_time": 27.208, "note_off_time": 27.921}, {"pitch": 39, "velocity": 100, "note_on_time": 27.921, "note_off_time": 28.638}, {"pitch": 42, "velocity": 100, "note_on_time": 28.638, "note_off_time": 29.354}, {"pitch": 74, "velocity": 100, "note_on_time": 27.921, "note_off_time": 30.071}, {"pitch": 42, "velocity": 100, "note_on_time": 29.355, "note_off_time": 30.071}, {"pitch": 39, "velocity": 100, "note_on_time": 30.072, "note_off_time": 30.786}, {"pitch": 74, "velocity": 100, "note_on_time": 30.071, "note_off_time": 31.504}, {"pitch": 42, "velocity": 100, "note_on_time": 30.787, "note_off_time": 31.504}, {"pitch": 76, "velocity": 100, "note_on_time": 31.504, "note_off_time": 32.222}, {"pitch": 42, "velocity": 100, "note_on_time": 31.504, "note_off_time": 32.222}, {"pitch": 77, "velocity": 100, "note_on_time": 32.222, "note_off_time": 32.936}, {"pitch": 39, "velocity": 100, "note_on_time": 32.222, "note_off_time": 32.936}, {"pitch": 74, "velocity": 100, "note_on_time": 32.936, "note_off_time": 33.652}, {"pitch": 42, "velocity": 100, "note_on_time": 32.936, "note_off_time": 33.652}, {"pitch": 71, "velocity": 100, "note_on_time": 33.652, "note_off_time": 34.367}, {"pitch": 42, "velocity": 100, "note_on_time": 33.652, "note_off_time": 34.367}, {"pitch": 67, "velocity": 100, "note_on_time": 34.367, "note_off_time": 35.082}, {"pitch": 39, "velocity": 100, "note_on_time": 34.367, "note_off_time": 35.082}, {"pitch": 69, "velocity": 100, "note_on_time": 35.082, "note_off_time": 35.801}, {"pitch": 42, "velocity": 100, "note_on_time": 35.083, "note_off_time": 35.801}, {"pitch": 71, "velocity": 100, "note_on_time": 35.801, "note_off_time": 36.519}, {"pitch": 42, "velocity": 100, "note_on_time": 35.801, "note_off_time": 36.519}, {"pitch": 39, "velocity": 100, "note_on_time": 36.519, "note_off_time": 37.236}, {"pitch": 72, "velocity": 100, "note_on_time": 36.519, "note_off_time": 37.953}, {"pitch": 42, "velocity": 100, "note_on_time": 37.236, "note_off_time": 37.953}, {"pitch": 42, "velocity": 100, "note_on_time": 37.954, "note_off_time": 38.674}]</notes><options name="Option List">((4, 4), [0.5, 0.25], 3, 7, &lt;NoteRangePerHand.TWO_NOTES: 3&gt;, &lt;NoteRangePerHand.ONE_NOTE: 2&gt;, False, True, True, None)</options></target_notes><trials><trial trial_no="1" timestamp="2023_05_14-11_34_28"><notes name="Played Notes">[{"pitch": 67, "velocity": 66, "note_on_time": 3.561, "note_off_time": 4.278}, {"pitch": 71, "velocity": 72, "note_on_time": 4.287, "note_off_time": 4.688}, {"pitch": 72, "velocity": 63, "note_on_time": 5.084, "note_off_time": 5.745}, {"pitch": 74, "velocity": 40, "note_on_time": 6.388, "note_off_time": 6.927}, {"pitch": 76, "velocity": 82, "note_on_time": 7.097, "note_off_time": 8.352}, {"pitch": 67, "velocity": 69, "note_on_time": 8.483, "note_off_time": 9.161}, {"pitch": 72, "velocity": 78, "note_on_time": 9.189, "note_off_time": 10.629}, {"pitch": 76, "velocity": 71, "note_on_time": 10.657, "note_off_time": 11.381}, {"pitch": 74, "velocity": 77, "note_on_time": 11.391, "note_off_time": 12.855}, {"pitch": 67, "velocity": 69, "note_on_time": 12.872, "note_off_time": 13.573}, {"pitch": 72, "velocity": 68, "note_on_time": 13.536, "note_off_time": 13.83}, {"pitch": 74, "velocity": 74, "note_on_time": 14.281, "note_off_time": 14.709}, {"pitch": 77, "velocity": 72, "note_on_time": 15.227, "note_off_time": 15.513}, {"pitch": 76, "velocity": 53, "note_on_time": 15.887, "note_off_time": 16.463}, {"pitch": 74, "velocity": 43, "note_on_time": 16.502, "note_off_time": 16.879}, {"pitch": 65, "velocity": 66, "note_on_time": 17.995, "note_off_time": 18.281}, {"pitch": 67, "velocity": 69, "note_on_time": 18.403, "note_off_time": 19.449}, {"pitch": 71, "velocity": 69, "note_on_time": 18.999, "note_off_time": 19.994}, {"pitch": 72, "velocity": 84, "note_on_time": 19.969, "note_off_time": 20.813}, {"pitch": 67, "velocity": 69, "note_on_time": 21.381, "note_off_time": 22.09}, {"pitch": 72, "velocity": 66, "note_on_time": 22.126, "note_off_time": 22.565}, {"pitch": 74, "velocity": 32, "note_on_time": 23.776, "note_off_time": 23.936}, {"pitch": 76, "velocity": 77, "note_on_time": 24.278, "note_off_time": 24.649}, {"pitch": 76, "velocity": 77, "note_on_time": 24.995, "note_off_time": 25.39}, {"pitch": 67, "velocity": 60, "note_on_time": 25.748, "note_off_time": 26.533}, {"pitch": 72, "velocity": 74, "note_on_time": 26.539, "note_off_time": 27.901}, {"pitch": 76, "velocity": 57, "note_on_time": 27.901, "note_off_time": 28.657}, {"pitch": 74, "velocity": 73, "note_on_time": 28.623, "note_off_time": 30.375}, {"pitch": 74, "velocity": 72, "note_on_time": 30.77, "note_off_time": 32.167}, {"pitch": 76, "velocity": 66, "note_on_time": 32.198, "note_off_time": 32.97}, {"pitch": 77, "velocity": 73, "note_on_time": 32.965, "note_off_time": 33.637}, {"pitch": 74, "velocity": 62, "note_on_time": 33.641, "note_off_time": 34.323}, {"pitch": 71, "velocity": 58, "note_on_time": 34.327, "note_off_time": 34.93}, {"pitch": 67, "velocity": 39, "note_on_time": 34.954, "note_off_time": 35.721}, {"pitch": 69, "velocity": 78, "note_on_time": 35.709, "note_off_time": 36.49}, {"pitch": 71, "velocity": 70, "note_on_time": 36.403, "note_off_time": 37.152}]</notes><guidance name="Guidance Mode">None</guidance><error name="Error value">0.4922712464833261</error></trial></trials></MIDI>