<MIDI midiNo="2023_05_14-11_24_26"><target_notes><notes name="Note List">[{"pitch": 39, "velocity": 100, "note_on_time": 0.007, "note_off_time": 0.714}, {"pitch": 42, "velocity": 100, "note_on_time": 0.714, "note_off_time": 1.437}, {"pitch": 42, "velocity": 100, "note_on_time": 1.437, "note_off_time": 2.151}, {"pitch": 39, "velocity": 100, "note_on_time": 2.151, "note_off_time": 2.868}, {"pitch": 42, "velocity": 100, "note_on_time": 2.868, "note_off_time": 3.585}, {"pitch": 67, "velocity": 100, "note_on_time": 3.585, "note_off_time": 4.302}, {"pitch": 42, "velocity": 100, "note_on_time": 3.585, "note_off_time": 4.302}, {"pitch": 72, "velocity": 100, "note_on_time": 4.302, "note_off_time": 5.017}, {"pitch": 39, "velocity": 100, "note_on_time": 4.302, "note_off_time": 5.017}, {"pitch": 72, "velocity": 100, "note_on_time": 5.017, "note_off_time": 5.738}, {"pitch": 42, "velocity": 100, "note_on_time": 5.017, "note_off_time": 5.739}, {"pitch": 74, "velocity": 100, "note_on_time": 5.738, "note_off_time": 6.456}, {"pitch": 42, "velocity": 100, "note_on_time": 5.739, "note_off_time": 6.457}, {"pitch": 39, "velocity": 100, "note_on_time": 6.457, "note_off_time": 7.178}, {"pitch": 76, "velocity": 100, "note_on_time": 6.456, "note_off_time": 7.892}, {"pitch": 42, "velocity": 100, "note_on_time": 7.179, "note_off_time": 7.892}, {"pitch": 67, "velocity": 100, "note_on_time": 7.892, "note_off_time": 8.609}, {"pitch": 42, "velocity": 100, "note_on_time": 7.892, "note_off_time": 8.61}, {"pitch": 39, "velocity": 100, "note_on_time": 8.61, "note_off_time": 9.324}, {"pitch": 72, "velocity": 100, "note_on_time": 8.609, "note_off_time": 10.041}, {"pitch": 42, "velocity": 100, "note_on_time": 9.324, "note_off_time": 10.042}, {"pitch": 76, "velocity": 100, "note_on_time": 10.041, "note_off_time": 10.757}, {"pitch": 42, "velocity": 100, "note_on_time": 10.042, "note_off_time": 10.758}, {"pitch": 39, "velocity": 100, "note_on_time": 10.758, "note_off_time": 11.473}, {"pitch": 74, "velocity": 100, "note_on_time": 10.757, "note_off_time": 12.187}, {"pitch": 42, "velocity": 100, "note_on_time": 11.474, "note_off_time": 12.188}, {"pitch": 67, "velocity": 100, "note_on_time": 12.187, "note_off_time": 12.902}, {"pitch": 42, "velocity": 100, "note_on_time": 12.188, "note_off_time": 12.903}, {"pitch": 39, "velocity": 100, "note_on_time": 12.903, "note_off_time": 13.618}, {"pitch": 74, "velocity": 100, "note_on_time": 12.902, "note_off_time": 14.332}, {"pitch": 42, "velocity": 100, "note_on_time": 13.618, "note_off_time": 14.332}, {"pitch": 76, "velocity": 100, "note_on_time": 14.332, "note_off_time": 15.044}, {"pitch": 42, "velocity": 100, "note_on_time": 14.332, "note_off_time": 15.045}, {"pitch": 77, "velocity": 100, "note_on_time": 15.044, "note_off_time": 15.762}, {"pitch": 39, "velocity": 100, "note_on_time": 15.045, "note_off_time": 15.762}, {"pitch": 74, "velocity": 100, "note_on_time": 15.762, "note_off_time": 16.478}, {"pitch": 42, "velocity": 100, "note_on_time": 15.762, "note_off_time": 16.478}, {"pitch": 71, "velocity": 100, "note_on_time": 16.478, "note_off_time": 17.196}, {"pitch": 42, "velocity": 100, "note_on_time": 16.479, "note_off_time": 17.196}, {"pitch": 67, "velocity": 100, "note_on_time": 17.196, "note_off_time": 17.911}, {"pitch": 39, "velocity": 100, "note_on_time": 17.196, "note_off_time": 17.911}, {"pitch": 69, "velocity": 100, "note_on_time": 17.911, "note_off_time": 18.628}, {"pitch": 42, "velocity": 100, "note_on_time": 17.912, "note_off_time": 18.629}, {"pitch": 71, "velocity": 100, "note_on_time": 18.628, "note_off_time": 19.347}, {"pitch": 42, "velocity": 100, "note_on_time": 18.629, "note_off_time": 19.347}, {"pitch": 39, "velocity": 100, "note_on_time": 19.348, "note_off_time": 20.065}, {"pitch": 72, "velocity": 100, "note_on_time": 19.347, "note_off_time": 20.781}, {"pitch": 42, "velocity": 100, "note_on_time": 20.065, "note_off_time": 20.781}, {"pitch": 67, "velocity": 100, "note_on_time": 20.781, "note_off_time": 21.492}, {"pitch": 42, "velocity": 100, "note_on_time": 20.781, "note_off_time": 21.492}, {"pitch": 39, "velocity": 100, "note_on_time": 21.492, "note_off_time": 22.207}, {"pitch": 72, "velocity": 100, "note_on_time": 21.492, "note_off_time": 22.928}, {"pitch": 42, "velocity": 100, "note_on_time": 22.207, "note_off_time": 22.928}, {"pitch": 74, "velocity": 100, "note_on_time": 22.928, "note_off_time": 23.644}, {"pitch": 42, "velocity": 100, "note_on_time": 22.928, "note_off_time": 23.644}, {"pitch": 76, "velocity": 100, "note_on_time": 23.644, "note_off_time": 24.358}, {"pitch": 39, "velocity": 100, "note_on_time": 23.644, "note_off_time": 24.359}, {"pitch": 76, "velocity": 100, "note_on_time": 24.358, "note_off_time": 25.076}, {"pitch": 42, "velocity": 100, "note_on_time": 24.359, "note_off_time": 25.077}, {"pitch": 67, "velocity": 100, "note_on_time": 25.076, "note_off_time": 25.791}, {"pitch": 42, "velocity": 100, "note_on_time": 25.077, "note_off_time": 25.792}, {"pitch": 39, "velocity": 100, "note_on_time": 25.792, "note_off_time": 26.507}, {"pitch": 72, "velocity": 100, "note_on_time": 25.791, "note_off_time": 27.223}, {"pitch": 42, "velocity": 100, "note_on_time": 26.507, "note_off_time": 27.223}, {"pitch": 76, "velocity": 100, "note_on_time": 27.223, "note_off_time": 27.938}, {"pitch": 42, "velocity": 100, "note_on_time": 27.223, "note_off_time": 27.938}, {"pitch": 39, "velocity": 100, "note_on_time": 27.938, "note_off_time": 28.655}, {"pitch": 42, "velocity": 100, "note_on_time": 28.655, "note_off_time": 29.373}, {"pitch": 74, "velocity": 100, "note_on_time": 27.938, "note_off_time": 30.086}, {"pitch": 42, "velocity": 100, "note_on_time": 29.373, "note_off_time": 30.087}, {"pitch": 39, "velocity": 100, "note_on_time": 30.087, "note_off_time": 30.803}, {"pitch": 74, "velocity": 100, "note_on_time": 30.086, "note_off_time": 31.514}, {"pitch": 42, "velocity": 100, "note_on_time": 30.804, "note_off_time": 31.514}, {"pitch": 76, "velocity": 100, "note_on_time": 31.514, "note_off_time": 32.225}, {"pitch": 42, "velocity": 100, "note_on_time": 31.514, "note_off_time": 32.226}, {"pitch": 77, "velocity": 100, "note_on_time": 32.225, "note_off_time": 32.94}, {"pitch": 39, "velocity": 100, "note_on_time": 32.226, "note_off_time": 32.94}, {"pitch": 74, "velocity": 100, "note_on_time": 32.94, "note_off_time": 33.651}, {"pitch": 42, "velocity": 100, "note_on_time": 32.94, "note_off_time": 33.651}, {"pitch": 71, "velocity": 100, "note_on_time": 33.651, "note_off_time": 34.366}, {"pitch": 42, "velocity": 100, "note_on_time": 33.652, "note_off_time": 34.366}, {"pitch": 67, "velocity": 100, "note_on_time": 34.366, "note_off_time": 35.084}, {"pitch": 39, "velocity": 100, "note_on_time": 34.366, "note_off_time": 35.084}, {"pitch": 69, "velocity": 100, "note_on_time": 35.084, "note_off_time": 35.797}, {"pitch": 42, "velocity": 100, "note_on_time": 35.084, "note_off_time": 35.797}, {"pitch": 71, "velocity": 100, "note_on_time": 35.797, "note_off_time": 36.507}, {"pitch": 42, "velocity": 100, "note_on_time": 35.797, "note_off_time": 36.507}, {"pitch": 39, "velocity": 100, "note_on_time": 36.507, "note_off_time": 37.223}, {"pitch": 72, "velocity": 100, "note_on_time": 36.507, "note_off_time": 37.939}, {"pitch": 42, "velocity": 100, "note_on_time": 37.223, "note_off_time": 37.939}, {"pitch": 42, "velocity": 100, "note_on_time": 37.94, "note_off_time": 38.656}]</notes><options name="Option List">((4, 4), [0.5, 0.25], 3, 7, &lt;NoteRangePerHand.TWO_NOTES: 3&gt;, &lt;NoteRangePerHand.ONE_NOTE: 2&gt;, False, True, True, None)</options></target_notes><trials><trial trial_no="1" timestamp="2023_05_14-11_24_26"><notes name="Played Notes">[{"pitch": 67, "velocity": 59, "note_on_time": 4.25, "note_off_time": 4.961}, {"pitch": 72, "velocity": 70, "note_on_time": 4.959, "note_off_time": 6.367}, {"pitch": 76, "velocity": 61, "note_on_time": 6.365, "note_off_time": 6.443}, {"pitch": 74, "velocity": 61, "note_on_time": 6.366, "note_off_time": 6.962}, {"pitch": 76, "velocity": 83, "note_on_time": 7.054, "note_off_time": 8.256}, {"pitch": 72, "velocity": 12, "note_on_time": 8.731, "note_off_time": 9.07}, {"pitch": 74, "velocity": 56, "note_on_time": 9.499, "note_off_time": 10.766}, {"pitch": 76, "velocity": 57, "note_on_time": 11.399, "note_off_time": 11.789}, {"pitch": 74, "velocity": 13, "note_on_time": 11.816, "note_off_time": 13.435}, {"pitch": 62, "velocity": 61, "note_on_time": 14.343, "note_off_time": 14.838}, {"pitch": 67, "velocity": 73, "note_on_time": 15.78, "note_off_time": 18.045}, {"pitch": 67, "velocity": 59, "note_on_time": 25.085, "note_off_time": 25.774}, {"pitch": 72, "velocity": 14, "note_on_time": 25.958, "note_off_time": 25.993}, {"pitch": 72, "velocity": 58, "note_on_time": 26.132, "note_off_time": 27.277}, {"pitch": 76, "velocity": 59, "note_on_time": 27.318, "note_off_time": 27.673}, {"pitch": 74, "velocity": 82, "note_on_time": 27.696, "note_off_time": 27.938}, {"pitch": 76, "velocity": 75, "note_on_time": 28.012, "note_off_time": 29.53}, {"pitch": 67, "velocity": 65, "note_on_time": 29.446, "note_off_time": 30.171}, {"pitch": 72, "velocity": 80, "note_on_time": 30.063, "note_off_time": 31.443}, {"pitch": 76, "velocity": 75, "note_on_time": 31.313, "note_off_time": 32.072}, {"pitch": 74, "velocity": 70, "note_on_time": 32.035, "note_off_time": 34.098}, {"pitch": 76, "velocity": 51, "note_on_time": 34.31, "note_off_time": 34.588}, {"pitch": 77, "velocity": 72, "note_on_time": 34.809, "note_off_time": 35.767}, {"pitch": 76, "velocity": 45, "note_on_time": 35.215, "note_off_time": 35.847}, {"pitch": 74, "velocity": 58, "note_on_time": 35.85, "note_off_time": 37.067}]</notes><guidance name="Guidance Mode">None</guidance><error name="Error value">1.5377811742816507</error></trial></trials></MIDI>