<MIDI midiNo="2023_05_14-13_00_02"><target_notes><notes name="Note List">[{"pitch": 39, "velocity": 100, "note_on_time": 0.007, "note_off_time": 0.726}, {"pitch": 42, "velocity": 100, "note_on_time": 0.726, "note_off_time": 1.442}, {"pitch": 42, "velocity": 100, "note_on_time": 1.443, "note_off_time": 2.155}, {"pitch": 39, "velocity": 100, "note_on_time": 2.155, "note_off_time": 2.873}, {"pitch": 42, "velocity": 100, "note_on_time": 2.873, "note_off_time": 3.588}, {"pitch": 67, "velocity": 100, "note_on_time": 3.587, "note_off_time": 4.303}, {"pitch": 42, "velocity": 100, "note_on_time": 3.588, "note_off_time": 4.303}, {"pitch": 72, "velocity": 100, "note_on_time": 4.303, "note_off_time": 5.018}, {"pitch": 39, "velocity": 100, "note_on_time": 4.304, "note_off_time": 5.018}, {"pitch": 72, "velocity": 100, "note_on_time": 5.018, "note_off_time": 5.73}, {"pitch": 42, "velocity": 100, "note_on_time": 5.019, "note_off_time": 5.73}, {"pitch": 74, "velocity": 100, "note_on_time": 5.73, "note_off_time": 6.45}, {"pitch": 42, "velocity": 100, "note_on_time": 5.73, "note_off_time": 6.45}, {"pitch": 39, "velocity": 100, "note_on_time": 6.45, "note_off_time": 7.166}, {"pitch": 76, "velocity": 100, "note_on_time": 6.45, "note_off_time": 7.882}, {"pitch": 42, "velocity": 100, "note_on_time": 7.166, "note_off_time": 7.882}, {"pitch": 67, "velocity": 100, "note_on_time": 7.882, "note_off_time": 8.598}, {"pitch": 42, "velocity": 100, "note_on_time": 7.882, "note_off_time": 8.598}, {"pitch": 39, "velocity": 100, "note_on_time": 8.598, "note_off_time": 9.316}, {"pitch": 72, "velocity": 100, "note_on_time": 8.598, "note_off_time": 10.034}, {"pitch": 42, "velocity": 100, "note_on_time": 9.316, "note_off_time": 10.034}, {"pitch": 76, "velocity": 100, "note_on_time": 10.034, "note_off_time": 10.752}, {"pitch": 42, "velocity": 100, "note_on_time": 10.034, "note_off_time": 10.752}, {"pitch": 39, "velocity": 100, "note_on_time": 10.752, "note_off_time": 11.469}, {"pitch": 74, "velocity": 100, "note_on_time": 10.752, "note_off_time": 12.188}, {"pitch": 42, "velocity": 100, "note_on_time": 11.469, "note_off_time": 12.188}, {"pitch": 67, "velocity": 100, "note_on_time": 12.188, "note_off_time": 12.902}, {"pitch": 42, "velocity": 100, "note_on_time": 12.189, "note_off_time": 12.902}, {"pitch": 39, "velocity": 100, "note_on_time": 12.903, "note_off_time": 13.617}, {"pitch": 74, "velocity": 100, "note_on_time": 12.902, "note_off_time": 14.333}, {"pitch": 42, "velocity": 100, "note_on_time": 13.617, "note_off_time": 14.333}, {"pitch": 76, "velocity": 100, "note_on_time": 14.333, "note_off_time": 15.049}, {"pitch": 42, "velocity": 100, "note_on_time": 14.333, "note_off_time": 15.049}, {"pitch": 77, "velocity": 100, "note_on_time": 15.049, "note_off_time": 15.763}, {"pitch": 39, "velocity": 100, "note_on_time": 15.049, "note_off_time": 15.763}, {"pitch": 74, "velocity": 100, "note_on_time": 15.763, "note_off_time": 16.477}, {"pitch": 42, "velocity": 100, "note_on_time": 15.763, "note_off_time": 16.477}, {"pitch": 71, "velocity": 100, "note_on_time": 16.477, "note_off_time": 17.191}, {"pitch": 42, "velocity": 100, "note_on_time": 16.477, "note_off_time": 17.191}, {"pitch": 67, "velocity": 100, "note_on_time": 17.191, "note_off_time": 17.91}, {"pitch": 39, "velocity": 100, "note_on_time": 17.191, "note_off_time": 17.91}, {"pitch": 69, "velocity": 100, "note_on_time": 17.91, "note_off_time": 18.621}, {"pitch": 42, "velocity": 100, "note_on_time": 17.91, "note_off_time": 18.621}, {"pitch": 71, "velocity": 100, "note_on_time": 18.621, "note_off_time": 19.337}, {"pitch": 42, "velocity": 100, "note_on_time": 18.622, "note_off_time": 19.337}, {"pitch": 39, "velocity": 100, "note_on_time": 19.337, "note_off_time": 20.048}, {"pitch": 72, "velocity": 100, "note_on_time": 19.337, "note_off_time": 20.763}, {"pitch": 42, "velocity": 100, "note_on_time": 20.048, "note_off_time": 20.763}, {"pitch": 67, "velocity": 100, "note_on_time": 20.763, "note_off_time": 21.481}, {"pitch": 42, "velocity": 100, "note_on_time": 20.763, "note_off_time": 21.481}, {"pitch": 39, "velocity": 100, "note_on_time": 21.481, "note_off_time": 22.195}, {"pitch": 72, "velocity": 100, "note_on_time": 21.481, "note_off_time": 22.913}, {"pitch": 42, "velocity": 100, "note_on_time": 22.196, "note_off_time": 22.913}, {"pitch": 74, "velocity": 100, "note_on_time": 22.913, "note_off_time": 23.631}, {"pitch": 42, "velocity": 100, "note_on_time": 22.913, "note_off_time": 23.631}, {"pitch": 76, "velocity": 100, "note_on_time": 23.631, "note_off_time": 24.343}, {"pitch": 39, "velocity": 100, "note_on_time": 23.631, "note_off_time": 24.343}, {"pitch": 76, "velocity": 100, "note_on_time": 24.343, "note_off_time": 25.059}, {"pitch": 42, "velocity": 100, "note_on_time": 24.344, "note_off_time": 25.059}, {"pitch": 67, "velocity": 100, "note_on_time": 25.059, "note_off_time": 25.775}, {"pitch": 42, "velocity": 100, "note_on_time": 25.06, "note_off_time": 25.775}, {"pitch": 39, "velocity": 100, "note_on_time": 25.776, "note_off_time": 26.49}, {"pitch": 72, "velocity": 100, "note_on_time": 25.775, "note_off_time": 27.205}, {"pitch": 42, "velocity": 100, "note_on_time": 26.49, "note_off_time": 27.206}, {"pitch": 76, "velocity": 100, "note_on_time": 27.205, "note_off_time": 27.918}, {"pitch": 42, "velocity": 100, "note_on_time": 27.206, "note_off_time": 27.919}, {"pitch": 39, "velocity": 100, "note_on_time": 27.919, "note_off_time": 28.632}, {"pitch": 42, "velocity": 100, "note_on_time": 28.632, "note_off_time": 29.348}, {"pitch": 74, "velocity": 100, "note_on_time": 27.918, "note_off_time": 30.063}, {"pitch": 42, "velocity": 100, "note_on_time": 29.348, "note_off_time": 30.063}, {"pitch": 39, "velocity": 100, "note_on_time": 30.063, "note_off_time": 30.779}, {"pitch": 74, "velocity": 100, "note_on_time": 30.063, "note_off_time": 31.496}, {"pitch": 42, "velocity": 100, "note_on_time": 30.779, "note_off_time": 31.496}, {"pitch": 76, "velocity": 100, "note_on_time": 31.496, "note_off_time": 32.212}, {"pitch": 42, "velocity": 100, "note_on_time": 31.496, "note_off_time": 32.212}, {"pitch": 77, "velocity": 100, "note_on_time": 32.212, "note_off_time": 32.927}, {"pitch": 39, "velocity": 100, "note_on_time": 32.212, "note_off_time": 32.928}, {"pitch": 74, "velocity": 100, "note_on_time": 32.927, "note_off_time": 33.646}, {"pitch": 42, "velocity": 100, "note_on_time": 32.928, "note_off_time": 33.646}, {"pitch": 71, "velocity": 100, "note_on_time": 33.646, "note_off_time": 34.361}, {"pitch": 42, "velocity": 100, "note_on_time": 33.646, "note_off_time": 34.361}, {"pitch": 67, "velocity": 100, "note_on_time": 34.361, "note_off_time": 35.075}, {"pitch": 39, "velocity": 100, "note_on_time": 34.362, "note_off_time": 35.076}, {"pitch": 69, "velocity": 100, "note_on_time": 35.075, "note_off_time": 35.792}, {"pitch": 42, "velocity": 100, "note_on_time": 35.076, "note_off_time": 35.792}, {"pitch": 71, "velocity": 100, "note_on_time": 35.792, "note_off_time": 36.509}, {"pitch": 42, "velocity": 100, "note_on_time": 35.792, "note_off_time": 36.51}, {"pitch": 39, "velocity": 100, "note_on_time": 36.51, "note_off_time": 37.224}, {"pitch": 72, "velocity": 100, "note_on_time": 36.509, "note_off_time": 37.939}, {"pitch": 42, "velocity": 100, "note_on_time": 37.224, "note_off_time": 37.94}, {"pitch": 42, "velocity": 100, "note_on_time": 37.94, "note_off_time": 38.653}]</notes><options name="Option List">((4, 4), [0.5, 0.25], 3, 7, &lt;NoteRangePerHand.TWO_NOTES: 3&gt;, &lt;NoteRangePerHand.ONE_NOTE: 2&gt;, False, True, True, None)</options></target_notes><trials><trial trial_no="1" timestamp="2023_05_14-13_00_02"><notes name="Played Notes">[{"pitch": 67, "velocity": 70, "note_on_time": 3.577, "note_off_time": 4.275}, {"pitch": 72, "velocity": 78, "note_on_time": 4.335, "note_off_time": 4.831}, {"pitch": 72, "velocity": 83, "note_on_time": 5.062, "note_off_time": 5.688}, {"pitch": 74, "velocity": 76, "note_on_time": 5.706, "note_off_time": 6.491}, {"pitch": 76, "velocity": 82, "note_on_time": 6.457, "note_off_time": 7.935}, {"pitch": 67, "velocity": 75, "note_on_time": 7.936, "note_off_time": 8.817}, {"pitch": 72, "velocity": 74, "note_on_time": 8.597, "note_off_time": 9.764}, {"pitch": 76, "velocity": 68, "note_on_time": 9.838, "note_off_time": 10.431}, {"pitch": 74, "velocity": 73, "note_on_time": 10.624, "note_off_time": 12.138}, {"pitch": 67, "velocity": 72, "note_on_time": 12.168, "note_off_time": 13.251}, {"pitch": 74, "velocity": 74, "note_on_time": 13.535, "note_off_time": 13.993}, {"pitch": 76, "velocity": 59, "note_on_time": 14.236, "note_off_time": 14.798}, {"pitch": 77, "velocity": 65, "note_on_time": 14.93, "note_off_time": 15.685}, {"pitch": 76, "velocity": 72, "note_on_time": 15.812, "note_off_time": 16.069}, {"pitch": 74, "velocity": 55, "note_on_time": 16.511, "note_off_time": 16.641}, {"pitch": 71, "velocity": 61, "note_on_time": 17.103, "note_off_time": 17.481}, {"pitch": 67, "velocity": 72, "note_on_time": 17.824, "note_off_time": 18.532}, {"pitch": 71, "velocity": 23, "note_on_time": 18.57, "note_off_time": 19.252}, {"pitch": 72, "velocity": 52, "note_on_time": 19.314, "note_off_time": 19.822}, {"pitch": 67, "velocity": 60, "note_on_time": 20.758, "note_off_time": 21.476}, {"pitch": 72, "velocity": 72, "note_on_time": 21.486, "note_off_time": 22.687}, {"pitch": 74, "velocity": 64, "note_on_time": 22.865, "note_off_time": 23.062}, {"pitch": 74, "velocity": 27, "note_on_time": 23.132, "note_off_time": 23.399}, {"pitch": 76, "velocity": 70, "note_on_time": 23.573, "note_off_time": 24.011}, {"pitch": 76, "velocity": 76, "note_on_time": 24.34, "note_off_time": 25.052}, {"pitch": 69, "velocity": 69, "note_on_time": 25.099, "note_off_time": 25.474}, {"pitch": 72, "velocity": 76, "note_on_time": 27.146, "note_off_time": 28.413}, {"pitch": 76, "velocity": 46, "note_on_time": 28.678, "note_off_time": 29.3}, {"pitch": 74, "velocity": 78, "note_on_time": 29.336, "note_off_time": 30.907}, {"pitch": 74, "velocity": 77, "note_on_time": 31.489, "note_off_time": 32.816}, {"pitch": 76, "velocity": 69, "note_on_time": 32.884, "note_off_time": 33.618}, {"pitch": 77, "velocity": 76, "note_on_time": 33.627, "note_off_time": 34.399}, {"pitch": 72, "velocity": 71, "note_on_time": 34.37, "note_off_time": 34.649}, {"pitch": 74, "velocity": 55, "note_on_time": 34.938, "note_off_time": 35.672}, {"pitch": 71, "velocity": 61, "note_on_time": 35.715, "note_off_time": 36.512}, {"pitch": 67, "velocity": 70, "note_on_time": 36.478, "note_off_time": 37.273}, {"pitch": 71, "velocity": 68, "note_on_time": 37.312, "note_off_time": 37.562}, {"pitch": 69, "velocity": 62, "note_on_time": 37.229, "note_off_time": 37.87}, {"pitch": 71, "velocity": 50, "note_on_time": 37.951, "note_off_time": 38.618}]</notes><guidance name="Guidance Mode">None</guidance><error name="Error value">1.4684599724988119</error></trial></trials></MIDI>