<MIDI midiNo="2023_05_14-13_01_20"><target_notes><notes name="Note List">[{"pitch": 39, "velocity": 100, "note_on_time": 0.007, "note_off_time": 0.716}, {"pitch": 42, "velocity": 100, "note_on_time": 0.716, "note_off_time": 1.434}, {"pitch": 42, "velocity": 100, "note_on_time": 1.434, "note_off_time": 2.149}, {"pitch": 39, "velocity": 100, "note_on_time": 2.149, "note_off_time": 2.866}, {"pitch": 42, "velocity": 100, "note_on_time": 2.866, "note_off_time": 3.581}, {"pitch": 62, "velocity": 100, "note_on_time": 3.581, "note_off_time": 4.296}, {"pitch": 42, "velocity": 100, "note_on_time": 3.581, "note_off_time": 4.296}, {"pitch": 62, "velocity": 100, "note_on_time": 4.296, "note_off_time": 5.014}, {"pitch": 39, "velocity": 100, "note_on_time": 4.296, "note_off_time": 5.015}, {"pitch": 62, "velocity": 100, "note_on_time": 5.014, "note_off_time": 5.73}, {"pitch": 42, "velocity": 100, "note_on_time": 5.015, "note_off_time": 5.73}, {"pitch": 62, "velocity": 100, "note_on_time": 5.73, "note_off_time": 6.446}, {"pitch": 42, "velocity": 100, "note_on_time": 5.731, "note_off_time": 6.447}, {"pitch": 39, "velocity": 100, "note_on_time": 6.447, "note_off_time": 7.162}, {"pitch": 62, "velocity": 100, "note_on_time": 6.446, "note_off_time": 7.877}, {"pitch": 42, "velocity": 100, "note_on_time": 7.163, "note_off_time": 7.877}, {"pitch": 62, "velocity": 100, "note_on_time": 7.877, "note_off_time": 8.592}, {"pitch": 42, "velocity": 100, "note_on_time": 7.877, "note_off_time": 8.592}, {"pitch": 39, "velocity": 100, "note_on_time": 8.592, "note_off_time": 9.307}, {"pitch": 62, "velocity": 100, "note_on_time": 8.592, "note_off_time": 10.022}, {"pitch": 42, "velocity": 100, "note_on_time": 9.308, "note_off_time": 10.022}, {"pitch": 62, "velocity": 100, "note_on_time": 10.022, "note_off_time": 10.739}, {"pitch": 42, "velocity": 100, "note_on_time": 10.022, "note_off_time": 10.739}, {"pitch": 39, "velocity": 100, "note_on_time": 10.74, "note_off_time": 11.451}, {"pitch": 62, "velocity": 100, "note_on_time": 10.739, "note_off_time": 12.171}, {"pitch": 42, "velocity": 100, "note_on_time": 11.452, "note_off_time": 12.171}, {"pitch": 62, "velocity": 100, "note_on_time": 12.171, "note_off_time": 12.887}, {"pitch": 42, "velocity": 100, "note_on_time": 12.171, "note_off_time": 12.887}, {"pitch": 39, "velocity": 100, "note_on_time": 12.888, "note_off_time": 13.603}, {"pitch": 62, "velocity": 100, "note_on_time": 12.887, "note_off_time": 14.315}, {"pitch": 42, "velocity": 100, "note_on_time": 13.603, "note_off_time": 14.315}, {"pitch": 62, "velocity": 100, "note_on_time": 14.315, "note_off_time": 15.03}, {"pitch": 42, "velocity": 100, "note_on_time": 14.315, "note_off_time": 15.031}, {"pitch": 62, "velocity": 100, "note_on_time": 15.03, "note_off_time": 15.751}, {"pitch": 39, "velocity": 100, "note_on_time": 15.031, "note_off_time": 15.751}, {"pitch": 62, "velocity": 100, "note_on_time": 15.751, "note_off_time": 16.468}, {"pitch": 42, "velocity": 100, "note_on_time": 15.751, "note_off_time": 16.468}, {"pitch": 62, "velocity": 100, "note_on_time": 16.468, "note_off_time": 17.183}, {"pitch": 42, "velocity": 100, "note_on_time": 16.468, "note_off_time": 17.183}, {"pitch": 62, "velocity": 100, "note_on_time": 17.183, "note_off_time": 17.898}, {"pitch": 39, "velocity": 100, "note_on_time": 17.184, "note_off_time": 17.898}, {"pitch": 62, "velocity": 100, "note_on_time": 17.898, "note_off_time": 18.617}, {"pitch": 42, "velocity": 100, "note_on_time": 17.898, "note_off_time": 18.617}, {"pitch": 62, "velocity": 100, "note_on_time": 18.617, "note_off_time": 19.332}, {"pitch": 42, "velocity": 100, "note_on_time": 18.618, "note_off_time": 19.333}, {"pitch": 39, "velocity": 100, "note_on_time": 19.333, "note_off_time": 20.048}, {"pitch": 62, "velocity": 100, "note_on_time": 19.332, "note_off_time": 20.769}, {"pitch": 42, "velocity": 100, "note_on_time": 20.048, "note_off_time": 20.77}, {"pitch": 62, "velocity": 100, "note_on_time": 20.769, "note_off_time": 21.488}, {"pitch": 42, "velocity": 100, "note_on_time": 20.77, "note_off_time": 21.489}, {"pitch": 39, "velocity": 100, "note_on_time": 21.489, "note_off_time": 22.203}, {"pitch": 62, "velocity": 100, "note_on_time": 21.489, "note_off_time": 22.918}, {"pitch": 42, "velocity": 100, "note_on_time": 22.203, "note_off_time": 22.919}, {"pitch": 62, "velocity": 100, "note_on_time": 22.918, "note_off_time": 23.634}, {"pitch": 42, "velocity": 100, "note_on_time": 22.919, "note_off_time": 23.634}, {"pitch": 62, "velocity": 100, "note_on_time": 23.634, "note_off_time": 24.348}, {"pitch": 39, "velocity": 100, "note_on_time": 23.634, "note_off_time": 24.348}, {"pitch": 62, "velocity": 100, "note_on_time": 24.348, "note_off_time": 25.066}, {"pitch": 42, "velocity": 100, "note_on_time": 24.348, "note_off_time": 25.066}, {"pitch": 62, "velocity": 100, "note_on_time": 25.066, "note_off_time": 25.78}, {"pitch": 42, "velocity": 100, "note_on_time": 25.066, "note_off_time": 25.78}, {"pitch": 39, "velocity": 100, "note_on_time": 25.78, "note_off_time": 26.498}, {"pitch": 62, "velocity": 100, "note_on_time": 25.78, "note_off_time": 27.212}, {"pitch": 42, "velocity": 100, "note_on_time": 26.499, "note_off_time": 27.213}, {"pitch": 62, "velocity": 100, "note_on_time": 27.212, "note_off_time": 27.926}, {"pitch": 42, "velocity": 100, "note_on_time": 27.213, "note_off_time": 27.926}, {"pitch": 39, "velocity": 100, "note_on_time": 27.926, "note_off_time": 28.641}, {"pitch": 42, "velocity": 100, "note_on_time": 28.641, "note_off_time": 29.359}, {"pitch": 62, "velocity": 100, "note_on_time": 27.926, "note_off_time": 30.074}, {"pitch": 42, "velocity": 100, "note_on_time": 29.359, "note_off_time": 30.074}, {"pitch": 39, "velocity": 100, "note_on_time": 30.075, "note_off_time": 30.79}, {"pitch": 62, "velocity": 100, "note_on_time": 30.074, "note_off_time": 31.507}, {"pitch": 42, "velocity": 100, "note_on_time": 30.79, "note_off_time": 31.507}, {"pitch": 62, "velocity": 100, "note_on_time": 31.507, "note_off_time": 32.224}, {"pitch": 42, "velocity": 100, "note_on_time": 31.507, "note_off_time": 32.224}, {"pitch": 62, "velocity": 100, "note_on_time": 32.224, "note_off_time": 32.939}, {"pitch": 39, "velocity": 100, "note_on_time": 32.224, "note_off_time": 32.939}, {"pitch": 62, "velocity": 100, "note_on_time": 32.939, "note_off_time": 33.654}, {"pitch": 42, "velocity": 100, "note_on_time": 32.939, "note_off_time": 33.654}, {"pitch": 62, "velocity": 100, "note_on_time": 33.654, "note_off_time": 34.37}, {"pitch": 42, "velocity": 100, "note_on_time": 33.654, "note_off_time": 34.37}, {"pitch": 62, "velocity": 100, "note_on_time": 34.37, "note_off_time": 35.087}, {"pitch": 39, "velocity": 100, "note_on_time": 34.371, "note_off_time": 35.087}, {"pitch": 62, "velocity": 100, "note_on_time": 35.087, "note_off_time": 35.804}, {"pitch": 42, "velocity": 100, "note_on_time": 35.087, "note_off_time": 35.805}, {"pitch": 62, "velocity": 100, "note_on_time": 35.804, "note_off_time": 36.519}, {"pitch": 42, "velocity": 100, "note_on_time": 35.805, "note_off_time": 36.519}, {"pitch": 39, "velocity": 100, "note_on_time": 36.519, "note_off_time": 37.238}, {"pitch": 62, "velocity": 100, "note_on_time": 36.519, "note_off_time": 37.951}, {"pitch": 42, "velocity": 100, "note_on_time": 37.238, "note_off_time": 37.951}, {"pitch": 42, "velocity": 100, "note_on_time": 37.951, "note_off_time": 38.666}]</notes><options name="Option List">((4, 4), [0.5, 0.25], 3, 7, &lt;NoteRangePerHand.TWO_NOTES: 3&gt;, &lt;NoteRangePerHand.ONE_NOTE: 2&gt;, False, True, True, None)</options></target_notes><trials><trial trial_no="1" timestamp="2023_05_14-13_01_20"><notes name="Played Notes">[{"pitch": 62, "velocity": 72, "note_on_time": 3.555, "note_off_time": 3.97}, {"pitch": 62, "velocity": 66, "note_on_time": 4.294, "note_off_time": 4.694}, {"pitch": 62, "velocity": 69, "note_on_time": 5.001, "note_off_time": 5.348}, {"pitch": 62, "velocity": 66, "note_on_time": 5.722, "note_off_time": 6.109}, {"pitch": 62, "velocity": 65, "note_on_time": 6.427, "note_off_time": 7.173}, {"pitch": 62, "velocity": 69, "note_on_time": 7.809, "note_off_time": 8.156}, {"pitch": 62, "velocity": 64, "note_on_time": 8.554, "note_off_time": 9.372}, {"pitch": 62, "velocity": 63, "note_on_time": 9.949, "note_off_time": 10.283}, {"pitch": 62, "velocity": 59, "note_on_time": 10.716, "note_off_time": 11.536}, {"pitch": 62, "velocity": 64, "note_on_time": 12.102, "note_off_time": 12.455}, {"pitch": 62, "velocity": 60, "note_on_time": 12.858, "note_off_time": 13.678}, {"pitch": 62, "velocity": 67, "note_on_time": 14.252, "note_off_time": 14.631}, {"pitch": 62, "velocity": 61, "note_on_time": 14.994, "note_off_time": 15.38}, {"pitch": 62, "velocity": 63, "note_on_time": 15.707, "note_off_time": 16.135}, {"pitch": 62, "velocity": 66, "note_on_time": 16.461, "note_off_time": 16.82}, {"pitch": 62, "velocity": 61, "note_on_time": 17.151, "note_off_time": 17.528}, {"pitch": 62, "velocity": 66, "note_on_time": 17.889, "note_off_time": 18.21}, {"pitch": 62, "velocity": 55, "note_on_time": 18.607, "note_off_time": 19.166}, {"pitch": 62, "velocity": 55, "note_on_time": 20.64, "note_off_time": 20.974}, {"pitch": 62, "velocity": 62, "note_on_time": 21.431, "note_off_time": 22.382}, {"pitch": 62, "velocity": 62, "note_on_time": 22.88, "note_off_time": 23.187}, {"pitch": 62, "velocity": 68, "note_on_time": 23.621, "note_off_time": 23.927}, {"pitch": 62, "velocity": 62, "note_on_time": 24.345, "note_off_time": 24.63}, {"pitch": 62, "velocity": 66, "note_on_time": 25.044, "note_off_time": 25.386}, {"pitch": 62, "velocity": 73, "note_on_time": 25.786, "note_off_time": 26.632}, {"pitch": 62, "velocity": 68, "note_on_time": 27.169, "note_off_time": 27.515}, {"pitch": 62, "velocity": 70, "note_on_time": 27.935, "note_off_time": 29.604}, {"pitch": 62, "velocity": 62, "note_on_time": 30.025, "note_off_time": 30.931}, {"pitch": 62, "velocity": 65, "note_on_time": 31.439, "note_off_time": 31.802}, {"pitch": 62, "velocity": 69, "note_on_time": 32.216, "note_off_time": 32.549}, {"pitch": 62, "velocity": 60, "note_on_time": 32.926, "note_off_time": 33.291}, {"pitch": 62, "velocity": 67, "note_on_time": 33.666, "note_off_time": 34.036}, {"pitch": 62, "velocity": 64, "note_on_time": 34.379, "note_off_time": 34.738}, {"pitch": 62, "velocity": 66, "note_on_time": 35.105, "note_off_time": 35.465}]</notes><guidance name="Guidance Mode">None</guidance><error name="Error value">0.4469323834267701</error></trial></trials></MIDI>