<MIDI midiNo="2023_05_14-11_43_04"><target_notes><notes name="Note List">[{"pitch": 39, "velocity": 100, "note_on_time": 0.005, "note_off_time": 0.725}, {"pitch": 42, "velocity": 100, "note_on_time": 0.725, "note_off_time": 1.446}, {"pitch": 42, "velocity": 100, "note_on_time": 1.446, "note_off_time": 2.156}, {"pitch": 39, "velocity": 100, "note_on_time": 2.156, "note_off_time": 2.867}, {"pitch": 42, "velocity": 100, "note_on_time": 2.867, "note_off_time": 3.581}, {"pitch": 67, "velocity": 100, "note_on_time": 3.581, "note_off_time": 3.945}, {"pitch": 67, "velocity": 100, "note_on_time": 3.945, "note_off_time": 4.311}, {"pitch": 42, "velocity": 100, "note_on_time": 3.581, "note_off_time": 4.311}, {"pitch": 69, "velocity": 100, "note_on_time": 4.311, "note_off_time": 5.026}, {"pitch": 39, "velocity": 100, "note_on_time": 4.311, "note_off_time": 5.026}, {"pitch": 67, "velocity": 100, "note_on_time": 5.026, "note_off_time": 5.74}, {"pitch": 42, "velocity": 100, "note_on_time": 5.026, "note_off_time": 5.74}, {"pitch": 72, "velocity": 100, "note_on_time": 5.74, "note_off_time": 6.454}, {"pitch": 42, "velocity": 100, "note_on_time": 5.74, "note_off_time": 6.454}, {"pitch": 39, "velocity": 100, "note_on_time": 6.454, "note_off_time": 7.166}, {"pitch": 71, "velocity": 100, "note_on_time": 6.454, "note_off_time": 7.885}, {"pitch": 42, "velocity": 100, "note_on_time": 7.166, "note_off_time": 7.885}, {"pitch": 67, "velocity": 100, "note_on_time": 7.885, "note_off_time": 8.25}, {"pitch": 67, "velocity": 100, "note_on_time": 8.25, "note_off_time": 8.612}, {"pitch": 42, "velocity": 100, "note_on_time": 7.885, "note_off_time": 8.612}, {"pitch": 69, "velocity": 100, "note_on_time": 8.612, "note_off_time": 9.326}, {"pitch": 39, "velocity": 100, "note_on_time": 8.612, "note_off_time": 9.326}, {"pitch": 67, "velocity": 100, "note_on_time": 9.326, "note_off_time": 10.043}, {"pitch": 42, "velocity": 100, "note_on_time": 9.326, "note_off_time": 10.043}, {"pitch": 74, "velocity": 100, "note_on_time": 10.043, "note_off_time": 10.758}, {"pitch": 42, "velocity": 100, "note_on_time": 10.044, "note_off_time": 10.758}, {"pitch": 39, "velocity": 100, "note_on_time": 10.758, "note_off_time": 11.472}, {"pitch": 72, "velocity": 100, "note_on_time": 10.758, "note_off_time": 12.188}, {"pitch": 42, "velocity": 100, "note_on_time": 11.472, "note_off_time": 12.189}, {"pitch": 67, "velocity": 100, "note_on_time": 12.188, "note_off_time": 12.545}, {"pitch": 67, "velocity": 100, "note_on_time": 12.545, "note_off_time": 12.901}, {"pitch": 42, "velocity": 100, "note_on_time": 12.189, "note_off_time": 12.901}, {"pitch": 79, "velocity": 100, "note_on_time": 12.901, "note_off_time": 13.617}, {"pitch": 39, "velocity": 100, "note_on_time": 12.902, "note_off_time": 13.617}, {"pitch": 76, "velocity": 100, "note_on_time": 13.617, "note_off_time": 14.33}, {"pitch": 42, "velocity": 100, "note_on_time": 13.618, "note_off_time": 14.33}, {"pitch": 72, "velocity": 100, "note_on_time": 14.33, "note_off_time": 15.043}, {"pitch": 42, "velocity": 100, "note_on_time": 14.33, "note_off_time": 15.043}, {"pitch": 71, "velocity": 100, "note_on_time": 15.043, "note_off_time": 15.76}, {"pitch": 39, "velocity": 100, "note_on_time": 15.043, "note_off_time": 15.76}, {"pitch": 69, "velocity": 100, "note_on_time": 15.76, "note_off_time": 16.476}, {"pitch": 42, "velocity": 100, "note_on_time": 15.76, "note_off_time": 16.476}, {"pitch": 77, "velocity": 100, "note_on_time": 16.476, "note_off_time": 16.834}, {"pitch": 77, "velocity": 100, "note_on_time": 16.834, "note_off_time": 17.191}, {"pitch": 42, "velocity": 100, "note_on_time": 16.477, "note_off_time": 17.191}, {"pitch": 76, "velocity": 100, "note_on_time": 17.191, "note_off_time": 17.906}, {"pitch": 39, "velocity": 100, "note_on_time": 17.191, "note_off_time": 17.906}, {"pitch": 72, "velocity": 100, "note_on_time": 17.906, "note_off_time": 18.617}, {"pitch": 42, "velocity": 100, "note_on_time": 17.906, "note_off_time": 18.617}, {"pitch": 74, "velocity": 100, "note_on_time": 18.617, "note_off_time": 19.332}, {"pitch": 42, "velocity": 100, "note_on_time": 18.617, "note_off_time": 19.333}, {"pitch": 39, "velocity": 100, "note_on_time": 19.333, "note_off_time": 20.048}, {"pitch": 72, "velocity": 100, "note_on_time": 19.332, "note_off_time": 20.762}, {"pitch": 42, "velocity": 100, "note_on_time": 20.048, "note_off_time": 20.763}, {"pitch": 42, "velocity": 100, "note_on_time": 20.763, "note_off_time": 21.483}]</notes><options name="Option List">((4, 4), [0.5, 0.25], 3, 7, &lt;NoteRangePerHand.TWO_NOTES: 3&gt;, &lt;NoteRangePerHand.ONE_NOTE: 2&gt;, False, True, True, None)</options></target_notes><trials><trial trial_no="1" timestamp="2023_05_14-11_43_04"><notes name="Played Notes">[{"pitch": 67, "velocity": 46, "note_on_time": 3.622, "note_off_time": 3.86}, {"pitch": 67, "velocity": 61, "note_on_time": 3.968, "note_off_time": 4.293}, {"pitch": 69, "velocity": 76, "note_on_time": 4.37, "note_off_time": 5.136}, {"pitch": 67, "velocity": 69, "note_on_time": 5.058, "note_off_time": 5.791}, {"pitch": 71, "velocity": 65, "note_on_time": 5.807, "note_off_time": 6.322}, {"pitch": 71, "velocity": 74, "note_on_time": 6.633, "note_off_time": 7.451}, {"pitch": 67, "velocity": 65, "note_on_time": 7.867, "note_off_time": 8.088}, {"pitch": 67, "velocity": 72, "note_on_time": 8.191, "note_off_time": 8.493}, {"pitch": 69, "velocity": 65, "note_on_time": 8.598, "note_off_time": 9.407}, {"pitch": 67, "velocity": 68, "note_on_time": 9.297, "note_off_time": 9.965}, {"pitch": 74, "velocity": 73, "note_on_time": 10.069, "note_off_time": 10.66}, {"pitch": 72, "velocity": 77, "note_on_time": 10.769, "note_off_time": 12.016}, {"pitch": 67, "velocity": 65, "note_on_time": 12.086, "note_off_time": 12.315}, {"pitch": 67, "velocity": 65, "note_on_time": 12.439, "note_off_time": 12.965}, {"pitch": 79, "velocity": 38, "note_on_time": 13.045, "note_off_time": 13.094}, {"pitch": 77, "velocity": 41, "note_on_time": 13.048, "note_off_time": 13.76}, {"pitch": 76, "velocity": 74, "note_on_time": 14.367, "note_off_time": 15.128}, {"pitch": 72, "velocity": 66, "note_on_time": 15.106, "note_off_time": 16.529}, {"pitch": 74, "velocity": 52, "note_on_time": 17.299, "note_off_time": 17.432}, {"pitch": 76, "velocity": 56, "note_on_time": 17.843, "note_off_time": 17.987}, {"pitch": 76, "velocity": 63, "note_on_time": 18.198, "note_off_time": 18.654}, {"pitch": 77, "velocity": 76, "note_on_time": 19.375, "note_off_time": 19.526}, {"pitch": 77, "velocity": 59, "note_on_time": 19.679, "note_off_time": 19.967}, {"pitch": 76, "velocity": 64, "note_on_time": 20.06, "note_off_time": 20.608}]</notes><guidance name="Guidance Mode">None</guidance><error name="Error value">0.7736859012121214</error></trial></trials></MIDI>