<MIDI midiNo="2023_05_14-13_13_26"><target_notes><notes name="Note List">[{"pitch": 39, "velocity": 100, "note_on_time": 0.004, "note_off_time": 0.726}, {"pitch": 42, "velocity": 100, "note_on_time": 0.726, "note_off_time": 1.441}, {"pitch": 42, "velocity": 100, "note_on_time": 1.441, "note_off_time": 2.157}, {"pitch": 42, "velocity": 100, "note_on_time": 2.157, "note_off_time": 2.875}, {"pitch": 39, "velocity": 100, "note_on_time": 2.875, "note_off_time": 3.589}, {"pitch": 60, "velocity": 100, "note_on_time": 2.874, "note_off_time": 4.305}, {"pitch": 42, "velocity": 100, "note_on_time": 3.59, "note_off_time": 4.305}, {"pitch": 42, "velocity": 100, "note_on_time": 4.305, "note_off_time": 5.017}, {"pitch": 67, "velocity": 100, "note_on_time": 4.305, "note_off_time": 5.732}, {"pitch": 42, "velocity": 100, "note_on_time": 5.018, "note_off_time": 5.733}, {"pitch": 64, "velocity": 100, "note_on_time": 5.732, "note_off_time": 6.449}, {"pitch": 39, "velocity": 100, "note_on_time": 5.733, "note_off_time": 6.449}, {"pitch": 42, "velocity": 100, "note_on_time": 6.45, "note_off_time": 7.164}, {"pitch": 67, "velocity": 100, "note_on_time": 6.449, "note_off_time": 7.881}, {"pitch": 42, "velocity": 100, "note_on_time": 7.164, "note_off_time": 7.881}, {"pitch": 60, "velocity": 100, "note_on_time": 7.881, "note_off_time": 8.594}, {"pitch": 42, "velocity": 100, "note_on_time": 7.881, "note_off_time": 8.594}, {"pitch": 39, "velocity": 100, "note_on_time": 8.594, "note_off_time": 9.315}, {"pitch": 67, "velocity": 100, "note_on_time": 8.594, "note_off_time": 10.031}, {"pitch": 42, "velocity": 100, "note_on_time": 9.315, "note_off_time": 10.031}, {"pitch": 42, "velocity": 100, "note_on_time": 10.031, "note_off_time": 10.745}, {"pitch": 60, "velocity": 100, "note_on_time": 10.031, "note_off_time": 11.466}, {"pitch": 42, "velocity": 100, "note_on_time": 10.745, "note_off_time": 11.466}, {"pitch": 39, "velocity": 100, "note_on_time": 11.467, "note_off_time": 12.181}, {"pitch": 42, "velocity": 100, "note_on_time": 12.181, "note_off_time": 12.893}, {"pitch": 42, "velocity": 100, "note_on_time": 12.893, "note_off_time": 13.609}, {"pitch": 64, "velocity": 100, "note_on_time": 11.466, "note_off_time": 14.323}, {"pitch": 42, "velocity": 100, "note_on_time": 13.609, "note_off_time": 14.324}, {"pitch": 67, "velocity": 100, "note_on_time": 14.323, "note_off_time": 15.039}, {"pitch": 39, "velocity": 100, "note_on_time": 14.324, "note_off_time": 15.039}, {"pitch": 64, "velocity": 100, "note_on_time": 15.039, "note_off_time": 15.753}, {"pitch": 42, "velocity": 100, "note_on_time": 15.04, "note_off_time": 15.754}, {"pitch": 67, "velocity": 100, "note_on_time": 15.753, "note_off_time": 16.469}, {"pitch": 42, "velocity": 100, "note_on_time": 15.754, "note_off_time": 16.469}, {"pitch": 60, "velocity": 100, "note_on_time": 16.469, "note_off_time": 17.182}, {"pitch": 42, "velocity": 100, "note_on_time": 16.469, "note_off_time": 17.183}, {"pitch": 39, "velocity": 100, "note_on_time": 17.183, "note_off_time": 17.904}, {"pitch": 64, "velocity": 100, "note_on_time": 17.182, "note_off_time": 18.622}, {"pitch": 42, "velocity": 100, "note_on_time": 17.905, "note_off_time": 18.622}, {"pitch": 67, "velocity": 100, "note_on_time": 18.622, "note_off_time": 19.337}, {"pitch": 42, "velocity": 100, "note_on_time": 18.623, "note_off_time": 19.337}, {"pitch": 60, "velocity": 100, "note_on_time": 19.337, "note_off_time": 20.054}, {"pitch": 42, "velocity": 100, "note_on_time": 19.337, "note_off_time": 20.054}, {"pitch": 64, "velocity": 100, "note_on_time": 20.054, "note_off_time": 20.771}, {"pitch": 39, "velocity": 100, "note_on_time": 20.055, "note_off_time": 20.771}, {"pitch": 42, "velocity": 100, "note_on_time": 20.771, "note_off_time": 21.489}, {"pitch": 67, "velocity": 100, "note_on_time": 20.771, "note_off_time": 22.206}, {"pitch": 42, "velocity": 100, "note_on_time": 21.489, "note_off_time": 22.207}, {"pitch": 64, "velocity": 100, "note_on_time": 22.206, "note_off_time": 22.923}, {"pitch": 42, "velocity": 100, "note_on_time": 22.207, "note_off_time": 22.924}, {"pitch": 39, "velocity": 100, "note_on_time": 22.924, "note_off_time": 23.638}, {"pitch": 42, "velocity": 100, "note_on_time": 23.638, "note_off_time": 24.357}, {"pitch": 42, "velocity": 100, "note_on_time": 24.357, "note_off_time": 25.07}, {"pitch": 60, "velocity": 100, "note_on_time": 22.923, "note_off_time": 25.788}, {"pitch": 42, "velocity": 100, "note_on_time": 25.07, "note_off_time": 25.788}]</notes><options name="Option List">((4, 4), [0.5, 0.25], 3, 7, &lt;NoteRangePerHand.TWO_NOTES: 3&gt;, &lt;NoteRangePerHand.ONE_NOTE: 2&gt;, False, True, True, None)</options></target_notes><trials><trial trial_no="1" timestamp="2023_05_14-13_13_26"><notes name="Played Notes">[{"pitch": 60, "velocity": 67, "note_on_time": 2.885, "note_off_time": 3.743}, {"pitch": 67, "velocity": 70, "note_on_time": 4.228, "note_off_time": 5.01}, {"pitch": 64, "velocity": 71, "note_on_time": 5.629, "note_off_time": 6.209}, {"pitch": 67, "velocity": 71, "note_on_time": 6.374, "note_off_time": 7.149}, {"pitch": 60, "velocity": 73, "note_on_time": 7.8, "note_off_time": 8.532}, {"pitch": 67, "velocity": 66, "note_on_time": 8.548, "note_off_time": 9.709}, {"pitch": 60, "velocity": 40, "note_on_time": 10.05, "note_off_time": 10.537}, {"pitch": 64, "velocity": 44, "note_on_time": 10.919, "note_off_time": 13.533}, {"pitch": 67, "velocity": 58, "note_on_time": 13.612, "note_off_time": 14.336}, {"pitch": 64, "velocity": 66, "note_on_time": 14.371, "note_off_time": 15.026}, {"pitch": 67, "velocity": 73, "note_on_time": 15.014, "note_off_time": 15.735}, {"pitch": 60, "velocity": 69, "note_on_time": 15.75, "note_off_time": 16.463}, {"pitch": 64, "velocity": 71, "note_on_time": 16.475, "note_off_time": 17.805}, {"pitch": 67, "velocity": 69, "note_on_time": 17.838, "note_off_time": 18.577}, {"pitch": 60, "velocity": 69, "note_on_time": 18.602, "note_off_time": 19.215}, {"pitch": 64, "velocity": 65, "note_on_time": 19.31, "note_off_time": 20.01}, {"pitch": 67, "velocity": 68, "note_on_time": 20.035, "note_off_time": 20.714}, {"pitch": 64, "velocity": 68, "note_on_time": 20.762, "note_off_time": 21.994}, {"pitch": 60, "velocity": 64, "note_on_time": 22.109, "note_off_time": 24.461}]</notes><guidance name="Guidance Mode">None</guidance><error name="Error value">0.2694351578947377</error></trial></trials></MIDI>