<MIDI midiNo="2023_05_14-12_20_02"><target_notes><notes name="Note List">[{"pitch": 39, "velocity": 100, "note_on_time": 0.005, "note_off_time": 0.711}, {"pitch": 42, "velocity": 100, "note_on_time": 0.711, "note_off_time": 1.425}, {"pitch": 42, "velocity": 100, "note_on_time": 1.425, "note_off_time": 2.14}, {"pitch": 42, "velocity": 100, "note_on_time": 2.14, "note_off_time": 2.854}, {"pitch": 39, "velocity": 100, "note_on_time": 2.854, "note_off_time": 3.571}, {"pitch": 62, "velocity": 100, "note_on_time": 2.854, "note_off_time": 4.283}, {"pitch": 42, "velocity": 100, "note_on_time": 3.571, "note_off_time": 4.283}, {"pitch": 42, "velocity": 100, "note_on_time": 4.283, "note_off_time": 4.998}, {"pitch": 62, "velocity": 100, "note_on_time": 4.283, "note_off_time": 5.714}, {"pitch": 42, "velocity": 100, "note_on_time": 4.998, "note_off_time": 5.715}, {"pitch": 39, "velocity": 100, "note_on_time": 5.715, "note_off_time": 6.427}, {"pitch": 62, "velocity": 100, "note_on_time": 5.714, "note_off_time": 7.141}, {"pitch": 42, "velocity": 100, "note_on_time": 6.427, "note_off_time": 7.141}, {"pitch": 42, "velocity": 100, "note_on_time": 7.141, "note_off_time": 7.857}, {"pitch": 62, "velocity": 100, "note_on_time": 7.141, "note_off_time": 8.57}, {"pitch": 42, "velocity": 100, "note_on_time": 7.857, "note_off_time": 8.57}, {"pitch": 39, "velocity": 100, "note_on_time": 8.571, "note_off_time": 9.284}, {"pitch": 62, "velocity": 100, "note_on_time": 8.57, "note_off_time": 10.001}, {"pitch": 42, "velocity": 100, "note_on_time": 9.285, "note_off_time": 10.001}, {"pitch": 42, "velocity": 100, "note_on_time": 10.002, "note_off_time": 10.718}, {"pitch": 62, "velocity": 100, "note_on_time": 10.001, "note_off_time": 11.43}, {"pitch": 42, "velocity": 100, "note_on_time": 10.718, "note_off_time": 11.43}, {"pitch": 39, "velocity": 100, "note_on_time": 11.431, "note_off_time": 12.144}, {"pitch": 62, "velocity": 100, "note_on_time": 11.43, "note_off_time": 12.861}, {"pitch": 42, "velocity": 100, "note_on_time": 12.144, "note_off_time": 12.861}, {"pitch": 42, "velocity": 100, "note_on_time": 12.861, "note_off_time": 13.582}, {"pitch": 62, "velocity": 100, "note_on_time": 12.861, "note_off_time": 14.296}, {"pitch": 42, "velocity": 100, "note_on_time": 13.582, "note_off_time": 14.296}, {"pitch": 39, "velocity": 100, "note_on_time": 14.297, "note_off_time": 15.014}, {"pitch": 62, "velocity": 100, "note_on_time": 14.296, "note_off_time": 15.729}, {"pitch": 42, "velocity": 100, "note_on_time": 15.015, "note_off_time": 15.729}, {"pitch": 42, "velocity": 100, "note_on_time": 15.729, "note_off_time": 16.445}, {"pitch": 62, "velocity": 100, "note_on_time": 15.729, "note_off_time": 17.161}, {"pitch": 42, "velocity": 100, "note_on_time": 16.445, "note_off_time": 17.161}, {"pitch": 39, "velocity": 100, "note_on_time": 17.161, "note_off_time": 17.876}, {"pitch": 62, "velocity": 100, "note_on_time": 17.161, "note_off_time": 18.592}, {"pitch": 42, "velocity": 100, "note_on_time": 17.876, "note_off_time": 18.592}, {"pitch": 42, "velocity": 100, "note_on_time": 18.593, "note_off_time": 19.307}, {"pitch": 62, "velocity": 100, "note_on_time": 18.592, "note_off_time": 20.022}, {"pitch": 42, "velocity": 100, "note_on_time": 19.307, "note_off_time": 20.022}, {"pitch": 39, "velocity": 100, "note_on_time": 20.022, "note_off_time": 20.738}, {"pitch": 62, "velocity": 100, "note_on_time": 20.022, "note_off_time": 21.456}, {"pitch": 42, "velocity": 100, "note_on_time": 20.738, "note_off_time": 21.457}, {"pitch": 42, "velocity": 100, "note_on_time": 21.457, "note_off_time": 22.175}, {"pitch": 62, "velocity": 100, "note_on_time": 21.456, "note_off_time": 22.89}, {"pitch": 42, "velocity": 100, "note_on_time": 22.175, "note_off_time": 22.89}, {"pitch": 39, "velocity": 100, "note_on_time": 22.89, "note_off_time": 23.604}, {"pitch": 42, "velocity": 100, "note_on_time": 23.604, "note_off_time": 24.321}, {"pitch": 42, "velocity": 100, "note_on_time": 24.322, "note_off_time": 25.038}, {"pitch": 62, "velocity": 100, "note_on_time": 22.89, "note_off_time": 25.752}, {"pitch": 42, "velocity": 100, "note_on_time": 25.038, "note_off_time": 25.752}]</notes><options name="Option List">((4, 4), [0.5, 0.25], 3, 7, &lt;NoteRangePerHand.TWO_NOTES: 3&gt;, &lt;NoteRangePerHand.ONE_NOTE: 2&gt;, False, True, True, None)</options></target_notes><trials><trial trial_no="1" timestamp="2023_05_14-12_20_02"><notes name="Played Notes">[{"pitch": 62, "velocity": 73, "note_on_time": 2.832, "note_off_time": 3.555}, {"pitch": 62, "velocity": 71, "note_on_time": 4.206, "note_off_time": 5.145}, {"pitch": 62, "velocity": 74, "note_on_time": 5.595, "note_off_time": 6.487}, {"pitch": 62, "velocity": 74, "note_on_time": 7.094, "note_off_time": 7.915}, {"pitch": 62, "velocity": 80, "note_on_time": 8.543, "note_off_time": 9.353}, {"pitch": 62, "velocity": 74, "note_on_time": 9.966, "note_off_time": 10.739}, {"pitch": 62, "velocity": 77, "note_on_time": 11.422, "note_off_time": 12.285}, {"pitch": 62, "velocity": 70, "note_on_time": 12.807, "note_off_time": 13.701}, {"pitch": 62, "velocity": 70, "note_on_time": 14.24, "note_off_time": 15.095}, {"pitch": 62, "velocity": 67, "note_on_time": 15.662, "note_off_time": 16.562}, {"pitch": 62, "velocity": 66, "note_on_time": 17.113, "note_off_time": 18.175}, {"pitch": 62, "velocity": 64, "note_on_time": 18.566, "note_off_time": 19.555}, {"pitch": 62, "velocity": 73, "note_on_time": 20.014, "note_off_time": 21.067}, {"pitch": 62, "velocity": 72, "note_on_time": 21.477, "note_off_time": 22.451}, {"pitch": 62, "velocity": 64, "note_on_time": 22.884, "note_off_time": 23.968}, {"pitch": 62, "velocity": 54, "note_on_time": 24.322, "note_off_time": 25.301}]</notes><guidance name="Guidance Mode">None</guidance><error name="Error value">1.0378314666666668</error></trial></trials></MIDI>