<MIDI midiNo="2023_05_14-12_48_07"><target_notes><notes name="Note List">[{"pitch": 39, "velocity": 100, "note_on_time": 0.007, "note_off_time": 0.727}, {"pitch": 42, "velocity": 100, "note_on_time": 0.727, "note_off_time": 1.446}, {"pitch": 42, "velocity": 100, "note_on_time": 1.446, "note_off_time": 2.162}, {"pitch": 39, "velocity": 100, "note_on_time": 2.162, "note_off_time": 2.879}, {"pitch": 42, "velocity": 100, "note_on_time": 2.879, "note_off_time": 3.595}, {"pitch": 67, "velocity": 100, "note_on_time": 3.594, "note_off_time": 4.31}, {"pitch": 42, "velocity": 100, "note_on_time": 3.595, "note_off_time": 4.31}, {"pitch": 72, "velocity": 100, "note_on_time": 4.31, "note_off_time": 5.026}, {"pitch": 39, "velocity": 100, "note_on_time": 4.31, "note_off_time": 5.026}, {"pitch": 72, "velocity": 100, "note_on_time": 5.026, "note_off_time": 5.742}, {"pitch": 42, "velocity": 100, "note_on_time": 5.027, "note_off_time": 5.742}, {"pitch": 74, "velocity": 100, "note_on_time": 5.742, "note_off_time": 6.454}, {"pitch": 42, "velocity": 100, "note_on_time": 5.742, "note_off_time": 6.455}, {"pitch": 39, "velocity": 100, "note_on_time": 6.455, "note_off_time": 7.168}, {"pitch": 76, "velocity": 100, "note_on_time": 6.454, "note_off_time": 7.884}, {"pitch": 42, "velocity": 100, "note_on_time": 7.168, "note_off_time": 7.884}, {"pitch": 67, "velocity": 100, "note_on_time": 7.884, "note_off_time": 8.597}, {"pitch": 42, "velocity": 100, "note_on_time": 7.885, "note_off_time": 8.597}, {"pitch": 39, "velocity": 100, "note_on_time": 8.597, "note_off_time": 9.313}, {"pitch": 72, "velocity": 100, "note_on_time": 8.597, "note_off_time": 10.028}, {"pitch": 42, "velocity": 100, "note_on_time": 9.313, "note_off_time": 10.028}, {"pitch": 76, "velocity": 100, "note_on_time": 10.028, "note_off_time": 10.746}, {"pitch": 42, "velocity": 100, "note_on_time": 10.029, "note_off_time": 10.747}, {"pitch": 39, "velocity": 100, "note_on_time": 10.747, "note_off_time": 11.462}, {"pitch": 74, "velocity": 100, "note_on_time": 10.746, "note_off_time": 12.18}, {"pitch": 42, "velocity": 100, "note_on_time": 11.462, "note_off_time": 12.18}, {"pitch": 67, "velocity": 100, "note_on_time": 12.18, "note_off_time": 12.896}, {"pitch": 42, "velocity": 100, "note_on_time": 12.181, "note_off_time": 12.896}, {"pitch": 39, "velocity": 100, "note_on_time": 12.896, "note_off_time": 13.612}, {"pitch": 74, "velocity": 100, "note_on_time": 12.896, "note_off_time": 14.329}, {"pitch": 42, "velocity": 100, "note_on_time": 13.612, "note_off_time": 14.329}, {"pitch": 76, "velocity": 100, "note_on_time": 14.329, "note_off_time": 15.045}, {"pitch": 42, "velocity": 100, "note_on_time": 14.329, "note_off_time": 15.046}, {"pitch": 77, "velocity": 100, "note_on_time": 15.045, "note_off_time": 15.758}, {"pitch": 39, "velocity": 100, "note_on_time": 15.046, "note_off_time": 15.758}, {"pitch": 74, "velocity": 100, "note_on_time": 15.758, "note_off_time": 16.474}, {"pitch": 42, "velocity": 100, "note_on_time": 15.758, "note_off_time": 16.474}, {"pitch": 71, "velocity": 100, "note_on_time": 16.474, "note_off_time": 17.19}, {"pitch": 42, "velocity": 100, "note_on_time": 16.475, "note_off_time": 17.19}, {"pitch": 67, "velocity": 100, "note_on_time": 17.19, "note_off_time": 17.908}, {"pitch": 39, "velocity": 100, "note_on_time": 17.19, "note_off_time": 17.908}, {"pitch": 69, "velocity": 100, "note_on_time": 17.908, "note_off_time": 18.619}, {"pitch": 42, "velocity": 100, "note_on_time": 17.908, "note_off_time": 18.619}, {"pitch": 71, "velocity": 100, "note_on_time": 18.619, "note_off_time": 19.335}, {"pitch": 42, "velocity": 100, "note_on_time": 18.619, "note_off_time": 19.335}, {"pitch": 39, "velocity": 100, "note_on_time": 19.335, "note_off_time": 20.055}, {"pitch": 72, "velocity": 100, "note_on_time": 19.335, "note_off_time": 20.771}, {"pitch": 42, "velocity": 100, "note_on_time": 20.056, "note_off_time": 20.772}, {"pitch": 67, "velocity": 100, "note_on_time": 20.771, "note_off_time": 21.478}, {"pitch": 42, "velocity": 100, "note_on_time": 20.772, "note_off_time": 21.479}, {"pitch": 39, "velocity": 100, "note_on_time": 21.479, "note_off_time": 22.195}, {"pitch": 72, "velocity": 100, "note_on_time": 21.478, "note_off_time": 22.911}, {"pitch": 42, "velocity": 100, "note_on_time": 22.196, "note_off_time": 22.912}, {"pitch": 74, "velocity": 100, "note_on_time": 22.911, "note_off_time": 23.628}, {"pitch": 42, "velocity": 100, "note_on_time": 22.912, "note_off_time": 23.628}, {"pitch": 76, "velocity": 100, "note_on_time": 23.628, "note_off_time": 24.343}, {"pitch": 39, "velocity": 100, "note_on_time": 23.628, "note_off_time": 24.343}, {"pitch": 76, "velocity": 100, "note_on_time": 24.343, "note_off_time": 25.055}, {"pitch": 42, "velocity": 100, "note_on_time": 24.344, "note_off_time": 25.055}, {"pitch": 67, "velocity": 100, "note_on_time": 25.055, "note_off_time": 25.77}, {"pitch": 42, "velocity": 100, "note_on_time": 25.055, "note_off_time": 25.77}, {"pitch": 39, "velocity": 100, "note_on_time": 25.771, "note_off_time": 26.487}, {"pitch": 72, "velocity": 100, "note_on_time": 25.77, "note_off_time": 27.203}, {"pitch": 42, "velocity": 100, "note_on_time": 26.487, "note_off_time": 27.203}, {"pitch": 76, "velocity": 100, "note_on_time": 27.203, "note_off_time": 27.92}, {"pitch": 42, "velocity": 100, "note_on_time": 27.204, "note_off_time": 27.92}, {"pitch": 39, "velocity": 100, "note_on_time": 27.92, "note_off_time": 28.638}, {"pitch": 42, "velocity": 100, "note_on_time": 28.638, "note_off_time": 29.352}, {"pitch": 74, "velocity": 100, "note_on_time": 27.92, "note_off_time": 30.069}, {"pitch": 42, "velocity": 100, "note_on_time": 29.352, "note_off_time": 30.069}, {"pitch": 39, "velocity": 100, "note_on_time": 30.069, "note_off_time": 30.785}, {"pitch": 74, "velocity": 100, "note_on_time": 30.069, "note_off_time": 31.501}, {"pitch": 42, "velocity": 100, "note_on_time": 30.786, "note_off_time": 31.501}, {"pitch": 76, "velocity": 100, "note_on_time": 31.501, "note_off_time": 32.22}, {"pitch": 42, "velocity": 100, "note_on_time": 31.501, "note_off_time": 32.22}, {"pitch": 77, "velocity": 100, "note_on_time": 32.22, "note_off_time": 32.935}, {"pitch": 39, "velocity": 100, "note_on_time": 32.221, "note_off_time": 32.935}, {"pitch": 74, "velocity": 100, "note_on_time": 32.935, "note_off_time": 33.652}, {"pitch": 42, "velocity": 100, "note_on_time": 32.935, "note_off_time": 33.653}, {"pitch": 71, "velocity": 100, "note_on_time": 33.652, "note_off_time": 34.368}, {"pitch": 42, "velocity": 100, "note_on_time": 33.653, "note_off_time": 34.368}, {"pitch": 67, "velocity": 100, "note_on_time": 34.368, "note_off_time": 35.083}, {"pitch": 39, "velocity": 100, "note_on_time": 34.368, "note_off_time": 35.083}, {"pitch": 69, "velocity": 100, "note_on_time": 35.083, "note_off_time": 35.793}, {"pitch": 42, "velocity": 100, "note_on_time": 35.083, "note_off_time": 35.793}, {"pitch": 71, "velocity": 100, "note_on_time": 35.793, "note_off_time": 36.507}, {"pitch": 42, "velocity": 100, "note_on_time": 35.794, "note_off_time": 36.507}, {"pitch": 39, "velocity": 100, "note_on_time": 36.507, "note_off_time": 37.221}, {"pitch": 72, "velocity": 100, "note_on_time": 36.507, "note_off_time": 37.935}, {"pitch": 42, "velocity": 100, "note_on_time": 37.221, "note_off_time": 37.935}, {"pitch": 42, "velocity": 100, "note_on_time": 37.935, "note_off_time": 38.648}]</notes><options name="Option List">((4, 4), [0.5, 0.25], 3, 7, &lt;NoteRangePerHand.TWO_NOTES: 3&gt;, &lt;NoteRangePerHand.ONE_NOTE: 2&gt;, False, True, True, None)</options></target_notes><trials><trial trial_no="1" timestamp="2023_05_14-12_48_07"><notes name="Played Notes">[{"pitch": 67, "velocity": 64, "note_on_time": 3.582, "note_off_time": 4.337}, {"pitch": 72, "velocity": 69, "note_on_time": 4.346, "note_off_time": 4.708}, {"pitch": 72, "velocity": 75, "note_on_time": 5.08, "note_off_time": 5.766}, {"pitch": 74, "velocity": 67, "note_on_time": 5.774, "note_off_time": 6.416}, {"pitch": 76, "velocity": 69, "note_on_time": 6.433, "note_off_time": 7.679}, {"pitch": 72, "velocity": 49, "note_on_time": 7.999, "note_off_time": 8.294}, {"pitch": 67, "velocity": 59, "note_on_time": 8.52, "note_off_time": 9.152}, {"pitch": 72, "velocity": 64, "note_on_time": 12.88, "note_off_time": 13.26}, {"pitch": 67, "velocity": 35, "note_on_time": 13.681, "note_off_time": 14.587}, {"pitch": 74, "velocity": 45, "note_on_time": 21.569, "note_off_time": 21.778}, {"pitch": 72, "velocity": 53, "note_on_time": 21.577, "note_off_time": 21.78}, {"pitch": 72, "velocity": 1, "note_on_time": 21.883, "note_off_time": 23.559}, {"pitch": 67, "velocity": 55, "note_on_time": 23.581, "note_off_time": 24.333}, {"pitch": 72, "velocity": 59, "note_on_time": 24.97, "note_off_time": 25.706}, {"pitch": 74, "velocity": 57, "note_on_time": 25.78, "note_off_time": 26.372}, {"pitch": 76, "velocity": 72, "note_on_time": 26.42, "note_off_time": 26.813}, {"pitch": 76, "velocity": 52, "note_on_time": 27.092, "note_off_time": 27.849}, {"pitch": 67, "velocity": 69, "note_on_time": 27.925, "note_off_time": 28.455}, {"pitch": 72, "velocity": 66, "note_on_time": 30.059, "note_off_time": 31.123}, {"pitch": 76, "velocity": 30, "note_on_time": 32.533, "note_off_time": 32.96}, {"pitch": 74, "velocity": 34, "note_on_time": 32.999, "note_off_time": 33.687}, {"pitch": 74, "velocity": 40, "note_on_time": 33.986, "note_off_time": 34.307}, {"pitch": 74, "velocity": 49, "note_on_time": 34.517, "note_off_time": 34.968}, {"pitch": 76, "velocity": 56, "note_on_time": 35.019, "note_off_time": 36.311}, {"pitch": 77, "velocity": 27, "note_on_time": 37.498, "note_off_time": 38.019}, {"pitch": 76, "velocity": 46, "note_on_time": 38.161, "note_off_time": 38.553}]</notes><guidance name="Guidance Mode">None</guidance><error name="Error value">1.4368299820184562</error></trial></trials></MIDI>