<MIDI midiNo="2023_05_14-12_25_45"><target_notes><notes name="Note List">[{"pitch": 39, "velocity": 100, "note_on_time": 0.005, "note_off_time": 0.725}, {"pitch": 42, "velocity": 100, "note_on_time": 0.725, "note_off_time": 1.444}, {"pitch": 42, "velocity": 100, "note_on_time": 1.444, "note_off_time": 2.159}, {"pitch": 42, "velocity": 100, "note_on_time": 2.159, "note_off_time": 2.873}, {"pitch": 62, "velocity": 100, "note_on_time": 2.873, "note_off_time": 3.588}, {"pitch": 39, "velocity": 100, "note_on_time": 2.873, "note_off_time": 3.589}, {"pitch": 62, "velocity": 100, "note_on_time": 3.588, "note_off_time": 4.303}, {"pitch": 42, "velocity": 100, "note_on_time": 3.589, "note_off_time": 4.304}, {"pitch": 62, "velocity": 100, "note_on_time": 4.303, "note_off_time": 5.016}, {"pitch": 42, "velocity": 100, "note_on_time": 4.304, "note_off_time": 5.016}, {"pitch": 62, "velocity": 100, "note_on_time": 5.016, "note_off_time": 5.733}, {"pitch": 42, "velocity": 100, "note_on_time": 5.016, "note_off_time": 5.733}, {"pitch": 62, "velocity": 100, "note_on_time": 5.733, "note_off_time": 6.447}, {"pitch": 39, "velocity": 100, "note_on_time": 5.733, "note_off_time": 6.448}, {"pitch": 42, "velocity": 100, "note_on_time": 6.448, "note_off_time": 7.167}, {"pitch": 62, "velocity": 100, "note_on_time": 6.447, "note_off_time": 7.889}, {"pitch": 42, "velocity": 100, "note_on_time": 7.167, "note_off_time": 7.889}, {"pitch": 62, "velocity": 100, "note_on_time": 7.889, "note_off_time": 8.596}, {"pitch": 42, "velocity": 100, "note_on_time": 7.889, "note_off_time": 8.596}, {"pitch": 62, "velocity": 100, "note_on_time": 8.596, "note_off_time": 9.318}, {"pitch": 39, "velocity": 100, "note_on_time": 8.596, "note_off_time": 9.318}, {"pitch": 62, "velocity": 100, "note_on_time": 9.318, "note_off_time": 10.037}, {"pitch": 42, "velocity": 100, "note_on_time": 9.318, "note_off_time": 10.037}, {"pitch": 62, "velocity": 100, "note_on_time": 10.037, "note_off_time": 10.756}, {"pitch": 42, "velocity": 100, "note_on_time": 10.037, "note_off_time": 10.756}, {"pitch": 62, "velocity": 100, "note_on_time": 10.756, "note_off_time": 11.472}, {"pitch": 42, "velocity": 100, "note_on_time": 10.756, "note_off_time": 11.472}, {"pitch": 62, "velocity": 100, "note_on_time": 11.472, "note_off_time": 12.188}, {"pitch": 39, "velocity": 100, "note_on_time": 11.472, "note_off_time": 12.188}, {"pitch": 62, "velocity": 100, "note_on_time": 12.188, "note_off_time": 12.906}, {"pitch": 42, "velocity": 100, "note_on_time": 12.188, "note_off_time": 12.906}, {"pitch": 42, "velocity": 100, "note_on_time": 12.906, "note_off_time": 13.621}, {"pitch": 62, "velocity": 100, "note_on_time": 12.906, "note_off_time": 14.333}, {"pitch": 42, "velocity": 100, "note_on_time": 13.621, "note_off_time": 14.333}, {"pitch": 62, "velocity": 100, "note_on_time": 14.333, "note_off_time": 15.049}, {"pitch": 39, "velocity": 100, "note_on_time": 14.333, "note_off_time": 15.05}, {"pitch": 62, "velocity": 100, "note_on_time": 15.049, "note_off_time": 15.766}, {"pitch": 42, "velocity": 100, "note_on_time": 15.05, "note_off_time": 15.767}, {"pitch": 62, "velocity": 100, "note_on_time": 15.766, "note_off_time": 16.481}, {"pitch": 42, "velocity": 100, "note_on_time": 15.767, "note_off_time": 16.481}, {"pitch": 62, "velocity": 100, "note_on_time": 16.481, "note_off_time": 17.196}, {"pitch": 42, "velocity": 100, "note_on_time": 16.481, "note_off_time": 17.196}, {"pitch": 62, "velocity": 100, "note_on_time": 17.196, "note_off_time": 17.908}, {"pitch": 39, "velocity": 100, "note_on_time": 17.196, "note_off_time": 17.908}, {"pitch": 62, "velocity": 100, "note_on_time": 17.908, "note_off_time": 18.622}, {"pitch": 42, "velocity": 100, "note_on_time": 17.908, "note_off_time": 18.622}, {"pitch": 42, "velocity": 100, "note_on_time": 18.622, "note_off_time": 19.339}, {"pitch": 62, "velocity": 100, "note_on_time": 18.622, "note_off_time": 20.056}, {"pitch": 42, "velocity": 100, "note_on_time": 19.339, "note_off_time": 20.056}, {"pitch": 62, "velocity": 100, "note_on_time": 20.056, "note_off_time": 20.77}, {"pitch": 39, "velocity": 100, "note_on_time": 20.057, "note_off_time": 20.77}, {"pitch": 42, "velocity": 100, "note_on_time": 20.771, "note_off_time": 21.482}, {"pitch": 62, "velocity": 100, "note_on_time": 20.77, "note_off_time": 22.198}, {"pitch": 42, "velocity": 100, "note_on_time": 21.482, "note_off_time": 22.198}, {"pitch": 62, "velocity": 100, "note_on_time": 22.198, "note_off_time": 22.917}, {"pitch": 42, "velocity": 100, "note_on_time": 22.198, "note_off_time": 22.918}, {"pitch": 39, "velocity": 100, "note_on_time": 22.918, "note_off_time": 23.634}, {"pitch": 42, "velocity": 100, "note_on_time": 23.634, "note_off_time": 24.352}, {"pitch": 42, "velocity": 100, "note_on_time": 24.352, "note_off_time": 25.068}, {"pitch": 62, "velocity": 100, "note_on_time": 22.917, "note_off_time": 25.784}, {"pitch": 42, "velocity": 100, "note_on_time": 25.068, "note_off_time": 25.785}]</notes><options name="Option List">((4, 4), [0.5, 0.25], 3, 7, &lt;NoteRangePerHand.TWO_NOTES: 3&gt;, &lt;NoteRangePerHand.ONE_NOTE: 2&gt;, False, True, True, None)</options></target_notes><trials><trial trial_no="1" timestamp="2023_05_14-12_25_45"><notes name="Played Notes">[{"pitch": 62, "velocity": 67, "note_on_time": 2.906, "note_off_time": 3.374}, {"pitch": 62, "velocity": 66, "note_on_time": 3.601, "note_off_time": 3.962}, {"pitch": 62, "velocity": 65, "note_on_time": 4.307, "note_off_time": 4.694}, {"pitch": 62, "velocity": 63, "note_on_time": 5.036, "note_off_time": 5.346}, {"pitch": 62, "velocity": 69, "note_on_time": 5.739, "note_off_time": 6.13}, {"pitch": 62, "velocity": 78, "note_on_time": 6.458, "note_off_time": 7.409}, {"pitch": 62, "velocity": 69, "note_on_time": 7.836, "note_off_time": 8.154}, {"pitch": 62, "velocity": 65, "note_on_time": 8.582, "note_off_time": 8.948}, {"pitch": 62, "velocity": 61, "note_on_time": 9.284, "note_off_time": 9.683}, {"pitch": 62, "velocity": 69, "note_on_time": 10.025, "note_off_time": 10.394}, {"pitch": 62, "velocity": 69, "note_on_time": 10.745, "note_off_time": 11.094}, {"pitch": 62, "velocity": 70, "note_on_time": 11.478, "note_off_time": 11.787}, {"pitch": 62, "velocity": 70, "note_on_time": 12.18, "note_off_time": 12.502}, {"pitch": 62, "velocity": 70, "note_on_time": 12.89, "note_off_time": 13.837}, {"pitch": 62, "velocity": 76, "note_on_time": 14.28, "note_off_time": 14.613}, {"pitch": 62, "velocity": 68, "note_on_time": 15.026, "note_off_time": 15.404}, {"pitch": 62, "velocity": 75, "note_on_time": 15.737, "note_off_time": 16.116}, {"pitch": 62, "velocity": 73, "note_on_time": 16.469, "note_off_time": 16.828}, {"pitch": 62, "velocity": 76, "note_on_time": 17.176, "note_off_time": 17.509}, {"pitch": 62, "velocity": 75, "note_on_time": 17.881, "note_off_time": 18.261}, {"pitch": 62, "velocity": 77, "note_on_time": 18.624, "note_off_time": 19.568}, {"pitch": 62, "velocity": 71, "note_on_time": 19.991, "note_off_time": 20.367}, {"pitch": 62, "velocity": 75, "note_on_time": 20.729, "note_off_time": 21.447}, {"pitch": 62, "velocity": 65, "note_on_time": 22.082, "note_off_time": 22.407}, {"pitch": 62, "velocity": 76, "note_on_time": 22.862, "note_off_time": 25.612}]</notes><guidance name="Guidance Mode">None</guidance><error name="Error value">0.2488250399999998</error></trial></trials></MIDI>