<MIDI midiNo="2023_05_14-12_50_11"><target_notes><notes name="Note List">[{"pitch": 39, "velocity": 100, "note_on_time": 0.007, "note_off_time": 0.718}, {"pitch": 42, "velocity": 100, "note_on_time": 0.718, "note_off_time": 1.432}, {"pitch": 42, "velocity": 100, "note_on_time": 1.432, "note_off_time": 2.146}, {"pitch": 39, "velocity": 100, "note_on_time": 2.146, "note_off_time": 2.86}, {"pitch": 42, "velocity": 100, "note_on_time": 2.86, "note_off_time": 3.575}, {"pitch": 67, "velocity": 100, "note_on_time": 3.575, "note_off_time": 4.292}, {"pitch": 42, "velocity": 100, "note_on_time": 3.575, "note_off_time": 4.292}, {"pitch": 72, "velocity": 100, "note_on_time": 4.292, "note_off_time": 5.008}, {"pitch": 39, "velocity": 100, "note_on_time": 4.293, "note_off_time": 5.008}, {"pitch": 72, "velocity": 100, "note_on_time": 5.008, "note_off_time": 5.724}, {"pitch": 42, "velocity": 100, "note_on_time": 5.009, "note_off_time": 5.724}, {"pitch": 74, "velocity": 100, "note_on_time": 5.724, "note_off_time": 6.44}, {"pitch": 42, "velocity": 100, "note_on_time": 5.724, "note_off_time": 6.44}, {"pitch": 39, "velocity": 100, "note_on_time": 6.44, "note_off_time": 7.156}, {"pitch": 76, "velocity": 100, "note_on_time": 6.44, "note_off_time": 7.876}, {"pitch": 42, "velocity": 100, "note_on_time": 7.157, "note_off_time": 7.877}, {"pitch": 67, "velocity": 100, "note_on_time": 7.876, "note_off_time": 8.592}, {"pitch": 42, "velocity": 100, "note_on_time": 7.877, "note_off_time": 8.592}, {"pitch": 39, "velocity": 100, "note_on_time": 8.592, "note_off_time": 9.307}, {"pitch": 72, "velocity": 100, "note_on_time": 8.592, "note_off_time": 10.022}, {"pitch": 42, "velocity": 100, "note_on_time": 9.307, "note_off_time": 10.022}, {"pitch": 76, "velocity": 100, "note_on_time": 10.022, "note_off_time": 10.738}, {"pitch": 42, "velocity": 100, "note_on_time": 10.022, "note_off_time": 10.739}, {"pitch": 39, "velocity": 100, "note_on_time": 10.739, "note_off_time": 11.45}, {"pitch": 74, "velocity": 100, "note_on_time": 10.738, "note_off_time": 12.168}, {"pitch": 42, "velocity": 100, "note_on_time": 11.451, "note_off_time": 12.168}, {"pitch": 67, "velocity": 100, "note_on_time": 12.168, "note_off_time": 12.882}, {"pitch": 42, "velocity": 100, "note_on_time": 12.168, "note_off_time": 12.883}, {"pitch": 39, "velocity": 100, "note_on_time": 12.883, "note_off_time": 13.6}, {"pitch": 74, "velocity": 100, "note_on_time": 12.882, "note_off_time": 14.316}, {"pitch": 42, "velocity": 100, "note_on_time": 13.601, "note_off_time": 14.316}, {"pitch": 76, "velocity": 100, "note_on_time": 14.316, "note_off_time": 15.029}, {"pitch": 42, "velocity": 100, "note_on_time": 14.317, "note_off_time": 15.029}, {"pitch": 77, "velocity": 100, "note_on_time": 15.029, "note_off_time": 15.742}, {"pitch": 39, "velocity": 100, "note_on_time": 15.029, "note_off_time": 15.742}, {"pitch": 74, "velocity": 100, "note_on_time": 15.742, "note_off_time": 16.457}, {"pitch": 42, "velocity": 100, "note_on_time": 15.742, "note_off_time": 16.457}, {"pitch": 71, "velocity": 100, "note_on_time": 16.457, "note_off_time": 17.169}, {"pitch": 42, "velocity": 100, "note_on_time": 16.457, "note_off_time": 17.17}, {"pitch": 67, "velocity": 100, "note_on_time": 17.169, "note_off_time": 17.884}, {"pitch": 39, "velocity": 100, "note_on_time": 17.17, "note_off_time": 17.885}, {"pitch": 69, "velocity": 100, "note_on_time": 17.884, "note_off_time": 18.601}, {"pitch": 42, "velocity": 100, "note_on_time": 17.885, "note_off_time": 18.602}, {"pitch": 71, "velocity": 100, "note_on_time": 18.601, "note_off_time": 19.316}, {"pitch": 42, "velocity": 100, "note_on_time": 18.602, "note_off_time": 19.316}, {"pitch": 39, "velocity": 100, "note_on_time": 19.317, "note_off_time": 20.036}, {"pitch": 72, "velocity": 100, "note_on_time": 19.316, "note_off_time": 20.753}, {"pitch": 42, "velocity": 100, "note_on_time": 20.037, "note_off_time": 20.753}, {"pitch": 67, "velocity": 100, "note_on_time": 20.753, "note_off_time": 21.47}, {"pitch": 42, "velocity": 100, "note_on_time": 20.753, "note_off_time": 21.47}, {"pitch": 39, "velocity": 100, "note_on_time": 21.47, "note_off_time": 22.185}, {"pitch": 72, "velocity": 100, "note_on_time": 21.47, "note_off_time": 22.905}, {"pitch": 42, "velocity": 100, "note_on_time": 22.186, "note_off_time": 22.905}, {"pitch": 74, "velocity": 100, "note_on_time": 22.905, "note_off_time": 23.62}, {"pitch": 42, "velocity": 100, "note_on_time": 22.906, "note_off_time": 23.62}, {"pitch": 76, "velocity": 100, "note_on_time": 23.62, "note_off_time": 24.335}, {"pitch": 39, "velocity": 100, "note_on_time": 23.62, "note_off_time": 24.335}, {"pitch": 76, "velocity": 100, "note_on_time": 24.335, "note_off_time": 25.048}, {"pitch": 42, "velocity": 100, "note_on_time": 24.335, "note_off_time": 25.048}, {"pitch": 67, "velocity": 100, "note_on_time": 25.048, "note_off_time": 25.76}, {"pitch": 42, "velocity": 100, "note_on_time": 25.048, "note_off_time": 25.76}, {"pitch": 39, "velocity": 100, "note_on_time": 25.76, "note_off_time": 26.477}, {"pitch": 72, "velocity": 100, "note_on_time": 25.76, "note_off_time": 27.192}, {"pitch": 42, "velocity": 100, "note_on_time": 26.477, "note_off_time": 27.192}, {"pitch": 76, "velocity": 100, "note_on_time": 27.192, "note_off_time": 27.903}, {"pitch": 42, "velocity": 100, "note_on_time": 27.192, "note_off_time": 27.903}, {"pitch": 39, "velocity": 100, "note_on_time": 27.904, "note_off_time": 28.616}, {"pitch": 42, "velocity": 100, "note_on_time": 28.617, "note_off_time": 29.33}, {"pitch": 74, "velocity": 100, "note_on_time": 27.903, "note_off_time": 30.046}, {"pitch": 42, "velocity": 100, "note_on_time": 29.33, "note_off_time": 30.046}, {"pitch": 39, "velocity": 100, "note_on_time": 30.046, "note_off_time": 30.759}, {"pitch": 74, "velocity": 100, "note_on_time": 30.046, "note_off_time": 31.471}, {"pitch": 42, "velocity": 100, "note_on_time": 30.759, "note_off_time": 31.471}, {"pitch": 76, "velocity": 100, "note_on_time": 31.471, "note_off_time": 32.185}, {"pitch": 42, "velocity": 100, "note_on_time": 31.471, "note_off_time": 32.186}, {"pitch": 77, "velocity": 100, "note_on_time": 32.185, "note_off_time": 32.898}, {"pitch": 39, "velocity": 100, "note_on_time": 32.186, "note_off_time": 32.898}, {"pitch": 74, "velocity": 100, "note_on_time": 32.898, "note_off_time": 33.61}, {"pitch": 42, "velocity": 100, "note_on_time": 32.898, "note_off_time": 33.61}, {"pitch": 71, "velocity": 100, "note_on_time": 33.61, "note_off_time": 34.326}, {"pitch": 42, "velocity": 100, "note_on_time": 33.611, "note_off_time": 34.326}, {"pitch": 67, "velocity": 100, "note_on_time": 34.326, "note_off_time": 35.041}, {"pitch": 39, "velocity": 100, "note_on_time": 34.326, "note_off_time": 35.041}, {"pitch": 69, "velocity": 100, "note_on_time": 35.041, "note_off_time": 35.757}, {"pitch": 42, "velocity": 100, "note_on_time": 35.041, "note_off_time": 35.757}, {"pitch": 71, "velocity": 100, "note_on_time": 35.757, "note_off_time": 36.47}, {"pitch": 42, "velocity": 100, "note_on_time": 35.758, "note_off_time": 36.47}, {"pitch": 39, "velocity": 100, "note_on_time": 36.471, "note_off_time": 37.187}, {"pitch": 72, "velocity": 100, "note_on_time": 36.47, "note_off_time": 37.897}, {"pitch": 42, "velocity": 100, "note_on_time": 37.187, "note_off_time": 37.898}, {"pitch": 42, "velocity": 100, "note_on_time": 37.898, "note_off_time": 38.611}]</notes><options name="Option List">((4, 4), [0.5, 0.25], 3, 7, &lt;NoteRangePerHand.TWO_NOTES: 3&gt;, &lt;NoteRangePerHand.ONE_NOTE: 2&gt;, False, True, True, None)</options></target_notes><trials><trial trial_no="1" timestamp="2023_05_14-12_50_11"><notes name="Played Notes">[{"pitch": 67, "velocity": 67, "note_on_time": 3.542, "note_off_time": 4.31}, {"pitch": 72, "velocity": 78, "note_on_time": 4.292, "note_off_time": 4.747}, {"pitch": 72, "velocity": 79, "note_on_time": 5.008, "note_off_time": 5.704}, {"pitch": 74, "velocity": 73, "note_on_time": 5.726, "note_off_time": 6.522}, {"pitch": 76, "velocity": 82, "note_on_time": 6.474, "note_off_time": 7.755}, {"pitch": 67, "velocity": 69, "note_on_time": 7.804, "note_off_time": 8.663}, {"pitch": 74, "velocity": 64, "note_on_time": 9.308, "note_off_time": 9.589}, {"pitch": 76, "velocity": 78, "note_on_time": 9.725, "note_off_time": 10.464}, {"pitch": 77, "velocity": 70, "note_on_time": 10.524, "note_off_time": 11.524}, {"pitch": 76, "velocity": 60, "note_on_time": 12.215, "note_off_time": 12.619}, {"pitch": 69, "velocity": 28, "note_on_time": 13.141, "note_off_time": 13.846}, {"pitch": 72, "velocity": 59, "note_on_time": 21.472, "note_off_time": 22.86}, {"pitch": 67, "velocity": 57, "note_on_time": 22.879, "note_off_time": 23.614}, {"pitch": 72, "velocity": 62, "note_on_time": 23.641, "note_off_time": 24.799}, {"pitch": 74, "velocity": 66, "note_on_time": 25.006, "note_off_time": 25.639}, {"pitch": 76, "velocity": 65, "note_on_time": 25.723, "note_off_time": 26.174}, {"pitch": 76, "velocity": 60, "note_on_time": 26.486, "note_off_time": 27.497}, {"pitch": 69, "velocity": 53, "note_on_time": 27.881, "note_off_time": 28.373}, {"pitch": 67, "velocity": 49, "note_on_time": 28.568, "note_off_time": 29.415}, {"pitch": 72, "velocity": 61, "note_on_time": 30.138, "note_off_time": 31.351}, {"pitch": 74, "velocity": 52, "note_on_time": 31.466, "note_off_time": 31.742}, {"pitch": 74, "velocity": 43, "note_on_time": 35.763, "note_off_time": 35.993}, {"pitch": 76, "velocity": 40, "note_on_time": 37.03, "note_off_time": 37.846}]</notes><guidance name="Guidance Mode">None</guidance><error name="Error value">1.3790383031727382</error></trial></trials></MIDI>