<MIDI midiNo="2023_05_14-11_19_46"><target_notes><notes name="Note List">[{"pitch": 39, "velocity": 100, "note_on_time": 0.007, "note_off_time": 0.724}, {"pitch": 42, "velocity": 100, "note_on_time": 0.725, "note_off_time": 1.439}, {"pitch": 42, "velocity": 100, "note_on_time": 1.44, "note_off_time": 2.155}, {"pitch": 39, "velocity": 100, "note_on_time": 2.156, "note_off_time": 2.873}, {"pitch": 42, "velocity": 100, "note_on_time": 2.873, "note_off_time": 3.592}, {"pitch": 67, "velocity": 100, "note_on_time": 3.592, "note_off_time": 4.307}, {"pitch": 42, "velocity": 100, "note_on_time": 3.592, "note_off_time": 4.307}, {"pitch": 72, "velocity": 100, "note_on_time": 4.307, "note_off_time": 5.021}, {"pitch": 39, "velocity": 100, "note_on_time": 4.308, "note_off_time": 5.022}, {"pitch": 72, "velocity": 100, "note_on_time": 5.021, "note_off_time": 5.734}, {"pitch": 42, "velocity": 100, "note_on_time": 5.022, "note_off_time": 5.734}, {"pitch": 74, "velocity": 100, "note_on_time": 5.734, "note_off_time": 6.453}, {"pitch": 42, "velocity": 100, "note_on_time": 5.734, "note_off_time": 6.454}, {"pitch": 39, "velocity": 100, "note_on_time": 6.454, "note_off_time": 7.169}, {"pitch": 76, "velocity": 100, "note_on_time": 6.453, "note_off_time": 7.882}, {"pitch": 42, "velocity": 100, "note_on_time": 7.169, "note_off_time": 7.883}, {"pitch": 67, "velocity": 100, "note_on_time": 7.882, "note_off_time": 8.599}, {"pitch": 42, "velocity": 100, "note_on_time": 7.883, "note_off_time": 8.599}, {"pitch": 39, "velocity": 100, "note_on_time": 8.6, "note_off_time": 9.313}, {"pitch": 72, "velocity": 100, "note_on_time": 8.599, "note_off_time": 10.03}, {"pitch": 42, "velocity": 100, "note_on_time": 9.313, "note_off_time": 10.03}, {"pitch": 76, "velocity": 100, "note_on_time": 10.03, "note_off_time": 10.745}, {"pitch": 42, "velocity": 100, "note_on_time": 10.031, "note_off_time": 10.746}, {"pitch": 39, "velocity": 100, "note_on_time": 10.746, "note_off_time": 11.459}, {"pitch": 74, "velocity": 100, "note_on_time": 10.745, "note_off_time": 12.175}, {"pitch": 42, "velocity": 100, "note_on_time": 11.459, "note_off_time": 12.176}, {"pitch": 67, "velocity": 100, "note_on_time": 12.175, "note_off_time": 12.893}, {"pitch": 42, "velocity": 100, "note_on_time": 12.176, "note_off_time": 12.893}, {"pitch": 39, "velocity": 100, "note_on_time": 12.894, "note_off_time": 13.608}, {"pitch": 74, "velocity": 100, "note_on_time": 12.893, "note_off_time": 14.32}, {"pitch": 42, "velocity": 100, "note_on_time": 13.609, "note_off_time": 14.32}, {"pitch": 76, "velocity": 100, "note_on_time": 14.32, "note_off_time": 15.037}, {"pitch": 42, "velocity": 100, "note_on_time": 14.32, "note_off_time": 15.037}, {"pitch": 77, "velocity": 100, "note_on_time": 15.037, "note_off_time": 15.752}, {"pitch": 39, "velocity": 100, "note_on_time": 15.037, "note_off_time": 15.752}, {"pitch": 74, "velocity": 100, "note_on_time": 15.752, "note_off_time": 16.468}, {"pitch": 42, "velocity": 100, "note_on_time": 15.753, "note_off_time": 16.468}, {"pitch": 71, "velocity": 100, "note_on_time": 16.468, "note_off_time": 17.182}, {"pitch": 42, "velocity": 100, "note_on_time": 16.468, "note_off_time": 17.183}, {"pitch": 67, "velocity": 100, "note_on_time": 17.182, "note_off_time": 17.895}, {"pitch": 39, "velocity": 100, "note_on_time": 17.183, "note_off_time": 17.895}, {"pitch": 69, "velocity": 100, "note_on_time": 17.895, "note_off_time": 18.612}, {"pitch": 42, "velocity": 100, "note_on_time": 17.896, "note_off_time": 18.612}, {"pitch": 71, "velocity": 100, "note_on_time": 18.612, "note_off_time": 19.329}, {"pitch": 42, "velocity": 100, "note_on_time": 18.612, "note_off_time": 19.329}, {"pitch": 39, "velocity": 100, "note_on_time": 19.33, "note_off_time": 20.046}, {"pitch": 72, "velocity": 100, "note_on_time": 19.329, "note_off_time": 20.762}, {"pitch": 42, "velocity": 100, "note_on_time": 20.046, "note_off_time": 20.763}, {"pitch": 67, "velocity": 100, "note_on_time": 20.762, "note_off_time": 21.479}, {"pitch": 42, "velocity": 100, "note_on_time": 20.763, "note_off_time": 21.479}, {"pitch": 39, "velocity": 100, "note_on_time": 21.48, "note_off_time": 22.195}, {"pitch": 72, "velocity": 100, "note_on_time": 21.479, "note_off_time": 22.914}, {"pitch": 42, "velocity": 100, "note_on_time": 22.196, "note_off_time": 22.914}, {"pitch": 74, "velocity": 100, "note_on_time": 22.914, "note_off_time": 23.625}, {"pitch": 42, "velocity": 100, "note_on_time": 22.914, "note_off_time": 23.626}, {"pitch": 76, "velocity": 100, "note_on_time": 23.625, "note_off_time": 24.341}, {"pitch": 39, "velocity": 100, "note_on_time": 23.626, "note_off_time": 24.342}, {"pitch": 76, "velocity": 100, "note_on_time": 24.341, "note_off_time": 25.055}, {"pitch": 42, "velocity": 100, "note_on_time": 24.342, "note_off_time": 25.055}, {"pitch": 67, "velocity": 100, "note_on_time": 25.055, "note_off_time": 25.769}, {"pitch": 42, "velocity": 100, "note_on_time": 25.055, "note_off_time": 25.769}, {"pitch": 39, "velocity": 100, "note_on_time": 25.769, "note_off_time": 26.486}, {"pitch": 72, "velocity": 100, "note_on_time": 25.769, "note_off_time": 27.199}, {"pitch": 42, "velocity": 100, "note_on_time": 26.487, "note_off_time": 27.199}, {"pitch": 76, "velocity": 100, "note_on_time": 27.199, "note_off_time": 27.914}, {"pitch": 42, "velocity": 100, "note_on_time": 27.2, "note_off_time": 27.915}, {"pitch": 39, "velocity": 100, "note_on_time": 27.915, "note_off_time": 28.632}, {"pitch": 42, "velocity": 100, "note_on_time": 28.632, "note_off_time": 29.348}, {"pitch": 74, "velocity": 100, "note_on_time": 27.914, "note_off_time": 30.061}, {"pitch": 42, "velocity": 100, "note_on_time": 29.348, "note_off_time": 30.062}, {"pitch": 39, "velocity": 100, "note_on_time": 30.062, "note_off_time": 30.774}, {"pitch": 74, "velocity": 100, "note_on_time": 30.061, "note_off_time": 31.49}, {"pitch": 42, "velocity": 100, "note_on_time": 30.774, "note_off_time": 31.491}, {"pitch": 76, "velocity": 100, "note_on_time": 31.49, "note_off_time": 32.206}, {"pitch": 42, "velocity": 100, "note_on_time": 31.491, "note_off_time": 32.206}, {"pitch": 77, "velocity": 100, "note_on_time": 32.206, "note_off_time": 32.923}, {"pitch": 39, "velocity": 100, "note_on_time": 32.207, "note_off_time": 32.923}, {"pitch": 74, "velocity": 100, "note_on_time": 32.923, "note_off_time": 33.637}, {"pitch": 42, "velocity": 100, "note_on_time": 32.924, "note_off_time": 33.637}, {"pitch": 71, "velocity": 100, "note_on_time": 33.637, "note_off_time": 34.349}, {"pitch": 42, "velocity": 100, "note_on_time": 33.637, "note_off_time": 34.349}, {"pitch": 67, "velocity": 100, "note_on_time": 34.349, "note_off_time": 35.064}, {"pitch": 39, "velocity": 100, "note_on_time": 34.349, "note_off_time": 35.065}, {"pitch": 69, "velocity": 100, "note_on_time": 35.064, "note_off_time": 35.784}, {"pitch": 42, "velocity": 100, "note_on_time": 35.065, "note_off_time": 35.784}, {"pitch": 71, "velocity": 100, "note_on_time": 35.784, "note_off_time": 36.5}, {"pitch": 42, "velocity": 100, "note_on_time": 35.784, "note_off_time": 36.501}, {"pitch": 39, "velocity": 100, "note_on_time": 36.501, "note_off_time": 37.215}, {"pitch": 72, "velocity": 100, "note_on_time": 36.5, "note_off_time": 37.933}, {"pitch": 42, "velocity": 100, "note_on_time": 37.216, "note_off_time": 37.934}, {"pitch": 42, "velocity": 100, "note_on_time": 37.934, "note_off_time": 38.65}]</notes><options name="Option List">((4, 4), [0.5, 0.25], 3, 7, &lt;NoteRangePerHand.TWO_NOTES: 3&gt;, &lt;NoteRangePerHand.ONE_NOTE: 2&gt;, False, True, True, None)</options></target_notes><trials><trial trial_no="1" timestamp="2023_05_14-11_19_46"><notes name="Played Notes">[{"pitch": 67, "velocity": 82, "note_on_time": 3.508, "note_off_time": 3.972}, {"pitch": 71, "velocity": 79, "note_on_time": 4.234, "note_off_time": 4.573}, {"pitch": 71, "velocity": 87, "note_on_time": 4.973, "note_off_time": 5.319}, {"pitch": 72, "velocity": 83, "note_on_time": 5.718, "note_off_time": 6.165}, {"pitch": 74, "velocity": 83, "note_on_time": 6.512, "note_off_time": 7.524}, {"pitch": 76, "velocity": 71, "note_on_time": 12.89, "note_off_time": 13.642}, {"pitch": 77, "velocity": 78, "note_on_time": 14.477, "note_off_time": 14.933}, {"pitch": 79, "velocity": 72, "note_on_time": 15.964, "note_off_time": 16.472}, {"pitch": 77, "velocity": 74, "note_on_time": 16.632, "note_off_time": 17.133}, {"pitch": 76, "velocity": 71, "note_on_time": 17.235, "note_off_time": 17.804}, {"pitch": 74, "velocity": 70, "note_on_time": 17.791, "note_off_time": 19.641}, {"pitch": 72, "velocity": 89, "note_on_time": 20.015, "note_off_time": 21.298}, {"pitch": 67, "velocity": 78, "note_on_time": 21.5, "note_off_time": 22.482}, {"pitch": 72, "velocity": 73, "note_on_time": 22.91, "note_off_time": 23.899}, {"pitch": 74, "velocity": 73, "note_on_time": 23.683, "note_off_time": 24.141}, {"pitch": 76, "velocity": 62, "note_on_time": 24.42, "note_off_time": 25.704}, {"pitch": 67, "velocity": 5, "note_on_time": 25.944, "note_off_time": 27.409}, {"pitch": 71, "velocity": 59, "note_on_time": 27.454, "note_off_time": 27.939}, {"pitch": 72, "velocity": 61, "note_on_time": 28.121, "note_off_time": 28.679}, {"pitch": 74, "velocity": 73, "note_on_time": 28.844, "note_off_time": 29.112}, {"pitch": 74, "velocity": 72, "note_on_time": 30.45, "note_off_time": 31.809}, {"pitch": 76, "velocity": 67, "note_on_time": 32.83, "note_off_time": 33.992}, {"pitch": 74, "velocity": 78, "note_on_time": 34.244, "note_off_time": 34.815}, {"pitch": 67, "velocity": 28, "note_on_time": 35.825, "note_off_time": 36.302}, {"pitch": 69, "velocity": 59, "note_on_time": 36.391, "note_off_time": 36.948}, {"pitch": 67, "velocity": 84, "note_on_time": 36.89, "note_off_time": 38.442}, {"pitch": 69, "velocity": 72, "note_on_time": 38.396, "note_off_time": 38.617}]</notes><guidance name="Guidance Mode">None</guidance><error name="Error value">1.3547055198356261</error></trial></trials></MIDI>