<MIDI midiNo="2023_05_14-12_32_33"><target_notes><notes name="Note List">[{"pitch": 39, "velocity": 100, "note_on_time": 0.006, "note_off_time": 0.714}, {"pitch": 42, "velocity": 100, "note_on_time": 0.714, "note_off_time": 1.434}, {"pitch": 42, "velocity": 100, "note_on_time": 1.434, "note_off_time": 2.15}, {"pitch": 42, "velocity": 100, "note_on_time": 2.15, "note_off_time": 2.867}, {"pitch": 64, "velocity": 100, "note_on_time": 2.867, "note_off_time": 3.581}, {"pitch": 39, "velocity": 100, "note_on_time": 2.867, "note_off_time": 3.581}, {"pitch": 64, "velocity": 100, "note_on_time": 3.581, "note_off_time": 4.298}, {"pitch": 42, "velocity": 100, "note_on_time": 3.582, "note_off_time": 4.298}, {"pitch": 65, "velocity": 100, "note_on_time": 4.298, "note_off_time": 5.013}, {"pitch": 42, "velocity": 100, "note_on_time": 4.299, "note_off_time": 5.013}, {"pitch": 67, "velocity": 100, "note_on_time": 5.013, "note_off_time": 5.727}, {"pitch": 42, "velocity": 100, "note_on_time": 5.013, "note_off_time": 5.728}, {"pitch": 67, "velocity": 100, "note_on_time": 5.727, "note_off_time": 6.442}, {"pitch": 39, "velocity": 100, "note_on_time": 5.728, "note_off_time": 6.442}, {"pitch": 65, "velocity": 100, "note_on_time": 6.442, "note_off_time": 7.16}, {"pitch": 42, "velocity": 100, "note_on_time": 6.442, "note_off_time": 7.16}, {"pitch": 64, "velocity": 100, "note_on_time": 7.16, "note_off_time": 7.882}, {"pitch": 42, "velocity": 100, "note_on_time": 7.16, "note_off_time": 7.882}, {"pitch": 62, "velocity": 100, "note_on_time": 7.882, "note_off_time": 8.597}, {"pitch": 42, "velocity": 100, "note_on_time": 7.883, "note_off_time": 8.597}, {"pitch": 60, "velocity": 100, "note_on_time": 8.597, "note_off_time": 9.311}, {"pitch": 39, "velocity": 100, "note_on_time": 8.598, "note_off_time": 9.311}, {"pitch": 60, "velocity": 100, "note_on_time": 9.311, "note_off_time": 10.022}, {"pitch": 42, "velocity": 100, "note_on_time": 9.312, "note_off_time": 10.023}, {"pitch": 62, "velocity": 100, "note_on_time": 10.022, "note_off_time": 10.739}, {"pitch": 42, "velocity": 100, "note_on_time": 10.023, "note_off_time": 10.74}, {"pitch": 64, "velocity": 100, "note_on_time": 10.739, "note_off_time": 11.453}, {"pitch": 42, "velocity": 100, "note_on_time": 10.74, "note_off_time": 11.453}, {"pitch": 64, "velocity": 100, "note_on_time": 11.453, "note_off_time": 12.17}, {"pitch": 39, "velocity": 100, "note_on_time": 11.454, "note_off_time": 12.17}, {"pitch": 62, "velocity": 100, "note_on_time": 12.17, "note_off_time": 12.884}, {"pitch": 42, "velocity": 100, "note_on_time": 12.17, "note_off_time": 12.884}, {"pitch": 42, "velocity": 100, "note_on_time": 12.884, "note_off_time": 13.597}, {"pitch": 62, "velocity": 100, "note_on_time": 12.884, "note_off_time": 14.313}, {"pitch": 42, "velocity": 100, "note_on_time": 13.597, "note_off_time": 14.313}, {"pitch": 64, "velocity": 100, "note_on_time": 14.313, "note_off_time": 15.029}, {"pitch": 39, "velocity": 100, "note_on_time": 14.313, "note_off_time": 15.029}, {"pitch": 64, "velocity": 100, "note_on_time": 15.029, "note_off_time": 15.743}, {"pitch": 42, "velocity": 100, "note_on_time": 15.029, "note_off_time": 15.744}, {"pitch": 65, "velocity": 100, "note_on_time": 15.743, "note_off_time": 16.459}, {"pitch": 42, "velocity": 100, "note_on_time": 15.744, "note_off_time": 16.459}, {"pitch": 67, "velocity": 100, "note_on_time": 16.459, "note_off_time": 17.172}, {"pitch": 42, "velocity": 100, "note_on_time": 16.459, "note_off_time": 17.172}, {"pitch": 67, "velocity": 100, "note_on_time": 17.172, "note_off_time": 17.885}, {"pitch": 39, "velocity": 100, "note_on_time": 17.172, "note_off_time": 17.885}, {"pitch": 65, "velocity": 100, "note_on_time": 17.885, "note_off_time": 18.601}, {"pitch": 42, "velocity": 100, "note_on_time": 17.885, "note_off_time": 18.601}, {"pitch": 64, "velocity": 100, "note_on_time": 18.601, "note_off_time": 19.313}, {"pitch": 42, "velocity": 100, "note_on_time": 18.601, "note_off_time": 19.313}, {"pitch": 62, "velocity": 100, "note_on_time": 19.313, "note_off_time": 20.033}, {"pitch": 42, "velocity": 100, "note_on_time": 19.313, "note_off_time": 20.033}, {"pitch": 60, "velocity": 100, "note_on_time": 20.033, "note_off_time": 20.749}, {"pitch": 39, "velocity": 100, "note_on_time": 20.034, "note_off_time": 20.749}, {"pitch": 60, "velocity": 100, "note_on_time": 20.749, "note_off_time": 21.464}, {"pitch": 42, "velocity": 100, "note_on_time": 20.749, "note_off_time": 21.464}, {"pitch": 62, "velocity": 100, "note_on_time": 21.464, "note_off_time": 22.178}, {"pitch": 42, "velocity": 100, "note_on_time": 21.465, "note_off_time": 22.178}, {"pitch": 64, "velocity": 100, "note_on_time": 22.178, "note_off_time": 22.892}, {"pitch": 42, "velocity": 100, "note_on_time": 22.178, "note_off_time": 22.892}, {"pitch": 62, "velocity": 100, "note_on_time": 22.892, "note_off_time": 23.607}, {"pitch": 39, "velocity": 100, "note_on_time": 22.892, "note_off_time": 23.607}, {"pitch": 60, "velocity": 100, "note_on_time": 23.607, "note_off_time": 24.321}, {"pitch": 42, "velocity": 100, "note_on_time": 23.607, "note_off_time": 24.321}, {"pitch": 42, "velocity": 100, "note_on_time": 24.321, "note_off_time": 25.039}, {"pitch": 60, "velocity": 100, "note_on_time": 24.321, "note_off_time": 25.755}, {"pitch": 42, "velocity": 100, "note_on_time": 25.039, "note_off_time": 25.755}]</notes><options name="Option List">((4, 4), [0.5, 0.25], 3, 7, &lt;NoteRangePerHand.TWO_NOTES: 3&gt;, &lt;NoteRangePerHand.ONE_NOTE: 2&gt;, False, True, True, None)</options></target_notes><trials><trial trial_no="1" timestamp="2023_05_14-12_32_33"><notes name="Played Notes">[{"pitch": 64, "velocity": 70, "note_on_time": 2.852, "note_off_time": 3.329}, {"pitch": 64, "velocity": 74, "note_on_time": 3.55, "note_off_time": 4.277}, {"pitch": 65, "velocity": 57, "note_on_time": 4.264, "note_off_time": 4.871}, {"pitch": 67, "velocity": 37, "note_on_time": 4.93, "note_off_time": 5.385}, {"pitch": 67, "velocity": 68, "note_on_time": 5.688, "note_off_time": 6.405}, {"pitch": 65, "velocity": 69, "note_on_time": 6.451, "note_off_time": 7.134}, {"pitch": 64, "velocity": 64, "note_on_time": 7.142, "note_off_time": 7.815}, {"pitch": 62, "velocity": 68, "note_on_time": 7.855, "note_off_time": 8.621}, {"pitch": 60, "velocity": 71, "note_on_time": 8.596, "note_off_time": 9.095}, {"pitch": 60, "velocity": 67, "note_on_time": 9.332, "note_off_time": 10.021}, {"pitch": 62, "velocity": 63, "note_on_time": 10.02, "note_off_time": 10.637}, {"pitch": 64, "velocity": 67, "note_on_time": 10.689, "note_off_time": 11.251}, {"pitch": 64, "velocity": 65, "note_on_time": 11.458, "note_off_time": 12.401}, {"pitch": 62, "velocity": 54, "note_on_time": 12.549, "note_off_time": 12.781}, {"pitch": 62, "velocity": 60, "note_on_time": 12.918, "note_off_time": 14.255}, {"pitch": 64, "velocity": 58, "note_on_time": 14.274, "note_off_time": 14.725}, {"pitch": 64, "velocity": 67, "note_on_time": 14.976, "note_off_time": 15.707}, {"pitch": 65, "velocity": 71, "note_on_time": 15.693, "note_off_time": 16.365}, {"pitch": 67, "velocity": 59, "note_on_time": 16.41, "note_off_time": 16.908}, {"pitch": 67, "velocity": 80, "note_on_time": 17.211, "note_off_time": 17.882}, {"pitch": 65, "velocity": 57, "note_on_time": 17.924, "note_off_time": 18.562}, {"pitch": 64, "velocity": 57, "note_on_time": 18.552, "note_off_time": 19.301}, {"pitch": 62, "velocity": 62, "note_on_time": 19.296, "note_off_time": 20.02}, {"pitch": 60, "velocity": 68, "note_on_time": 20.023, "note_off_time": 20.431}, {"pitch": 60, "velocity": 56, "note_on_time": 20.724, "note_off_time": 21.409}, {"pitch": 62, "velocity": 60, "note_on_time": 21.4, "note_off_time": 22.167}, {"pitch": 64, "velocity": 66, "note_on_time": 22.17, "note_off_time": 22.875}, {"pitch": 62, "velocity": 64, "note_on_time": 22.894, "note_off_time": 23.789}, {"pitch": 60, "velocity": 64, "note_on_time": 23.934, "note_off_time": 24.119}, {"pitch": 60, "velocity": 59, "note_on_time": 24.321, "note_off_time": 25.598}]</notes><guidance name="Guidance Mode">None</guidance><error name="Error value">0.16979110000000014</error></trial></trials></MIDI>