<MIDI midiNo="2023_05_14-13_09_28"><target_notes><notes name="Note List">[{"pitch": 39, "velocity": 100, "note_on_time": 0.005, "note_off_time": 0.717}, {"pitch": 42, "velocity": 100, "note_on_time": 0.717, "note_off_time": 1.434}, {"pitch": 42, "velocity": 100, "note_on_time": 1.434, "note_off_time": 2.151}, {"pitch": 42, "velocity": 100, "note_on_time": 2.151, "note_off_time": 2.867}, {"pitch": 39, "velocity": 100, "note_on_time": 2.867, "note_off_time": 3.581}, {"pitch": 60, "velocity": 100, "note_on_time": 2.866, "note_off_time": 4.301}, {"pitch": 42, "velocity": 100, "note_on_time": 3.582, "note_off_time": 4.301}, {"pitch": 42, "velocity": 100, "note_on_time": 4.301, "note_off_time": 5.017}, {"pitch": 67, "velocity": 100, "note_on_time": 4.301, "note_off_time": 5.733}, {"pitch": 42, "velocity": 100, "note_on_time": 5.017, "note_off_time": 5.734}, {"pitch": 64, "velocity": 100, "note_on_time": 5.733, "note_off_time": 6.451}, {"pitch": 39, "velocity": 100, "note_on_time": 5.734, "note_off_time": 6.451}, {"pitch": 42, "velocity": 100, "note_on_time": 6.452, "note_off_time": 7.165}, {"pitch": 67, "velocity": 100, "note_on_time": 6.451, "note_off_time": 7.882}, {"pitch": 42, "velocity": 100, "note_on_time": 7.166, "note_off_time": 7.882}, {"pitch": 60, "velocity": 100, "note_on_time": 7.882, "note_off_time": 8.6}, {"pitch": 42, "velocity": 100, "note_on_time": 7.882, "note_off_time": 8.6}, {"pitch": 39, "velocity": 100, "note_on_time": 8.6, "note_off_time": 9.312}, {"pitch": 67, "velocity": 100, "note_on_time": 8.6, "note_off_time": 10.03}, {"pitch": 42, "velocity": 100, "note_on_time": 9.313, "note_off_time": 10.03}, {"pitch": 42, "velocity": 100, "note_on_time": 10.03, "note_off_time": 10.742}, {"pitch": 60, "velocity": 100, "note_on_time": 10.03, "note_off_time": 11.458}, {"pitch": 42, "velocity": 100, "note_on_time": 10.742, "note_off_time": 11.458}, {"pitch": 39, "velocity": 100, "note_on_time": 11.458, "note_off_time": 12.178}, {"pitch": 42, "velocity": 100, "note_on_time": 12.178, "note_off_time": 12.892}, {"pitch": 42, "velocity": 100, "note_on_time": 12.892, "note_off_time": 13.607}, {"pitch": 64, "velocity": 100, "note_on_time": 11.458, "note_off_time": 14.323}, {"pitch": 42, "velocity": 100, "note_on_time": 13.607, "note_off_time": 14.323}, {"pitch": 67, "velocity": 100, "note_on_time": 14.323, "note_off_time": 15.039}, {"pitch": 39, "velocity": 100, "note_on_time": 14.324, "note_off_time": 15.04}, {"pitch": 64, "velocity": 100, "note_on_time": 15.039, "note_off_time": 15.759}, {"pitch": 42, "velocity": 100, "note_on_time": 15.04, "note_off_time": 15.759}, {"pitch": 67, "velocity": 100, "note_on_time": 15.759, "note_off_time": 16.474}, {"pitch": 42, "velocity": 100, "note_on_time": 15.759, "note_off_time": 16.474}, {"pitch": 60, "velocity": 100, "note_on_time": 16.474, "note_off_time": 17.189}, {"pitch": 42, "velocity": 100, "note_on_time": 16.474, "note_off_time": 17.189}, {"pitch": 39, "velocity": 100, "note_on_time": 17.189, "note_off_time": 17.907}, {"pitch": 64, "velocity": 100, "note_on_time": 17.189, "note_off_time": 18.624}, {"pitch": 42, "velocity": 100, "note_on_time": 17.907, "note_off_time": 18.624}, {"pitch": 67, "velocity": 100, "note_on_time": 18.624, "note_off_time": 19.342}, {"pitch": 42, "velocity": 100, "note_on_time": 18.624, "note_off_time": 19.342}, {"pitch": 60, "velocity": 100, "note_on_time": 19.342, "note_off_time": 20.056}, {"pitch": 42, "velocity": 100, "note_on_time": 19.343, "note_off_time": 20.056}, {"pitch": 64, "velocity": 100, "note_on_time": 20.056, "note_off_time": 20.77}, {"pitch": 39, "velocity": 100, "note_on_time": 20.057, "note_off_time": 20.77}, {"pitch": 42, "velocity": 100, "note_on_time": 20.77, "note_off_time": 21.487}, {"pitch": 67, "velocity": 100, "note_on_time": 20.77, "note_off_time": 22.202}, {"pitch": 42, "velocity": 100, "note_on_time": 21.487, "note_off_time": 22.202}, {"pitch": 64, "velocity": 100, "note_on_time": 22.202, "note_off_time": 22.917}, {"pitch": 42, "velocity": 100, "note_on_time": 22.203, "note_off_time": 22.918}, {"pitch": 39, "velocity": 100, "note_on_time": 22.918, "note_off_time": 23.635}, {"pitch": 42, "velocity": 100, "note_on_time": 23.635, "note_off_time": 24.351}, {"pitch": 42, "velocity": 100, "note_on_time": 24.351, "note_off_time": 25.069}, {"pitch": 60, "velocity": 100, "note_on_time": 22.917, "note_off_time": 25.786}, {"pitch": 42, "velocity": 100, "note_on_time": 25.069, "note_off_time": 25.786}]</notes><options name="Option List">((4, 4), [0.5, 0.25], 3, 7, &lt;NoteRangePerHand.TWO_NOTES: 3&gt;, &lt;NoteRangePerHand.ONE_NOTE: 2&gt;, False, True, True, None)</options></target_notes><trials><trial trial_no="1" timestamp="2023_05_14-13_09_28"><notes name="Played Notes">[{"pitch": 60, "velocity": 74, "note_on_time": 2.858, "note_off_time": 4.248}, {"pitch": 67, "velocity": 69, "note_on_time": 4.259, "note_off_time": 5.697}, {"pitch": 64, "velocity": 71, "note_on_time": 5.749, "note_off_time": 6.546}, {"pitch": 67, "velocity": 78, "note_on_time": 6.567, "note_off_time": 7.221}, {"pitch": 60, "velocity": 67, "note_on_time": 7.247, "note_off_time": 7.945}, {"pitch": 65, "velocity": 49, "note_on_time": 8.677, "note_off_time": 9.145}, {"pitch": 67, "velocity": 65, "note_on_time": 9.366, "note_off_time": 9.902}, {"pitch": 60, "velocity": 60, "note_on_time": 10.164, "note_off_time": 11.436}, {"pitch": 65, "velocity": 73, "note_on_time": 11.47, "note_off_time": 14.276}, {"pitch": 67, "velocity": 67, "note_on_time": 14.333, "note_off_time": 15.047}, {"pitch": 65, "velocity": 64, "note_on_time": 15.08, "note_off_time": 15.743}, {"pitch": 67, "velocity": 63, "note_on_time": 15.762, "note_off_time": 16.495}, {"pitch": 60, "velocity": 65, "note_on_time": 16.535, "note_off_time": 17.164}, {"pitch": 65, "velocity": 71, "note_on_time": 17.201, "note_off_time": 18.409}, {"pitch": 60, "velocity": 69, "note_on_time": 23.709, "note_off_time": 24.018}]</notes><guidance name="Guidance Mode">None</guidance><error name="Error value">1.335784256140351</error></trial></trials></MIDI>