<MIDI midiNo="2023_05_14-11_15_27"><target_notes><notes name="Note List">[{"pitch": 39, "velocity": 100, "note_on_time": 0.006, "note_off_time": 0.723}, {"pitch": 42, "velocity": 100, "note_on_time": 0.723, "note_off_time": 1.44}, {"pitch": 42, "velocity": 100, "note_on_time": 1.441, "note_off_time": 2.158}, {"pitch": 42, "velocity": 100, "note_on_time": 2.158, "note_off_time": 2.874}, {"pitch": 39, "velocity": 100, "note_on_time": 2.874, "note_off_time": 3.591}, {"pitch": 60, "velocity": 100, "note_on_time": 2.874, "note_off_time": 4.303}, {"pitch": 42, "velocity": 100, "note_on_time": 3.591, "note_off_time": 4.303}, {"pitch": 67, "velocity": 100, "note_on_time": 4.303, "note_off_time": 5.024}, {"pitch": 42, "velocity": 100, "note_on_time": 4.303, "note_off_time": 5.024}, {"pitch": 60, "velocity": 100, "note_on_time": 5.024, "note_off_time": 5.741}, {"pitch": 42, "velocity": 100, "note_on_time": 5.024, "note_off_time": 5.741}, {"pitch": 39, "velocity": 100, "note_on_time": 5.741, "note_off_time": 6.455}, {"pitch": 64, "velocity": 100, "note_on_time": 5.741, "note_off_time": 7.173}, {"pitch": 42, "velocity": 100, "note_on_time": 6.456, "note_off_time": 7.173}, {"pitch": 42, "velocity": 100, "note_on_time": 7.174, "note_off_time": 7.887}, {"pitch": 67, "velocity": 100, "note_on_time": 7.173, "note_off_time": 8.601}, {"pitch": 42, "velocity": 100, "note_on_time": 7.887, "note_off_time": 8.601}, {"pitch": 64, "velocity": 100, "note_on_time": 8.601, "note_off_time": 9.316}, {"pitch": 39, "velocity": 100, "note_on_time": 8.601, "note_off_time": 9.316}, {"pitch": 67, "velocity": 100, "note_on_time": 9.316, "note_off_time": 10.033}, {"pitch": 42, "velocity": 100, "note_on_time": 9.316, "note_off_time": 10.033}, {"pitch": 42, "velocity": 100, "note_on_time": 10.033, "note_off_time": 10.749}, {"pitch": 60, "velocity": 100, "note_on_time": 10.033, "note_off_time": 11.465}, {"pitch": 42, "velocity": 100, "note_on_time": 10.749, "note_off_time": 11.465}, {"pitch": 39, "velocity": 100, "note_on_time": 11.465, "note_off_time": 12.181}, {"pitch": 64, "velocity": 100, "note_on_time": 11.465, "note_off_time": 12.899}, {"pitch": 42, "velocity": 100, "note_on_time": 12.182, "note_off_time": 12.899}, {"pitch": 42, "velocity": 100, "note_on_time": 12.899, "note_off_time": 13.615}, {"pitch": 64, "velocity": 100, "note_on_time": 12.899, "note_off_time": 14.328}, {"pitch": 42, "velocity": 100, "note_on_time": 13.615, "note_off_time": 14.329}, {"pitch": 67, "velocity": 100, "note_on_time": 14.328, "note_off_time": 15.043}, {"pitch": 39, "velocity": 100, "note_on_time": 14.329, "note_off_time": 15.043}, {"pitch": 64, "velocity": 100, "note_on_time": 15.043, "note_off_time": 15.756}, {"pitch": 42, "velocity": 100, "note_on_time": 15.043, "note_off_time": 15.757}, {"pitch": 42, "velocity": 100, "note_on_time": 15.757, "note_off_time": 16.472}, {"pitch": 67, "velocity": 100, "note_on_time": 15.756, "note_off_time": 17.191}, {"pitch": 42, "velocity": 100, "note_on_time": 16.472, "note_off_time": 17.191}, {"pitch": 39, "velocity": 100, "note_on_time": 17.191, "note_off_time": 17.906}, {"pitch": 64, "velocity": 100, "note_on_time": 17.191, "note_off_time": 18.62}, {"pitch": 42, "velocity": 100, "note_on_time": 17.906, "note_off_time": 18.62}, {"pitch": 42, "velocity": 100, "note_on_time": 18.621, "note_off_time": 19.335}, {"pitch": 60, "velocity": 100, "note_on_time": 18.62, "note_off_time": 20.055}, {"pitch": 42, "velocity": 100, "note_on_time": 19.335, "note_off_time": 20.056}, {"pitch": 67, "velocity": 100, "note_on_time": 20.055, "note_off_time": 20.769}, {"pitch": 39, "velocity": 100, "note_on_time": 20.056, "note_off_time": 20.77}, {"pitch": 60, "velocity": 100, "note_on_time": 20.769, "note_off_time": 21.486}, {"pitch": 42, "velocity": 100, "note_on_time": 20.77, "note_off_time": 21.486}, {"pitch": 42, "velocity": 100, "note_on_time": 21.486, "note_off_time": 22.202}, {"pitch": 67, "velocity": 100, "note_on_time": 21.486, "note_off_time": 22.92}, {"pitch": 42, "velocity": 100, "note_on_time": 22.203, "note_off_time": 22.92}, {"pitch": 39, "velocity": 100, "note_on_time": 22.921, "note_off_time": 23.633}, {"pitch": 42, "velocity": 100, "note_on_time": 23.633, "note_off_time": 24.349}, {"pitch": 42, "velocity": 100, "note_on_time": 24.349, "note_off_time": 25.063}, {"pitch": 60, "velocity": 100, "note_on_time": 22.92, "note_off_time": 25.783}, {"pitch": 42, "velocity": 100, "note_on_time": 25.064, "note_off_time": 25.784}]</notes><options name="Option List">((4, 4), [0.5, 0.25], 3, 7, &lt;NoteRangePerHand.TWO_NOTES: 3&gt;, &lt;NoteRangePerHand.ONE_NOTE: 2&gt;, False, True, True, None)</options></target_notes><trials><trial trial_no="1" timestamp="2023_05_14-11_15_27"><notes name="Played Notes">[{"pitch": 60, "velocity": 74, "note_on_time": 2.881, "note_off_time": 3.969}, {"pitch": 67, "velocity": 68, "note_on_time": 4.291, "note_off_time": 5.047}, {"pitch": 60, "velocity": 50, "note_on_time": 4.976, "note_off_time": 5.69}, {"pitch": 64, "velocity": 75, "note_on_time": 5.765, "note_off_time": 7.114}, {"pitch": 67, "velocity": 71, "note_on_time": 7.16, "note_off_time": 8.312}, {"pitch": 64, "velocity": 36, "note_on_time": 8.655, "note_off_time": 9.446}, {"pitch": 67, "velocity": 75, "note_on_time": 9.458, "note_off_time": 10.065}, {"pitch": 60, "velocity": 76, "note_on_time": 10.081, "note_off_time": 11.237}, {"pitch": 64, "velocity": 77, "note_on_time": 11.398, "note_off_time": 12.706}, {"pitch": 64, "velocity": 73, "note_on_time": 12.883, "note_off_time": 13.998}, {"pitch": 67, "velocity": 72, "note_on_time": 14.382, "note_off_time": 15.117}, {"pitch": 64, "velocity": 79, "note_on_time": 15.095, "note_off_time": 15.765}, {"pitch": 67, "velocity": 67, "note_on_time": 15.793, "note_off_time": 17.08}, {"pitch": 64, "velocity": 54, "note_on_time": 17.117, "note_off_time": 18.575}, {"pitch": 60, "velocity": 78, "note_on_time": 18.634, "note_off_time": 19.95}, {"pitch": 67, "velocity": 60, "note_on_time": 20.141, "note_off_time": 21.054}, {"pitch": 60, "velocity": 53, "note_on_time": 20.919, "note_off_time": 21.528}, {"pitch": 64, "velocity": 41, "note_on_time": 21.639, "note_off_time": 21.685}, {"pitch": 67, "velocity": 70, "note_on_time": 21.916, "note_off_time": 22.694}, {"pitch": 60, "velocity": 81, "note_on_time": 22.911, "note_off_time": 25.559}]</notes><guidance name="Guidance Mode">None</guidance><error name="Error value">0.2641277421052628</error></trial></trials></MIDI>