<MIDI midiNo="2023_05_14-12_52_23"><target_notes><notes name="Note List">[{"pitch": 39, "velocity": 100, "note_on_time": 0.006, "note_off_time": 0.719}, {"pitch": 42, "velocity": 100, "note_on_time": 0.719, "note_off_time": 1.434}, {"pitch": 42, "velocity": 100, "note_on_time": 1.434, "note_off_time": 2.15}, {"pitch": 39, "velocity": 100, "note_on_time": 2.15, "note_off_time": 2.864}, {"pitch": 42, "velocity": 100, "note_on_time": 2.864, "note_off_time": 3.575}, {"pitch": 67, "velocity": 100, "note_on_time": 3.575, "note_off_time": 4.289}, {"pitch": 42, "velocity": 100, "note_on_time": 3.575, "note_off_time": 4.289}, {"pitch": 72, "velocity": 100, "note_on_time": 4.289, "note_off_time": 5.002}, {"pitch": 39, "velocity": 100, "note_on_time": 4.29, "note_off_time": 5.002}, {"pitch": 72, "velocity": 100, "note_on_time": 5.002, "note_off_time": 5.717}, {"pitch": 42, "velocity": 100, "note_on_time": 5.002, "note_off_time": 5.718}, {"pitch": 74, "velocity": 100, "note_on_time": 5.717, "note_off_time": 6.436}, {"pitch": 42, "velocity": 100, "note_on_time": 5.718, "note_off_time": 6.436}, {"pitch": 39, "velocity": 100, "note_on_time": 6.437, "note_off_time": 7.152}, {"pitch": 76, "velocity": 100, "note_on_time": 6.436, "note_off_time": 7.867}, {"pitch": 42, "velocity": 100, "note_on_time": 7.152, "note_off_time": 7.867}, {"pitch": 67, "velocity": 100, "note_on_time": 7.867, "note_off_time": 8.584}, {"pitch": 42, "velocity": 100, "note_on_time": 7.868, "note_off_time": 8.584}, {"pitch": 39, "velocity": 100, "note_on_time": 8.584, "note_off_time": 9.3}, {"pitch": 72, "velocity": 100, "note_on_time": 8.584, "note_off_time": 10.013}, {"pitch": 42, "velocity": 100, "note_on_time": 9.3, "note_off_time": 10.014}, {"pitch": 76, "velocity": 100, "note_on_time": 10.013, "note_off_time": 10.732}, {"pitch": 42, "velocity": 100, "note_on_time": 10.014, "note_off_time": 10.732}, {"pitch": 39, "velocity": 100, "note_on_time": 10.732, "note_off_time": 11.449}, {"pitch": 74, "velocity": 100, "note_on_time": 10.732, "note_off_time": 12.161}, {"pitch": 42, "velocity": 100, "note_on_time": 11.449, "note_off_time": 12.161}, {"pitch": 67, "velocity": 100, "note_on_time": 12.161, "note_off_time": 12.876}, {"pitch": 42, "velocity": 100, "note_on_time": 12.162, "note_off_time": 12.876}, {"pitch": 39, "velocity": 100, "note_on_time": 12.877, "note_off_time": 13.589}, {"pitch": 74, "velocity": 100, "note_on_time": 12.876, "note_off_time": 14.306}, {"pitch": 42, "velocity": 100, "note_on_time": 13.59, "note_off_time": 14.307}, {"pitch": 76, "velocity": 100, "note_on_time": 14.306, "note_off_time": 15.02}, {"pitch": 42, "velocity": 100, "note_on_time": 14.307, "note_off_time": 15.02}, {"pitch": 77, "velocity": 100, "note_on_time": 15.02, "note_off_time": 15.738}, {"pitch": 39, "velocity": 100, "note_on_time": 15.021, "note_off_time": 15.738}, {"pitch": 74, "velocity": 100, "note_on_time": 15.738, "note_off_time": 16.452}, {"pitch": 42, "velocity": 100, "note_on_time": 15.739, "note_off_time": 16.452}, {"pitch": 71, "velocity": 100, "note_on_time": 16.452, "note_off_time": 17.163}, {"pitch": 42, "velocity": 100, "note_on_time": 16.453, "note_off_time": 17.164}, {"pitch": 67, "velocity": 100, "note_on_time": 17.163, "note_off_time": 17.875}, {"pitch": 39, "velocity": 100, "note_on_time": 17.164, "note_off_time": 17.875}, {"pitch": 69, "velocity": 100, "note_on_time": 17.875, "note_off_time": 18.593}, {"pitch": 42, "velocity": 100, "note_on_time": 17.876, "note_off_time": 18.593}, {"pitch": 71, "velocity": 100, "note_on_time": 18.593, "note_off_time": 19.307}, {"pitch": 42, "velocity": 100, "note_on_time": 18.593, "note_off_time": 19.307}, {"pitch": 39, "velocity": 100, "note_on_time": 19.307, "note_off_time": 20.022}, {"pitch": 72, "velocity": 100, "note_on_time": 19.307, "note_off_time": 20.738}, {"pitch": 42, "velocity": 100, "note_on_time": 20.023, "note_off_time": 20.738}, {"pitch": 67, "velocity": 100, "note_on_time": 20.738, "note_off_time": 21.451}, {"pitch": 42, "velocity": 100, "note_on_time": 20.739, "note_off_time": 21.451}, {"pitch": 39, "velocity": 100, "note_on_time": 21.452, "note_off_time": 22.165}, {"pitch": 72, "velocity": 100, "note_on_time": 21.451, "note_off_time": 22.881}, {"pitch": 42, "velocity": 100, "note_on_time": 22.165, "note_off_time": 22.881}, {"pitch": 74, "velocity": 100, "note_on_time": 22.881, "note_off_time": 23.597}, {"pitch": 42, "velocity": 100, "note_on_time": 22.882, "note_off_time": 23.598}, {"pitch": 76, "velocity": 100, "note_on_time": 23.597, "note_off_time": 24.312}, {"pitch": 39, "velocity": 100, "note_on_time": 23.598, "note_off_time": 24.312}, {"pitch": 76, "velocity": 100, "note_on_time": 24.312, "note_off_time": 25.027}, {"pitch": 42, "velocity": 100, "note_on_time": 24.313, "note_off_time": 25.027}, {"pitch": 67, "velocity": 100, "note_on_time": 25.027, "note_off_time": 25.738}, {"pitch": 42, "velocity": 100, "note_on_time": 25.027, "note_off_time": 25.738}, {"pitch": 39, "velocity": 100, "note_on_time": 25.739, "note_off_time": 26.455}, {"pitch": 72, "velocity": 100, "note_on_time": 25.738, "note_off_time": 27.17}, {"pitch": 42, "velocity": 100, "note_on_time": 26.456, "note_off_time": 27.17}, {"pitch": 76, "velocity": 100, "note_on_time": 27.17, "note_off_time": 27.881}, {"pitch": 42, "velocity": 100, "note_on_time": 27.17, "note_off_time": 27.881}, {"pitch": 39, "velocity": 100, "note_on_time": 27.881, "note_off_time": 28.598}, {"pitch": 42, "velocity": 100, "note_on_time": 28.598, "note_off_time": 29.314}, {"pitch": 74, "velocity": 100, "note_on_time": 27.881, "note_off_time": 30.028}, {"pitch": 42, "velocity": 100, "note_on_time": 29.314, "note_off_time": 30.029}, {"pitch": 39, "velocity": 100, "note_on_time": 30.029, "note_off_time": 30.743}, {"pitch": 74, "velocity": 100, "note_on_time": 30.028, "note_off_time": 31.459}, {"pitch": 42, "velocity": 100, "note_on_time": 30.744, "note_off_time": 31.459}, {"pitch": 76, "velocity": 100, "note_on_time": 31.459, "note_off_time": 32.175}, {"pitch": 42, "velocity": 100, "note_on_time": 31.459, "note_off_time": 32.175}, {"pitch": 77, "velocity": 100, "note_on_time": 32.175, "note_off_time": 32.89}, {"pitch": 39, "velocity": 100, "note_on_time": 32.176, "note_off_time": 32.891}, {"pitch": 74, "velocity": 100, "note_on_time": 32.89, "note_off_time": 33.601}, {"pitch": 42, "velocity": 100, "note_on_time": 32.891, "note_off_time": 33.602}, {"pitch": 71, "velocity": 100, "note_on_time": 33.601, "note_off_time": 34.317}, {"pitch": 42, "velocity": 100, "note_on_time": 33.602, "note_off_time": 34.317}, {"pitch": 67, "velocity": 100, "note_on_time": 34.317, "note_off_time": 35.031}, {"pitch": 39, "velocity": 100, "note_on_time": 34.317, "note_off_time": 35.031}, {"pitch": 69, "velocity": 100, "note_on_time": 35.031, "note_off_time": 35.748}, {"pitch": 42, "velocity": 100, "note_on_time": 35.032, "note_off_time": 35.749}, {"pitch": 71, "velocity": 100, "note_on_time": 35.748, "note_off_time": 36.465}, {"pitch": 42, "velocity": 100, "note_on_time": 35.749, "note_off_time": 36.465}, {"pitch": 39, "velocity": 100, "note_on_time": 36.466, "note_off_time": 37.182}, {"pitch": 72, "velocity": 100, "note_on_time": 36.465, "note_off_time": 37.897}, {"pitch": 42, "velocity": 100, "note_on_time": 37.182, "note_off_time": 37.898}, {"pitch": 42, "velocity": 100, "note_on_time": 37.898, "note_off_time": 38.61}]</notes><options name="Option List">((4, 4), [0.5, 0.25], 3, 7, &lt;NoteRangePerHand.TWO_NOTES: 3&gt;, &lt;NoteRangePerHand.ONE_NOTE: 2&gt;, False, True, True, None)</options></target_notes><trials><trial trial_no="1" timestamp="2023_05_14-12_52_23"><notes name="Played Notes">[{"pitch": 67, "velocity": 69, "note_on_time": 3.529, "note_off_time": 4.278}, {"pitch": 72, "velocity": 72, "note_on_time": 4.303, "note_off_time": 4.671}, {"pitch": 72, "velocity": 78, "note_on_time": 5.04, "note_off_time": 5.875}, {"pitch": 74, "velocity": 74, "note_on_time": 5.718, "note_off_time": 6.382}, {"pitch": 76, "velocity": 80, "note_on_time": 6.411, "note_off_time": 7.857}, {"pitch": 67, "velocity": 64, "note_on_time": 7.867, "note_off_time": 8.689}, {"pitch": 72, "velocity": 65, "note_on_time": 9.223, "note_off_time": 9.992}, {"pitch": 74, "velocity": 66, "note_on_time": 10.659, "note_off_time": 11.088}, {"pitch": 76, "velocity": 74, "note_on_time": 11.344, "note_off_time": 11.755}, {"pitch": 72, "velocity": 22, "note_on_time": 12.685, "note_off_time": 12.908}, {"pitch": 74, "velocity": 43, "note_on_time": 12.994, "note_off_time": 13.914}, {"pitch": 67, "velocity": 56, "note_on_time": 14.197, "note_off_time": 15.034}, {"pitch": 74, "velocity": 70, "note_on_time": 15.675, "note_off_time": 16.305}, {"pitch": 76, "velocity": 76, "note_on_time": 16.317, "note_off_time": 16.702}, {"pitch": 77, "velocity": 72, "note_on_time": 17.047, "note_off_time": 17.763}, {"pitch": 76, "velocity": 64, "note_on_time": 17.798, "note_off_time": 18.358}, {"pitch": 77, "velocity": 72, "note_on_time": 18.576, "note_off_time": 19.228}, {"pitch": 74, "velocity": 62, "note_on_time": 19.249, "note_off_time": 19.444}, {"pitch": 67, "velocity": 37, "note_on_time": 21.376, "note_off_time": 21.926}, {"pitch": 72, "velocity": 66, "note_on_time": 24.316, "note_off_time": 25.672}, {"pitch": 67, "velocity": 73, "note_on_time": 25.688, "note_off_time": 26.984}, {"pitch": 72, "velocity": 73, "note_on_time": 27.095, "note_off_time": 27.471}, {"pitch": 74, "velocity": 77, "note_on_time": 28.262, "note_off_time": 28.663}, {"pitch": 76, "velocity": 73, "note_on_time": 28.705, "note_off_time": 29.045}, {"pitch": 76, "velocity": 30, "note_on_time": 29.224, "note_off_time": 29.847}, {"pitch": 67, "velocity": 56, "note_on_time": 30.642, "note_off_time": 30.995}, {"pitch": 72, "velocity": 31, "note_on_time": 31.767, "note_off_time": 31.922}, {"pitch": 74, "velocity": 35, "note_on_time": 31.77, "note_off_time": 31.97}, {"pitch": 77, "velocity": 42, "note_on_time": 32.689, "note_off_time": 32.998}, {"pitch": 74, "velocity": 60, "note_on_time": 34.17, "note_off_time": 35.789}, {"pitch": 74, "velocity": 60, "note_on_time": 36.3, "note_off_time": 36.782}, {"pitch": 76, "velocity": 64, "note_on_time": 36.899, "note_off_time": 37.436}, {"pitch": 77, "velocity": 56, "note_on_time": 37.91, "note_off_time": 38.513}]</notes><guidance name="Guidance Mode">None</guidance><error name="Error value">1.2742576639510328</error></trial></trials></MIDI>