<MIDI midiNo="2023_05_14-13_02_41"><target_notes><notes name="Note List">[{"pitch": 39, "velocity": 100, "note_on_time": 0.007, "note_off_time": 0.719}, {"pitch": 42, "velocity": 100, "note_on_time": 0.719, "note_off_time": 1.434}, {"pitch": 42, "velocity": 100, "note_on_time": 1.435, "note_off_time": 2.15}, {"pitch": 39, "velocity": 100, "note_on_time": 2.15, "note_off_time": 2.867}, {"pitch": 42, "velocity": 100, "note_on_time": 2.867, "note_off_time": 3.584}, {"pitch": 67, "velocity": 100, "note_on_time": 3.583, "note_off_time": 4.299}, {"pitch": 42, "velocity": 100, "note_on_time": 3.584, "note_off_time": 4.3}, {"pitch": 72, "velocity": 100, "note_on_time": 4.299, "note_off_time": 5.016}, {"pitch": 39, "velocity": 100, "note_on_time": 4.3, "note_off_time": 5.016}, {"pitch": 72, "velocity": 100, "note_on_time": 5.016, "note_off_time": 5.732}, {"pitch": 42, "velocity": 100, "note_on_time": 5.017, "note_off_time": 5.733}, {"pitch": 74, "velocity": 100, "note_on_time": 5.732, "note_off_time": 6.447}, {"pitch": 42, "velocity": 100, "note_on_time": 5.733, "note_off_time": 6.448}, {"pitch": 39, "velocity": 100, "note_on_time": 6.448, "note_off_time": 7.164}, {"pitch": 76, "velocity": 100, "note_on_time": 6.447, "note_off_time": 7.881}, {"pitch": 42, "velocity": 100, "note_on_time": 7.164, "note_off_time": 7.881}, {"pitch": 67, "velocity": 100, "note_on_time": 7.881, "note_off_time": 8.597}, {"pitch": 42, "velocity": 100, "note_on_time": 7.881, "note_off_time": 8.597}, {"pitch": 39, "velocity": 100, "note_on_time": 8.597, "note_off_time": 9.317}, {"pitch": 72, "velocity": 100, "note_on_time": 8.597, "note_off_time": 10.032}, {"pitch": 42, "velocity": 100, "note_on_time": 9.318, "note_off_time": 10.033}, {"pitch": 76, "velocity": 100, "note_on_time": 10.032, "note_off_time": 10.746}, {"pitch": 42, "velocity": 100, "note_on_time": 10.033, "note_off_time": 10.747}, {"pitch": 39, "velocity": 100, "note_on_time": 10.747, "note_off_time": 11.461}, {"pitch": 74, "velocity": 100, "note_on_time": 10.746, "note_off_time": 12.176}, {"pitch": 42, "velocity": 100, "note_on_time": 11.461, "note_off_time": 12.177}, {"pitch": 67, "velocity": 100, "note_on_time": 12.176, "note_off_time": 12.891}, {"pitch": 42, "velocity": 100, "note_on_time": 12.177, "note_off_time": 12.892}, {"pitch": 39, "velocity": 100, "note_on_time": 12.892, "note_off_time": 13.609}, {"pitch": 74, "velocity": 100, "note_on_time": 12.891, "note_off_time": 14.325}, {"pitch": 42, "velocity": 100, "note_on_time": 13.61, "note_off_time": 14.325}, {"pitch": 76, "velocity": 100, "note_on_time": 14.325, "note_off_time": 15.042}, {"pitch": 42, "velocity": 100, "note_on_time": 14.325, "note_off_time": 15.042}, {"pitch": 77, "velocity": 100, "note_on_time": 15.042, "note_off_time": 15.758}, {"pitch": 39, "velocity": 100, "note_on_time": 15.043, "note_off_time": 15.759}, {"pitch": 74, "velocity": 100, "note_on_time": 15.758, "note_off_time": 16.476}, {"pitch": 42, "velocity": 100, "note_on_time": 15.759, "note_off_time": 16.476}, {"pitch": 71, "velocity": 100, "note_on_time": 16.476, "note_off_time": 17.189}, {"pitch": 42, "velocity": 100, "note_on_time": 16.477, "note_off_time": 17.19}, {"pitch": 67, "velocity": 100, "note_on_time": 17.189, "note_off_time": 17.904}, {"pitch": 39, "velocity": 100, "note_on_time": 17.19, "note_off_time": 17.905}, {"pitch": 69, "velocity": 100, "note_on_time": 17.904, "note_off_time": 18.618}, {"pitch": 42, "velocity": 100, "note_on_time": 17.905, "note_off_time": 18.618}, {"pitch": 71, "velocity": 100, "note_on_time": 18.618, "note_off_time": 19.335}, {"pitch": 42, "velocity": 100, "note_on_time": 18.618, "note_off_time": 19.336}, {"pitch": 39, "velocity": 100, "note_on_time": 19.336, "note_off_time": 20.05}, {"pitch": 72, "velocity": 100, "note_on_time": 19.335, "note_off_time": 20.766}, {"pitch": 42, "velocity": 100, "note_on_time": 20.05, "note_off_time": 20.766}, {"pitch": 67, "velocity": 100, "note_on_time": 20.766, "note_off_time": 21.485}, {"pitch": 42, "velocity": 100, "note_on_time": 20.767, "note_off_time": 21.485}, {"pitch": 39, "velocity": 100, "note_on_time": 21.485, "note_off_time": 22.198}, {"pitch": 72, "velocity": 100, "note_on_time": 21.485, "note_off_time": 22.917}, {"pitch": 42, "velocity": 100, "note_on_time": 22.198, "note_off_time": 22.917}, {"pitch": 74, "velocity": 100, "note_on_time": 22.917, "note_off_time": 23.635}, {"pitch": 42, "velocity": 100, "note_on_time": 22.917, "note_off_time": 23.635}, {"pitch": 76, "velocity": 100, "note_on_time": 23.635, "note_off_time": 24.35}, {"pitch": 39, "velocity": 100, "note_on_time": 23.635, "note_off_time": 24.35}, {"pitch": 76, "velocity": 100, "note_on_time": 24.35, "note_off_time": 25.064}, {"pitch": 42, "velocity": 100, "note_on_time": 24.351, "note_off_time": 25.064}, {"pitch": 67, "velocity": 100, "note_on_time": 25.064, "note_off_time": 25.783}, {"pitch": 42, "velocity": 100, "note_on_time": 25.064, "note_off_time": 25.783}, {"pitch": 39, "velocity": 100, "note_on_time": 25.783, "note_off_time": 26.499}, {"pitch": 72, "velocity": 100, "note_on_time": 25.783, "note_off_time": 27.212}, {"pitch": 42, "velocity": 100, "note_on_time": 26.499, "note_off_time": 27.213}, {"pitch": 76, "velocity": 100, "note_on_time": 27.212, "note_off_time": 27.929}, {"pitch": 42, "velocity": 100, "note_on_time": 27.213, "note_off_time": 27.929}, {"pitch": 39, "velocity": 100, "note_on_time": 27.929, "note_off_time": 28.646}, {"pitch": 42, "velocity": 100, "note_on_time": 28.646, "note_off_time": 29.36}, {"pitch": 74, "velocity": 100, "note_on_time": 27.929, "note_off_time": 30.074}, {"pitch": 42, "velocity": 100, "note_on_time": 29.36, "note_off_time": 30.074}, {"pitch": 39, "velocity": 100, "note_on_time": 30.074, "note_off_time": 30.789}, {"pitch": 74, "velocity": 100, "note_on_time": 30.074, "note_off_time": 31.504}, {"pitch": 42, "velocity": 100, "note_on_time": 30.79, "note_off_time": 31.504}, {"pitch": 76, "velocity": 100, "note_on_time": 31.504, "note_off_time": 32.222}, {"pitch": 42, "velocity": 100, "note_on_time": 31.505, "note_off_time": 32.222}, {"pitch": 77, "velocity": 100, "note_on_time": 32.222, "note_off_time": 32.937}, {"pitch": 39, "velocity": 100, "note_on_time": 32.223, "note_off_time": 32.937}, {"pitch": 74, "velocity": 100, "note_on_time": 32.937, "note_off_time": 33.651}, {"pitch": 42, "velocity": 100, "note_on_time": 32.937, "note_off_time": 33.652}, {"pitch": 71, "velocity": 100, "note_on_time": 33.651, "note_off_time": 34.369}, {"pitch": 42, "velocity": 100, "note_on_time": 33.652, "note_off_time": 34.369}, {"pitch": 67, "velocity": 100, "note_on_time": 34.369, "note_off_time": 35.082}, {"pitch": 39, "velocity": 100, "note_on_time": 34.369, "note_off_time": 35.082}, {"pitch": 69, "velocity": 100, "note_on_time": 35.082, "note_off_time": 35.799}, {"pitch": 42, "velocity": 100, "note_on_time": 35.082, "note_off_time": 35.8}, {"pitch": 71, "velocity": 100, "note_on_time": 35.799, "note_off_time": 36.513}, {"pitch": 42, "velocity": 100, "note_on_time": 35.8, "note_off_time": 36.514}, {"pitch": 39, "velocity": 100, "note_on_time": 36.514, "note_off_time": 37.234}, {"pitch": 72, "velocity": 100, "note_on_time": 36.513, "note_off_time": 37.952}, {"pitch": 42, "velocity": 100, "note_on_time": 37.234, "note_off_time": 37.952}, {"pitch": 42, "velocity": 100, "note_on_time": 37.953, "note_off_time": 38.667}]</notes><options name="Option List">((4, 4), [0.5, 0.25], 3, 7, &lt;NoteRangePerHand.TWO_NOTES: 3&gt;, &lt;NoteRangePerHand.ONE_NOTE: 2&gt;, False, True, True, None)</options></target_notes><trials><trial trial_no="1" timestamp="2023_05_14-13_02_41"><notes name="Played Notes">[{"pitch": 67, "velocity": 74, "note_on_time": 3.516, "note_off_time": 4.131}, {"pitch": 72, "velocity": 87, "note_on_time": 4.231, "note_off_time": 4.74}, {"pitch": 72, "velocity": 80, "note_on_time": 4.95, "note_off_time": 5.592}, {"pitch": 74, "velocity": 66, "note_on_time": 5.639, "note_off_time": 6.388}, {"pitch": 76, "velocity": 79, "note_on_time": 6.421, "note_off_time": 7.838}, {"pitch": 67, "velocity": 58, "note_on_time": 7.911, "note_off_time": 8.556}, {"pitch": 72, "velocity": 73, "note_on_time": 9.259, "note_off_time": 10.198}, {"pitch": 76, "velocity": 72, "note_on_time": 10.663, "note_off_time": 11.371}, {"pitch": 74, "velocity": 67, "note_on_time": 11.392, "note_off_time": 12.786}, {"pitch": 67, "velocity": 68, "note_on_time": 12.825, "note_off_time": 13.573}, {"pitch": 74, "velocity": 65, "note_on_time": 13.592, "note_off_time": 14.276}, {"pitch": 76, "velocity": 69, "note_on_time": 14.316, "note_off_time": 15.05}, {"pitch": 77, "velocity": 49, "note_on_time": 15.039, "note_off_time": 15.892}, {"pitch": 74, "velocity": 65, "note_on_time": 15.822, "note_off_time": 16.496}, {"pitch": 71, "velocity": 72, "note_on_time": 16.495, "note_off_time": 16.871}, {"pitch": 67, "velocity": 65, "note_on_time": 17.214, "note_off_time": 17.962}, {"pitch": 71, "velocity": 38, "note_on_time": 17.999, "note_off_time": 18.216}, {"pitch": 69, "velocity": 46, "note_on_time": 18.248, "note_off_time": 18.551}, {"pitch": 71, "velocity": 68, "note_on_time": 18.563, "note_off_time": 19.259}, {"pitch": 72, "velocity": 64, "note_on_time": 19.304, "note_off_time": 20.651}, {"pitch": 67, "velocity": 58, "note_on_time": 20.753, "note_off_time": 21.964}, {"pitch": 74, "velocity": 47, "note_on_time": 22.201, "note_off_time": 22.405}, {"pitch": 72, "velocity": 53, "note_on_time": 22.207, "note_off_time": 22.648}, {"pitch": 74, "velocity": 50, "note_on_time": 23.67, "note_off_time": 23.833}, {"pitch": 76, "velocity": 55, "note_on_time": 24.357, "note_off_time": 24.818}, {"pitch": 76, "velocity": 59, "note_on_time": 25.049, "note_off_time": 25.625}, {"pitch": 69, "velocity": 58, "note_on_time": 25.799, "note_off_time": 26.133}, {"pitch": 67, "velocity": 69, "note_on_time": 26.29, "note_off_time": 26.994}, {"pitch": 72, "velocity": 69, "note_on_time": 27.17, "note_off_time": 28.233}, {"pitch": 77, "velocity": 51, "note_on_time": 28.677, "note_off_time": 28.967}, {"pitch": 76, "velocity": 71, "note_on_time": 29.049, "note_off_time": 29.395}, {"pitch": 74, "velocity": 77, "note_on_time": 29.373, "note_off_time": 30.324}, {"pitch": 74, "velocity": 78, "note_on_time": 30.791, "note_off_time": 31.913}, {"pitch": 76, "velocity": 63, "note_on_time": 32.161, "note_off_time": 32.806}, {"pitch": 77, "velocity": 79, "note_on_time": 32.893, "note_off_time": 33.784}, {"pitch": 74, "velocity": 88, "note_on_time": 34.003, "note_off_time": 34.336}, {"pitch": 71, "velocity": 72, "note_on_time": 34.329, "note_off_time": 34.703}, {"pitch": 67, "velocity": 64, "note_on_time": 34.988, "note_off_time": 35.715}, {"pitch": 69, "velocity": 68, "note_on_time": 35.727, "note_off_time": 36.487}, {"pitch": 71, "velocity": 68, "note_on_time": 36.479, "note_off_time": 37.173}]</notes><guidance name="Guidance Mode">None</guidance><error name="Error value">1.6756804504504486</error></trial></trials></MIDI>