<MIDI midiNo="2023_05_14-12_58_10"><target_notes><notes name="Note List">[{"pitch": 39, "velocity": 100, "note_on_time": 0.007, "note_off_time": 0.717}, {"pitch": 42, "velocity": 100, "note_on_time": 0.717, "note_off_time": 1.432}, {"pitch": 42, "velocity": 100, "note_on_time": 1.432, "note_off_time": 2.147}, {"pitch": 39, "velocity": 100, "note_on_time": 2.147, "note_off_time": 2.859}, {"pitch": 42, "velocity": 100, "note_on_time": 2.86, "note_off_time": 3.575}, {"pitch": 67, "velocity": 100, "note_on_time": 3.575, "note_off_time": 4.293}, {"pitch": 42, "velocity": 100, "note_on_time": 3.575, "note_off_time": 4.293}, {"pitch": 72, "velocity": 100, "note_on_time": 4.293, "note_off_time": 5.009}, {"pitch": 39, "velocity": 100, "note_on_time": 4.294, "note_off_time": 5.01}, {"pitch": 72, "velocity": 100, "note_on_time": 5.009, "note_off_time": 5.725}, {"pitch": 42, "velocity": 100, "note_on_time": 5.01, "note_off_time": 5.725}, {"pitch": 74, "velocity": 100, "note_on_time": 5.725, "note_off_time": 6.441}, {"pitch": 42, "velocity": 100, "note_on_time": 5.725, "note_off_time": 6.441}, {"pitch": 39, "velocity": 100, "note_on_time": 6.441, "note_off_time": 7.157}, {"pitch": 76, "velocity": 100, "note_on_time": 6.441, "note_off_time": 7.872}, {"pitch": 42, "velocity": 100, "note_on_time": 7.158, "note_off_time": 7.872}, {"pitch": 67, "velocity": 100, "note_on_time": 7.872, "note_off_time": 8.584}, {"pitch": 42, "velocity": 100, "note_on_time": 7.872, "note_off_time": 8.584}, {"pitch": 39, "velocity": 100, "note_on_time": 8.585, "note_off_time": 9.298}, {"pitch": 72, "velocity": 100, "note_on_time": 8.584, "note_off_time": 10.014}, {"pitch": 42, "velocity": 100, "note_on_time": 9.298, "note_off_time": 10.014}, {"pitch": 76, "velocity": 100, "note_on_time": 10.014, "note_off_time": 10.732}, {"pitch": 42, "velocity": 100, "note_on_time": 10.015, "note_off_time": 10.733}, {"pitch": 39, "velocity": 100, "note_on_time": 10.733, "note_off_time": 11.446}, {"pitch": 74, "velocity": 100, "note_on_time": 10.732, "note_off_time": 12.162}, {"pitch": 42, "velocity": 100, "note_on_time": 11.446, "note_off_time": 12.163}, {"pitch": 67, "velocity": 100, "note_on_time": 12.162, "note_off_time": 12.878}, {"pitch": 42, "velocity": 100, "note_on_time": 12.163, "note_off_time": 12.878}, {"pitch": 39, "velocity": 100, "note_on_time": 12.878, "note_off_time": 13.596}, {"pitch": 74, "velocity": 100, "note_on_time": 12.878, "note_off_time": 14.31}, {"pitch": 42, "velocity": 100, "note_on_time": 13.597, "note_off_time": 14.31}, {"pitch": 76, "velocity": 100, "note_on_time": 14.31, "note_off_time": 15.025}, {"pitch": 42, "velocity": 100, "note_on_time": 14.311, "note_off_time": 15.026}, {"pitch": 77, "velocity": 100, "note_on_time": 15.025, "note_off_time": 15.74}, {"pitch": 39, "velocity": 100, "note_on_time": 15.026, "note_off_time": 15.74}, {"pitch": 74, "velocity": 100, "note_on_time": 15.74, "note_off_time": 16.454}, {"pitch": 42, "velocity": 100, "note_on_time": 15.74, "note_off_time": 16.454}, {"pitch": 71, "velocity": 100, "note_on_time": 16.454, "note_off_time": 17.171}, {"pitch": 42, "velocity": 100, "note_on_time": 16.455, "note_off_time": 17.171}, {"pitch": 67, "velocity": 100, "note_on_time": 17.171, "note_off_time": 17.883}, {"pitch": 39, "velocity": 100, "note_on_time": 17.172, "note_off_time": 17.883}, {"pitch": 69, "velocity": 100, "note_on_time": 17.883, "note_off_time": 18.595}, {"pitch": 42, "velocity": 100, "note_on_time": 17.883, "note_off_time": 18.595}, {"pitch": 71, "velocity": 100, "note_on_time": 18.595, "note_off_time": 19.309}, {"pitch": 42, "velocity": 100, "note_on_time": 18.595, "note_off_time": 19.309}, {"pitch": 39, "velocity": 100, "note_on_time": 19.309, "note_off_time": 20.028}, {"pitch": 72, "velocity": 100, "note_on_time": 19.309, "note_off_time": 20.743}, {"pitch": 42, "velocity": 100, "note_on_time": 20.028, "note_off_time": 20.743}, {"pitch": 67, "velocity": 100, "note_on_time": 20.743, "note_off_time": 21.461}, {"pitch": 42, "velocity": 100, "note_on_time": 20.744, "note_off_time": 21.461}, {"pitch": 39, "velocity": 100, "note_on_time": 21.462, "note_off_time": 22.176}, {"pitch": 72, "velocity": 100, "note_on_time": 21.461, "note_off_time": 22.888}, {"pitch": 42, "velocity": 100, "note_on_time": 22.177, "note_off_time": 22.888}, {"pitch": 74, "velocity": 100, "note_on_time": 22.888, "note_off_time": 23.604}, {"pitch": 42, "velocity": 100, "note_on_time": 22.888, "note_off_time": 23.604}, {"pitch": 76, "velocity": 100, "note_on_time": 23.604, "note_off_time": 24.32}, {"pitch": 39, "velocity": 100, "note_on_time": 23.604, "note_off_time": 24.321}, {"pitch": 76, "velocity": 100, "note_on_time": 24.32, "note_off_time": 25.041}, {"pitch": 42, "velocity": 100, "note_on_time": 24.321, "note_off_time": 25.041}, {"pitch": 67, "velocity": 100, "note_on_time": 25.041, "note_off_time": 25.754}, {"pitch": 42, "velocity": 100, "note_on_time": 25.042, "note_off_time": 25.754}, {"pitch": 39, "velocity": 100, "note_on_time": 25.754, "note_off_time": 26.47}, {"pitch": 72, "velocity": 100, "note_on_time": 25.754, "note_off_time": 27.187}, {"pitch": 42, "velocity": 100, "note_on_time": 26.471, "note_off_time": 27.188}, {"pitch": 76, "velocity": 100, "note_on_time": 27.187, "note_off_time": 27.906}, {"pitch": 42, "velocity": 100, "note_on_time": 27.188, "note_off_time": 27.906}, {"pitch": 39, "velocity": 100, "note_on_time": 27.906, "note_off_time": 28.623}, {"pitch": 42, "velocity": 100, "note_on_time": 28.623, "note_off_time": 29.34}, {"pitch": 74, "velocity": 100, "note_on_time": 27.906, "note_off_time": 30.056}, {"pitch": 42, "velocity": 100, "note_on_time": 29.341, "note_off_time": 30.056}, {"pitch": 39, "velocity": 100, "note_on_time": 30.057, "note_off_time": 30.77}, {"pitch": 74, "velocity": 100, "note_on_time": 30.056, "note_off_time": 31.483}, {"pitch": 42, "velocity": 100, "note_on_time": 30.77, "note_off_time": 31.483}, {"pitch": 76, "velocity": 100, "note_on_time": 31.483, "note_off_time": 32.198}, {"pitch": 42, "velocity": 100, "note_on_time": 31.484, "note_off_time": 32.198}, {"pitch": 77, "velocity": 100, "note_on_time": 32.198, "note_off_time": 32.913}, {"pitch": 39, "velocity": 100, "note_on_time": 32.198, "note_off_time": 32.913}, {"pitch": 74, "velocity": 100, "note_on_time": 32.913, "note_off_time": 33.629}, {"pitch": 42, "velocity": 100, "note_on_time": 32.913, "note_off_time": 33.629}, {"pitch": 71, "velocity": 100, "note_on_time": 33.629, "note_off_time": 34.347}, {"pitch": 42, "velocity": 100, "note_on_time": 33.63, "note_off_time": 34.347}, {"pitch": 67, "velocity": 100, "note_on_time": 34.347, "note_off_time": 35.066}, {"pitch": 39, "velocity": 100, "note_on_time": 34.347, "note_off_time": 35.066}, {"pitch": 69, "velocity": 100, "note_on_time": 35.066, "note_off_time": 35.78}, {"pitch": 42, "velocity": 100, "note_on_time": 35.066, "note_off_time": 35.78}, {"pitch": 71, "velocity": 100, "note_on_time": 35.78, "note_off_time": 36.498}, {"pitch": 42, "velocity": 100, "note_on_time": 35.78, "note_off_time": 36.498}, {"pitch": 39, "velocity": 100, "note_on_time": 36.499, "note_off_time": 37.212}, {"pitch": 72, "velocity": 100, "note_on_time": 36.498, "note_off_time": 37.931}, {"pitch": 42, "velocity": 100, "note_on_time": 37.213, "note_off_time": 37.931}, {"pitch": 42, "velocity": 100, "note_on_time": 37.932, "note_off_time": 38.649}]</notes><options name="Option List">((4, 4), [0.5, 0.25], 3, 7, &lt;NoteRangePerHand.TWO_NOTES: 3&gt;, &lt;NoteRangePerHand.ONE_NOTE: 2&gt;, False, True, True, None)</options></target_notes><trials><trial trial_no="1" timestamp="2023_05_14-12_58_10"><notes name="Played Notes">[{"pitch": 67, "velocity": 68, "note_on_time": 3.511, "note_off_time": 4.193}, {"pitch": 72, "velocity": 73, "note_on_time": 4.279, "note_off_time": 4.731}, {"pitch": 72, "velocity": 81, "note_on_time": 5.032, "note_off_time": 5.725}, {"pitch": 74, "velocity": 80, "note_on_time": 5.715, "note_off_time": 6.457}, {"pitch": 76, "velocity": 73, "note_on_time": 6.42, "note_off_time": 7.842}, {"pitch": 67, "velocity": 71, "note_on_time": 7.854, "note_off_time": 9.338}, {"pitch": 72, "velocity": 82, "note_on_time": 8.639, "note_off_time": 9.36}, {"pitch": 76, "velocity": 83, "note_on_time": 9.389, "note_off_time": 10.084}, {"pitch": 74, "velocity": 63, "note_on_time": 10.13, "note_off_time": 11.469}, {"pitch": 67, "velocity": 59, "note_on_time": 12.116, "note_off_time": 12.895}, {"pitch": 74, "velocity": 17, "note_on_time": 13.106, "note_off_time": 13.59}, {"pitch": 76, "velocity": 64, "note_on_time": 13.686, "note_off_time": 14.281}, {"pitch": 77, "velocity": 78, "note_on_time": 14.308, "note_off_time": 15.239}, {"pitch": 74, "velocity": 68, "note_on_time": 15.594, "note_off_time": 16.146}, {"pitch": 71, "velocity": 63, "note_on_time": 16.37, "note_off_time": 16.85}, {"pitch": 67, "velocity": 62, "note_on_time": 17.099, "note_off_time": 17.767}, {"pitch": 71, "velocity": 48, "note_on_time": 17.901, "note_off_time": 18.231}, {"pitch": 69, "velocity": 56, "note_on_time": 18.291, "note_off_time": 18.522}, {"pitch": 71, "velocity": 36, "note_on_time": 18.603, "note_off_time": 19.227}, {"pitch": 72, "velocity": 74, "note_on_time": 19.264, "note_off_time": 20.661}, {"pitch": 67, "velocity": 66, "note_on_time": 20.701, "note_off_time": 21.541}, {"pitch": 71, "velocity": 77, "note_on_time": 21.56, "note_off_time": 21.651}, {"pitch": 72, "velocity": 67, "note_on_time": 21.668, "note_off_time": 22.774}, {"pitch": 74, "velocity": 68, "note_on_time": 22.829, "note_off_time": 23.323}, {"pitch": 76, "velocity": 79, "note_on_time": 23.554, "note_off_time": 23.958}, {"pitch": 76, "velocity": 75, "note_on_time": 24.291, "note_off_time": 25.012}, {"pitch": 67, "velocity": 67, "note_on_time": 25.032, "note_off_time": 25.721}, {"pitch": 72, "velocity": 63, "note_on_time": 25.898, "note_off_time": 27.12}, {"pitch": 76, "velocity": 70, "note_on_time": 27.202, "note_off_time": 27.893}, {"pitch": 74, "velocity": 73, "note_on_time": 27.932, "note_off_time": 29.587}, {"pitch": 74, "velocity": 78, "note_on_time": 30.033, "note_off_time": 31.27}, {"pitch": 74, "velocity": 61, "note_on_time": 31.472, "note_off_time": 31.588}, {"pitch": 76, "velocity": 67, "note_on_time": 31.557, "note_off_time": 32.185}, {"pitch": 77, "velocity": 74, "note_on_time": 32.191, "note_off_time": 33.196}, {"pitch": 74, "velocity": 83, "note_on_time": 33.296, "note_off_time": 33.621}, {"pitch": 71, "velocity": 62, "note_on_time": 33.619, "note_off_time": 34.276}, {"pitch": 67, "velocity": 58, "note_on_time": 34.289, "note_off_time": 35.008}, {"pitch": 69, "velocity": 72, "note_on_time": 35.032, "note_off_time": 35.733}, {"pitch": 71, "velocity": 72, "note_on_time": 35.74, "note_off_time": 36.473}]</notes><guidance name="Guidance Mode">None</guidance><error name="Error value">2.4252829521100083</error></trial></trials></MIDI>